%TF.GenerationSoftware,KiCad,Pcbnew,10.0.3*%
%TF.CreationDate,2026-08-20T14:53:28-07:00*%
%TF.ProjectId,e,652e6b69-6361-4645-9f70-636258585858,1*%
%TF.SameCoordinates,Original*%
%TF.FileFunction,Copper,L2,Bot*%
%TF.FilePolarity,Positive*%
%FSLAX46Y46*%
G04 Gerber Fmt 4.6, Leading zero omitted, Abs format (unit mm)*
G04 Created by KiCad (PCBNEW 10.0.3) date 2026-08-20 14:53:28*
%MOMM*%
%LPD*%
G01*
G04 APERTURE LIST*
G04 Aperture macros list*
%AMRoundRect*
0 Rectangle with rounded corners*
0 $1 Rounding radius*
0 $2 $3 $4 $5 $6 $7 $8 $9 X,Y pos of 4 corners*
0 Add a 4 corners polygon primitive as box body*
4,1,4,$2,$3,$4,$5,$6,$7,$8,$9,$2,$3,0*
0 Add four circle primitives for the rounded corners*
1,1,$1+$1,$2,$3*
1,1,$1+$1,$4,$5*
1,1,$1+$1,$6,$7*
1,1,$1+$1,$8,$9*
0 Add four rect primitives between the rounded corners*
20,1,$1+$1,$2,$3,$4,$5,0*
20,1,$1+$1,$4,$5,$6,$7,0*
20,1,$1+$1,$6,$7,$8,$9,0*
20,1,$1+$1,$8,$9,$2,$3,0*%
G04 Aperture macros list end*
%TA.AperFunction,ComponentPad*%
%ADD10C,1.600000*%
%TD*%
%TA.AperFunction,ComponentPad*%
%ADD11C,2.000000*%
%TD*%
%TA.AperFunction,ComponentPad*%
%ADD12C,1.700000*%
%TD*%
%TA.AperFunction,ComponentPad*%
%ADD13O,2.500000X1.500000*%
%TD*%
%TA.AperFunction,ComponentPad*%
%ADD14R,2.500000X1.500000*%
%TD*%
%TA.AperFunction,ComponentPad*%
%ADD15O,3.500000X2.200000*%
%TD*%
%TA.AperFunction,ComponentPad*%
%ADD16RoundRect,0.257576X-0.592424X-0.592424X0.592424X-0.592424X0.592424X0.592424X-0.592424X0.592424X0*%
%TD*%
%TA.AperFunction,ComponentPad*%
%ADD17RoundRect,0.184783X0.665217X-0.665217X0.665217X0.665217X-0.665217X0.665217X-0.665217X-0.665217X0*%
%TD*%
%TA.AperFunction,ComponentPad*%
%ADD18C,2.500000*%
%TD*%
%TA.AperFunction,SMDPad,CuDef*%
%ADD19R,5.500000X6.000000*%
%TD*%
%TA.AperFunction,SMDPad,CuDef*%
%ADD20C,20.000000*%
%TD*%
%TA.AperFunction,ViaPad*%
%ADD21C,0.600000*%
%TD*%
%TA.AperFunction,Conductor*%
%ADD22C,0.200000*%
%TD*%
G04 APERTURE END LIST*
D10*
%TO.P,R2,1*%
%TO.N,Net-(U2-GAIN_SLOT)*%
X129000000Y-111500000D03*
%TO.P,R2,2*%
%TO.N,GND*%
X129000000Y-101340000D03*
%TD*%
D11*
%TO.P,SW2,1,1_1*%
%TO.N,GND*%
X178500000Y-111500000D03*
X178500000Y-105000000D03*
%TO.P,SW2,2,2_2*%
%TO.N,Net-(A1-RUN)*%
X183000000Y-111500000D03*
X183000000Y-105000000D03*
%TD*%
D12*
%TO.P,LS1,2,2_2*%
%TO.N,Net-(U2-OUTN)*%
X107315000Y-111800000D03*
%TO.P,LS1,1,1_1*%
%TO.N,Net-(U2-OUTP)*%
X107215000Y-96000000D03*
%TD*%
D13*
%TO.P,SW1,3,C_3*%
%TO.N,unconnected-(SW1-C-Pad3)*%
X180190000Y-92600000D03*
%TO.P,SW1,2,B_2*%
%TO.N,+3V0*%
X180190000Y-94600000D03*
D14*
%TO.P,SW1,1,A_1*%
%TO.N,Net-(BT1-+)*%
X180190000Y-96600000D03*
D15*
%TO.P,SW1,*%
%TO.N,*%
X180190000Y-90500000D03*
X180190000Y-98700000D03*
%TD*%
D12*
%TO.P,U1,12*%
%TO.N,N/C*%
X136190000Y-79300000D03*
%TO.P,U1,11,LITE_11*%
%TO.N,Net-(A1-GPIO1)*%
X133650000Y-79300000D03*
%TO.P,U1,10,~{CCS}_10*%
%TO.N,Net-(A1-GPIO2)*%
X131110000Y-79300000D03*
%TO.P,U1,9,D/C_9*%
%TO.N,Net-(A1-GPIO3)*%
X128570000Y-79300000D03*
%TO.P,U1,8,~{RESET}_8*%
%TO.N,Net-(A1-GPIO4)*%
X126030000Y-79300000D03*
%TO.P,U1,7,~{TFT_CS}_7*%
%TO.N,Net-(A1-GPIO5)*%
X123490000Y-79300000D03*
%TO.P,U1,6,MOSI_6*%
%TO.N,Net-(A1-GPIO6)*%
X120950000Y-79300000D03*
%TO.P,U1,5,MISO_5*%
%TO.N,Net-(A1-GPIO0)*%
X118410000Y-79300000D03*
%TO.P,U1,4,SCK_4*%
%TO.N,Net-(A1-GPIO7)*%
X115870000Y-79300000D03*
%TO.P,U1,3,GND_3*%
%TO.N,GND*%
X113330000Y-79300000D03*
%TO.P,U1,2,3v3_2*%
%TO.N,unconnected-(U1-3v3-Pad2)*%
X110790000Y-79300000D03*
D16*
%TO.P,U1,1,VCC_1*%
%TO.N,PICO_PWR*%
X108250000Y-79300000D03*
%TD*%
D17*
%TO.P,U2,1,LRCLK_1*%
%TO.N,Net-(A1-GPIO15)*%
X140190000Y-130300000D03*
D12*
%TO.P,U2,2,BCLK_2*%
%TO.N,Net-(A1-GPIO14)*%
X140190000Y-127760000D03*
%TO.P,U2,3,DIN_3*%
%TO.N,Net-(A1-GPIO13)*%
X140190000Y-125220000D03*
%TO.P,U2,4,GAIN_SLOT_4*%
%TO.N,Net-(U2-GAIN_SLOT)*%
X140190000Y-122680000D03*
%TO.P,U2,5,~{SD_MODE}_5*%
%TO.N,unconnected-(U2-~{SD_MODE}-Pad5)*%
X140190000Y-120140000D03*
%TO.P,U2,6,GND_6*%
%TO.N,GND*%
X140190000Y-117600000D03*
%TO.P,U2,7,VDD_7*%
%TO.N,PICO_PWR*%
X140190000Y-115060000D03*
D18*
%TO.P,U2,8,OUTP_8*%
%TO.N,Net-(U2-OUTP)*%
X127770000Y-120880000D03*
%TO.P,U2,9,OUTN_9*%
%TO.N,Net-(U2-OUTN)*%
X127670000Y-124480000D03*
%TD*%
D19*
%TO.P,BT1,1,+_1*%
%TO.N,Net-(BT1-+)*%
X148190000Y-113100000D03*
X148190000Y-82500000D03*
D20*
%TO.P,BT1,2,-_2*%
%TO.N,GND*%
X148190000Y-97800000D03*
%TD*%
D21*
%TO.N,GND*%
X124690000Y-103800000D03*
X176690000Y-86300000D03*
X111190000Y-87300000D03*
X152190000Y-129800000D03*
X110190000Y-124300000D03*
X183190000Y-102800000D03*
X128190000Y-86800000D03*
X166190000Y-84300000D03*
X143690000Y-112300000D03*
X180500000Y-129300000D03*
X111190000Y-107800000D03*
X120690000Y-119800000D03*
X165190000Y-111800000D03*
X177190000Y-114300000D03*
%TO.N,Net-(BT1-+)*%
X176190000Y-97800000D03*
%TD*%
%TO.N,Net-(BT1-+)*%
D22*
X176190000Y-97800000D02*
X167190000Y-97800000D01*
X148190000Y-113100000D02*
X158490000Y-102800000D01*
X167190000Y-97800000D02*
X151890000Y-113100000D01*
X158490000Y-92800000D02*
X148190000Y-82500000D01*
X158490000Y-102800000D02*
X158490000Y-92800000D01*
X151890000Y-113100000D02*
X148190000Y-113100000D01*
%TD*%
%TA.AperFunction,Conductor*%
%TO.N,GND*%
G36*
X159634590Y-74820185D02*
G01*
X159680345Y-74872989D01*
X159690289Y-74942147D01*
X159661264Y-75005703D01*
X159605870Y-75042430D01*
X159556588Y-75058443D01*
X159556585Y-75058444D01*
X159367179Y-75154951D01*
X159195213Y-75279890D01*
X159044890Y-75430213D01*
X158919951Y-75602179D01*
X158823444Y-75791585D01*
X158757753Y-75993760D01*
X158724500Y-76203713D01*
X158724500Y-76416286D01*
X158757753Y-76626239D01*
X158823444Y-76828414D01*
X158919951Y-77017820D01*
X159044890Y-77189786D01*
X159195213Y-77340109D01*
X159367179Y-77465048D01*
X159367181Y-77465049D01*
X159367184Y-77465051D01*
X159556588Y-77561557D01*
X159758757Y-77627246D01*
X159968713Y-77660500D01*
X159968714Y-77660500D01*
X160181286Y-77660500D01*
X160181287Y-77660500D01*
X160391243Y-77627246D01*
X160593412Y-77561557D01*
X160782816Y-77465051D01*
X160804789Y-77449086D01*
X160954786Y-77340109D01*
X160954788Y-77340106D01*
X160954792Y-77340104D01*
X161105104Y-77189792D01*
X161105106Y-77189788D01*
X161105109Y-77189786D01*
X161230048Y-77017820D01*
X161230047Y-77017820D01*
X161230051Y-77017816D01*
X161326557Y-76828412D01*
X161392246Y-76626243D01*
X161425500Y-76416287D01*
X161425500Y-76203713D01*
X161392246Y-75993757D01*
X161326557Y-75791588D01*
X161230051Y-75602184D01*
X161230049Y-75602181D01*
X161230048Y-75602179D01*
X161105109Y-75430213D01*
X160954786Y-75279890D01*
X160782820Y-75154951D01*
X160593414Y-75058444D01*
X160593413Y-75058443D01*
X160593412Y-75058443D01*
X160544129Y-75042430D01*
X160486456Y-75002994D01*
X160459257Y-74938635D01*
X160471172Y-74869789D01*
X160518416Y-74818313D01*
X160582449Y-74800500D01*
X165017551Y-74800500D01*
X165084590Y-74820185D01*
X165130345Y-74872989D01*
X165140289Y-74942147D01*
X165111264Y-75005703D01*
X165055870Y-75042430D01*
X165006588Y-75058443D01*
X165006585Y-75058444D01*
X164817179Y-75154951D01*
X164645213Y-75279890D01*
X164494890Y-75430213D01*
X164369951Y-75602179D01*
X164273444Y-75791585D01*
X164207753Y-75993760D01*
X164174500Y-76203713D01*
X164174500Y-76416286D01*
X164207753Y-76626239D01*
X164273444Y-76828414D01*
X164369951Y-77017820D01*
X164494890Y-77189786D01*
X164645213Y-77340109D01*
X164817179Y-77465048D01*
X164817181Y-77465049D01*
X164817184Y-77465051D01*
X165006588Y-77561557D01*
X165208757Y-77627246D01*
X165418713Y-77660500D01*
X165418714Y-77660500D01*
X165631286Y-77660500D01*
X165631287Y-77660500D01*
X165841243Y-77627246D01*
X166043412Y-77561557D01*
X166232816Y-77465051D01*
X166254789Y-77449086D01*
X166404786Y-77340109D01*
X166404788Y-77340106D01*
X166404792Y-77340104D01*
X166555104Y-77189792D01*
X166555106Y-77189788D01*
X166555109Y-77189786D01*
X166680048Y-77017820D01*
X166680047Y-77017820D01*
X166680051Y-77017816D01*
X166776557Y-76828412D01*
X166842246Y-76626243D01*
X166875500Y-76416287D01*
X166875500Y-76203713D01*
X166842246Y-75993757D01*
X166776557Y-75791588D01*
X166680051Y-75602184D01*
X166680049Y-75602181D01*
X166680048Y-75602179D01*
X166555109Y-75430213D01*
X166404786Y-75279890D01*
X166232820Y-75154951D01*
X166043414Y-75058444D01*
X166043413Y-75058443D01*
X166043412Y-75058443D01*
X165994129Y-75042430D01*
X165936456Y-75002994D01*
X165909257Y-74938635D01*
X165921172Y-74869789D01*
X165968416Y-74818313D01*
X166032449Y-74800500D01*
X184875500Y-74800500D01*
X184942539Y-74820185D01*
X184988294Y-74872989D01*
X184999500Y-74924500D01*
X184999500Y-132175500D01*
X184979815Y-132242539D01*
X184927011Y-132288294D01*
X184875500Y-132299500D01*
X105314500Y-132299500D01*
X105247461Y-132279815D01*
X105201706Y-132227011D01*
X105190500Y-132175500D01*
X105190500Y-124365258D01*
X125919500Y-124365258D01*
X125919500Y-124594741D01*
X125944446Y-124784215D01*
X125949452Y-124822238D01*
X125949453Y-124822240D01*
X126008842Y-125043887D01*
X126096650Y-125255876D01*
X126096657Y-125255890D01*
X126211392Y-125454617D01*
X126351081Y-125636661D01*
X126351089Y-125636670D01*
X126513330Y-125798911D01*
X126513338Y-125798918D01*
X126695382Y-125938607D01*
X126695385Y-125938608D01*
X126695388Y-125938611D01*
X126894112Y-126053344D01*
X126894117Y-126053346D01*
X126894123Y-126053349D01*
X126985480Y-126091190D01*
X127106113Y-126141158D01*
X127327762Y-126200548D01*
X127555266Y-126230500D01*
X127555273Y-126230500D01*
X127784727Y-126230500D01*
X127784734Y-126230500D01*
X128012238Y-126200548D01*
X128233887Y-126141158D01*
X128445888Y-126053344D01*
X128644612Y-125938611D01*
X128826661Y-125798919D01*
X128826665Y-125798914D01*
X128826670Y-125798911D01*
X128988911Y-125636670D01*
X128988914Y-125636665D01*
X128988919Y-125636661D01*
X129128611Y-125454612D01*
X129243344Y-125255888D01*
X129331158Y-125043887D01*
X129390548Y-124822238D01*
X129420500Y-124594734D01*
X129420500Y-124365266D01*
X129390548Y-124137762D01*
X129331158Y-123916113D01*
X129243344Y-123704112D01*
X129128611Y-123505388D01*
X129128608Y-123505385D01*
X129128607Y-123505382D01*
X128988918Y-123323338D01*
X128988911Y-123323330D01*
X128826670Y-123161089D01*
X128826661Y-123161081D01*
X128644617Y-123021392D01*
X128445890Y-122906657D01*
X128445876Y-122906650D01*
X128233889Y-122818843D01*
X128233890Y-122818843D01*
X128233887Y-122818842D01*
X128212722Y-122813171D01*
X128153064Y-122776807D01*
X128122535Y-122713960D01*
X128130830Y-122644584D01*
X128175315Y-122590706D01*
X128212720Y-122573624D01*
X128333887Y-122541158D01*
X128545888Y-122453344D01*
X128744612Y-122338611D01*
X128926661Y-122198919D01*
X128926665Y-122198914D01*
X128926670Y-122198911D01*
X129088911Y-122036670D01*
X129088914Y-122036665D01*
X129088919Y-122036661D01*
X129228611Y-121854612D01*
X129343344Y-121655888D01*
X129431158Y-121443887D01*
X129490548Y-121222238D01*
X129520500Y-120994734D01*
X129520500Y-120765266D01*
X129490548Y-120537762D01*
X129431158Y-120316113D01*
X129343344Y-120104112D01*
X129228611Y-119905388D01*
X129228608Y-119905385D01*
X129228607Y-119905382D01*
X129088918Y-119723338D01*
X129088911Y-119723330D01*
X128926670Y-119561089D01*
X128926661Y-119561081D01*
X128744617Y-119421392D01*
X128545890Y-119306657D01*
X128545876Y-119306650D01*
X128333887Y-119218842D01*
X128112238Y-119159452D01*
X128074215Y-119154446D01*
X127884741Y-119129500D01*
X127884734Y-119129500D01*
X127655266Y-119129500D01*
X127655258Y-119129500D01*
X127438715Y-119158009D01*
X127427762Y-119159452D01*
X127334076Y-119184554D01*
X127206112Y-119218842D01*
X126994123Y-119306650D01*
X126994109Y-119306657D01*
X126795382Y-119421392D01*
X126613338Y-119561081D01*
X126451081Y-119723338D01*
X126311392Y-119905382D01*
X126196657Y-120104109D01*
X126196650Y-120104123D01*
X126108842Y-120316112D01*
X126049453Y-120537759D01*
X126049451Y-120537770D01*
X126019500Y-120765258D01*
X126019500Y-120994741D01*
X126042588Y-121170104D01*
X126049452Y-121222238D01*
X126080619Y-121338556D01*
X126108842Y-121443887D01*
X126196650Y-121655876D01*
X126196657Y-121655890D01*
X126311392Y-121854617D01*
X126451081Y-122036661D01*
X126451089Y-122036670D01*
X126613330Y-122198911D01*
X126613338Y-122198918D01*
X126795382Y-122338607D01*
X126795385Y-122338608D01*
X126795388Y-122338611D01*
X126994112Y-122453344D01*
X126994117Y-122453346D01*
X126994123Y-122453349D01*
X127072429Y-122485784D01*
X127206113Y-122541158D01*
X127227274Y-122546828D01*
X127286933Y-122583190D01*
X127317464Y-122646036D01*
X127309171Y-122715412D01*
X127264687Y-122769291D01*
X127227274Y-122786377D01*
X127106113Y-122818842D01*
X127106111Y-122818842D01*
X127106110Y-122818843D01*
X126894123Y-122906650D01*
X126894109Y-122906657D01*
X126695382Y-123021392D01*
X126513338Y-123161081D01*
X126351081Y-123323338D01*
X126211392Y-123505382D01*
X126096657Y-123704109D01*
X126096650Y-123704123D01*
X126008842Y-123916112D01*
X125949453Y-124137759D01*
X125949451Y-124137770D01*
X125919500Y-124365258D01*
X105190500Y-124365258D01*
X105190500Y-114953713D01*
X138839500Y-114953713D01*
X138839500Y-115166286D01*
X138872753Y-115376239D01*
X138938444Y-115578414D01*
X139034951Y-115767820D01*
X139159890Y-115939786D01*
X139310213Y-116090109D01*
X139482179Y-116215048D01*
X139482181Y-116215049D01*
X139482184Y-116215051D01*
X139491493Y-116219794D01*
X139542290Y-116267766D01*
X139559087Y-116335587D01*
X139536552Y-116401722D01*
X139491505Y-116440760D01*
X139482446Y-116445376D01*
X139482440Y-116445380D01*
X139428282Y-116484727D01*
X139428282Y-116484728D01*
X140060591Y-117117037D01*
X139997007Y-117134075D01*
X139882993Y-117199901D01*
X139789901Y-117292993D01*
X139724075Y-117407007D01*
X139707037Y-117470591D01*
X139074728Y-116838282D01*
X139074727Y-116838282D01*
X139035380Y-116892439D01*
X138938904Y-117081782D01*
X138873242Y-117283869D01*
X138873242Y-117283872D01*
X138840000Y-117493753D01*
X138840000Y-117706246D01*
X138873242Y-117916127D01*
X138873242Y-117916130D01*
X138938904Y-118118217D01*
X139035375Y-118307550D01*
X139074728Y-118361716D01*
X139707037Y-117729408D01*
X139724075Y-117792993D01*
X139789901Y-117907007D01*
X139882993Y-118000099D01*
X139997007Y-118065925D01*
X140060590Y-118082962D01*
X139428282Y-118715269D01*
X139428282Y-118715270D01*
X139482452Y-118754626D01*
X139482451Y-118754626D01*
X139491495Y-118759234D01*
X139542292Y-118807208D01*
X139559087Y-118875029D01*
X139536550Y-118941164D01*
X139491499Y-118980202D01*
X139482182Y-118984949D01*
X139310213Y-119109890D01*
X139159890Y-119260213D01*
X139034951Y-119432179D01*
X138938444Y-119621585D01*
X138872753Y-119823760D01*
X138859825Y-119905388D01*
X138839500Y-120033713D01*
X138839500Y-120246287D01*
X138872754Y-120456243D01*
X138899241Y-120537762D01*
X138938444Y-120658414D01*
X139034951Y-120847820D01*
X139159890Y-121019786D01*
X139310213Y-121170109D01*
X139482182Y-121295050D01*
X139490946Y-121299516D01*
X139541742Y-121347491D01*
X139558536Y-121415312D01*
X139535998Y-121481447D01*
X139490946Y-121520484D01*
X139482182Y-121524949D01*
X139310213Y-121649890D01*
X139159890Y-121800213D01*
X139034951Y-121972179D01*
X138938444Y-122161585D01*
X138872753Y-122363760D01*
X138839514Y-122573622D01*
X138839500Y-122573713D01*
X138839500Y-122786287D01*
X138872754Y-122996243D01*
X138926313Y-123161081D01*
X138938444Y-123198414D01*
X139034951Y-123387820D01*
X139159890Y-123559786D01*
X139310213Y-123710109D01*
X139482182Y-123835050D01*
X139490946Y-123839516D01*
X139541742Y-123887491D01*
X139558536Y-123955312D01*
X139535998Y-124021447D01*
X139490946Y-124060484D01*
X139482182Y-124064949D01*
X139310213Y-124189890D01*
X139159890Y-124340213D01*
X139034951Y-124512179D01*
X138938444Y-124701585D01*
X138872753Y-124903760D01*
X138839500Y-125113713D01*
X138839500Y-125326286D01*
X138872753Y-125536239D01*
X138938444Y-125738414D01*
X139034951Y-125927820D01*
X139159890Y-126099786D01*
X139310213Y-126250109D01*
X139482182Y-126375050D01*
X139490946Y-126379516D01*
X139541742Y-126427491D01*
X139558536Y-126495312D01*
X139535998Y-126561447D01*
X139490946Y-126600484D01*
X139482182Y-126604949D01*
X139310213Y-126729890D01*
X139159890Y-126880213D01*
X139034951Y-127052179D01*
X138938444Y-127241585D01*
X138872753Y-127443760D01*
X138839500Y-127653713D01*
X138839500Y-127866286D01*
X138872753Y-128076239D01*
X138938444Y-128278414D01*
X139034951Y-128467820D01*
X139159890Y-128639786D01*
X139312891Y-128792787D01*
X139346376Y-128854110D01*
X139341392Y-128923802D01*
X139299520Y-128979735D01*
X139262104Y-128998852D01*
X139241474Y-129005281D01*
X139241470Y-129005282D01*
X139099048Y-129091380D01*
X138981380Y-129209048D01*
X138895282Y-129351470D01*
X138895281Y-129351473D01*
X138845774Y-129510348D01*
X138839500Y-129579397D01*
X138839500Y-131020612D01*
X138845772Y-131089645D01*
X138845773Y-131089649D01*
X138895281Y-131248526D01*
X138895282Y-131248529D01*
X138981380Y-131390951D01*
X139099048Y-131508619D01*
X139099050Y-131508620D01*
X139099052Y-131508622D01*
X139241468Y-131594716D01*
X139241470Y-131594717D01*
X139241473Y-131594718D01*
X139303589Y-131614074D01*
X139400350Y-131644226D01*
X139469395Y-131650500D01*
X140910604Y-131650499D01*
X140910611Y-131650499D01*
X140979645Y-131644227D01*
X140979648Y-131644226D01*
X140979650Y-131644226D01*
X141138532Y-131594716D01*
X141280948Y-131508622D01*
X141398622Y-131390948D01*
X141484716Y-131248532D01*
X141534226Y-131089650D01*
X141540500Y-131020605D01*
X141540499Y-129579396D01*
X141540499Y-129579395D01*
X141540499Y-129579387D01*
X141534227Y-129510354D01*
X141534226Y-129510350D01*
X141484718Y-129351473D01*
X141484717Y-129351470D01*
X141484716Y-129351468D01*
X141398622Y-129209052D01*
X141398620Y-129209050D01*
X141398619Y-129209048D01*
X141280951Y-129091380D01*
X141138530Y-129005283D01*
X141117896Y-128998853D01*
X141059749Y-128960113D01*
X141031777Y-128896087D01*
X141042860Y-128827102D01*
X141067108Y-128792786D01*
X141069784Y-128790109D01*
X141069792Y-128790104D01*
X141220104Y-128639792D01*
X141345051Y-128467816D01*
X141441557Y-128278412D01*
X141507246Y-128076243D01*
X141540500Y-127866287D01*
X141540500Y-127653713D01*
X141507246Y-127443757D01*
X141441557Y-127241588D01*
X141345051Y-127052184D01*
X141345049Y-127052181D01*
X141345048Y-127052179D01*
X141220109Y-126880213D01*
X141069786Y-126729890D01*
X140897820Y-126604951D01*
X140897115Y-126604591D01*
X140889054Y-126600485D01*
X140838259Y-126552512D01*
X140821463Y-126484692D01*
X140843999Y-126418556D01*
X140889054Y-126379515D01*
X140897816Y-126375051D01*
X140987352Y-126310000D01*
X141069786Y-126250109D01*
X141069788Y-126250106D01*
X141069792Y-126250104D01*
X141220104Y-126099792D01*
X141220106Y-126099788D01*
X141220109Y-126099786D01*
X141345048Y-125927820D01*
X141345047Y-125927820D01*
X141345051Y-125927816D01*
X141441557Y-125738412D01*
X141507246Y-125536243D01*
X141540500Y-125326287D01*
X141540500Y-125113713D01*
X141507246Y-124903757D01*
X141441557Y-124701588D01*
X141345051Y-124512184D01*
X141345049Y-124512181D01*
X141345048Y-124512179D01*
X141220109Y-124340213D01*
X141069786Y-124189890D01*
X140897820Y-124064951D01*
X140897115Y-124064591D01*
X140889054Y-124060485D01*
X140838259Y-124012512D01*
X140821463Y-123944692D01*
X140843999Y-123878556D01*
X140889054Y-123839515D01*
X140897816Y-123835051D01*
X140919789Y-123819086D01*
X141069786Y-123710109D01*
X141069788Y-123710106D01*
X141069792Y-123710104D01*
X141220104Y-123559792D01*
X141220106Y-123559788D01*
X141220109Y-123559786D01*
X141345048Y-123387820D01*
X141345047Y-123387820D01*
X141345051Y-123387816D01*
X141441557Y-123198412D01*
X141507246Y-122996243D01*
X141540500Y-122786287D01*
X141540500Y-122573713D01*
X141507246Y-122363757D01*
X141441557Y-122161588D01*
X141345051Y-121972184D01*
X141345049Y-121972181D01*
X141345048Y-121972179D01*
X141220109Y-121800213D01*
X141069791Y-121649895D01*
X155700000Y-121649895D01*
X160352057Y-125262663D01*
X160392931Y-125319327D01*
X160400000Y-125360597D01*
X160400000Y-126310000D01*
X165200000Y-126310000D01*
X165200000Y-125360597D01*
X165219685Y-125293558D01*
X165247941Y-125262664D01*
X169900000Y-121649895D01*
X169900000Y-117310000D01*
X155700000Y-117310000D01*
X155700000Y-121649895D01*
X141069791Y-121649895D01*
X141069786Y-121649890D01*
X140897820Y-121524951D01*
X140897115Y-121524591D01*
X140889054Y-121520485D01*
X140838259Y-121472512D01*
X140821463Y-121404692D01*
X140843999Y-121338556D01*
X140889054Y-121299515D01*
X140897816Y-121295051D01*
X140919789Y-121279086D01*
X141069786Y-121170109D01*
X141069788Y-121170106D01*
X141069792Y-121170104D01*
X141220104Y-121019792D01*
X141220106Y-121019788D01*
X141220109Y-121019786D01*
X141345048Y-120847820D01*
X141345047Y-120847820D01*
X141345051Y-120847816D01*
X141441557Y-120658412D01*
X141507246Y-120456243D01*
X141540500Y-120246287D01*
X141540500Y-120033713D01*
X141507246Y-119823757D01*
X141441557Y-119621588D01*
X141345051Y-119432184D01*
X141345049Y-119432181D01*
X141345048Y-119432179D01*
X141220109Y-119260213D01*
X141069786Y-119109890D01*
X140897817Y-118984949D01*
X140888504Y-118980204D01*
X140837707Y-118932230D01*
X140820912Y-118864409D01*
X140843449Y-118798274D01*
X140888507Y-118759232D01*
X140897555Y-118754622D01*
X140951716Y-118715270D01*
X140951717Y-118715270D01*
X140319408Y-118082962D01*
X140382993Y-118065925D01*
X140497007Y-118000099D01*
X140590099Y-117907007D01*
X140655925Y-117792993D01*
X140672962Y-117729408D01*
X141305270Y-118361717D01*
X141305270Y-118361716D01*
X141344622Y-118307554D01*
X141441095Y-118118217D01*
X141506757Y-117916130D01*
X141506757Y-117916127D01*
X141540000Y-117706246D01*
X141540000Y-117493753D01*
X141506757Y-117283870D01*
X141441095Y-117081782D01*
X141344624Y-116892449D01*
X141305270Y-116838282D01*
X141305269Y-116838282D01*
X140672962Y-117470590D01*
X140655925Y-117407007D01*
X140590099Y-117292993D01*
X140497007Y-117199901D01*
X140382993Y-117134075D01*
X140319409Y-117117037D01*
X140951716Y-116484728D01*
X140897547Y-116445373D01*
X140897547Y-116445372D01*
X140888500Y-116440763D01*
X140837706Y-116392788D01*
X140820912Y-116324966D01*
X140843451Y-116258832D01*
X140888508Y-116219793D01*
X140897816Y-116215051D01*
X140977007Y-116157515D01*
X141069786Y-116090109D01*
X141069788Y-116090106D01*
X141069792Y-116090104D01*
X141220104Y-115939792D01*
X141220106Y-115939788D01*
X141220109Y-115939786D01*
X141345048Y-115767820D01*
X141345047Y-115767820D01*
X141345051Y-115767816D01*
X141441557Y-115578412D01*
X141507246Y-115376243D01*
X141540500Y-115166287D01*
X141540500Y-114953713D01*
X141507246Y-114743757D01*
X141441557Y-114541588D01*
X141345051Y-114352184D01*
X141345049Y-114352181D01*
X141345048Y-114352179D01*
X141220109Y-114180213D01*
X141069786Y-114029890D01*
X140897820Y-113904951D01*
X140708414Y-113808444D01*
X140708413Y-113808443D01*
X140708412Y-113808443D01*
X140506243Y-113742754D01*
X140506241Y-113742753D01*
X140506240Y-113742753D01*
X140344957Y-113717208D01*
X140296287Y-113709500D01*
X140083713Y-113709500D01*
X140035042Y-113717208D01*
X139873760Y-113742753D01*
X139873757Y-113742754D01*
X139676482Y-113806853D01*
X139671585Y-113808444D01*
X139482179Y-113904951D01*
X139310213Y-114029890D01*
X139159890Y-114180213D01*
X139034951Y-114352179D01*
X138938444Y-114541585D01*
X138872753Y-114743760D01*
X138839500Y-114953713D01*
X105190500Y-114953713D01*
X105190500Y-111693713D01*
X105964500Y-111693713D01*
X105964500Y-111906286D01*
X105991348Y-112075802D01*
X105997754Y-112116243D01*
X106053052Y-112286433D01*
X106063444Y-112318414D01*
X106159951Y-112507820D01*
X106284890Y-112679786D01*
X106435213Y-112830109D01*
X106607179Y-112955048D01*
X106607181Y-112955049D01*
X106607184Y-112955051D01*
X106796588Y-113051557D01*
X106998757Y-113117246D01*
X107208713Y-113150500D01*
X107208714Y-113150500D01*
X107421286Y-113150500D01*
X107421287Y-113150500D01*
X107631243Y-113117246D01*
X107833412Y-113051557D01*
X108022816Y-112955051D01*
X108111573Y-112890566D01*
X108194786Y-112830109D01*
X108194788Y-112830106D01*
X108194792Y-112830104D01*
X108345104Y-112679792D01*
X108345106Y-112679788D01*
X108345109Y-112679786D01*
X108470048Y-112507820D01*
X108470047Y-112507820D01*
X108470051Y-112507816D01*
X108566557Y-112318412D01*
X108632246Y-112116243D01*
X108665500Y-111906287D01*
X108665500Y-111693713D01*
X108632246Y-111483757D01*
X108604267Y-111397648D01*
X127699500Y-111397648D01*
X127699500Y-111602351D01*
X127731522Y-111804534D01*
X127794781Y-111999223D01*
X127887715Y-112181613D01*
X128008028Y-112347213D01*
X128152786Y-112491971D01*
X128284573Y-112587718D01*
X128318390Y-112612287D01*
X128434607Y-112671503D01*
X128500776Y-112705218D01*
X128500778Y-112705218D01*
X128500781Y-112705220D01*
X128554450Y-112722658D01*
X128695465Y-112768477D01*
X128786616Y-112782914D01*
X128897648Y-112800500D01*
X128897649Y-112800500D01*
X129102351Y-112800500D01*
X129102352Y-112800500D01*
X129304534Y-112768477D01*
X129499219Y-112705220D01*
X129681610Y-112612287D01*
X129825398Y-112507820D01*
X129847213Y-112491971D01*
X129847215Y-112491968D01*
X129847219Y-112491966D01*
X129991966Y-112347219D01*
X129991968Y-112347215D01*
X129991971Y-112347213D01*
X130044732Y-112274590D01*
X130112287Y-112181610D01*
X130205220Y-111999219D01*
X130268477Y-111804534D01*
X130300500Y-111602352D01*
X130300500Y-111397648D01*
X130268477Y-111195466D01*
X130253259Y-111148631D01*
X130205218Y-111000776D01*
X130164166Y-110920208D01*
X130112287Y-110818390D01*
X130104556Y-110807749D01*
X129991971Y-110652786D01*
X129847213Y-110508028D01*
X129681613Y-110387715D01*
X129681612Y-110387714D01*
X129681610Y-110387713D01*
X129618355Y-110355483D01*
X129499223Y-110294781D01*
X129304534Y-110231522D01*
X129129995Y-110203878D01*
X129102352Y-110199500D01*
X128897648Y-110199500D01*
X128873329Y-110203351D01*
X128695465Y-110231522D01*
X128500776Y-110294781D01*
X128318386Y-110387715D01*
X128152786Y-110508028D01*
X128008028Y-110652786D01*
X127887715Y-110818386D01*
X127794781Y-111000776D01*
X127731522Y-111195465D01*
X127699500Y-111397648D01*
X108604267Y-111397648D01*
X108566557Y-111281588D01*
X108470051Y-111092184D01*
X108470049Y-111092181D01*
X108470048Y-111092179D01*
X108345109Y-110920213D01*
X108194786Y-110769890D01*
X108022820Y-110644951D01*
X107833414Y-110548444D01*
X107833413Y-110548443D01*
X107833412Y-110548443D01*
X107631243Y-110482754D01*
X107631241Y-110482753D01*
X107631240Y-110482753D01*
X107469957Y-110457208D01*
X107421287Y-110449500D01*
X107208713Y-110449500D01*
X107160042Y-110457208D01*
X106998760Y-110482753D01*
X106796585Y-110548444D01*
X106607179Y-110644951D01*
X106435213Y-110769890D01*
X106284890Y-110920213D01*
X106159951Y-111092179D01*
X106063444Y-111281585D01*
X106063443Y-111281587D01*
X106063443Y-111281588D01*
X106060907Y-111289394D01*
X105997753Y-111483760D01*
X105964500Y-111693713D01*
X105190500Y-111693713D01*
X105190500Y-101237682D01*
X127700000Y-101237682D01*
X127700000Y-101442317D01*
X127732009Y-101644417D01*
X127795244Y-101839031D01*
X127888141Y-102021350D01*
X127888147Y-102021359D01*
X127920523Y-102065921D01*
X127920524Y-102065922D01*
X128600000Y-101386446D01*
X128600000Y-101392661D01*
X128627259Y-101494394D01*
X128679920Y-101585606D01*
X128754394Y-101660080D01*
X128845606Y-101712741D01*
X128947339Y-101740000D01*
X128953553Y-101740000D01*
X128274076Y-102419474D01*
X128318650Y-102451859D01*
X128500968Y-102544755D01*
X128695582Y-102607990D01*
X128897683Y-102640000D01*
X129102317Y-102640000D01*
X129304417Y-102607990D01*
X129499031Y-102544755D01*
X129681349Y-102451859D01*
X129725921Y-102419474D01*
X129046447Y-101740000D01*
X129052661Y-101740000D01*
X129154394Y-101712741D01*
X129245606Y-101660080D01*
X129320080Y-101585606D01*
X129372741Y-101494394D01*
X129400000Y-101392661D01*
X129400000Y-101386447D01*
X130079474Y-102065921D01*
X130111859Y-102021349D01*
X130204755Y-101839031D01*
X130267990Y-101644417D01*
X130300000Y-101442317D01*
X130300000Y-101237682D01*
X130267990Y-101035582D01*
X130204755Y-100840968D01*
X130111859Y-100658650D01*
X130079474Y-100614077D01*
X130079474Y-100614076D01*
X129400000Y-101293551D01*
X129400000Y-101287339D01*
X129372741Y-101185606D01*
X129320080Y-101094394D01*
X129245606Y-101019920D01*
X129154394Y-100967259D01*
X129052661Y-100940000D01*
X129046446Y-100940000D01*
X129725922Y-100260524D01*
X129725921Y-100260523D01*
X129681359Y-100228147D01*
X129681350Y-100228141D01*
X129499031Y-100135244D01*
X129304417Y-100072009D01*
X129102317Y-100040000D01*
X128897683Y-100040000D01*
X128695582Y-100072009D01*
X128500968Y-100135244D01*
X128318644Y-100228143D01*
X128274077Y-100260523D01*
X128274077Y-100260524D01*
X128953554Y-100940000D01*
X128947339Y-100940000D01*
X128845606Y-100967259D01*
X128754394Y-101019920D01*
X128679920Y-101094394D01*
X128627259Y-101185606D01*
X128600000Y-101287339D01*
X128600000Y-101293553D01*
X127920524Y-100614077D01*
X127920523Y-100614077D01*
X127888143Y-100658644D01*
X127795244Y-100840968D01*
X127732009Y-101035582D01*
X127700000Y-101237682D01*
X105190500Y-101237682D01*
X105190500Y-97482714D01*
X137690000Y-97482714D01*
X137690000Y-98117285D01*
X137728313Y-98750672D01*
X137804800Y-99380593D01*
X137919182Y-100004759D01*
X138071040Y-100620870D01*
X138071045Y-100620886D01*
X138259819Y-101226683D01*
X138484833Y-101819999D01*
X138745263Y-102398653D01*
X139040163Y-102960537D01*
X139368430Y-103503556D01*
X139368446Y-103503581D01*
X139728907Y-104025798D01*
X140120237Y-104525296D01*
X140120238Y-104525297D01*
X140541021Y-105000262D01*
X140541039Y-105000281D01*
X140588602Y-105047843D01*
X147836446Y-97800000D01*
X140588602Y-90552156D01*
X140541039Y-90599718D01*
X140541021Y-90599737D01*
X140120238Y-91074702D01*
X140120237Y-91074703D01*
X139728907Y-91574201D01*
X139368446Y-92096418D01*
X139368430Y-92096443D01*
X139040163Y-92639462D01*
X138745263Y-93201346D01*
X138484833Y-93780000D01*
X138259819Y-94373316D01*
X138071045Y-94979113D01*
X138071040Y-94979129D01*
X137919182Y-95595240D01*
X137804800Y-96219406D01*
X137728313Y-96849327D01*
X137690000Y-97482714D01*
X105190500Y-97482714D01*
X105190500Y-95893713D01*
X105864500Y-95893713D01*
X105864500Y-96106286D01*
X105897753Y-96316239D01*
X105963444Y-96518414D01*
X106059951Y-96707820D01*
X106184890Y-96879786D01*
X106335213Y-97030109D01*
X106507179Y-97155048D01*
X106507181Y-97155049D01*
X106507184Y-97155051D01*
X106696588Y-97251557D01*
X106898757Y-97317246D01*
X107108713Y-97350500D01*
X107108714Y-97350500D01*
X107321286Y-97350500D01*
X107321287Y-97350500D01*
X107531243Y-97317246D01*
X107733412Y-97251557D01*
X107922816Y-97155051D01*
X107944789Y-97139086D01*
X108094786Y-97030109D01*
X108094788Y-97030106D01*
X108094792Y-97030104D01*
X108245104Y-96879792D01*
X108245106Y-96879788D01*
X108245109Y-96879786D01*
X108370048Y-96707820D01*
X108370047Y-96707820D01*
X108370051Y-96707816D01*
X108466557Y-96518412D01*
X108532246Y-96316243D01*
X108565500Y-96106287D01*
X108565500Y-95893713D01*
X108532246Y-95683757D01*
X108466557Y-95481588D01*
X108370051Y-95292184D01*
X108370049Y-95292181D01*
X108370048Y-95292179D01*
X108245109Y-95120213D01*
X108094786Y-94969890D01*
X107922820Y-94844951D01*
X107733414Y-94748444D01*
X107733413Y-94748443D01*
X107733412Y-94748443D01*
X107531243Y-94682754D01*
X107531241Y-94682753D01*
X107531240Y-94682753D01*
X107369957Y-94657208D01*
X107321287Y-94649500D01*
X107108713Y-94649500D01*
X107060042Y-94657208D01*
X106898760Y-94682753D01*
X106696585Y-94748444D01*
X106507179Y-94844951D01*
X106335213Y-94969890D01*
X106184890Y-95120213D01*
X106059951Y-95292179D01*
X105963444Y-95481585D01*
X105897753Y-95683760D01*
X105864500Y-95893713D01*
X105190500Y-95893713D01*
X105190500Y-90198602D01*
X140942156Y-90198602D01*
X148279096Y-97535542D01*
X148312581Y-97596865D01*
X148307597Y-97666557D01*
X148279096Y-97710904D01*
X148190000Y-97800000D01*
X148279096Y-97889096D01*
X148312581Y-97950419D01*
X148307597Y-98020111D01*
X148279096Y-98064458D01*
X140942156Y-105401397D01*
X140989718Y-105448960D01*
X140989737Y-105448978D01*
X141464702Y-105869761D01*
X141464703Y-105869762D01*
X141964201Y-106261092D01*
X142486418Y-106621553D01*
X142486443Y-106621569D01*
X143029462Y-106949836D01*
X143591346Y-107244736D01*
X144170000Y-107505166D01*
X144763316Y-107730180D01*
X145369113Y-107918954D01*
X145369129Y-107918959D01*
X145985240Y-108070817D01*
X146609406Y-108185199D01*
X147239327Y-108261686D01*
X147872714Y-108299999D01*
X147872736Y-108300000D01*
X148507264Y-108300000D01*
X148507285Y-108299999D01*
X149140672Y-108261686D01*
X149770593Y-108185199D01*
X150394759Y-108070817D01*
X151010870Y-107918959D01*
X151010886Y-107918954D01*
X151616683Y-107730180D01*
X152209999Y-107505166D01*
X152788666Y-107244730D01*
X152924583Y-107173395D01*
X152993091Y-107159669D01*
X153058144Y-107185161D01*
X153099089Y-107241777D01*
X153102925Y-107311541D01*
X153069890Y-107370872D01*
X150877582Y-109563181D01*
X150816259Y-109596666D01*
X150789901Y-109599500D01*
X145392129Y-109599500D01*
X145392123Y-109599501D01*
X145332516Y-109605908D01*
X145197671Y-109656202D01*
X145197664Y-109656206D01*
X145082455Y-109742452D01*
X145082452Y-109742455D01*
X144996206Y-109857664D01*
X144996202Y-109857671D01*
X144945908Y-109992517D01*
X144939501Y-110052116D01*
X144939500Y-110052135D01*
X144939500Y-116147870D01*
X144939501Y-116147876D01*
X144945908Y-116207483D01*
X144996202Y-116342328D01*
X144996206Y-116342335D01*
X145082452Y-116457544D01*
X145082455Y-116457547D01*
X145197664Y-116543793D01*
X145197671Y-116543797D01*
X145332517Y-116594091D01*
X145332516Y-116594091D01*
X145339444Y-116594835D01*
X145392127Y-116600500D01*
X150987872Y-116600499D01*
X151047483Y-116594091D01*
X151182331Y-116543796D01*
X151297546Y-116457546D01*
X151383796Y-116342331D01*
X151434091Y-116207483D01*
X151440500Y-116147873D01*
X151440500Y-113824500D01*
X151443050Y-113815814D01*
X151441762Y-113806853D01*
X151452740Y-113782812D01*
X151460185Y-113757461D01*
X151467025Y-113751533D01*
X151470787Y-113743297D01*
X151493021Y-113729007D01*
X151512989Y-113711706D01*
X151523503Y-113709418D01*
X151529565Y-113705523D01*
X151564500Y-113700500D01*
X151803331Y-113700500D01*
X151803347Y-113700501D01*
X151810943Y-113700501D01*
X151969054Y-113700501D01*
X151969057Y-113700501D01*
X152121785Y-113659577D01*
X152171904Y-113630639D01*
X152258716Y-113580520D01*
X152370520Y-113468716D01*
X152370520Y-113468714D01*
X152380728Y-113458507D01*
X152380729Y-113458504D01*
X154457286Y-111381947D01*
X177000000Y-111381947D01*
X177000000Y-111618052D01*
X177036934Y-111851247D01*
X177109897Y-112075802D01*
X177217087Y-112286174D01*
X177277338Y-112369104D01*
X177277340Y-112369105D01*
X177976212Y-111670233D01*
X177987482Y-111712292D01*
X178059890Y-111837708D01*
X178162292Y-111940110D01*
X178287708Y-112012518D01*
X178329765Y-112023787D01*
X177630893Y-112722658D01*
X177713828Y-112782914D01*
X177924197Y-112890102D01*
X178148752Y-112963065D01*
X178148751Y-112963065D01*
X178381948Y-113000000D01*
X178618052Y-113000000D01*
X178851247Y-112963065D01*
X179075802Y-112890102D01*
X179286163Y-112782918D01*
X179286169Y-112782914D01*
X179369104Y-112722658D01*
X179369105Y-112722658D01*
X178670233Y-112023787D01*
X178712292Y-112012518D01*
X178837708Y-111940110D01*
X178940110Y-111837708D01*
X179012518Y-111712292D01*
X179023787Y-111670233D01*
X179722658Y-112369105D01*
X179722658Y-112369104D01*
X179782914Y-112286169D01*
X179782918Y-112286163D01*
X179890102Y-112075802D01*
X179963065Y-111851247D01*
X180000000Y-111618052D01*
X180000000Y-111381947D01*
X179999993Y-111381902D01*
X181499500Y-111381902D01*
X181499500Y-111618097D01*
X181536446Y-111851368D01*
X181609433Y-112075996D01*
X181716519Y-112286163D01*
X181716657Y-112286433D01*
X181855483Y-112477510D01*
X182022490Y-112644517D01*
X182213567Y-112783343D01*
X182312991Y-112834002D01*
X182424003Y-112890566D01*
X182424005Y-112890566D01*
X182424008Y-112890568D01*
X182544412Y-112929689D01*
X182648631Y-112963553D01*
X182881903Y-113000500D01*
X182881908Y-113000500D01*
X183118097Y-113000500D01*
X183351368Y-112963553D01*
X183377534Y-112955051D01*
X183575992Y-112890568D01*
X183786433Y-112783343D01*
X183977510Y-112644517D01*
X184144517Y-112477510D01*
X184283343Y-112286433D01*
X184390568Y-112075992D01*
X184463553Y-111851368D01*
X184470971Y-111804534D01*
X184500500Y-111618097D01*
X184500500Y-111381902D01*
X184463553Y-111148631D01*
X184415513Y-111000781D01*
X184390568Y-110924008D01*
X184390566Y-110924005D01*
X184390566Y-110924003D01*
X184283477Y-110713830D01*
X184283343Y-110713567D01*
X184144517Y-110522490D01*
X183977510Y-110355483D01*
X183786433Y-110216657D01*
X183575996Y-110109433D01*
X183351368Y-110036446D01*
X183118097Y-109999500D01*
X183118092Y-109999500D01*
X182881908Y-109999500D01*
X182881903Y-109999500D01*
X182648631Y-110036446D01*
X182424003Y-110109433D01*
X182213566Y-110216657D01*
X182130047Y-110277338D01*
X182022490Y-110355483D01*
X182022488Y-110355485D01*
X182022487Y-110355485D01*
X181855485Y-110522487D01*
X181855485Y-110522488D01*
X181855483Y-110522490D01*
X181795862Y-110604550D01*
X181716657Y-110713566D01*
X181609433Y-110924003D01*
X181536446Y-111148631D01*
X181499500Y-111381902D01*
X179999993Y-111381902D01*
X179963065Y-111148752D01*
X179890102Y-110924197D01*
X179782914Y-110713828D01*
X179722658Y-110630894D01*
X179722658Y-110630893D01*
X179023787Y-111329765D01*
X179012518Y-111287708D01*
X178940110Y-111162292D01*
X178837708Y-111059890D01*
X178712292Y-110987482D01*
X178670234Y-110976212D01*
X179369105Y-110277340D01*
X179369104Y-110277338D01*
X179286174Y-110217087D01*
X179075802Y-110109897D01*
X178851247Y-110036934D01*
X178851248Y-110036934D01*
X178618052Y-110000000D01*
X178381948Y-110000000D01*
X178148752Y-110036934D01*
X177924197Y-110109897D01*
X177713830Y-110217084D01*
X177630894Y-110277340D01*
X178329766Y-110976212D01*
X178287708Y-110987482D01*
X178162292Y-111059890D01*
X178059890Y-111162292D01*
X177987482Y-111287708D01*
X177976212Y-111329766D01*
X177277340Y-110630894D01*
X177217084Y-110713830D01*
X177109897Y-110924197D01*
X177036934Y-111148752D01*
X177000000Y-111381947D01*
X154457286Y-111381947D01*
X160957288Y-104881947D01*
X177000000Y-104881947D01*
X177000000Y-105118052D01*
X177036934Y-105351247D01*
X177109897Y-105575802D01*
X177217087Y-105786174D01*
X177277338Y-105869104D01*
X177277340Y-105869105D01*
X177976212Y-105170233D01*
X177987482Y-105212292D01*
X178059890Y-105337708D01*
X178162292Y-105440110D01*
X178287708Y-105512518D01*
X178329765Y-105523787D01*
X177630893Y-106222658D01*
X177713828Y-106282914D01*
X177924197Y-106390102D01*
X178148752Y-106463065D01*
X178148751Y-106463065D01*
X178381948Y-106500000D01*
X178618052Y-106500000D01*
X178851247Y-106463065D01*
X179075802Y-106390102D01*
X179286163Y-106282918D01*
X179286169Y-106282914D01*
X179369104Y-106222658D01*
X179369105Y-106222658D01*
X178670233Y-105523787D01*
X178712292Y-105512518D01*
X178837708Y-105440110D01*
X178940110Y-105337708D01*
X179012518Y-105212292D01*
X179023787Y-105170233D01*
X179722658Y-105869105D01*
X179722658Y-105869104D01*
X179782914Y-105786169D01*
X179782918Y-105786163D01*
X179890102Y-105575802D01*
X179963065Y-105351247D01*
X180000000Y-105118052D01*
X180000000Y-104881947D01*
X179999993Y-104881902D01*
X181499500Y-104881902D01*
X181499500Y-105118097D01*
X181536446Y-105351368D01*
X181609433Y-105575996D01*
X181716519Y-105786163D01*
X181716657Y-105786433D01*
X181855483Y-105977510D01*
X182022490Y-106144517D01*
X182213567Y-106283343D01*
X182312991Y-106334002D01*
X182424003Y-106390566D01*
X182424005Y-106390566D01*
X182424008Y-106390568D01*
X182544412Y-106429689D01*
X182648631Y-106463553D01*
X182881903Y-106500500D01*
X182881908Y-106500500D01*
X183118097Y-106500500D01*
X183351368Y-106463553D01*
X183352870Y-106463065D01*
X183575992Y-106390568D01*
X183786433Y-106283343D01*
X183977510Y-106144517D01*
X184144517Y-105977510D01*
X184283343Y-105786433D01*
X184390568Y-105575992D01*
X184463553Y-105351368D01*
X184465717Y-105337708D01*
X184500500Y-105118097D01*
X184500500Y-104881902D01*
X184463553Y-104648631D01*
X184390566Y-104424003D01*
X184283477Y-104213830D01*
X184283343Y-104213567D01*
X184144517Y-104022490D01*
X183977510Y-103855483D01*
X183786433Y-103716657D01*
X183575996Y-103609433D01*
X183351368Y-103536446D01*
X183118097Y-103499500D01*
X183118092Y-103499500D01*
X182881908Y-103499500D01*
X182881903Y-103499500D01*
X182648631Y-103536446D01*
X182424003Y-103609433D01*
X182213566Y-103716657D01*
X182130047Y-103777338D01*
X182022490Y-103855483D01*
X182022488Y-103855485D01*
X182022487Y-103855485D01*
X181855485Y-104022487D01*
X181855485Y-104022488D01*
X181855483Y-104022490D01*
X181853080Y-104025798D01*
X181716657Y-104213566D01*
X181609433Y-104424003D01*
X181536446Y-104648631D01*
X181499500Y-104881902D01*
X179999993Y-104881902D01*
X179963065Y-104648752D01*
X179890102Y-104424197D01*
X179782914Y-104213828D01*
X179722658Y-104130894D01*
X179722658Y-104130893D01*
X179023787Y-104829765D01*
X179012518Y-104787708D01*
X178940110Y-104662292D01*
X178837708Y-104559890D01*
X178712292Y-104487482D01*
X178670234Y-104476212D01*
X179369105Y-103777340D01*
X179369104Y-103777338D01*
X179286174Y-103717087D01*
X179075802Y-103609897D01*
X178851247Y-103536934D01*
X178851248Y-103536934D01*
X178618052Y-103500000D01*
X178381948Y-103500000D01*
X178148752Y-103536934D01*
X177924197Y-103609897D01*
X177713830Y-103717084D01*
X177630894Y-103777340D01*
X178329766Y-104476212D01*
X178287708Y-104487482D01*
X178162292Y-104559890D01*
X178059890Y-104662292D01*
X177987482Y-104787708D01*
X177976212Y-104829766D01*
X177277340Y-104130894D01*
X177217084Y-104213830D01*
X177109897Y-104424197D01*
X177036934Y-104648752D01*
X177000000Y-104881947D01*
X160957288Y-104881947D01*
X167402417Y-98436819D01*
X167463740Y-98403334D01*
X167490098Y-98400500D01*
X175610234Y-98400500D01*
X175677273Y-98420185D01*
X175679125Y-98421398D01*
X175810814Y-98509390D01*
X175810827Y-98509397D01*
X175956498Y-98569735D01*
X175956503Y-98569737D01*
X176111153Y-98600499D01*
X176111156Y-98600500D01*
X176111158Y-98600500D01*
X176268844Y-98600500D01*
X176268845Y-98600499D01*
X176423497Y-98569737D01*
X176569179Y-98509394D01*
X176700289Y-98421789D01*
X176811789Y-98310289D01*
X176899394Y-98179179D01*
X176959737Y-98033497D01*
X176990500Y-97878842D01*
X176990500Y-97721158D01*
X176990500Y-97721155D01*
X176990499Y-97721153D01*
X176977807Y-97657345D01*
X176959737Y-97566503D01*
X176914580Y-97457483D01*
X176899397Y-97420827D01*
X176899390Y-97420814D01*
X176811789Y-97289711D01*
X176811786Y-97289707D01*
X176700292Y-97178213D01*
X176700288Y-97178210D01*
X176569185Y-97090609D01*
X176569172Y-97090602D01*
X176423501Y-97030264D01*
X176423489Y-97030261D01*
X176268845Y-96999500D01*
X176268842Y-96999500D01*
X176111158Y-96999500D01*
X176111155Y-96999500D01*
X175956510Y-97030261D01*
X175956498Y-97030264D01*
X175810827Y-97090602D01*
X175810814Y-97090609D01*
X175679125Y-97178602D01*
X175612447Y-97199480D01*
X175610234Y-97199500D01*
X167276670Y-97199500D01*
X167276654Y-97199499D01*
X167269058Y-97199499D01*
X167110943Y-97199499D01*
X167034579Y-97219961D01*
X166958214Y-97240423D01*
X166958209Y-97240426D01*
X166821290Y-97319475D01*
X166821282Y-97319481D01*
X151677584Y-112463181D01*
X151650656Y-112477884D01*
X151624838Y-112494477D01*
X151618637Y-112495368D01*
X151616261Y-112496666D01*
X151589903Y-112499500D01*
X151564499Y-112499500D01*
X151497460Y-112479815D01*
X151451705Y-112427011D01*
X151440499Y-112375500D01*
X151440499Y-110750098D01*
X151460184Y-110683059D01*
X151476818Y-110662417D01*
X155189399Y-106949836D01*
X158970520Y-103168716D01*
X159049577Y-103031784D01*
X159090501Y-102879057D01*
X159090501Y-102720942D01*
X159090501Y-102713347D01*
X159090500Y-102713329D01*
X159090500Y-92889060D01*
X159090501Y-92889047D01*
X159090501Y-92720944D01*
X159084465Y-92698417D01*
X159049577Y-92568216D01*
X159011107Y-92501583D01*
X158970524Y-92431290D01*
X158970518Y-92431282D01*
X156913274Y-90374038D01*
X177939500Y-90374038D01*
X177939500Y-90625961D01*
X177978910Y-90874785D01*
X178056760Y-91114383D01*
X178171132Y-91338848D01*
X178319201Y-91542649D01*
X178319205Y-91542654D01*
X178497349Y-91720798D01*
X178584752Y-91784299D01*
X178627418Y-91839628D01*
X178633397Y-91909242D01*
X178622352Y-91940911D01*
X178531118Y-92119967D01*
X178470290Y-92307173D01*
X178439500Y-92501577D01*
X178439500Y-92698422D01*
X178470290Y-92892826D01*
X178531117Y-93080029D01*
X178620476Y-93255405D01*
X178736172Y-93414646D01*
X178736174Y-93414648D01*
X178833845Y-93512319D01*
X178867330Y-93573642D01*
X178862346Y-93643334D01*
X178833845Y-93687681D01*
X178736174Y-93785351D01*
X178736174Y-93785352D01*
X178736172Y-93785354D01*
X178686485Y-93853741D01*
X178620476Y-93944594D01*
X178531117Y-94119970D01*
X178470290Y-94307173D01*
X178439500Y-94501577D01*
X178439500Y-94698422D01*
X178470290Y-94892826D01*
X178531117Y-95080029D01*
X178620472Y-95255397D01*
X178620476Y-95255405D01*
X178646781Y-95291611D01*
X178646783Y-95291613D01*
X178670263Y-95357419D01*
X178654438Y-95425473D01*
X178620777Y-95463765D01*
X178582452Y-95492455D01*
X178496206Y-95607664D01*
X178496202Y-95607671D01*
X178445908Y-95742517D01*
X178439501Y-95802116D01*
X178439501Y-95802123D01*
X178439500Y-95802135D01*
X178439500Y-97397870D01*
X178439501Y-97397876D01*
X178446669Y-97464555D01*
X178434262Y-97533314D01*
X178411061Y-97565488D01*
X178319205Y-97657345D01*
X178319201Y-97657350D01*
X178171132Y-97861151D01*
X178056760Y-98085616D01*
X177978910Y-98325214D01*
X177939500Y-98574038D01*
X177939500Y-98825961D01*
X177978910Y-99074785D01*
X178056760Y-99314383D01*
X178171132Y-99538848D01*
X178319201Y-99742649D01*
X178319205Y-99742654D01*
X178497345Y-99920794D01*
X178497350Y-99920798D01*
X178661419Y-100040000D01*
X178701155Y-100068870D01*
X178844184Y-100141747D01*
X178925616Y-100183239D01*
X178925618Y-100183239D01*
X178925621Y-100183241D01*
X179165215Y-100261090D01*
X179414038Y-100300500D01*
X179414039Y-100300500D01*
X180965961Y-100300500D01*
X180965962Y-100300500D01*
X181214785Y-100261090D01*
X181454379Y-100183241D01*
X181678845Y-100068870D01*
X181882656Y-99920793D01*
X182060793Y-99742656D01*
X182208870Y-99538845D01*
X182323241Y-99314379D01*
X182401090Y-99074785D01*
X182440500Y-98825962D01*
X182440500Y-98574038D01*
X182401090Y-98325215D01*
X182323241Y-98085621D01*
X182323239Y-98085618D01*
X182323239Y-98085616D01*
X182254352Y-97950419D01*
X182208870Y-97861155D01*
X182189952Y-97835117D01*
X182060798Y-97657350D01*
X182060794Y-97657345D01*
X181968939Y-97565490D01*
X181935454Y-97504167D01*
X181933331Y-97464554D01*
X181938032Y-97420827D01*
X181940500Y-97397873D01*
X181940499Y-95802128D01*
X181934091Y-95742517D01*
X181883796Y-95607669D01*
X181883795Y-95607668D01*
X181883793Y-95607664D01*
X181797548Y-95492456D01*
X181797546Y-95492455D01*
X181797546Y-95492454D01*
X181759220Y-95463763D01*
X181717351Y-95407829D01*
X181712368Y-95338137D01*
X181733214Y-95291616D01*
X181759524Y-95255405D01*
X181848884Y-95080025D01*
X181909709Y-94892826D01*
X181932577Y-94748443D01*
X181940500Y-94698422D01*
X181940500Y-94501577D01*
X181909709Y-94307173D01*
X181848882Y-94119970D01*
X181759523Y-93944594D01*
X181643828Y-93785354D01*
X181546155Y-93687681D01*
X181512670Y-93626358D01*
X181517654Y-93556666D01*
X181546155Y-93512319D01*
X181643828Y-93414646D01*
X181759524Y-93255405D01*
X181848884Y-93080025D01*
X181909709Y-92892826D01*
X181911890Y-92879058D01*
X181940500Y-92698422D01*
X181940500Y-92501577D01*
X181909709Y-92307173D01*
X181848882Y-92119970D01*
X181757647Y-91940912D01*
X181744751Y-91872243D01*
X181771027Y-91807502D01*
X181795248Y-91784298D01*
X181882652Y-91720796D01*
X181882652Y-91720795D01*
X181882656Y-91720793D01*
X182060793Y-91542656D01*
X182208870Y-91338845D01*
X182323241Y-91114379D01*
X182401090Y-90874785D01*
X182440500Y-90625962D01*
X182440500Y-90374038D01*
X182401090Y-90125215D01*
X182323241Y-89885621D01*
X182323239Y-89885618D01*
X182323239Y-89885616D01*
X182281747Y-89804184D01*
X182208870Y-89661155D01*
X182189952Y-89635117D01*
X182060798Y-89457350D01*
X182060794Y-89457345D01*
X181882654Y-89279205D01*
X181882649Y-89279201D01*
X181678848Y-89131132D01*
X181678847Y-89131131D01*
X181678845Y-89131130D01*
X181608747Y-89095413D01*
X181454383Y-89016760D01*
X181214785Y-88938910D01*
X180965962Y-88899500D01*
X179414038Y-88899500D01*
X179289626Y-88919205D01*
X179165214Y-88938910D01*
X178925616Y-89016760D01*
X178701151Y-89131132D01*
X178497350Y-89279201D01*
X178497345Y-89279205D01*
X178319205Y-89457345D01*
X178319201Y-89457350D01*
X178171132Y-89661151D01*
X178056760Y-89885616D01*
X177978910Y-90125214D01*
X177939500Y-90374038D01*
X156913274Y-90374038D01*
X151476818Y-84937582D01*
X151443333Y-84876259D01*
X151440499Y-84849901D01*
X151440499Y-79452129D01*
X151440498Y-79452123D01*
X151440497Y-79452116D01*
X151434091Y-79392517D01*
X151390816Y-79276492D01*
X151383798Y-79257673D01*
X151383793Y-79257664D01*
X151376174Y-79247486D01*
X159199500Y-79247486D01*
X159199500Y-79432514D01*
X159202607Y-79452128D01*
X159228445Y-79615265D01*
X159285619Y-79791232D01*
X159285620Y-79791235D01*
X159356790Y-79930912D01*
X159369622Y-79956096D01*
X159478379Y-80105787D01*
X159609213Y-80236621D01*
X159758904Y-80345378D01*
X159799006Y-80365811D01*
X159923764Y-80429379D01*
X159923767Y-80429380D01*
X160001462Y-80454624D01*
X160099736Y-80486555D01*
X160282486Y-80515500D01*
X160282487Y-80515500D01*
X160467513Y-80515500D01*
X160467514Y-80515500D01*
X160650264Y-80486555D01*
X160826235Y-80429379D01*
X160991096Y-80345378D01*
X161140787Y-80236621D01*
X161271621Y-80105787D01*
X161380378Y-79956096D01*
X161464379Y-79791235D01*
X161521555Y-79615264D01*
X161550500Y-79432514D01*
X161550500Y-79247486D01*
X164049500Y-79247486D01*
X164049500Y-79432514D01*
X164052607Y-79452128D01*
X164078445Y-79615265D01*
X164135619Y-79791232D01*
X164135620Y-79791235D01*
X164206790Y-79930912D01*
X164219622Y-79956096D01*
X164328379Y-80105787D01*
X164459213Y-80236621D01*
X164608904Y-80345378D01*
X164649006Y-80365811D01*
X164773764Y-80429379D01*
X164773767Y-80429380D01*
X164851462Y-80454624D01*
X164949736Y-80486555D01*
X165132486Y-80515500D01*
X165132487Y-80515500D01*
X165317513Y-80515500D01*
X165317514Y-80515500D01*
X165500264Y-80486555D01*
X165676235Y-80429379D01*
X165841096Y-80345378D01*
X165990787Y-80236621D01*
X166121621Y-80105787D01*
X166230378Y-79956096D01*
X166314379Y-79791235D01*
X166371555Y-79615264D01*
X166400500Y-79432514D01*
X166400500Y-79247486D01*
X166371555Y-79064736D01*
X166333121Y-78946446D01*
X166314380Y-78888767D01*
X166314379Y-78888764D01*
X166269151Y-78800000D01*
X166230378Y-78723904D01*
X166121621Y-78574213D01*
X165990787Y-78443379D01*
X165841096Y-78334622D01*
X165676235Y-78250620D01*
X165676232Y-78250619D01*
X165500265Y-78193445D01*
X165408889Y-78178972D01*
X165317514Y-78164500D01*
X165132486Y-78164500D01*
X165071569Y-78174148D01*
X164949734Y-78193445D01*
X164773767Y-78250619D01*
X164773764Y-78250620D01*
X164608903Y-78334622D01*
X164539552Y-78385009D01*
X164459213Y-78443379D01*
X164459211Y-78443381D01*
X164459210Y-78443381D01*
X164328381Y-78574210D01*
X164328381Y-78574211D01*
X164328379Y-78574213D01*
X164308555Y-78601499D01*
X164219622Y-78723903D01*
X164135620Y-78888764D01*
X164135619Y-78888767D01*
X164078445Y-79064734D01*
X164066135Y-79142455D01*
X164049500Y-79247486D01*
X161550500Y-79247486D01*
X161521555Y-79064736D01*
X161483121Y-78946446D01*
X161464380Y-78888767D01*
X161464379Y-78888764D01*
X161419151Y-78800000D01*
X161380378Y-78723904D01*
X161271621Y-78574213D01*
X161140787Y-78443379D01*
X160991096Y-78334622D01*
X160826235Y-78250620D01*
X160826232Y-78250619D01*
X160650265Y-78193445D01*
X160558889Y-78178972D01*
X160467514Y-78164500D01*
X160282486Y-78164500D01*
X160221569Y-78174148D01*
X160099734Y-78193445D01*
X159923767Y-78250619D01*
X159923764Y-78250620D01*
X159758903Y-78334622D01*
X159689552Y-78385009D01*
X159609213Y-78443379D01*
X159609211Y-78443381D01*
X159609210Y-78443381D01*
X159478381Y-78574210D01*
X159478381Y-78574211D01*
X159478379Y-78574213D01*
X159458555Y-78601499D01*
X159369622Y-78723903D01*
X159285620Y-78888764D01*
X159285619Y-78888767D01*
X159228445Y-79064734D01*
X159216135Y-79142455D01*
X159199500Y-79247486D01*
X151376174Y-79247486D01*
X151297547Y-79142455D01*
X151297544Y-79142452D01*
X151182335Y-79056206D01*
X151182328Y-79056202D01*
X151047482Y-79005908D01*
X151047483Y-79005908D01*
X150987883Y-78999501D01*
X150987881Y-78999500D01*
X150987873Y-78999500D01*
X150987864Y-78999500D01*
X145392129Y-78999500D01*
X145392123Y-78999501D01*
X145332516Y-79005908D01*
X145197671Y-79056202D01*
X145197664Y-79056206D01*
X145082455Y-79142452D01*
X145082452Y-79142455D01*
X144996206Y-79257664D01*
X144996202Y-79257671D01*
X144945908Y-79392517D01*
X144939501Y-79452116D01*
X144939501Y-79452123D01*
X144939500Y-79452135D01*
X144939500Y-85547870D01*
X144939501Y-85547876D01*
X144945908Y-85607483D01*
X144996202Y-85742328D01*
X144996206Y-85742335D01*
X145082452Y-85857544D01*
X145082455Y-85857547D01*
X145197664Y-85943793D01*
X145197671Y-85943797D01*
X145332517Y-85994091D01*
X145332516Y-85994091D01*
X145339444Y-85994835D01*
X145392127Y-86000500D01*
X150789901Y-86000499D01*
X150856940Y-86020184D01*
X150877582Y-86036818D01*
X153069892Y-88229128D01*
X153103377Y-88290451D01*
X153098393Y-88360143D01*
X153056521Y-88416076D01*
X152991057Y-88440493D01*
X152924585Y-88426606D01*
X152788653Y-88355263D01*
X152209999Y-88094833D01*
X151616683Y-87869819D01*
X151010886Y-87681045D01*
X151010870Y-87681040D01*
X150394759Y-87529182D01*
X149770593Y-87414800D01*
X149140672Y-87338313D01*
X148507285Y-87300000D01*
X147872714Y-87300000D01*
X147239327Y-87338313D01*
X146609406Y-87414800D01*
X145985240Y-87529182D01*
X145369129Y-87681040D01*
X145369113Y-87681045D01*
X144763316Y-87869819D01*
X144170000Y-88094833D01*
X143591346Y-88355263D01*
X143029462Y-88650163D01*
X142486443Y-88978430D01*
X142486418Y-88978446D01*
X141964201Y-89338907D01*
X141464703Y-89730237D01*
X141464702Y-89730238D01*
X140989737Y-90151021D01*
X140989718Y-90151039D01*
X140942156Y-90198602D01*
X105190500Y-90198602D01*
X105190500Y-78657051D01*
X106899500Y-78657051D01*
X106899500Y-79942933D01*
X106899501Y-79942949D01*
X106910107Y-80046765D01*
X106965847Y-80214979D01*
X106965852Y-80214990D01*
X107058878Y-80365807D01*
X107058881Y-80365811D01*
X107184188Y-80491118D01*
X107184192Y-80491121D01*
X107335009Y-80584147D01*
X107335012Y-80584148D01*
X107335018Y-80584152D01*
X107503236Y-80639893D01*
X107607059Y-80650500D01*
X108892940Y-80650499D01*
X108996764Y-80639893D01*
X109164982Y-80584152D01*
X109315811Y-80491119D01*
X109441119Y-80365811D01*
X109534152Y-80214982D01*
X109536867Y-80206786D01*
X109576637Y-80149343D01*
X109641152Y-80122518D01*
X109709928Y-80134832D01*
X109754890Y-80172903D01*
X109759892Y-80179788D01*
X109910213Y-80330109D01*
X110082179Y-80455048D01*
X110082181Y-80455049D01*
X110082184Y-80455051D01*
X110271588Y-80551557D01*
X110473757Y-80617246D01*
X110683713Y-80650500D01*
X110683714Y-80650500D01*
X110896286Y-80650500D01*
X110896287Y-80650500D01*
X111106243Y-80617246D01*
X111308412Y-80551557D01*
X111497816Y-80455051D01*
X111552572Y-80415269D01*
X111669786Y-80330109D01*
X111669788Y-80330106D01*
X111669792Y-80330104D01*
X111820104Y-80179792D01*
X111820106Y-80179788D01*
X111820109Y-80179786D01*
X111905890Y-80061717D01*
X111945051Y-80007816D01*
X111949793Y-79998508D01*
X111997763Y-79947711D01*
X112065583Y-79930911D01*
X112131719Y-79953445D01*
X112170763Y-79998500D01*
X112175373Y-80007547D01*
X112214728Y-80061716D01*
X112847037Y-79429408D01*
X112864075Y-79492993D01*
X112929901Y-79607007D01*
X113022993Y-79700099D01*
X113137007Y-79765925D01*
X113200590Y-79782962D01*
X112568282Y-80415269D01*
X112568282Y-80415270D01*
X112622449Y-80454624D01*
X112811782Y-80551095D01*
X113013870Y-80616757D01*
X113223754Y-80650000D01*
X113436246Y-80650000D01*
X113646127Y-80616757D01*
X113646130Y-80616757D01*
X113848217Y-80551095D01*
X114037554Y-80454622D01*
X114091716Y-80415270D01*
X114091717Y-80415270D01*
X113459408Y-79782962D01*
X113522993Y-79765925D01*
X113637007Y-79700099D01*
X113730099Y-79607007D01*
X113795925Y-79492993D01*
X113812962Y-79429408D01*
X114445270Y-80061717D01*
X114445270Y-80061716D01*
X114484622Y-80007555D01*
X114489232Y-79998507D01*
X114537205Y-79947709D01*
X114605025Y-79930912D01*
X114671161Y-79953447D01*
X114710204Y-79998504D01*
X114714949Y-80007817D01*
X114839890Y-80179786D01*
X114990213Y-80330109D01*
X115162179Y-80455048D01*
X115162181Y-80455049D01*
X115162184Y-80455051D01*
X115351588Y-80551557D01*
X115553757Y-80617246D01*
X115763713Y-80650500D01*
X115763714Y-80650500D01*
X115976286Y-80650500D01*
X115976287Y-80650500D01*
X116186243Y-80617246D01*
X116388412Y-80551557D01*
X116577816Y-80455051D01*
X116632572Y-80415269D01*
X116749786Y-80330109D01*
X116749788Y-80330106D01*
X116749792Y-80330104D01*
X116900104Y-80179792D01*
X116900106Y-80179788D01*
X116900109Y-80179786D01*
X117025048Y-80007820D01*
X117025047Y-80007820D01*
X117025051Y-80007816D01*
X117029514Y-79999054D01*
X117077488Y-79948259D01*
X117145308Y-79931463D01*
X117211444Y-79953999D01*
X117250486Y-79999056D01*
X117254951Y-80007820D01*
X117379890Y-80179786D01*
X117530213Y-80330109D01*
X117702179Y-80455048D01*
X117702181Y-80455049D01*
X117702184Y-80455051D01*
X117891588Y-80551557D01*
X118093757Y-80617246D01*
X118303713Y-80650500D01*
X118303714Y-80650500D01*
X118516286Y-80650500D01*
X118516287Y-80650500D01*
X118726243Y-80617246D01*
X118928412Y-80551557D01*
X119117816Y-80455051D01*
X119172572Y-80415269D01*
X119289786Y-80330109D01*
X119289788Y-80330106D01*
X119289792Y-80330104D01*
X119440104Y-80179792D01*
X119440106Y-80179788D01*
X119440109Y-80179786D01*
X119565048Y-80007820D01*
X119565047Y-80007820D01*
X119565051Y-80007816D01*
X119569514Y-79999054D01*
X119617488Y-79948259D01*
X119685308Y-79931463D01*
X119751444Y-79953999D01*
X119790486Y-79999056D01*
X119794951Y-80007820D01*
X119919890Y-80179786D01*
X120070213Y-80330109D01*
X120242179Y-80455048D01*
X120242181Y-80455049D01*
X120242184Y-80455051D01*
X120431588Y-80551557D01*
X120633757Y-80617246D01*
X120843713Y-80650500D01*
X120843714Y-80650500D01*
X121056286Y-80650500D01*
X121056287Y-80650500D01*
X121266243Y-80617246D01*
X121468412Y-80551557D01*
X121657816Y-80455051D01*
X121712572Y-80415269D01*
X121829786Y-80330109D01*
X121829788Y-80330106D01*
X121829792Y-80330104D01*
X121980104Y-80179792D01*
X121980106Y-80179788D01*
X121980109Y-80179786D01*
X122105048Y-80007820D01*
X122105047Y-80007820D01*
X122105051Y-80007816D01*
X122109514Y-79999054D01*
X122157488Y-79948259D01*
X122225308Y-79931463D01*
X122291444Y-79953999D01*
X122330486Y-79999056D01*
X122334951Y-80007820D01*
X122459890Y-80179786D01*
X122610213Y-80330109D01*
X122782179Y-80455048D01*
X122782181Y-80455049D01*
X122782184Y-80455051D01*
X122971588Y-80551557D01*
X123173757Y-80617246D01*
X123383713Y-80650500D01*
X123383714Y-80650500D01*
X123596286Y-80650500D01*
X123596287Y-80650500D01*
X123806243Y-80617246D01*
X124008412Y-80551557D01*
X124197816Y-80455051D01*
X124252572Y-80415269D01*
X124369786Y-80330109D01*
X124369788Y-80330106D01*
X124369792Y-80330104D01*
X124520104Y-80179792D01*
X124520106Y-80179788D01*
X124520109Y-80179786D01*
X124645048Y-80007820D01*
X124645047Y-80007820D01*
X124645051Y-80007816D01*
X124649514Y-79999054D01*
X124697488Y-79948259D01*
X124765308Y-79931463D01*
X124831444Y-79953999D01*
X124870486Y-79999056D01*
X124874951Y-80007820D01*
X124999890Y-80179786D01*
X125150213Y-80330109D01*
X125322179Y-80455048D01*
X125322181Y-80455049D01*
X125322184Y-80455051D01*
X125511588Y-80551557D01*
X125713757Y-80617246D01*
X125923713Y-80650500D01*
X125923714Y-80650500D01*
X126136286Y-80650500D01*
X126136287Y-80650500D01*
X126346243Y-80617246D01*
X126548412Y-80551557D01*
X126737816Y-80455051D01*
X126792572Y-80415269D01*
X126909786Y-80330109D01*
X126909788Y-80330106D01*
X126909792Y-80330104D01*
X127060104Y-80179792D01*
X127060106Y-80179788D01*
X127060109Y-80179786D01*
X127185048Y-80007820D01*
X127185047Y-80007820D01*
X127185051Y-80007816D01*
X127189514Y-79999054D01*
X127237488Y-79948259D01*
X127305308Y-79931463D01*
X127371444Y-79953999D01*
X127410486Y-79999056D01*
X127414951Y-80007820D01*
X127539890Y-80179786D01*
X127690213Y-80330109D01*
X127862179Y-80455048D01*
X127862181Y-80455049D01*
X127862184Y-80455051D01*
X128051588Y-80551557D01*
X128253757Y-80617246D01*
X128463713Y-80650500D01*
X128463714Y-80650500D01*
X128676286Y-80650500D01*
X128676287Y-80650500D01*
X128886243Y-80617246D01*
X129088412Y-80551557D01*
X129277816Y-80455051D01*
X129332572Y-80415269D01*
X129449786Y-80330109D01*
X129449788Y-80330106D01*
X129449792Y-80330104D01*
X129600104Y-80179792D01*
X129600106Y-80179788D01*
X129600109Y-80179786D01*
X129725048Y-80007820D01*
X129725047Y-80007820D01*
X129725051Y-80007816D01*
X129729514Y-79999054D01*
X129777488Y-79948259D01*
X129845308Y-79931463D01*
X129911444Y-79953999D01*
X129950486Y-79999056D01*
X129954951Y-80007820D01*
X130079890Y-80179786D01*
X130230213Y-80330109D01*
X130402179Y-80455048D01*
X130402181Y-80455049D01*
X130402184Y-80455051D01*
X130591588Y-80551557D01*
X130793757Y-80617246D01*
X131003713Y-80650500D01*
X131003714Y-80650500D01*
X131216286Y-80650500D01*
X131216287Y-80650500D01*
X131426243Y-80617246D01*
X131628412Y-80551557D01*
X131817816Y-80455051D01*
X131872572Y-80415269D01*
X131989786Y-80330109D01*
X131989788Y-80330106D01*
X131989792Y-80330104D01*
X132140104Y-80179792D01*
X132140106Y-80179788D01*
X132140109Y-80179786D01*
X132265048Y-80007820D01*
X132265047Y-80007820D01*
X132265051Y-80007816D01*
X132269514Y-79999054D01*
X132317488Y-79948259D01*
X132385308Y-79931463D01*
X132451444Y-79953999D01*
X132490486Y-79999056D01*
X132494951Y-80007820D01*
X132619890Y-80179786D01*
X132770213Y-80330109D01*
X132942179Y-80455048D01*
X132942181Y-80455049D01*
X132942184Y-80455051D01*
X133131588Y-80551557D01*
X133333757Y-80617246D01*
X133543713Y-80650500D01*
X133543714Y-80650500D01*
X133756286Y-80650500D01*
X133756287Y-80650500D01*
X133966243Y-80617246D01*
X134168412Y-80551557D01*
X134357816Y-80455051D01*
X134412572Y-80415269D01*
X134529786Y-80330109D01*
X134529788Y-80330106D01*
X134529792Y-80330104D01*
X134680104Y-80179792D01*
X134680106Y-80179788D01*
X134680109Y-80179786D01*
X134805048Y-80007820D01*
X134805047Y-80007820D01*
X134805051Y-80007816D01*
X134809514Y-79999054D01*
X134857488Y-79948259D01*
X134925308Y-79931463D01*
X134991444Y-79953999D01*
X135030486Y-79999056D01*
X135034951Y-80007820D01*
X135159890Y-80179786D01*
X135310213Y-80330109D01*
X135482179Y-80455048D01*
X135482181Y-80455049D01*
X135482184Y-80455051D01*
X135671588Y-80551557D01*
X135873757Y-80617246D01*
X136083713Y-80650500D01*
X136083714Y-80650500D01*
X136296286Y-80650500D01*
X136296287Y-80650500D01*
X136506243Y-80617246D01*
X136708412Y-80551557D01*
X136897816Y-80455051D01*
X136952572Y-80415269D01*
X137069786Y-80330109D01*
X137069788Y-80330106D01*
X137069792Y-80330104D01*
X137220104Y-80179792D01*
X137220106Y-80179788D01*
X137220109Y-80179786D01*
X137345048Y-80007820D01*
X137345047Y-80007820D01*
X137345051Y-80007816D01*
X137441557Y-79818412D01*
X137507246Y-79616243D01*
X137540500Y-79406287D01*
X137540500Y-79193713D01*
X137507246Y-78983757D01*
X137441557Y-78781588D01*
X137345051Y-78592184D01*
X137345049Y-78592181D01*
X137345048Y-78592179D01*
X137220109Y-78420213D01*
X137069786Y-78269890D01*
X136897820Y-78144951D01*
X136708414Y-78048444D01*
X136708413Y-78048443D01*
X136708412Y-78048443D01*
X136506243Y-77982754D01*
X136506241Y-77982753D01*
X136506240Y-77982753D01*
X136344957Y-77957208D01*
X136296287Y-77949500D01*
X136083713Y-77949500D01*
X136035042Y-77957208D01*
X135873760Y-77982753D01*
X135671585Y-78048444D01*
X135482179Y-78144951D01*
X135310213Y-78269890D01*
X135159890Y-78420213D01*
X135034949Y-78592182D01*
X135030484Y-78600946D01*
X134982509Y-78651742D01*
X134914688Y-78668536D01*
X134848553Y-78645998D01*
X134809516Y-78600946D01*
X134805050Y-78592182D01*
X134680109Y-78420213D01*
X134529786Y-78269890D01*
X134357820Y-78144951D01*
X134168414Y-78048444D01*
X134168413Y-78048443D01*
X134168412Y-78048443D01*
X133966243Y-77982754D01*
X133966241Y-77982753D01*
X133966240Y-77982753D01*
X133804957Y-77957208D01*
X133756287Y-77949500D01*
X133543713Y-77949500D01*
X133495042Y-77957208D01*
X133333760Y-77982753D01*
X133131585Y-78048444D01*
X132942179Y-78144951D01*
X132770213Y-78269890D01*
X132619890Y-78420213D01*
X132494949Y-78592182D01*
X132490484Y-78600946D01*
X132442509Y-78651742D01*
X132374688Y-78668536D01*
X132308553Y-78645998D01*
X132269516Y-78600946D01*
X132265050Y-78592182D01*
X132140109Y-78420213D01*
X131989786Y-78269890D01*
X131817820Y-78144951D01*
X131628414Y-78048444D01*
X131628413Y-78048443D01*
X131628412Y-78048443D01*
X131426243Y-77982754D01*
X131426241Y-77982753D01*
X131426240Y-77982753D01*
X131264957Y-77957208D01*
X131216287Y-77949500D01*
X131003713Y-77949500D01*
X130955042Y-77957208D01*
X130793760Y-77982753D01*
X130591585Y-78048444D01*
X130402179Y-78144951D01*
X130230213Y-78269890D01*
X130079890Y-78420213D01*
X129954949Y-78592182D01*
X129950484Y-78600946D01*
X129902509Y-78651742D01*
X129834688Y-78668536D01*
X129768553Y-78645998D01*
X129729516Y-78600946D01*
X129725050Y-78592182D01*
X129600109Y-78420213D01*
X129449786Y-78269890D01*
X129277820Y-78144951D01*
X129088414Y-78048444D01*
X129088413Y-78048443D01*
X129088412Y-78048443D01*
X128886243Y-77982754D01*
X128886241Y-77982753D01*
X128886240Y-77982753D01*
X128724957Y-77957208D01*
X128676287Y-77949500D01*
X128463713Y-77949500D01*
X128415042Y-77957208D01*
X128253760Y-77982753D01*
X128051585Y-78048444D01*
X127862179Y-78144951D01*
X127690213Y-78269890D01*
X127539890Y-78420213D01*
X127414949Y-78592182D01*
X127410484Y-78600946D01*
X127362509Y-78651742D01*
X127294688Y-78668536D01*
X127228553Y-78645998D01*
X127189516Y-78600946D01*
X127185050Y-78592182D01*
X127060109Y-78420213D01*
X126909786Y-78269890D01*
X126737820Y-78144951D01*
X126548414Y-78048444D01*
X126548413Y-78048443D01*
X126548412Y-78048443D01*
X126346243Y-77982754D01*
X126346241Y-77982753D01*
X126346240Y-77982753D01*
X126184957Y-77957208D01*
X126136287Y-77949500D01*
X125923713Y-77949500D01*
X125875042Y-77957208D01*
X125713760Y-77982753D01*
X125511585Y-78048444D01*
X125322179Y-78144951D01*
X125150213Y-78269890D01*
X124999890Y-78420213D01*
X124874949Y-78592182D01*
X124870484Y-78600946D01*
X124822509Y-78651742D01*
X124754688Y-78668536D01*
X124688553Y-78645998D01*
X124649516Y-78600946D01*
X124645050Y-78592182D01*
X124520109Y-78420213D01*
X124369786Y-78269890D01*
X124197820Y-78144951D01*
X124008414Y-78048444D01*
X124008413Y-78048443D01*
X124008412Y-78048443D01*
X123806243Y-77982754D01*
X123806241Y-77982753D01*
X123806240Y-77982753D01*
X123644957Y-77957208D01*
X123596287Y-77949500D01*
X123383713Y-77949500D01*
X123335042Y-77957208D01*
X123173760Y-77982753D01*
X122971585Y-78048444D01*
X122782179Y-78144951D01*
X122610213Y-78269890D01*
X122459890Y-78420213D01*
X122334949Y-78592182D01*
X122330484Y-78600946D01*
X122282509Y-78651742D01*
X122214688Y-78668536D01*
X122148553Y-78645998D01*
X122109516Y-78600946D01*
X122105050Y-78592182D01*
X121980109Y-78420213D01*
X121829786Y-78269890D01*
X121657820Y-78144951D01*
X121468414Y-78048444D01*
X121468413Y-78048443D01*
X121468412Y-78048443D01*
X121266243Y-77982754D01*
X121266241Y-77982753D01*
X121266240Y-77982753D01*
X121104957Y-77957208D01*
X121056287Y-77949500D01*
X120843713Y-77949500D01*
X120795042Y-77957208D01*
X120633760Y-77982753D01*
X120431585Y-78048444D01*
X120242179Y-78144951D01*
X120070213Y-78269890D01*
X119919890Y-78420213D01*
X119794949Y-78592182D01*
X119790484Y-78600946D01*
X119742509Y-78651742D01*
X119674688Y-78668536D01*
X119608553Y-78645998D01*
X119569516Y-78600946D01*
X119565050Y-78592182D01*
X119440109Y-78420213D01*
X119289786Y-78269890D01*
X119117820Y-78144951D01*
X118928414Y-78048444D01*
X118928413Y-78048443D01*
X118928412Y-78048443D01*
X118726243Y-77982754D01*
X118726241Y-77982753D01*
X118726240Y-77982753D01*
X118564957Y-77957208D01*
X118516287Y-77949500D01*
X118303713Y-77949500D01*
X118255042Y-77957208D01*
X118093760Y-77982753D01*
X117891585Y-78048444D01*
X117702179Y-78144951D01*
X117530213Y-78269890D01*
X117379890Y-78420213D01*
X117254949Y-78592182D01*
X117250484Y-78600946D01*
X117202509Y-78651742D01*
X117134688Y-78668536D01*
X117068553Y-78645998D01*
X117029516Y-78600946D01*
X117025050Y-78592182D01*
X116900109Y-78420213D01*
X116749786Y-78269890D01*
X116577820Y-78144951D01*
X116388414Y-78048444D01*
X116388413Y-78048443D01*
X116388412Y-78048443D01*
X116186243Y-77982754D01*
X116186241Y-77982753D01*
X116186240Y-77982753D01*
X116024957Y-77957208D01*
X115976287Y-77949500D01*
X115763713Y-77949500D01*
X115715042Y-77957208D01*
X115553760Y-77982753D01*
X115351585Y-78048444D01*
X115162179Y-78144951D01*
X114990213Y-78269890D01*
X114839890Y-78420213D01*
X114714949Y-78592182D01*
X114710202Y-78601499D01*
X114662227Y-78652293D01*
X114594405Y-78669087D01*
X114528271Y-78646548D01*
X114489234Y-78601495D01*
X114484626Y-78592452D01*
X114445270Y-78538282D01*
X114445269Y-78538282D01*
X113812962Y-79170590D01*
X113795925Y-79107007D01*
X113730099Y-78992993D01*
X113637007Y-78899901D01*
X113522993Y-78834075D01*
X113459409Y-78817037D01*
X114091716Y-78184728D01*
X114037550Y-78145375D01*
X113848217Y-78048904D01*
X113646129Y-77983242D01*
X113436246Y-77950000D01*
X113223754Y-77950000D01*
X113013872Y-77983242D01*
X113013869Y-77983242D01*
X112811782Y-78048904D01*
X112622439Y-78145380D01*
X112568282Y-78184727D01*
X112568282Y-78184728D01*
X113200591Y-78817037D01*
X113137007Y-78834075D01*
X113022993Y-78899901D01*
X112929901Y-78992993D01*
X112864075Y-79107007D01*
X112847037Y-79170591D01*
X112214728Y-78538282D01*
X112214727Y-78538282D01*
X112175380Y-78592440D01*
X112175376Y-78592446D01*
X112170760Y-78601505D01*
X112122781Y-78652297D01*
X112054959Y-78669087D01*
X111988826Y-78646543D01*
X111949794Y-78601493D01*
X111945051Y-78592184D01*
X111945049Y-78592181D01*
X111945048Y-78592179D01*
X111820109Y-78420213D01*
X111669786Y-78269890D01*
X111497820Y-78144951D01*
X111308414Y-78048444D01*
X111308413Y-78048443D01*
X111308412Y-78048443D01*
X111106243Y-77982754D01*
X111106241Y-77982753D01*
X111106240Y-77982753D01*
X110944957Y-77957208D01*
X110896287Y-77949500D01*
X110683713Y-77949500D01*
X110635042Y-77957208D01*
X110473760Y-77982753D01*
X110271585Y-78048444D01*
X110082179Y-78144951D01*
X109910213Y-78269890D01*
X109759894Y-78420209D01*
X109759890Y-78420214D01*
X109754887Y-78427100D01*
X109699554Y-78469763D01*
X109629940Y-78475738D01*
X109568147Y-78443128D01*
X109536867Y-78393212D01*
X109534153Y-78385022D01*
X109534152Y-78385018D01*
X109534148Y-78385012D01*
X109534147Y-78385009D01*
X109441121Y-78234192D01*
X109441118Y-78234188D01*
X109315811Y-78108881D01*
X109315807Y-78108878D01*
X109164990Y-78015852D01*
X109164984Y-78015849D01*
X109164982Y-78015848D01*
X109164979Y-78015847D01*
X108996765Y-77960107D01*
X108892942Y-77949500D01*
X107607066Y-77949500D01*
X107607050Y-77949501D01*
X107503234Y-77960107D01*
X107335020Y-78015847D01*
X107335009Y-78015852D01*
X107184192Y-78108878D01*
X107184188Y-78108881D01*
X107058881Y-78234188D01*
X107058878Y-78234192D01*
X106965852Y-78385009D01*
X106965847Y-78385020D01*
X106910107Y-78553234D01*
X106899500Y-78657051D01*
X105190500Y-78657051D01*
X105190500Y-74924500D01*
X105210185Y-74857461D01*
X105262989Y-74811706D01*
X105314500Y-74800500D01*
X159567551Y-74800500D01*
X159634590Y-74820185D01*
G37*
%TD.AperFunction*%
%TD*%
M02*
