%TF.GenerationSoftware,KiCad,Pcbnew,10.0.3*%
%TF.CreationDate,2026-08-20T13:00:50-07:00*%
%TF.ProjectId,e,652e6b69-6361-4645-9f70-636258585858,rev?*%
%TF.SameCoordinates,Original*%
%TF.FileFunction,Copper,L2,Bot*%
%TF.FilePolarity,Positive*%
%FSLAX46Y46*%
G04 Gerber Fmt 4.6, Leading zero omitted, Abs format (unit mm)*
G04 Created by KiCad (PCBNEW 10.0.3) date 2026-08-20 13:00:50*
%MOMM*%
%LPD*%
G01*
G04 APERTURE LIST*
G04 Aperture macros list*
%AMRoundRect*
0 Rectangle with rounded corners*
0 $1 Rounding radius*
0 $2 $3 $4 $5 $6 $7 $8 $9 X,Y pos of 4 corners*
0 Add a 4 corners polygon primitive as box body*
4,1,4,$2,$3,$4,$5,$6,$7,$8,$9,$2,$3,0*
0 Add four circle primitives for the rounded corners*
1,1,$1+$1,$2,$3*
1,1,$1+$1,$4,$5*
1,1,$1+$1,$6,$7*
1,1,$1+$1,$8,$9*
0 Add four rect primitives between the rounded corners*
20,1,$1+$1,$2,$3,$4,$5,0*
20,1,$1+$1,$4,$5,$6,$7,0*
20,1,$1+$1,$6,$7,$8,$9,0*
20,1,$1+$1,$8,$9,$2,$3,0*%
G04 Aperture macros list end*
%TA.AperFunction,ComponentPad*%
%ADD10O,3.500000X2.200000*%
%TD*%
%TA.AperFunction,ComponentPad*%
%ADD11R,2.500000X1.500000*%
%TD*%
%TA.AperFunction,ComponentPad*%
%ADD12O,2.500000X1.500000*%
%TD*%
%TA.AperFunction,ComponentPad*%
%ADD13RoundRect,0.184783X0.665217X-0.665217X0.665217X0.665217X-0.665217X0.665217X-0.665217X-0.665217X0*%
%TD*%
%TA.AperFunction,ComponentPad*%
%ADD14C,1.700000*%
%TD*%
%TA.AperFunction,ComponentPad*%
%ADD15C,2.500000*%
%TD*%
%TA.AperFunction,ComponentPad*%
%ADD16RoundRect,0.257576X-0.592424X-0.592424X0.592424X-0.592424X0.592424X0.592424X-0.592424X0.592424X0*%
%TD*%
%TA.AperFunction,SMDPad,CuDef*%
%ADD17R,5.500000X6.000000*%
%TD*%
%TA.AperFunction,SMDPad,CuDef*%
%ADD18C,20.000000*%
%TD*%
%TA.AperFunction,ViaPad*%
%ADD19C,0.600000*%
%TD*%
%TA.AperFunction,Conductor*%
%ADD20C,0.200000*%
%TD*%
G04 APERTURE END LIST*
D10*
%TO.P,SW1,*%
%TO.N,*%
X260000000Y-103400000D03*
X260000000Y-95200000D03*
D11*
%TO.P,SW1,1,A_1*%
%TO.N,Net-(BT1-+)*%
X260000000Y-101300000D03*
D12*
%TO.P,SW1,2,B_2*%
%TO.N,+3V0*%
X260000000Y-99300000D03*
%TO.P,SW1,3,C_3*%
%TO.N,unconnected-(SW1-C-Pad3)*%
X260000000Y-97300000D03*
%TD*%
D13*
%TO.P,U2,1,LRCLK_1*%
%TO.N,Net-(A1-GPIO15)*%
X220000000Y-135000000D03*
D14*
%TO.P,U2,2,BCLK_2*%
%TO.N,Net-(A1-GPIO14)*%
X220000000Y-132460000D03*
%TO.P,U2,3,DIN_3*%
%TO.N,Net-(A1-GPIO13)*%
X220000000Y-129920000D03*
%TO.P,U2,4,GAIN_SLOT_4*%
%TO.N,Net-(U2-GAIN_SLOT)*%
X220000000Y-127380000D03*
%TO.P,U2,5,~{SD_MODE}_5*%
%TO.N,unconnected-(U2-~{SD_MODE}-Pad5)*%
X220000000Y-124840000D03*
%TO.P,U2,6,GND_6*%
%TO.N,GND*%
X220000000Y-122300000D03*
%TO.P,U2,7,VDD_7*%
%TO.N,PICO_PWR*%
X220000000Y-119760000D03*
D15*
%TO.P,U2,8,OUTP_8*%
%TO.N,Net-(U2-OUTP)*%
X207580000Y-125580000D03*
%TO.P,U2,9,OUTN_9*%
%TO.N,Net-(U2-OUTN)*%
X207480000Y-129180000D03*
%TD*%
D14*
%TO.P,LS1,1,1_1*%
%TO.N,Net-(U2-OUTP)*%
X187025000Y-100700000D03*
%TO.P,LS1,2,2_2*%
%TO.N,Net-(U2-OUTN)*%
X187125000Y-116500000D03*
%TD*%
D16*
%TO.P,U1,1,VCC_1*%
%TO.N,PICO_PWR*%
X188060000Y-84000000D03*
D14*
%TO.P,U1,2,3v3_2*%
%TO.N,unconnected-(U1-3v3-Pad2)*%
X190600000Y-84000000D03*
%TO.P,U1,3,GND_3*%
%TO.N,GND*%
X193140000Y-84000000D03*
%TO.P,U1,4,SCK_4*%
%TO.N,Net-(A1-GPIO7)*%
X195680000Y-84000000D03*
%TO.P,U1,5,MISO_5*%
%TO.N,Net-(A1-GPIO0)*%
X198220000Y-84000000D03*
%TO.P,U1,6,MOSI_6*%
%TO.N,Net-(A1-GPIO6)*%
X200760000Y-84000000D03*
%TO.P,U1,7,~{TFT_CS}_7*%
%TO.N,Net-(A1-GPIO5)*%
X203300000Y-84000000D03*
%TO.P,U1,8,~{RESET}_8*%
%TO.N,Net-(A1-GPIO4)*%
X205840000Y-84000000D03*
%TO.P,U1,9,D/C_9*%
%TO.N,Net-(A1-GPIO3)*%
X208380000Y-84000000D03*
%TO.P,U1,10,~{CCS}_10*%
%TO.N,Net-(A1-GPIO2)*%
X210920000Y-84000000D03*
%TO.P,U1,11,LITE_11*%
%TO.N,Net-(A1-GPIO1)*%
X213460000Y-84000000D03*
%TO.P,U1,12*%
%TO.N,N/C*%
X216000000Y-84000000D03*
%TD*%
D17*
%TO.P,BT1,1,+_1*%
%TO.N,Net-(BT1-+)*%
X228000000Y-117800000D03*
X228000000Y-87200000D03*
D18*
%TO.P,BT1,2,-_2*%
%TO.N,GND*%
X228000000Y-102500000D03*
%TD*%
D19*
%TO.N,GND*%
X204500000Y-108500000D03*
X256500000Y-91000000D03*
X191000000Y-92000000D03*
X232000000Y-134500000D03*
X190000000Y-129000000D03*
X263000000Y-107500000D03*
X208000000Y-91500000D03*
X246000000Y-89000000D03*
X223500000Y-117000000D03*
X262000000Y-134000000D03*
X191000000Y-112500000D03*
X206500000Y-99000000D03*
X200500000Y-124500000D03*
X245000000Y-116500000D03*
X257000000Y-119000000D03*
%TO.N,Net-(BT1-+)*%
X256000000Y-102500000D03*
%TD*%
%TO.N,Net-(BT1-+)*%
D20*
X256000000Y-102500000D02*
X247000000Y-102500000D01*
X228000000Y-117800000D02*
X238300000Y-107500000D01*
X247000000Y-102500000D02*
X231700000Y-117800000D01*
X238300000Y-97500000D02*
X228000000Y-87200000D01*
X238300000Y-107500000D02*
X238300000Y-97500000D01*
X231700000Y-117800000D02*
X228000000Y-117800000D01*
%TD*%
%TA.AperFunction,Conductor*%
%TO.N,GND*%
G36*
X239444590Y-79520185D02*
G01*
X239490345Y-79572989D01*
X239500289Y-79642147D01*
X239471264Y-79705703D01*
X239415870Y-79742430D01*
X239366588Y-79758443D01*
X239366585Y-79758444D01*
X239177179Y-79854951D01*
X239005213Y-79979890D01*
X238854890Y-80130213D01*
X238729951Y-80302179D01*
X238633444Y-80491585D01*
X238567753Y-80693760D01*
X238534500Y-80903713D01*
X238534500Y-81116286D01*
X238567753Y-81326239D01*
X238633444Y-81528414D01*
X238729951Y-81717820D01*
X238854890Y-81889786D01*
X239005213Y-82040109D01*
X239177179Y-82165048D01*
X239177181Y-82165049D01*
X239177184Y-82165051D01*
X239366588Y-82261557D01*
X239568757Y-82327246D01*
X239778713Y-82360500D01*
X239778714Y-82360500D01*
X239991286Y-82360500D01*
X239991287Y-82360500D01*
X240201243Y-82327246D01*
X240403412Y-82261557D01*
X240592816Y-82165051D01*
X240614789Y-82149086D01*
X240764786Y-82040109D01*
X240764788Y-82040106D01*
X240764792Y-82040104D01*
X240915104Y-81889792D01*
X240915106Y-81889788D01*
X240915109Y-81889786D01*
X241040048Y-81717820D01*
X241040047Y-81717820D01*
X241040051Y-81717816D01*
X241136557Y-81528412D01*
X241202246Y-81326243D01*
X241235500Y-81116287D01*
X241235500Y-80903713D01*
X241202246Y-80693757D01*
X241136557Y-80491588D01*
X241040051Y-80302184D01*
X241040049Y-80302181D01*
X241040048Y-80302179D01*
X240915109Y-80130213D01*
X240764786Y-79979890D01*
X240592820Y-79854951D01*
X240403414Y-79758444D01*
X240403413Y-79758443D01*
X240403412Y-79758443D01*
X240354129Y-79742430D01*
X240296456Y-79702994D01*
X240269257Y-79638635D01*
X240281172Y-79569789D01*
X240328416Y-79518313D01*
X240392449Y-79500500D01*
X244827551Y-79500500D01*
X244894590Y-79520185D01*
X244940345Y-79572989D01*
X244950289Y-79642147D01*
X244921264Y-79705703D01*
X244865870Y-79742430D01*
X244816588Y-79758443D01*
X244816585Y-79758444D01*
X244627179Y-79854951D01*
X244455213Y-79979890D01*
X244304890Y-80130213D01*
X244179951Y-80302179D01*
X244083444Y-80491585D01*
X244017753Y-80693760D01*
X243984500Y-80903713D01*
X243984500Y-81116286D01*
X244017753Y-81326239D01*
X244083444Y-81528414D01*
X244179951Y-81717820D01*
X244304890Y-81889786D01*
X244455213Y-82040109D01*
X244627179Y-82165048D01*
X244627181Y-82165049D01*
X244627184Y-82165051D01*
X244816588Y-82261557D01*
X245018757Y-82327246D01*
X245228713Y-82360500D01*
X245228714Y-82360500D01*
X245441286Y-82360500D01*
X245441287Y-82360500D01*
X245651243Y-82327246D01*
X245853412Y-82261557D01*
X246042816Y-82165051D01*
X246064789Y-82149086D01*
X246214786Y-82040109D01*
X246214788Y-82040106D01*
X246214792Y-82040104D01*
X246365104Y-81889792D01*
X246365106Y-81889788D01*
X246365109Y-81889786D01*
X246490048Y-81717820D01*
X246490047Y-81717820D01*
X246490051Y-81717816D01*
X246586557Y-81528412D01*
X246652246Y-81326243D01*
X246685500Y-81116287D01*
X246685500Y-80903713D01*
X246652246Y-80693757D01*
X246586557Y-80491588D01*
X246490051Y-80302184D01*
X246490049Y-80302181D01*
X246490048Y-80302179D01*
X246365109Y-80130213D01*
X246214786Y-79979890D01*
X246042820Y-79854951D01*
X245853414Y-79758444D01*
X245853413Y-79758443D01*
X245853412Y-79758443D01*
X245804129Y-79742430D01*
X245746456Y-79702994D01*
X245719257Y-79638635D01*
X245731172Y-79569789D01*
X245778416Y-79518313D01*
X245842449Y-79500500D01*
X263875500Y-79500500D01*
X263942539Y-79520185D01*
X263988294Y-79572989D01*
X263999500Y-79624500D01*
X263999500Y-136875500D01*
X263979815Y-136942539D01*
X263927011Y-136988294D01*
X263875500Y-136999500D01*
X185124500Y-136999500D01*
X185057461Y-136979815D01*
X185011706Y-136927011D01*
X185000500Y-136875500D01*
X185000500Y-129065258D01*
X205729500Y-129065258D01*
X205729500Y-129294741D01*
X205754446Y-129484215D01*
X205759452Y-129522238D01*
X205759453Y-129522240D01*
X205818842Y-129743887D01*
X205906650Y-129955876D01*
X205906657Y-129955890D01*
X206021392Y-130154617D01*
X206161081Y-130336661D01*
X206161089Y-130336670D01*
X206323330Y-130498911D01*
X206323338Y-130498918D01*
X206505382Y-130638607D01*
X206505385Y-130638608D01*
X206505388Y-130638611D01*
X206704112Y-130753344D01*
X206704117Y-130753346D01*
X206704123Y-130753349D01*
X206795480Y-130791190D01*
X206916113Y-130841158D01*
X207137762Y-130900548D01*
X207365266Y-130930500D01*
X207365273Y-130930500D01*
X207594727Y-130930500D01*
X207594734Y-130930500D01*
X207822238Y-130900548D01*
X208043887Y-130841158D01*
X208255888Y-130753344D01*
X208454612Y-130638611D01*
X208636661Y-130498919D01*
X208636665Y-130498914D01*
X208636670Y-130498911D01*
X208798911Y-130336670D01*
X208798914Y-130336665D01*
X208798919Y-130336661D01*
X208938611Y-130154612D01*
X209053344Y-129955888D01*
X209141158Y-129743887D01*
X209200548Y-129522238D01*
X209230500Y-129294734D01*
X209230500Y-129065266D01*
X209200548Y-128837762D01*
X209141158Y-128616113D01*
X209053344Y-128404112D01*
X208938611Y-128205388D01*
X208938608Y-128205385D01*
X208938607Y-128205382D01*
X208798918Y-128023338D01*
X208798911Y-128023330D01*
X208636670Y-127861089D01*
X208636661Y-127861081D01*
X208454617Y-127721392D01*
X208255890Y-127606657D01*
X208255876Y-127606650D01*
X208043889Y-127518843D01*
X208043890Y-127518843D01*
X208043887Y-127518842D01*
X208022722Y-127513171D01*
X207963064Y-127476807D01*
X207932535Y-127413960D01*
X207940830Y-127344584D01*
X207985315Y-127290706D01*
X208022720Y-127273624D01*
X208143887Y-127241158D01*
X208355888Y-127153344D01*
X208554612Y-127038611D01*
X208736661Y-126898919D01*
X208736665Y-126898914D01*
X208736670Y-126898911D01*
X208898911Y-126736670D01*
X208898914Y-126736665D01*
X208898919Y-126736661D01*
X209038611Y-126554612D01*
X209153344Y-126355888D01*
X209241158Y-126143887D01*
X209300548Y-125922238D01*
X209330500Y-125694734D01*
X209330500Y-125465266D01*
X209300548Y-125237762D01*
X209241158Y-125016113D01*
X209153344Y-124804112D01*
X209038611Y-124605388D01*
X209038608Y-124605385D01*
X209038607Y-124605382D01*
X208898918Y-124423338D01*
X208898911Y-124423330D01*
X208736670Y-124261089D01*
X208736661Y-124261081D01*
X208554617Y-124121392D01*
X208355890Y-124006657D01*
X208355876Y-124006650D01*
X208143887Y-123918842D01*
X207922238Y-123859452D01*
X207884215Y-123854446D01*
X207694741Y-123829500D01*
X207694734Y-123829500D01*
X207465266Y-123829500D01*
X207465258Y-123829500D01*
X207248715Y-123858009D01*
X207237762Y-123859452D01*
X207144076Y-123884554D01*
X207016112Y-123918842D01*
X206804123Y-124006650D01*
X206804109Y-124006657D01*
X206605382Y-124121392D01*
X206423338Y-124261081D01*
X206261081Y-124423338D01*
X206121392Y-124605382D01*
X206006657Y-124804109D01*
X206006650Y-124804123D01*
X205918842Y-125016112D01*
X205859453Y-125237759D01*
X205859451Y-125237770D01*
X205829500Y-125465258D01*
X205829500Y-125694741D01*
X205852588Y-125870104D01*
X205859452Y-125922238D01*
X205890619Y-126038556D01*
X205918842Y-126143887D01*
X206006650Y-126355876D01*
X206006657Y-126355890D01*
X206121392Y-126554617D01*
X206261081Y-126736661D01*
X206261089Y-126736670D01*
X206423330Y-126898911D01*
X206423338Y-126898918D01*
X206605382Y-127038607D01*
X206605385Y-127038608D01*
X206605388Y-127038611D01*
X206804112Y-127153344D01*
X206804117Y-127153346D01*
X206804123Y-127153349D01*
X206882429Y-127185784D01*
X207016113Y-127241158D01*
X207037274Y-127246828D01*
X207096933Y-127283190D01*
X207127464Y-127346036D01*
X207119171Y-127415412D01*
X207074687Y-127469291D01*
X207037274Y-127486377D01*
X206916113Y-127518842D01*
X206916111Y-127518842D01*
X206916110Y-127518843D01*
X206704123Y-127606650D01*
X206704109Y-127606657D01*
X206505382Y-127721392D01*
X206323338Y-127861081D01*
X206161081Y-128023338D01*
X206021392Y-128205382D01*
X205906657Y-128404109D01*
X205906650Y-128404123D01*
X205818842Y-128616112D01*
X205759453Y-128837759D01*
X205759451Y-128837770D01*
X205729500Y-129065258D01*
X185000500Y-129065258D01*
X185000500Y-119653713D01*
X218649500Y-119653713D01*
X218649500Y-119866286D01*
X218682753Y-120076239D01*
X218748444Y-120278414D01*
X218844951Y-120467820D01*
X218969890Y-120639786D01*
X219120213Y-120790109D01*
X219292179Y-120915048D01*
X219292181Y-120915049D01*
X219292184Y-120915051D01*
X219301493Y-120919794D01*
X219352290Y-120967766D01*
X219369087Y-121035587D01*
X219346552Y-121101722D01*
X219301505Y-121140760D01*
X219292446Y-121145376D01*
X219292440Y-121145380D01*
X219238282Y-121184727D01*
X219238282Y-121184728D01*
X219870591Y-121817037D01*
X219807007Y-121834075D01*
X219692993Y-121899901D01*
X219599901Y-121992993D01*
X219534075Y-122107007D01*
X219517037Y-122170591D01*
X218884728Y-121538282D01*
X218884727Y-121538282D01*
X218845380Y-121592439D01*
X218748904Y-121781782D01*
X218683242Y-121983869D01*
X218683242Y-121983872D01*
X218650000Y-122193753D01*
X218650000Y-122406246D01*
X218683242Y-122616127D01*
X218683242Y-122616130D01*
X218748904Y-122818217D01*
X218845375Y-123007550D01*
X218884728Y-123061716D01*
X219517037Y-122429408D01*
X219534075Y-122492993D01*
X219599901Y-122607007D01*
X219692993Y-122700099D01*
X219807007Y-122765925D01*
X219870590Y-122782962D01*
X219238282Y-123415269D01*
X219238282Y-123415270D01*
X219292452Y-123454626D01*
X219292451Y-123454626D01*
X219301495Y-123459234D01*
X219352292Y-123507208D01*
X219369087Y-123575029D01*
X219346550Y-123641164D01*
X219301499Y-123680202D01*
X219292182Y-123684949D01*
X219120213Y-123809890D01*
X218969890Y-123960213D01*
X218844951Y-124132179D01*
X218748444Y-124321585D01*
X218682753Y-124523760D01*
X218669825Y-124605388D01*
X218649500Y-124733713D01*
X218649500Y-124946287D01*
X218682754Y-125156243D01*
X218709241Y-125237762D01*
X218748444Y-125358414D01*
X218844951Y-125547820D01*
X218969890Y-125719786D01*
X219120213Y-125870109D01*
X219292182Y-125995050D01*
X219300946Y-125999516D01*
X219351742Y-126047491D01*
X219368536Y-126115312D01*
X219345998Y-126181447D01*
X219300946Y-126220484D01*
X219292182Y-126224949D01*
X219120213Y-126349890D01*
X218969890Y-126500213D01*
X218844951Y-126672179D01*
X218748444Y-126861585D01*
X218682753Y-127063760D01*
X218649514Y-127273622D01*
X218649500Y-127273713D01*
X218649500Y-127486287D01*
X218682754Y-127696243D01*
X218736313Y-127861081D01*
X218748444Y-127898414D01*
X218844951Y-128087820D01*
X218969890Y-128259786D01*
X219120213Y-128410109D01*
X219292182Y-128535050D01*
X219300946Y-128539516D01*
X219351742Y-128587491D01*
X219368536Y-128655312D01*
X219345998Y-128721447D01*
X219300946Y-128760484D01*
X219292182Y-128764949D01*
X219120213Y-128889890D01*
X218969890Y-129040213D01*
X218844951Y-129212179D01*
X218748444Y-129401585D01*
X218682753Y-129603760D01*
X218649500Y-129813713D01*
X218649500Y-130026286D01*
X218682753Y-130236239D01*
X218748444Y-130438414D01*
X218844951Y-130627820D01*
X218969890Y-130799786D01*
X219120213Y-130950109D01*
X219292182Y-131075050D01*
X219300946Y-131079516D01*
X219351742Y-131127491D01*
X219368536Y-131195312D01*
X219345998Y-131261447D01*
X219300946Y-131300484D01*
X219292182Y-131304949D01*
X219120213Y-131429890D01*
X218969890Y-131580213D01*
X218844951Y-131752179D01*
X218748444Y-131941585D01*
X218682753Y-132143760D01*
X218649500Y-132353713D01*
X218649500Y-132566286D01*
X218682753Y-132776239D01*
X218748444Y-132978414D01*
X218844951Y-133167820D01*
X218969890Y-133339786D01*
X219122891Y-133492787D01*
X219156376Y-133554110D01*
X219151392Y-133623802D01*
X219109520Y-133679735D01*
X219072104Y-133698852D01*
X219051474Y-133705281D01*
X219051470Y-133705282D01*
X218909048Y-133791380D01*
X218791380Y-133909048D01*
X218705282Y-134051470D01*
X218705281Y-134051473D01*
X218655774Y-134210348D01*
X218649500Y-134279397D01*
X218649500Y-135720612D01*
X218655772Y-135789645D01*
X218655773Y-135789649D01*
X218705281Y-135948526D01*
X218705282Y-135948529D01*
X218791380Y-136090951D01*
X218909048Y-136208619D01*
X218909050Y-136208620D01*
X218909052Y-136208622D01*
X219051468Y-136294716D01*
X219051470Y-136294717D01*
X219051473Y-136294718D01*
X219113589Y-136314074D01*
X219210350Y-136344226D01*
X219279395Y-136350500D01*
X220720604Y-136350499D01*
X220720611Y-136350499D01*
X220789645Y-136344227D01*
X220789648Y-136344226D01*
X220789650Y-136344226D01*
X220948532Y-136294716D01*
X221090948Y-136208622D01*
X221208622Y-136090948D01*
X221294716Y-135948532D01*
X221344226Y-135789650D01*
X221350500Y-135720605D01*
X221350499Y-134279396D01*
X221350499Y-134279395D01*
X221350499Y-134279387D01*
X221344227Y-134210354D01*
X221344226Y-134210350D01*
X221294718Y-134051473D01*
X221294717Y-134051470D01*
X221294716Y-134051468D01*
X221208622Y-133909052D01*
X221208620Y-133909050D01*
X221208619Y-133909048D01*
X221090951Y-133791380D01*
X220948530Y-133705283D01*
X220927896Y-133698853D01*
X220869749Y-133660113D01*
X220841777Y-133596087D01*
X220852860Y-133527102D01*
X220877108Y-133492786D01*
X220879784Y-133490109D01*
X220879792Y-133490104D01*
X221030104Y-133339792D01*
X221155051Y-133167816D01*
X221251557Y-132978412D01*
X221317246Y-132776243D01*
X221350500Y-132566287D01*
X221350500Y-132353713D01*
X221317246Y-132143757D01*
X221251557Y-131941588D01*
X221155051Y-131752184D01*
X221155049Y-131752181D01*
X221155048Y-131752179D01*
X221030109Y-131580213D01*
X220879786Y-131429890D01*
X220707820Y-131304951D01*
X220707115Y-131304591D01*
X220699054Y-131300485D01*
X220648259Y-131252512D01*
X220631463Y-131184692D01*
X220653999Y-131118556D01*
X220699054Y-131079515D01*
X220707816Y-131075051D01*
X220797352Y-131010000D01*
X220879786Y-130950109D01*
X220879788Y-130950106D01*
X220879792Y-130950104D01*
X221030104Y-130799792D01*
X221030106Y-130799788D01*
X221030109Y-130799786D01*
X221155048Y-130627820D01*
X221155047Y-130627820D01*
X221155051Y-130627816D01*
X221251557Y-130438412D01*
X221317246Y-130236243D01*
X221350500Y-130026287D01*
X221350500Y-129813713D01*
X221317246Y-129603757D01*
X221251557Y-129401588D01*
X221155051Y-129212184D01*
X221155049Y-129212181D01*
X221155048Y-129212179D01*
X221030109Y-129040213D01*
X220879786Y-128889890D01*
X220707820Y-128764951D01*
X220707115Y-128764591D01*
X220699054Y-128760485D01*
X220648259Y-128712512D01*
X220631463Y-128644692D01*
X220653999Y-128578556D01*
X220699054Y-128539515D01*
X220707816Y-128535051D01*
X220729789Y-128519086D01*
X220879786Y-128410109D01*
X220879788Y-128410106D01*
X220879792Y-128410104D01*
X221030104Y-128259792D01*
X221030106Y-128259788D01*
X221030109Y-128259786D01*
X221155048Y-128087820D01*
X221155047Y-128087820D01*
X221155051Y-128087816D01*
X221251557Y-127898412D01*
X221317246Y-127696243D01*
X221350500Y-127486287D01*
X221350500Y-127273713D01*
X221317246Y-127063757D01*
X221251557Y-126861588D01*
X221155051Y-126672184D01*
X221155049Y-126672181D01*
X221155048Y-126672179D01*
X221030109Y-126500213D01*
X220879791Y-126349895D01*
X235510000Y-126349895D01*
X240162057Y-129962663D01*
X240202931Y-130019327D01*
X240210000Y-130060597D01*
X240210000Y-131010000D01*
X245010000Y-131010000D01*
X245010000Y-130060597D01*
X245029685Y-129993558D01*
X245057941Y-129962664D01*
X249710000Y-126349895D01*
X249710000Y-122010000D01*
X235510000Y-122010000D01*
X235510000Y-126349895D01*
X220879791Y-126349895D01*
X220879786Y-126349890D01*
X220707820Y-126224951D01*
X220707115Y-126224591D01*
X220699054Y-126220485D01*
X220648259Y-126172512D01*
X220631463Y-126104692D01*
X220653999Y-126038556D01*
X220699054Y-125999515D01*
X220707816Y-125995051D01*
X220729789Y-125979086D01*
X220879786Y-125870109D01*
X220879788Y-125870106D01*
X220879792Y-125870104D01*
X221030104Y-125719792D01*
X221030106Y-125719788D01*
X221030109Y-125719786D01*
X221155048Y-125547820D01*
X221155047Y-125547820D01*
X221155051Y-125547816D01*
X221251557Y-125358412D01*
X221317246Y-125156243D01*
X221350500Y-124946287D01*
X221350500Y-124733713D01*
X221317246Y-124523757D01*
X221251557Y-124321588D01*
X221155051Y-124132184D01*
X221155049Y-124132181D01*
X221155048Y-124132179D01*
X221030109Y-123960213D01*
X220879786Y-123809890D01*
X220707817Y-123684949D01*
X220698504Y-123680204D01*
X220647707Y-123632230D01*
X220630912Y-123564409D01*
X220653449Y-123498274D01*
X220698507Y-123459232D01*
X220707555Y-123454622D01*
X220761716Y-123415270D01*
X220761717Y-123415270D01*
X220129408Y-122782962D01*
X220192993Y-122765925D01*
X220307007Y-122700099D01*
X220400099Y-122607007D01*
X220465925Y-122492993D01*
X220482962Y-122429408D01*
X221115270Y-123061717D01*
X221115270Y-123061716D01*
X221154622Y-123007554D01*
X221251095Y-122818217D01*
X221316757Y-122616130D01*
X221316757Y-122616127D01*
X221350000Y-122406246D01*
X221350000Y-122193753D01*
X221316757Y-121983870D01*
X221251095Y-121781782D01*
X221154624Y-121592449D01*
X221115270Y-121538282D01*
X221115269Y-121538282D01*
X220482962Y-122170590D01*
X220465925Y-122107007D01*
X220400099Y-121992993D01*
X220307007Y-121899901D01*
X220192993Y-121834075D01*
X220129409Y-121817037D01*
X220761716Y-121184728D01*
X220707547Y-121145373D01*
X220707547Y-121145372D01*
X220698500Y-121140763D01*
X220647706Y-121092788D01*
X220630912Y-121024966D01*
X220653451Y-120958832D01*
X220698508Y-120919793D01*
X220707816Y-120915051D01*
X220787007Y-120857515D01*
X220879786Y-120790109D01*
X220879788Y-120790106D01*
X220879792Y-120790104D01*
X221030104Y-120639792D01*
X221030106Y-120639788D01*
X221030109Y-120639786D01*
X221155048Y-120467820D01*
X221155047Y-120467820D01*
X221155051Y-120467816D01*
X221251557Y-120278412D01*
X221317246Y-120076243D01*
X221350500Y-119866287D01*
X221350500Y-119653713D01*
X221317246Y-119443757D01*
X221251557Y-119241588D01*
X221155051Y-119052184D01*
X221155049Y-119052181D01*
X221155048Y-119052179D01*
X221030109Y-118880213D01*
X220879786Y-118729890D01*
X220707820Y-118604951D01*
X220518414Y-118508444D01*
X220518413Y-118508443D01*
X220518412Y-118508443D01*
X220316243Y-118442754D01*
X220316241Y-118442753D01*
X220316240Y-118442753D01*
X220154957Y-118417208D01*
X220106287Y-118409500D01*
X219893713Y-118409500D01*
X219845042Y-118417208D01*
X219683760Y-118442753D01*
X219683757Y-118442754D01*
X219486482Y-118506853D01*
X219481585Y-118508444D01*
X219292179Y-118604951D01*
X219120213Y-118729890D01*
X218969890Y-118880213D01*
X218844951Y-119052179D01*
X218748444Y-119241585D01*
X218682753Y-119443760D01*
X218649500Y-119653713D01*
X185000500Y-119653713D01*
X185000500Y-116393713D01*
X185774500Y-116393713D01*
X185774500Y-116606286D01*
X185807753Y-116816239D01*
X185873444Y-117018414D01*
X185969951Y-117207820D01*
X186094890Y-117379786D01*
X186245213Y-117530109D01*
X186417179Y-117655048D01*
X186417181Y-117655049D01*
X186417184Y-117655051D01*
X186606588Y-117751557D01*
X186808757Y-117817246D01*
X187018713Y-117850500D01*
X187018714Y-117850500D01*
X187231286Y-117850500D01*
X187231287Y-117850500D01*
X187441243Y-117817246D01*
X187643412Y-117751557D01*
X187832816Y-117655051D01*
X187854789Y-117639086D01*
X188004786Y-117530109D01*
X188004788Y-117530106D01*
X188004792Y-117530104D01*
X188155104Y-117379792D01*
X188155106Y-117379788D01*
X188155109Y-117379786D01*
X188280048Y-117207820D01*
X188280047Y-117207820D01*
X188280051Y-117207816D01*
X188376557Y-117018412D01*
X188442246Y-116816243D01*
X188475500Y-116606287D01*
X188475500Y-116393713D01*
X188442246Y-116183757D01*
X188376557Y-115981588D01*
X188280051Y-115792184D01*
X188280049Y-115792181D01*
X188280048Y-115792179D01*
X188155109Y-115620213D01*
X188004786Y-115469890D01*
X187832820Y-115344951D01*
X187643414Y-115248444D01*
X187643413Y-115248443D01*
X187643412Y-115248443D01*
X187441243Y-115182754D01*
X187441241Y-115182753D01*
X187441240Y-115182753D01*
X187279957Y-115157208D01*
X187231287Y-115149500D01*
X187018713Y-115149500D01*
X186970042Y-115157208D01*
X186808760Y-115182753D01*
X186606585Y-115248444D01*
X186417179Y-115344951D01*
X186245213Y-115469890D01*
X186094890Y-115620213D01*
X185969951Y-115792179D01*
X185873444Y-115981585D01*
X185807753Y-116183760D01*
X185774500Y-116393713D01*
X185000500Y-116393713D01*
X185000500Y-102182714D01*
X217500000Y-102182714D01*
X217500000Y-102817285D01*
X217538313Y-103450672D01*
X217614800Y-104080593D01*
X217729182Y-104704759D01*
X217881040Y-105320870D01*
X217881045Y-105320886D01*
X218069819Y-105926683D01*
X218294833Y-106519999D01*
X218555263Y-107098653D01*
X218850163Y-107660537D01*
X219178430Y-108203556D01*
X219178446Y-108203581D01*
X219538907Y-108725798D01*
X219930237Y-109225296D01*
X219930238Y-109225297D01*
X220351021Y-109700262D01*
X220351039Y-109700281D01*
X220398602Y-109747843D01*
X227646446Y-102500000D01*
X220398602Y-95252156D01*
X220351039Y-95299718D01*
X220351021Y-95299737D01*
X219930238Y-95774702D01*
X219930237Y-95774703D01*
X219538907Y-96274201D01*
X219178446Y-96796418D01*
X219178430Y-96796443D01*
X218850163Y-97339462D01*
X218555263Y-97901346D01*
X218294833Y-98480000D01*
X218069819Y-99073316D01*
X217881045Y-99679113D01*
X217881040Y-99679129D01*
X217729182Y-100295240D01*
X217614800Y-100919406D01*
X217538313Y-101549327D01*
X217500000Y-102182714D01*
X185000500Y-102182714D01*
X185000500Y-100593713D01*
X185674500Y-100593713D01*
X185674500Y-100806286D01*
X185707753Y-101016239D01*
X185773444Y-101218414D01*
X185869951Y-101407820D01*
X185994890Y-101579786D01*
X186145213Y-101730109D01*
X186317179Y-101855048D01*
X186317181Y-101855049D01*
X186317184Y-101855051D01*
X186506588Y-101951557D01*
X186708757Y-102017246D01*
X186918713Y-102050500D01*
X186918714Y-102050500D01*
X187131286Y-102050500D01*
X187131287Y-102050500D01*
X187341243Y-102017246D01*
X187543412Y-101951557D01*
X187732816Y-101855051D01*
X187754789Y-101839086D01*
X187904786Y-101730109D01*
X187904788Y-101730106D01*
X187904792Y-101730104D01*
X188055104Y-101579792D01*
X188055106Y-101579788D01*
X188055109Y-101579786D01*
X188180048Y-101407820D01*
X188180047Y-101407820D01*
X188180051Y-101407816D01*
X188276557Y-101218412D01*
X188342246Y-101016243D01*
X188375500Y-100806287D01*
X188375500Y-100593713D01*
X188342246Y-100383757D01*
X188276557Y-100181588D01*
X188180051Y-99992184D01*
X188180049Y-99992181D01*
X188180048Y-99992179D01*
X188055109Y-99820213D01*
X187904786Y-99669890D01*
X187732820Y-99544951D01*
X187543414Y-99448444D01*
X187543413Y-99448443D01*
X187543412Y-99448443D01*
X187341243Y-99382754D01*
X187341241Y-99382753D01*
X187341240Y-99382753D01*
X187179957Y-99357208D01*
X187131287Y-99349500D01*
X186918713Y-99349500D01*
X186870042Y-99357208D01*
X186708760Y-99382753D01*
X186506585Y-99448444D01*
X186317179Y-99544951D01*
X186145213Y-99669890D01*
X185994890Y-99820213D01*
X185869951Y-99992179D01*
X185773444Y-100181585D01*
X185707753Y-100383760D01*
X185674500Y-100593713D01*
X185000500Y-100593713D01*
X185000500Y-94898602D01*
X220752156Y-94898602D01*
X228089096Y-102235542D01*
X228122581Y-102296865D01*
X228117597Y-102366557D01*
X228089096Y-102410904D01*
X228000000Y-102500000D01*
X228089096Y-102589096D01*
X228122581Y-102650419D01*
X228117597Y-102720111D01*
X228089096Y-102764458D01*
X220752156Y-110101397D01*
X220799718Y-110148960D01*
X220799737Y-110148978D01*
X221274702Y-110569761D01*
X221274703Y-110569762D01*
X221774201Y-110961092D01*
X222296418Y-111321553D01*
X222296443Y-111321569D01*
X222839462Y-111649836D01*
X223401346Y-111944736D01*
X223980000Y-112205166D01*
X224573316Y-112430180D01*
X225179113Y-112618954D01*
X225179129Y-112618959D01*
X225795240Y-112770817D01*
X226419406Y-112885199D01*
X227049327Y-112961686D01*
X227682714Y-112999999D01*
X227682736Y-113000000D01*
X228317264Y-113000000D01*
X228317285Y-112999999D01*
X228950672Y-112961686D01*
X229580593Y-112885199D01*
X230204759Y-112770817D01*
X230820870Y-112618959D01*
X230820886Y-112618954D01*
X231426683Y-112430180D01*
X232019999Y-112205166D01*
X232598666Y-111944730D01*
X232734583Y-111873395D01*
X232803091Y-111859669D01*
X232868144Y-111885161D01*
X232909089Y-111941777D01*
X232912925Y-112011541D01*
X232879890Y-112070872D01*
X230687582Y-114263181D01*
X230626259Y-114296666D01*
X230599901Y-114299500D01*
X225202129Y-114299500D01*
X225202123Y-114299501D01*
X225142516Y-114305908D01*
X225007671Y-114356202D01*
X225007664Y-114356206D01*
X224892455Y-114442452D01*
X224892452Y-114442455D01*
X224806206Y-114557664D01*
X224806202Y-114557671D01*
X224755908Y-114692517D01*
X224749501Y-114752116D01*
X224749500Y-114752135D01*
X224749500Y-120847870D01*
X224749501Y-120847876D01*
X224755908Y-120907483D01*
X224806202Y-121042328D01*
X224806206Y-121042335D01*
X224892452Y-121157544D01*
X224892455Y-121157547D01*
X225007664Y-121243793D01*
X225007671Y-121243797D01*
X225142517Y-121294091D01*
X225142516Y-121294091D01*
X225149444Y-121294835D01*
X225202127Y-121300500D01*
X230797872Y-121300499D01*
X230857483Y-121294091D01*
X230992331Y-121243796D01*
X231107546Y-121157546D01*
X231193796Y-121042331D01*
X231244091Y-120907483D01*
X231250500Y-120847873D01*
X231250500Y-118524500D01*
X231253050Y-118515814D01*
X231251762Y-118506853D01*
X231262740Y-118482812D01*
X231270185Y-118457461D01*
X231277025Y-118451533D01*
X231280787Y-118443297D01*
X231303021Y-118429007D01*
X231322989Y-118411706D01*
X231333503Y-118409418D01*
X231339565Y-118405523D01*
X231374500Y-118400500D01*
X231613331Y-118400500D01*
X231613347Y-118400501D01*
X231620943Y-118400501D01*
X231779054Y-118400501D01*
X231779057Y-118400501D01*
X231931785Y-118359577D01*
X231981904Y-118330639D01*
X232068716Y-118280520D01*
X232180520Y-118168716D01*
X232180520Y-118168714D01*
X232190728Y-118158507D01*
X232190729Y-118158504D01*
X247212417Y-103136819D01*
X247273740Y-103103334D01*
X247300098Y-103100500D01*
X255420234Y-103100500D01*
X255487273Y-103120185D01*
X255489125Y-103121398D01*
X255620814Y-103209390D01*
X255620827Y-103209397D01*
X255766498Y-103269735D01*
X255766503Y-103269737D01*
X255921153Y-103300499D01*
X255921156Y-103300500D01*
X255921158Y-103300500D01*
X256078844Y-103300500D01*
X256078845Y-103300499D01*
X256233497Y-103269737D01*
X256379179Y-103209394D01*
X256510289Y-103121789D01*
X256621789Y-103010289D01*
X256709394Y-102879179D01*
X256769737Y-102733497D01*
X256800500Y-102578842D01*
X256800500Y-102421158D01*
X256800500Y-102421155D01*
X256800499Y-102421153D01*
X256787807Y-102357345D01*
X256769737Y-102266503D01*
X256724580Y-102157483D01*
X256709397Y-102120827D01*
X256709390Y-102120814D01*
X256621789Y-101989711D01*
X256621786Y-101989707D01*
X256510292Y-101878213D01*
X256510288Y-101878210D01*
X256379185Y-101790609D01*
X256379172Y-101790602D01*
X256233501Y-101730264D01*
X256233489Y-101730261D01*
X256078845Y-101699500D01*
X256078842Y-101699500D01*
X255921158Y-101699500D01*
X255921155Y-101699500D01*
X255766510Y-101730261D01*
X255766498Y-101730264D01*
X255620827Y-101790602D01*
X255620814Y-101790609D01*
X255489125Y-101878602D01*
X255422447Y-101899480D01*
X255420234Y-101899500D01*
X247086670Y-101899500D01*
X247086654Y-101899499D01*
X247079058Y-101899499D01*
X246920943Y-101899499D01*
X246844579Y-101919961D01*
X246768214Y-101940423D01*
X246768209Y-101940426D01*
X246631290Y-102019475D01*
X246631282Y-102019481D01*
X231487584Y-117163181D01*
X231460656Y-117177884D01*
X231434838Y-117194477D01*
X231428637Y-117195368D01*
X231426261Y-117196666D01*
X231399903Y-117199500D01*
X231374499Y-117199500D01*
X231307460Y-117179815D01*
X231261705Y-117127011D01*
X231250499Y-117075500D01*
X231250499Y-115450098D01*
X231270184Y-115383059D01*
X231286818Y-115362417D01*
X234999399Y-111649836D01*
X238780520Y-107868716D01*
X238859577Y-107731784D01*
X238900501Y-107579057D01*
X238900501Y-107420942D01*
X238900501Y-107413347D01*
X238900500Y-107413329D01*
X238900500Y-97589060D01*
X238900501Y-97589047D01*
X238900501Y-97420944D01*
X238894465Y-97398417D01*
X238859577Y-97268216D01*
X238821107Y-97201583D01*
X238780524Y-97131290D01*
X238780518Y-97131282D01*
X236723274Y-95074038D01*
X257749500Y-95074038D01*
X257749500Y-95325961D01*
X257788910Y-95574785D01*
X257866760Y-95814383D01*
X257981132Y-96038848D01*
X258129201Y-96242649D01*
X258129205Y-96242654D01*
X258307349Y-96420798D01*
X258394752Y-96484299D01*
X258437418Y-96539628D01*
X258443397Y-96609242D01*
X258432352Y-96640911D01*
X258341118Y-96819967D01*
X258280290Y-97007173D01*
X258249500Y-97201577D01*
X258249500Y-97398422D01*
X258280290Y-97592826D01*
X258341117Y-97780029D01*
X258430476Y-97955405D01*
X258546172Y-98114646D01*
X258546174Y-98114648D01*
X258643845Y-98212319D01*
X258677330Y-98273642D01*
X258672346Y-98343334D01*
X258643845Y-98387681D01*
X258546174Y-98485351D01*
X258546174Y-98485352D01*
X258546172Y-98485354D01*
X258496485Y-98553741D01*
X258430476Y-98644594D01*
X258341117Y-98819970D01*
X258280290Y-99007173D01*
X258249500Y-99201577D01*
X258249500Y-99398422D01*
X258280290Y-99592826D01*
X258341117Y-99780029D01*
X258430472Y-99955397D01*
X258430476Y-99955405D01*
X258456781Y-99991611D01*
X258456783Y-99991613D01*
X258480263Y-100057419D01*
X258464438Y-100125473D01*
X258430777Y-100163765D01*
X258392452Y-100192455D01*
X258306206Y-100307664D01*
X258306202Y-100307671D01*
X258255908Y-100442517D01*
X258249501Y-100502116D01*
X258249501Y-100502123D01*
X258249500Y-100502135D01*
X258249500Y-102097870D01*
X258249501Y-102097876D01*
X258256669Y-102164555D01*
X258244262Y-102233314D01*
X258221061Y-102265488D01*
X258129205Y-102357345D01*
X258129201Y-102357350D01*
X257981132Y-102561151D01*
X257866760Y-102785616D01*
X257788910Y-103025214D01*
X257749500Y-103274038D01*
X257749500Y-103525961D01*
X257788910Y-103774785D01*
X257866760Y-104014383D01*
X257981132Y-104238848D01*
X258129201Y-104442649D01*
X258129205Y-104442654D01*
X258307345Y-104620794D01*
X258307350Y-104620798D01*
X258485117Y-104749952D01*
X258511155Y-104768870D01*
X258654184Y-104841747D01*
X258735616Y-104883239D01*
X258735618Y-104883239D01*
X258735621Y-104883241D01*
X258975215Y-104961090D01*
X259224038Y-105000500D01*
X259224039Y-105000500D01*
X260775961Y-105000500D01*
X260775962Y-105000500D01*
X261024785Y-104961090D01*
X261264379Y-104883241D01*
X261488845Y-104768870D01*
X261692656Y-104620793D01*
X261870793Y-104442656D01*
X262018870Y-104238845D01*
X262133241Y-104014379D01*
X262211090Y-103774785D01*
X262250500Y-103525962D01*
X262250500Y-103274038D01*
X262211090Y-103025215D01*
X262133241Y-102785621D01*
X262133239Y-102785618D01*
X262133239Y-102785616D01*
X262064352Y-102650419D01*
X262018870Y-102561155D01*
X261999952Y-102535117D01*
X261870798Y-102357350D01*
X261870794Y-102357345D01*
X261778939Y-102265490D01*
X261745454Y-102204167D01*
X261743331Y-102164554D01*
X261748032Y-102120827D01*
X261750500Y-102097873D01*
X261750499Y-100502128D01*
X261744091Y-100442517D01*
X261693796Y-100307669D01*
X261693795Y-100307668D01*
X261693793Y-100307664D01*
X261607548Y-100192456D01*
X261607546Y-100192455D01*
X261607546Y-100192454D01*
X261569220Y-100163763D01*
X261527351Y-100107829D01*
X261522368Y-100038137D01*
X261543214Y-99991616D01*
X261569524Y-99955405D01*
X261658884Y-99780025D01*
X261719709Y-99592826D01*
X261742577Y-99448443D01*
X261750500Y-99398422D01*
X261750500Y-99201577D01*
X261719709Y-99007173D01*
X261658882Y-98819970D01*
X261569523Y-98644594D01*
X261453828Y-98485354D01*
X261356155Y-98387681D01*
X261322670Y-98326358D01*
X261327654Y-98256666D01*
X261356155Y-98212319D01*
X261453828Y-98114646D01*
X261569524Y-97955405D01*
X261658884Y-97780025D01*
X261719709Y-97592826D01*
X261721890Y-97579058D01*
X261750500Y-97398422D01*
X261750500Y-97201577D01*
X261719709Y-97007173D01*
X261658882Y-96819970D01*
X261567647Y-96640912D01*
X261554751Y-96572243D01*
X261581027Y-96507502D01*
X261605248Y-96484298D01*
X261692652Y-96420796D01*
X261692652Y-96420795D01*
X261692656Y-96420793D01*
X261870793Y-96242656D01*
X262018870Y-96038845D01*
X262133241Y-95814379D01*
X262211090Y-95574785D01*
X262250500Y-95325962D01*
X262250500Y-95074038D01*
X262211090Y-94825215D01*
X262133241Y-94585621D01*
X262133239Y-94585618D01*
X262133239Y-94585616D01*
X262091747Y-94504184D01*
X262018870Y-94361155D01*
X261999952Y-94335117D01*
X261870798Y-94157350D01*
X261870794Y-94157345D01*
X261692654Y-93979205D01*
X261692649Y-93979201D01*
X261488848Y-93831132D01*
X261488847Y-93831131D01*
X261488845Y-93831130D01*
X261418747Y-93795413D01*
X261264383Y-93716760D01*
X261024785Y-93638910D01*
X260775962Y-93599500D01*
X259224038Y-93599500D01*
X259099626Y-93619205D01*
X258975214Y-93638910D01*
X258735616Y-93716760D01*
X258511151Y-93831132D01*
X258307350Y-93979201D01*
X258307345Y-93979205D01*
X258129205Y-94157345D01*
X258129201Y-94157350D01*
X257981132Y-94361151D01*
X257866760Y-94585616D01*
X257788910Y-94825214D01*
X257749500Y-95074038D01*
X236723274Y-95074038D01*
X231286818Y-89637582D01*
X231253333Y-89576259D01*
X231250499Y-89549901D01*
X231250499Y-84152129D01*
X231250498Y-84152123D01*
X231250497Y-84152116D01*
X231244091Y-84092517D01*
X231200816Y-83976492D01*
X231193798Y-83957673D01*
X231193793Y-83957664D01*
X231186174Y-83947486D01*
X239009500Y-83947486D01*
X239009500Y-84132514D01*
X239012607Y-84152128D01*
X239038445Y-84315265D01*
X239095619Y-84491232D01*
X239095620Y-84491235D01*
X239166790Y-84630912D01*
X239179622Y-84656096D01*
X239288379Y-84805787D01*
X239419213Y-84936621D01*
X239568904Y-85045378D01*
X239609006Y-85065811D01*
X239733764Y-85129379D01*
X239733767Y-85129380D01*
X239811462Y-85154624D01*
X239909736Y-85186555D01*
X240092486Y-85215500D01*
X240092487Y-85215500D01*
X240277513Y-85215500D01*
X240277514Y-85215500D01*
X240460264Y-85186555D01*
X240636235Y-85129379D01*
X240801096Y-85045378D01*
X240950787Y-84936621D01*
X241081621Y-84805787D01*
X241190378Y-84656096D01*
X241274379Y-84491235D01*
X241331555Y-84315264D01*
X241360500Y-84132514D01*
X241360500Y-83947486D01*
X243859500Y-83947486D01*
X243859500Y-84132514D01*
X243862607Y-84152128D01*
X243888445Y-84315265D01*
X243945619Y-84491232D01*
X243945620Y-84491235D01*
X244016790Y-84630912D01*
X244029622Y-84656096D01*
X244138379Y-84805787D01*
X244269213Y-84936621D01*
X244418904Y-85045378D01*
X244459006Y-85065811D01*
X244583764Y-85129379D01*
X244583767Y-85129380D01*
X244661462Y-85154624D01*
X244759736Y-85186555D01*
X244942486Y-85215500D01*
X244942487Y-85215500D01*
X245127513Y-85215500D01*
X245127514Y-85215500D01*
X245310264Y-85186555D01*
X245486235Y-85129379D01*
X245651096Y-85045378D01*
X245800787Y-84936621D01*
X245931621Y-84805787D01*
X246040378Y-84656096D01*
X246124379Y-84491235D01*
X246181555Y-84315264D01*
X246210500Y-84132514D01*
X246210500Y-83947486D01*
X246181555Y-83764736D01*
X246143121Y-83646446D01*
X246124380Y-83588767D01*
X246124379Y-83588764D01*
X246079151Y-83500000D01*
X246040378Y-83423904D01*
X245931621Y-83274213D01*
X245800787Y-83143379D01*
X245651096Y-83034622D01*
X245486235Y-82950620D01*
X245486232Y-82950619D01*
X245310265Y-82893445D01*
X245218889Y-82878972D01*
X245127514Y-82864500D01*
X244942486Y-82864500D01*
X244881569Y-82874148D01*
X244759734Y-82893445D01*
X244583767Y-82950619D01*
X244583764Y-82950620D01*
X244418903Y-83034622D01*
X244349552Y-83085009D01*
X244269213Y-83143379D01*
X244269211Y-83143381D01*
X244269210Y-83143381D01*
X244138381Y-83274210D01*
X244138381Y-83274211D01*
X244138379Y-83274213D01*
X244118555Y-83301499D01*
X244029622Y-83423903D01*
X243945620Y-83588764D01*
X243945619Y-83588767D01*
X243888445Y-83764734D01*
X243876135Y-83842455D01*
X243859500Y-83947486D01*
X241360500Y-83947486D01*
X241331555Y-83764736D01*
X241293121Y-83646446D01*
X241274380Y-83588767D01*
X241274379Y-83588764D01*
X241229151Y-83500000D01*
X241190378Y-83423904D01*
X241081621Y-83274213D01*
X240950787Y-83143379D01*
X240801096Y-83034622D01*
X240636235Y-82950620D01*
X240636232Y-82950619D01*
X240460265Y-82893445D01*
X240368889Y-82878972D01*
X240277514Y-82864500D01*
X240092486Y-82864500D01*
X240031569Y-82874148D01*
X239909734Y-82893445D01*
X239733767Y-82950619D01*
X239733764Y-82950620D01*
X239568903Y-83034622D01*
X239499552Y-83085009D01*
X239419213Y-83143379D01*
X239419211Y-83143381D01*
X239419210Y-83143381D01*
X239288381Y-83274210D01*
X239288381Y-83274211D01*
X239288379Y-83274213D01*
X239268555Y-83301499D01*
X239179622Y-83423903D01*
X239095620Y-83588764D01*
X239095619Y-83588767D01*
X239038445Y-83764734D01*
X239026135Y-83842455D01*
X239009500Y-83947486D01*
X231186174Y-83947486D01*
X231107547Y-83842455D01*
X231107544Y-83842452D01*
X230992335Y-83756206D01*
X230992328Y-83756202D01*
X230857482Y-83705908D01*
X230857483Y-83705908D01*
X230797883Y-83699501D01*
X230797881Y-83699500D01*
X230797873Y-83699500D01*
X230797864Y-83699500D01*
X225202129Y-83699500D01*
X225202123Y-83699501D01*
X225142516Y-83705908D01*
X225007671Y-83756202D01*
X225007664Y-83756206D01*
X224892455Y-83842452D01*
X224892452Y-83842455D01*
X224806206Y-83957664D01*
X224806202Y-83957671D01*
X224755908Y-84092517D01*
X224749501Y-84152116D01*
X224749501Y-84152123D01*
X224749500Y-84152135D01*
X224749500Y-90247870D01*
X224749501Y-90247876D01*
X224755908Y-90307483D01*
X224806202Y-90442328D01*
X224806206Y-90442335D01*
X224892452Y-90557544D01*
X224892455Y-90557547D01*
X225007664Y-90643793D01*
X225007671Y-90643797D01*
X225142517Y-90694091D01*
X225142516Y-90694091D01*
X225149444Y-90694835D01*
X225202127Y-90700500D01*
X230599901Y-90700499D01*
X230666940Y-90720184D01*
X230687582Y-90736818D01*
X232879892Y-92929128D01*
X232913377Y-92990451D01*
X232908393Y-93060143D01*
X232866521Y-93116076D01*
X232801057Y-93140493D01*
X232734585Y-93126606D01*
X232598653Y-93055263D01*
X232019999Y-92794833D01*
X231426683Y-92569819D01*
X230820886Y-92381045D01*
X230820870Y-92381040D01*
X230204759Y-92229182D01*
X229580593Y-92114800D01*
X228950672Y-92038313D01*
X228317285Y-92000000D01*
X227682714Y-92000000D01*
X227049327Y-92038313D01*
X226419406Y-92114800D01*
X225795240Y-92229182D01*
X225179129Y-92381040D01*
X225179113Y-92381045D01*
X224573316Y-92569819D01*
X223980000Y-92794833D01*
X223401346Y-93055263D01*
X222839462Y-93350163D01*
X222296443Y-93678430D01*
X222296418Y-93678446D01*
X221774201Y-94038907D01*
X221274703Y-94430237D01*
X221274702Y-94430238D01*
X220799737Y-94851021D01*
X220799718Y-94851039D01*
X220752156Y-94898602D01*
X185000500Y-94898602D01*
X185000500Y-83357051D01*
X186709500Y-83357051D01*
X186709500Y-84642933D01*
X186709501Y-84642949D01*
X186720107Y-84746765D01*
X186775847Y-84914979D01*
X186775852Y-84914990D01*
X186868878Y-85065807D01*
X186868881Y-85065811D01*
X186994188Y-85191118D01*
X186994192Y-85191121D01*
X187145009Y-85284147D01*
X187145012Y-85284148D01*
X187145018Y-85284152D01*
X187313236Y-85339893D01*
X187417059Y-85350500D01*
X188702940Y-85350499D01*
X188806764Y-85339893D01*
X188974982Y-85284152D01*
X189125811Y-85191119D01*
X189251119Y-85065811D01*
X189344152Y-84914982D01*
X189346867Y-84906786D01*
X189386637Y-84849343D01*
X189451152Y-84822518D01*
X189519928Y-84834832D01*
X189564890Y-84872903D01*
X189569892Y-84879788D01*
X189720213Y-85030109D01*
X189892179Y-85155048D01*
X189892181Y-85155049D01*
X189892184Y-85155051D01*
X190081588Y-85251557D01*
X190283757Y-85317246D01*
X190493713Y-85350500D01*
X190493714Y-85350500D01*
X190706286Y-85350500D01*
X190706287Y-85350500D01*
X190916243Y-85317246D01*
X191118412Y-85251557D01*
X191307816Y-85155051D01*
X191362572Y-85115269D01*
X191479786Y-85030109D01*
X191479788Y-85030106D01*
X191479792Y-85030104D01*
X191630104Y-84879792D01*
X191630106Y-84879788D01*
X191630109Y-84879786D01*
X191715890Y-84761717D01*
X191755051Y-84707816D01*
X191759793Y-84698508D01*
X191807763Y-84647711D01*
X191875583Y-84630911D01*
X191941719Y-84653445D01*
X191980763Y-84698500D01*
X191985373Y-84707547D01*
X192024728Y-84761716D01*
X192657037Y-84129408D01*
X192674075Y-84192993D01*
X192739901Y-84307007D01*
X192832993Y-84400099D01*
X192947007Y-84465925D01*
X193010590Y-84482962D01*
X192378282Y-85115269D01*
X192378282Y-85115270D01*
X192432449Y-85154624D01*
X192621782Y-85251095D01*
X192823870Y-85316757D01*
X193033754Y-85350000D01*
X193246246Y-85350000D01*
X193456127Y-85316757D01*
X193456130Y-85316757D01*
X193658217Y-85251095D01*
X193847554Y-85154622D01*
X193901716Y-85115270D01*
X193901717Y-85115270D01*
X193269408Y-84482962D01*
X193332993Y-84465925D01*
X193447007Y-84400099D01*
X193540099Y-84307007D01*
X193605925Y-84192993D01*
X193622962Y-84129409D01*
X194255270Y-84761717D01*
X194255270Y-84761716D01*
X194294622Y-84707555D01*
X194299232Y-84698507D01*
X194347205Y-84647709D01*
X194415025Y-84630912D01*
X194481161Y-84653447D01*
X194520204Y-84698504D01*
X194524949Y-84707817D01*
X194649890Y-84879786D01*
X194800213Y-85030109D01*
X194972179Y-85155048D01*
X194972181Y-85155049D01*
X194972184Y-85155051D01*
X195161588Y-85251557D01*
X195363757Y-85317246D01*
X195573713Y-85350500D01*
X195573714Y-85350500D01*
X195786286Y-85350500D01*
X195786287Y-85350500D01*
X195996243Y-85317246D01*
X196198412Y-85251557D01*
X196387816Y-85155051D01*
X196442572Y-85115269D01*
X196559786Y-85030109D01*
X196559788Y-85030106D01*
X196559792Y-85030104D01*
X196710104Y-84879792D01*
X196710106Y-84879788D01*
X196710109Y-84879786D01*
X196835048Y-84707820D01*
X196835047Y-84707820D01*
X196835051Y-84707816D01*
X196839514Y-84699054D01*
X196887488Y-84648259D01*
X196955308Y-84631463D01*
X197021444Y-84653999D01*
X197060486Y-84699056D01*
X197064951Y-84707820D01*
X197189890Y-84879786D01*
X197340213Y-85030109D01*
X197512179Y-85155048D01*
X197512181Y-85155049D01*
X197512184Y-85155051D01*
X197701588Y-85251557D01*
X197903757Y-85317246D01*
X198113713Y-85350500D01*
X198113714Y-85350500D01*
X198326286Y-85350500D01*
X198326287Y-85350500D01*
X198536243Y-85317246D01*
X198738412Y-85251557D01*
X198927816Y-85155051D01*
X198982572Y-85115269D01*
X199099786Y-85030109D01*
X199099788Y-85030106D01*
X199099792Y-85030104D01*
X199250104Y-84879792D01*
X199250106Y-84879788D01*
X199250109Y-84879786D01*
X199375048Y-84707820D01*
X199375047Y-84707820D01*
X199375051Y-84707816D01*
X199379514Y-84699054D01*
X199427488Y-84648259D01*
X199495308Y-84631463D01*
X199561444Y-84653999D01*
X199600486Y-84699056D01*
X199604951Y-84707820D01*
X199729890Y-84879786D01*
X199880213Y-85030109D01*
X200052179Y-85155048D01*
X200052181Y-85155049D01*
X200052184Y-85155051D01*
X200241588Y-85251557D01*
X200443757Y-85317246D01*
X200653713Y-85350500D01*
X200653714Y-85350500D01*
X200866286Y-85350500D01*
X200866287Y-85350500D01*
X201076243Y-85317246D01*
X201278412Y-85251557D01*
X201467816Y-85155051D01*
X201522572Y-85115269D01*
X201639786Y-85030109D01*
X201639788Y-85030106D01*
X201639792Y-85030104D01*
X201790104Y-84879792D01*
X201790106Y-84879788D01*
X201790109Y-84879786D01*
X201915048Y-84707820D01*
X201915047Y-84707820D01*
X201915051Y-84707816D01*
X201919514Y-84699054D01*
X201967488Y-84648259D01*
X202035308Y-84631463D01*
X202101444Y-84653999D01*
X202140486Y-84699056D01*
X202144951Y-84707820D01*
X202269890Y-84879786D01*
X202420213Y-85030109D01*
X202592179Y-85155048D01*
X202592181Y-85155049D01*
X202592184Y-85155051D01*
X202781588Y-85251557D01*
X202983757Y-85317246D01*
X203193713Y-85350500D01*
X203193714Y-85350500D01*
X203406286Y-85350500D01*
X203406287Y-85350500D01*
X203616243Y-85317246D01*
X203818412Y-85251557D01*
X204007816Y-85155051D01*
X204062572Y-85115269D01*
X204179786Y-85030109D01*
X204179788Y-85030106D01*
X204179792Y-85030104D01*
X204330104Y-84879792D01*
X204330106Y-84879788D01*
X204330109Y-84879786D01*
X204455048Y-84707820D01*
X204455047Y-84707820D01*
X204455051Y-84707816D01*
X204459514Y-84699054D01*
X204507488Y-84648259D01*
X204575308Y-84631463D01*
X204641444Y-84653999D01*
X204680486Y-84699056D01*
X204684951Y-84707820D01*
X204809890Y-84879786D01*
X204960213Y-85030109D01*
X205132179Y-85155048D01*
X205132181Y-85155049D01*
X205132184Y-85155051D01*
X205321588Y-85251557D01*
X205523757Y-85317246D01*
X205733713Y-85350500D01*
X205733714Y-85350500D01*
X205946286Y-85350500D01*
X205946287Y-85350500D01*
X206156243Y-85317246D01*
X206358412Y-85251557D01*
X206547816Y-85155051D01*
X206602572Y-85115269D01*
X206719786Y-85030109D01*
X206719788Y-85030106D01*
X206719792Y-85030104D01*
X206870104Y-84879792D01*
X206870106Y-84879788D01*
X206870109Y-84879786D01*
X206995048Y-84707820D01*
X206995047Y-84707820D01*
X206995051Y-84707816D01*
X206999514Y-84699054D01*
X207047488Y-84648259D01*
X207115308Y-84631463D01*
X207181444Y-84653999D01*
X207220486Y-84699056D01*
X207224951Y-84707820D01*
X207349890Y-84879786D01*
X207500213Y-85030109D01*
X207672179Y-85155048D01*
X207672181Y-85155049D01*
X207672184Y-85155051D01*
X207861588Y-85251557D01*
X208063757Y-85317246D01*
X208273713Y-85350500D01*
X208273714Y-85350500D01*
X208486286Y-85350500D01*
X208486287Y-85350500D01*
X208696243Y-85317246D01*
X208898412Y-85251557D01*
X209087816Y-85155051D01*
X209142572Y-85115269D01*
X209259786Y-85030109D01*
X209259788Y-85030106D01*
X209259792Y-85030104D01*
X209410104Y-84879792D01*
X209410106Y-84879788D01*
X209410109Y-84879786D01*
X209535048Y-84707820D01*
X209535047Y-84707820D01*
X209535051Y-84707816D01*
X209539514Y-84699054D01*
X209587488Y-84648259D01*
X209655308Y-84631463D01*
X209721444Y-84653999D01*
X209760486Y-84699056D01*
X209764951Y-84707820D01*
X209889890Y-84879786D01*
X210040213Y-85030109D01*
X210212179Y-85155048D01*
X210212181Y-85155049D01*
X210212184Y-85155051D01*
X210401588Y-85251557D01*
X210603757Y-85317246D01*
X210813713Y-85350500D01*
X210813714Y-85350500D01*
X211026286Y-85350500D01*
X211026287Y-85350500D01*
X211236243Y-85317246D01*
X211438412Y-85251557D01*
X211627816Y-85155051D01*
X211682572Y-85115269D01*
X211799786Y-85030109D01*
X211799788Y-85030106D01*
X211799792Y-85030104D01*
X211950104Y-84879792D01*
X211950106Y-84879788D01*
X211950109Y-84879786D01*
X212075048Y-84707820D01*
X212075047Y-84707820D01*
X212075051Y-84707816D01*
X212079514Y-84699054D01*
X212127488Y-84648259D01*
X212195308Y-84631463D01*
X212261444Y-84653999D01*
X212300486Y-84699056D01*
X212304951Y-84707820D01*
X212429890Y-84879786D01*
X212580213Y-85030109D01*
X212752179Y-85155048D01*
X212752181Y-85155049D01*
X212752184Y-85155051D01*
X212941588Y-85251557D01*
X213143757Y-85317246D01*
X213353713Y-85350500D01*
X213353714Y-85350500D01*
X213566286Y-85350500D01*
X213566287Y-85350500D01*
X213776243Y-85317246D01*
X213978412Y-85251557D01*
X214167816Y-85155051D01*
X214222572Y-85115269D01*
X214339786Y-85030109D01*
X214339788Y-85030106D01*
X214339792Y-85030104D01*
X214490104Y-84879792D01*
X214490106Y-84879788D01*
X214490109Y-84879786D01*
X214615048Y-84707820D01*
X214615047Y-84707820D01*
X214615051Y-84707816D01*
X214619514Y-84699054D01*
X214667488Y-84648259D01*
X214735308Y-84631463D01*
X214801444Y-84653999D01*
X214840486Y-84699056D01*
X214844951Y-84707820D01*
X214969890Y-84879786D01*
X215120213Y-85030109D01*
X215292179Y-85155048D01*
X215292181Y-85155049D01*
X215292184Y-85155051D01*
X215481588Y-85251557D01*
X215683757Y-85317246D01*
X215893713Y-85350500D01*
X215893714Y-85350500D01*
X216106286Y-85350500D01*
X216106287Y-85350500D01*
X216316243Y-85317246D01*
X216518412Y-85251557D01*
X216707816Y-85155051D01*
X216762572Y-85115269D01*
X216879786Y-85030109D01*
X216879788Y-85030106D01*
X216879792Y-85030104D01*
X217030104Y-84879792D01*
X217030106Y-84879788D01*
X217030109Y-84879786D01*
X217155048Y-84707820D01*
X217155047Y-84707820D01*
X217155051Y-84707816D01*
X217251557Y-84518412D01*
X217317246Y-84316243D01*
X217350500Y-84106287D01*
X217350500Y-83893713D01*
X217317246Y-83683757D01*
X217251557Y-83481588D01*
X217155051Y-83292184D01*
X217155049Y-83292181D01*
X217155048Y-83292179D01*
X217030109Y-83120213D01*
X216879786Y-82969890D01*
X216707820Y-82844951D01*
X216518414Y-82748444D01*
X216518413Y-82748443D01*
X216518412Y-82748443D01*
X216316243Y-82682754D01*
X216316241Y-82682753D01*
X216316240Y-82682753D01*
X216154957Y-82657208D01*
X216106287Y-82649500D01*
X215893713Y-82649500D01*
X215845042Y-82657208D01*
X215683760Y-82682753D01*
X215481585Y-82748444D01*
X215292179Y-82844951D01*
X215120213Y-82969890D01*
X214969890Y-83120213D01*
X214844949Y-83292182D01*
X214840484Y-83300946D01*
X214792509Y-83351742D01*
X214724688Y-83368536D01*
X214658553Y-83345998D01*
X214619516Y-83300946D01*
X214615050Y-83292182D01*
X214490109Y-83120213D01*
X214339786Y-82969890D01*
X214167820Y-82844951D01*
X213978414Y-82748444D01*
X213978413Y-82748443D01*
X213978412Y-82748443D01*
X213776243Y-82682754D01*
X213776241Y-82682753D01*
X213776240Y-82682753D01*
X213614957Y-82657208D01*
X213566287Y-82649500D01*
X213353713Y-82649500D01*
X213305042Y-82657208D01*
X213143760Y-82682753D01*
X212941585Y-82748444D01*
X212752179Y-82844951D01*
X212580213Y-82969890D01*
X212429890Y-83120213D01*
X212304949Y-83292182D01*
X212300484Y-83300946D01*
X212252509Y-83351742D01*
X212184688Y-83368536D01*
X212118553Y-83345998D01*
X212079516Y-83300946D01*
X212075050Y-83292182D01*
X211950109Y-83120213D01*
X211799786Y-82969890D01*
X211627820Y-82844951D01*
X211438414Y-82748444D01*
X211438413Y-82748443D01*
X211438412Y-82748443D01*
X211236243Y-82682754D01*
X211236241Y-82682753D01*
X211236240Y-82682753D01*
X211074957Y-82657208D01*
X211026287Y-82649500D01*
X210813713Y-82649500D01*
X210765042Y-82657208D01*
X210603760Y-82682753D01*
X210401585Y-82748444D01*
X210212179Y-82844951D01*
X210040213Y-82969890D01*
X209889890Y-83120213D01*
X209764949Y-83292182D01*
X209760484Y-83300946D01*
X209712509Y-83351742D01*
X209644688Y-83368536D01*
X209578553Y-83345998D01*
X209539516Y-83300946D01*
X209535050Y-83292182D01*
X209410109Y-83120213D01*
X209259786Y-82969890D01*
X209087820Y-82844951D01*
X208898414Y-82748444D01*
X208898413Y-82748443D01*
X208898412Y-82748443D01*
X208696243Y-82682754D01*
X208696241Y-82682753D01*
X208696240Y-82682753D01*
X208534957Y-82657208D01*
X208486287Y-82649500D01*
X208273713Y-82649500D01*
X208225042Y-82657208D01*
X208063760Y-82682753D01*
X207861585Y-82748444D01*
X207672179Y-82844951D01*
X207500213Y-82969890D01*
X207349890Y-83120213D01*
X207224949Y-83292182D01*
X207220484Y-83300946D01*
X207172509Y-83351742D01*
X207104688Y-83368536D01*
X207038553Y-83345998D01*
X206999516Y-83300946D01*
X206995050Y-83292182D01*
X206870109Y-83120213D01*
X206719786Y-82969890D01*
X206547820Y-82844951D01*
X206358414Y-82748444D01*
X206358413Y-82748443D01*
X206358412Y-82748443D01*
X206156243Y-82682754D01*
X206156241Y-82682753D01*
X206156240Y-82682753D01*
X205994957Y-82657208D01*
X205946287Y-82649500D01*
X205733713Y-82649500D01*
X205685042Y-82657208D01*
X205523760Y-82682753D01*
X205321585Y-82748444D01*
X205132179Y-82844951D01*
X204960213Y-82969890D01*
X204809890Y-83120213D01*
X204684949Y-83292182D01*
X204680484Y-83300946D01*
X204632509Y-83351742D01*
X204564688Y-83368536D01*
X204498553Y-83345998D01*
X204459516Y-83300946D01*
X204455050Y-83292182D01*
X204330109Y-83120213D01*
X204179786Y-82969890D01*
X204007820Y-82844951D01*
X203818414Y-82748444D01*
X203818413Y-82748443D01*
X203818412Y-82748443D01*
X203616243Y-82682754D01*
X203616241Y-82682753D01*
X203616240Y-82682753D01*
X203454957Y-82657208D01*
X203406287Y-82649500D01*
X203193713Y-82649500D01*
X203145042Y-82657208D01*
X202983760Y-82682753D01*
X202781585Y-82748444D01*
X202592179Y-82844951D01*
X202420213Y-82969890D01*
X202269890Y-83120213D01*
X202144949Y-83292182D01*
X202140484Y-83300946D01*
X202092509Y-83351742D01*
X202024688Y-83368536D01*
X201958553Y-83345998D01*
X201919516Y-83300946D01*
X201915050Y-83292182D01*
X201790109Y-83120213D01*
X201639786Y-82969890D01*
X201467820Y-82844951D01*
X201278414Y-82748444D01*
X201278413Y-82748443D01*
X201278412Y-82748443D01*
X201076243Y-82682754D01*
X201076241Y-82682753D01*
X201076240Y-82682753D01*
X200914957Y-82657208D01*
X200866287Y-82649500D01*
X200653713Y-82649500D01*
X200605042Y-82657208D01*
X200443760Y-82682753D01*
X200241585Y-82748444D01*
X200052179Y-82844951D01*
X199880213Y-82969890D01*
X199729890Y-83120213D01*
X199604949Y-83292182D01*
X199600484Y-83300946D01*
X199552509Y-83351742D01*
X199484688Y-83368536D01*
X199418553Y-83345998D01*
X199379516Y-83300946D01*
X199375050Y-83292182D01*
X199250109Y-83120213D01*
X199099786Y-82969890D01*
X198927820Y-82844951D01*
X198738414Y-82748444D01*
X198738413Y-82748443D01*
X198738412Y-82748443D01*
X198536243Y-82682754D01*
X198536241Y-82682753D01*
X198536240Y-82682753D01*
X198374957Y-82657208D01*
X198326287Y-82649500D01*
X198113713Y-82649500D01*
X198065042Y-82657208D01*
X197903760Y-82682753D01*
X197701585Y-82748444D01*
X197512179Y-82844951D01*
X197340213Y-82969890D01*
X197189890Y-83120213D01*
X197064949Y-83292182D01*
X197060484Y-83300946D01*
X197012509Y-83351742D01*
X196944688Y-83368536D01*
X196878553Y-83345998D01*
X196839516Y-83300946D01*
X196835050Y-83292182D01*
X196710109Y-83120213D01*
X196559786Y-82969890D01*
X196387820Y-82844951D01*
X196198414Y-82748444D01*
X196198413Y-82748443D01*
X196198412Y-82748443D01*
X195996243Y-82682754D01*
X195996241Y-82682753D01*
X195996240Y-82682753D01*
X195834957Y-82657208D01*
X195786287Y-82649500D01*
X195573713Y-82649500D01*
X195525042Y-82657208D01*
X195363760Y-82682753D01*
X195161585Y-82748444D01*
X194972179Y-82844951D01*
X194800213Y-82969890D01*
X194649890Y-83120213D01*
X194524949Y-83292182D01*
X194520202Y-83301499D01*
X194472227Y-83352293D01*
X194404405Y-83369087D01*
X194338271Y-83346548D01*
X194299234Y-83301495D01*
X194294626Y-83292452D01*
X194255270Y-83238282D01*
X194255269Y-83238282D01*
X193622962Y-83870590D01*
X193605925Y-83807007D01*
X193540099Y-83692993D01*
X193447007Y-83599901D01*
X193332993Y-83534075D01*
X193269409Y-83517037D01*
X193901716Y-82884728D01*
X193847550Y-82845375D01*
X193658217Y-82748904D01*
X193456129Y-82683242D01*
X193246246Y-82650000D01*
X193033754Y-82650000D01*
X192823872Y-82683242D01*
X192823869Y-82683242D01*
X192621782Y-82748904D01*
X192432439Y-82845380D01*
X192378282Y-82884727D01*
X192378282Y-82884728D01*
X193010591Y-83517037D01*
X192947007Y-83534075D01*
X192832993Y-83599901D01*
X192739901Y-83692993D01*
X192674075Y-83807007D01*
X192657037Y-83870591D01*
X192024728Y-83238282D01*
X192024727Y-83238282D01*
X191985380Y-83292440D01*
X191985376Y-83292446D01*
X191980760Y-83301505D01*
X191932781Y-83352297D01*
X191864959Y-83369087D01*
X191798826Y-83346543D01*
X191759794Y-83301493D01*
X191755051Y-83292184D01*
X191755049Y-83292181D01*
X191755048Y-83292179D01*
X191630109Y-83120213D01*
X191479786Y-82969890D01*
X191307820Y-82844951D01*
X191118414Y-82748444D01*
X191118413Y-82748443D01*
X191118412Y-82748443D01*
X190916243Y-82682754D01*
X190916241Y-82682753D01*
X190916240Y-82682753D01*
X190754957Y-82657208D01*
X190706287Y-82649500D01*
X190493713Y-82649500D01*
X190445042Y-82657208D01*
X190283760Y-82682753D01*
X190081585Y-82748444D01*
X189892179Y-82844951D01*
X189720213Y-82969890D01*
X189569894Y-83120209D01*
X189569890Y-83120214D01*
X189564887Y-83127100D01*
X189509554Y-83169763D01*
X189439940Y-83175738D01*
X189378147Y-83143128D01*
X189346867Y-83093212D01*
X189344153Y-83085022D01*
X189344152Y-83085018D01*
X189344148Y-83085012D01*
X189344147Y-83085009D01*
X189251121Y-82934192D01*
X189251118Y-82934188D01*
X189125811Y-82808881D01*
X189125807Y-82808878D01*
X188974990Y-82715852D01*
X188974984Y-82715849D01*
X188974982Y-82715848D01*
X188974979Y-82715847D01*
X188806765Y-82660107D01*
X188702942Y-82649500D01*
X187417066Y-82649500D01*
X187417050Y-82649501D01*
X187313234Y-82660107D01*
X187145020Y-82715847D01*
X187145009Y-82715852D01*
X186994192Y-82808878D01*
X186994188Y-82808881D01*
X186868881Y-82934188D01*
X186868878Y-82934192D01*
X186775852Y-83085009D01*
X186775847Y-83085020D01*
X186720107Y-83253234D01*
X186709500Y-83357051D01*
X185000500Y-83357051D01*
X185000500Y-79624500D01*
X185020185Y-79557461D01*
X185072989Y-79511706D01*
X185124500Y-79500500D01*
X239377551Y-79500500D01*
X239444590Y-79520185D01*
G37*
%TD.AperFunction*%
%TD*%
M02*
