%TF.GenerationSoftware,KiCad,Pcbnew,10.0.3*%
%TF.CreationDate,2026-07-02T21:02:42+03:00*%
%TF.ProjectId,e,652e6b69-6361-4645-9f70-636258585858,rev?*%
%TF.SameCoordinates,Original*%
%TF.FileFunction,Legend,Bot*%
%TF.FilePolarity,Positive*%
%FSLAX46Y46*%
G04 Gerber Fmt 4.6, Leading zero omitted, Abs format (unit mm)*
G04 Created by KiCad (PCBNEW 10.0.3) date 2026-07-02 21:02:42*
%MOMM*%
%LPD*%
G01*
G04 APERTURE LIST*
%ADD10C,0.150000*%
%ADD11C,0.120000*%
G04 APERTURE END LIST*
D10*
X126681009Y-87864285D02*
X126728628Y-88007142D01*
X126728628Y-88007142D02*
X126776247Y-88054761D01*
X126776247Y-88054761D02*
X126871485Y-88102380D01*
X126871485Y-88102380D02*
X127014342Y-88102380D01*
X127014342Y-88102380D02*
X127109580Y-88054761D01*
X127109580Y-88054761D02*
X127157200Y-88007142D01*
X127157200Y-88007142D02*
X127204819Y-87911904D01*
X127204819Y-87911904D02*
X127204819Y-87530952D01*
X127204819Y-87530952D02*
X126204819Y-87530952D01*
X126204819Y-87530952D02*
X126204819Y-87864285D01*
X126204819Y-87864285D02*
X126252438Y-87959523D01*
X126252438Y-87959523D02*
X126300057Y-88007142D01*
X126300057Y-88007142D02*
X126395295Y-88054761D01*
X126395295Y-88054761D02*
X126490533Y-88054761D01*
X126490533Y-88054761D02*
X126585771Y-88007142D01*
X126585771Y-88007142D02*
X126633390Y-87959523D01*
X126633390Y-87959523D02*
X126681009Y-87864285D01*
X126681009Y-87864285D02*
X126681009Y-87530952D01*
X126204819Y-88388095D02*
X126204819Y-88959523D01*
X127204819Y-88673809D02*
X126204819Y-88673809D01*
X127204819Y-89816666D02*
X127204819Y-89245238D01*
X127204819Y-89530952D02*
X126204819Y-89530952D01*
X126204819Y-89530952D02*
X126347676Y-89435714D01*
X126347676Y-89435714D02*
X126442914Y-89340476D01*
X126442914Y-89340476D02*
X126490533Y-89245238D01*
%TO.C,BT1*%
D11*
X128100000Y-84700000D02*
X128100000Y-92600000D01*
X128100000Y-84700000D02*
X128900000Y-84700000D01*
X128100000Y-92600000D02*
X128900000Y-92600000D01*
X128900000Y-84700000D02*
X134750000Y-75800000D01*
X128900000Y-92600000D02*
X134750000Y-101500000D01*
X134750000Y-75800000D02*
X138050000Y-75800000D01*
X134750000Y-101500000D02*
X138050000Y-101500000D01*
X144250000Y-75800000D02*
X148450000Y-75800000D01*
X144250000Y-101500000D02*
X148450000Y-101500000D01*
X148400000Y-75800000D02*
G75*
G02*
X151100000Y-78500000I-1J-2700001D01*
G01*
X150821751Y-98128249D02*
G75*
G02*
X151099999Y-98800000I-671751J-671751D01*
G01*
X151100000Y-78500000D02*
G75*
G02*
X150821751Y-79171751I-950003J2D01*
G01*
X151100000Y-98800000D02*
G75*
G02*
X148400000Y-101500000I-2700000J0D01*
G01*
%TD*%
M02*
