%TF.GenerationSoftware,KiCad,Pcbnew,10.0.3*%
%TF.CreationDate,2026-08-20T21:53:27-07:00*%
%TF.ProjectId,e,652e6b69-6361-4645-9f70-636258585858,1*%
%TF.SameCoordinates,Original*%
%TF.FileFunction,Legend,Bot*%
%TF.FilePolarity,Positive*%
%FSLAX46Y46*%
G04 Gerber Fmt 4.6, Leading zero omitted, Abs format (unit mm)*
G04 Created by KiCad (PCBNEW 10.0.3) date 2026-08-20 21:53:27*
%MOMM*%
%LPD*%
G01*
G04 APERTURE LIST*
%ADD10C,0.100000*%
%ADD11C,0.300000*%
%ADD12C,0.150000*%
%ADD13C,0.120000*%
G04 APERTURE END LIST*
D10*
X140984247Y-108734211D02*
X140698533Y-109496115D01*
X140698533Y-109496115D02*
X140412819Y-108734211D01*
X140317580Y-108115163D02*
X140365200Y-108210401D01*
X140365200Y-108210401D02*
X140412819Y-108258020D01*
X140412819Y-108258020D02*
X140508057Y-108305639D01*
X140508057Y-108305639D02*
X140793771Y-108305639D01*
X140793771Y-108305639D02*
X140889009Y-108258020D01*
X140889009Y-108258020D02*
X140936628Y-108210401D01*
X140936628Y-108210401D02*
X140984247Y-108115163D01*
X140984247Y-108115163D02*
X140984247Y-107972306D01*
X140984247Y-107972306D02*
X140936628Y-107877068D01*
X140936628Y-107877068D02*
X140889009Y-107829449D01*
X140889009Y-107829449D02*
X140793771Y-107781830D01*
X140793771Y-107781830D02*
X140508057Y-107781830D01*
X140508057Y-107781830D02*
X140412819Y-107829449D01*
X140412819Y-107829449D02*
X140365200Y-107877068D01*
X140365200Y-107877068D02*
X140317580Y-107972306D01*
X140317580Y-107972306D02*
X140317580Y-108115163D01*
X141317580Y-108210401D02*
X141269961Y-108162782D01*
X141269961Y-108162782D02*
X141222342Y-108210401D01*
X141222342Y-108210401D02*
X141269961Y-108258020D01*
X141269961Y-108258020D02*
X141317580Y-108210401D01*
X141317580Y-108210401D02*
X141222342Y-108210401D01*
X141317580Y-107829449D02*
X141269961Y-107781830D01*
X141269961Y-107781830D02*
X141222342Y-107829449D01*
X141222342Y-107829449D02*
X141269961Y-107877068D01*
X141269961Y-107877068D02*
X141317580Y-107829449D01*
X141317580Y-107829449D02*
X141222342Y-107829449D01*
X140984247Y-107353258D02*
X140698533Y-106591354D01*
X140698533Y-106591354D02*
X140412819Y-107353258D01*
D11*
X184199171Y-130588346D02*
X182699171Y-130231203D01*
X182699171Y-130231203D02*
X183770600Y-129945489D01*
X183770600Y-129945489D02*
X182699171Y-129659774D01*
X182699171Y-129659774D02*
X184199171Y-129302632D01*
X182699171Y-128088346D02*
X183484885Y-128088346D01*
X183484885Y-128088346D02*
X183627742Y-128159774D01*
X183627742Y-128159774D02*
X183699171Y-128302631D01*
X183699171Y-128302631D02*
X183699171Y-128588346D01*
X183699171Y-128588346D02*
X183627742Y-128731203D01*
X182770600Y-128088346D02*
X182699171Y-128231203D01*
X182699171Y-128231203D02*
X182699171Y-128588346D01*
X182699171Y-128588346D02*
X182770600Y-128731203D01*
X182770600Y-128731203D02*
X182913457Y-128802631D01*
X182913457Y-128802631D02*
X183056314Y-128802631D01*
X183056314Y-128802631D02*
X183199171Y-128731203D01*
X183199171Y-128731203D02*
X183270600Y-128588346D01*
X183270600Y-128588346D02*
X183270600Y-128231203D01*
X183270600Y-128231203D02*
X183342028Y-128088346D01*
X183699171Y-127516917D02*
X182699171Y-127159774D01*
X183699171Y-126802631D02*
X182699171Y-127159774D01*
X182699171Y-127159774D02*
X182342028Y-127302631D01*
X182342028Y-127302631D02*
X182270600Y-127374060D01*
X182270600Y-127374060D02*
X182199171Y-127516917D01*
X184199171Y-126374060D02*
X182699171Y-126016917D01*
X182699171Y-126016917D02*
X183770600Y-125731203D01*
X183770600Y-125731203D02*
X182699171Y-125445488D01*
X182699171Y-125445488D02*
X184199171Y-125088346D01*
X182699171Y-123874060D02*
X183484885Y-123874060D01*
X183484885Y-123874060D02*
X183627742Y-123945488D01*
X183627742Y-123945488D02*
X183699171Y-124088345D01*
X183699171Y-124088345D02*
X183699171Y-124374060D01*
X183699171Y-124374060D02*
X183627742Y-124516917D01*
X182770600Y-123874060D02*
X182699171Y-124016917D01*
X182699171Y-124016917D02*
X182699171Y-124374060D01*
X182699171Y-124374060D02*
X182770600Y-124516917D01*
X182770600Y-124516917D02*
X182913457Y-124588345D01*
X182913457Y-124588345D02*
X183056314Y-124588345D01*
X183056314Y-124588345D02*
X183199171Y-124516917D01*
X183199171Y-124516917D02*
X183270600Y-124374060D01*
X183270600Y-124374060D02*
X183270600Y-124016917D01*
X183270600Y-124016917D02*
X183342028Y-123874060D01*
X183699171Y-123302631D02*
X182699171Y-122945488D01*
X183699171Y-122588345D02*
X182699171Y-122945488D01*
X182699171Y-122945488D02*
X182342028Y-123088345D01*
X182342028Y-123088345D02*
X182270600Y-123159774D01*
X182270600Y-123159774D02*
X182199171Y-123302631D01*
X184199171Y-122159774D02*
X182699171Y-121802631D01*
X182699171Y-121802631D02*
X183770600Y-121516917D01*
X183770600Y-121516917D02*
X182699171Y-121231202D01*
X182699171Y-121231202D02*
X184199171Y-120874060D01*
X182699171Y-119659774D02*
X183484885Y-119659774D01*
X183484885Y-119659774D02*
X183627742Y-119731202D01*
X183627742Y-119731202D02*
X183699171Y-119874059D01*
X183699171Y-119874059D02*
X183699171Y-120159774D01*
X183699171Y-120159774D02*
X183627742Y-120302631D01*
X182770600Y-119659774D02*
X182699171Y-119802631D01*
X182699171Y-119802631D02*
X182699171Y-120159774D01*
X182699171Y-120159774D02*
X182770600Y-120302631D01*
X182770600Y-120302631D02*
X182913457Y-120374059D01*
X182913457Y-120374059D02*
X183056314Y-120374059D01*
X183056314Y-120374059D02*
X183199171Y-120302631D01*
X183199171Y-120302631D02*
X183270600Y-120159774D01*
X183270600Y-120159774D02*
X183270600Y-119802631D01*
X183270600Y-119802631D02*
X183342028Y-119659774D01*
X183699171Y-119088345D02*
X182699171Y-118731202D01*
X183699171Y-118374059D02*
X182699171Y-118731202D01*
X182699171Y-118731202D02*
X182342028Y-118874059D01*
X182342028Y-118874059D02*
X182270600Y-118945488D01*
X182270600Y-118945488D02*
X182199171Y-119088345D01*
D12*
X162521009Y-97014285D02*
X162568628Y-97157142D01*
X162568628Y-97157142D02*
X162616247Y-97204761D01*
X162616247Y-97204761D02*
X162711485Y-97252380D01*
X162711485Y-97252380D02*
X162854342Y-97252380D01*
X162854342Y-97252380D02*
X162949580Y-97204761D01*
X162949580Y-97204761D02*
X162997200Y-97157142D01*
X162997200Y-97157142D02*
X163044819Y-97061904D01*
X163044819Y-97061904D02*
X163044819Y-96680952D01*
X163044819Y-96680952D02*
X162044819Y-96680952D01*
X162044819Y-96680952D02*
X162044819Y-97014285D01*
X162044819Y-97014285D02*
X162092438Y-97109523D01*
X162092438Y-97109523D02*
X162140057Y-97157142D01*
X162140057Y-97157142D02*
X162235295Y-97204761D01*
X162235295Y-97204761D02*
X162330533Y-97204761D01*
X162330533Y-97204761D02*
X162425771Y-97157142D01*
X162425771Y-97157142D02*
X162473390Y-97109523D01*
X162473390Y-97109523D02*
X162521009Y-97014285D01*
X162521009Y-97014285D02*
X162521009Y-96680952D01*
X162044819Y-97538095D02*
X162044819Y-98109523D01*
X163044819Y-97823809D02*
X162044819Y-97823809D01*
X163044819Y-98966666D02*
X163044819Y-98395238D01*
X163044819Y-98680952D02*
X162044819Y-98680952D01*
X162044819Y-98680952D02*
X162187676Y-98585714D01*
X162187676Y-98585714D02*
X162282914Y-98490476D01*
X162282914Y-98490476D02*
X162330533Y-98395238D01*
%TO.C,BT1*%
D13*
X145090000Y-84950000D02*
X140890000Y-84950000D01*
X145090000Y-110650000D02*
X140890000Y-110650000D01*
X154590000Y-84950000D02*
X151290000Y-84950000D01*
X154590000Y-110650000D02*
X151290000Y-110650000D01*
X160440000Y-93850000D02*
X154590000Y-84950000D01*
X160440000Y-101750000D02*
X154590000Y-110650000D01*
X161240000Y-93850000D02*
X160440000Y-93850000D01*
X161240000Y-101750000D02*
X160440000Y-101750000D01*
X161240000Y-101750000D02*
X161240000Y-93850000D01*
X138240000Y-87650000D02*
G75*
G02*
X140940000Y-84950000I2700000J0D01*
G01*
X138240000Y-107950000D02*
G75*
G02*
X138518249Y-107278249I950003J-2D01*
G01*
X138518249Y-88321751D02*
G75*
G02*
X138240001Y-87650000I671751J671751D01*
G01*
X140940000Y-110650000D02*
G75*
G02*
X138240000Y-107950000I1J2700001D01*
G01*
%TD*%
M02*
