%TF.GenerationSoftware,KiCad,Pcbnew,10.0.3*%
%TF.CreationDate,2026-08-20T13:00:50-07:00*%
%TF.ProjectId,e,652e6b69-6361-4645-9f70-636258585858,rev?*%
%TF.SameCoordinates,Original*%
%TF.FileFunction,Legend,Bot*%
%TF.FilePolarity,Positive*%
%FSLAX46Y46*%
G04 Gerber Fmt 4.6, Leading zero omitted, Abs format (unit mm)*
G04 Created by KiCad (PCBNEW 10.0.3) date 2026-08-20 13:00:50*
%MOMM*%
%LPD*%
G01*
G04 APERTURE LIST*
%ADD10C,0.100000*%
%ADD11C,0.150000*%
%ADD12C,0.120000*%
G04 APERTURE END LIST*
D10*
X220794247Y-113434211D02*
X220508533Y-114196115D01*
X220508533Y-114196115D02*
X220222819Y-113434211D01*
X220127580Y-112815163D02*
X220175200Y-112910401D01*
X220175200Y-112910401D02*
X220222819Y-112958020D01*
X220222819Y-112958020D02*
X220318057Y-113005639D01*
X220318057Y-113005639D02*
X220603771Y-113005639D01*
X220603771Y-113005639D02*
X220699009Y-112958020D01*
X220699009Y-112958020D02*
X220746628Y-112910401D01*
X220746628Y-112910401D02*
X220794247Y-112815163D01*
X220794247Y-112815163D02*
X220794247Y-112672306D01*
X220794247Y-112672306D02*
X220746628Y-112577068D01*
X220746628Y-112577068D02*
X220699009Y-112529449D01*
X220699009Y-112529449D02*
X220603771Y-112481830D01*
X220603771Y-112481830D02*
X220318057Y-112481830D01*
X220318057Y-112481830D02*
X220222819Y-112529449D01*
X220222819Y-112529449D02*
X220175200Y-112577068D01*
X220175200Y-112577068D02*
X220127580Y-112672306D01*
X220127580Y-112672306D02*
X220127580Y-112815163D01*
X221127580Y-112910401D02*
X221079961Y-112862782D01*
X221079961Y-112862782D02*
X221032342Y-112910401D01*
X221032342Y-112910401D02*
X221079961Y-112958020D01*
X221079961Y-112958020D02*
X221127580Y-112910401D01*
X221127580Y-112910401D02*
X221032342Y-112910401D01*
X221127580Y-112529449D02*
X221079961Y-112481830D01*
X221079961Y-112481830D02*
X221032342Y-112529449D01*
X221032342Y-112529449D02*
X221079961Y-112577068D01*
X221079961Y-112577068D02*
X221127580Y-112529449D01*
X221127580Y-112529449D02*
X221032342Y-112529449D01*
X220794247Y-112053258D02*
X220508533Y-111291354D01*
X220508533Y-111291354D02*
X220222819Y-112053258D01*
D11*
X242331009Y-101714285D02*
X242378628Y-101857142D01*
X242378628Y-101857142D02*
X242426247Y-101904761D01*
X242426247Y-101904761D02*
X242521485Y-101952380D01*
X242521485Y-101952380D02*
X242664342Y-101952380D01*
X242664342Y-101952380D02*
X242759580Y-101904761D01*
X242759580Y-101904761D02*
X242807200Y-101857142D01*
X242807200Y-101857142D02*
X242854819Y-101761904D01*
X242854819Y-101761904D02*
X242854819Y-101380952D01*
X242854819Y-101380952D02*
X241854819Y-101380952D01*
X241854819Y-101380952D02*
X241854819Y-101714285D01*
X241854819Y-101714285D02*
X241902438Y-101809523D01*
X241902438Y-101809523D02*
X241950057Y-101857142D01*
X241950057Y-101857142D02*
X242045295Y-101904761D01*
X242045295Y-101904761D02*
X242140533Y-101904761D01*
X242140533Y-101904761D02*
X242235771Y-101857142D01*
X242235771Y-101857142D02*
X242283390Y-101809523D01*
X242283390Y-101809523D02*
X242331009Y-101714285D01*
X242331009Y-101714285D02*
X242331009Y-101380952D01*
X241854819Y-102238095D02*
X241854819Y-102809523D01*
X242854819Y-102523809D02*
X241854819Y-102523809D01*
X242854819Y-103666666D02*
X242854819Y-103095238D01*
X242854819Y-103380952D02*
X241854819Y-103380952D01*
X241854819Y-103380952D02*
X241997676Y-103285714D01*
X241997676Y-103285714D02*
X242092914Y-103190476D01*
X242092914Y-103190476D02*
X242140533Y-103095238D01*
%TO.C,BT1*%
D12*
X224900000Y-89650000D02*
X220700000Y-89650000D01*
X224900000Y-115350000D02*
X220700000Y-115350000D01*
X234400000Y-89650000D02*
X231100000Y-89650000D01*
X234400000Y-115350000D02*
X231100000Y-115350000D01*
X240250000Y-98550000D02*
X234400000Y-89650000D01*
X240250000Y-106450000D02*
X234400000Y-115350000D01*
X241050000Y-98550000D02*
X240250000Y-98550000D01*
X241050000Y-106450000D02*
X240250000Y-106450000D01*
X241050000Y-106450000D02*
X241050000Y-98550000D01*
X218050000Y-92350000D02*
G75*
G02*
X220750000Y-89650000I2700000J0D01*
G01*
X218050000Y-112650000D02*
G75*
G02*
X218328249Y-111978249I950003J-2D01*
G01*
X218328249Y-93021751D02*
G75*
G02*
X218050001Y-92350000I671751J671751D01*
G01*
X220750000Y-115350000D02*
G75*
G02*
X218050000Y-112650000I1J2700001D01*
G01*
%TD*%
M02*
