%TF.GenerationSoftware,KiCad,Pcbnew,10.0.3*%
%TF.CreationDate,2026-08-20T13:00:50-07:00*%
%TF.ProjectId,e,652e6b69-6361-4645-9f70-636258585858,rev?*%
%TF.SameCoordinates,Original*%
%TF.FileFunction,Legend,Top*%
%TF.FilePolarity,Positive*%
%FSLAX46Y46*%
G04 Gerber Fmt 4.6, Leading zero omitted, Abs format (unit mm)*
G04 Created by KiCad (PCBNEW 10.0.3) date 2026-08-20 13:00:50*
%MOMM*%
%LPD*%
G01*
G04 APERTURE LIST*
%ADD10C,0.100000*%
%ADD11C,0.150000*%
%ADD12C,0.120000*%
G04 APERTURE END LIST*
D10*
X187132455Y-134942466D02*
X187399122Y-134942466D01*
X187232455Y-135409133D02*
X187232455Y-134809133D01*
X187232455Y-134809133D02*
X187265789Y-134742466D01*
X187265789Y-134742466D02*
X187332455Y-134709133D01*
X187332455Y-134709133D02*
X187399122Y-134709133D01*
X187632455Y-135409133D02*
X187632455Y-134942466D01*
X187632455Y-135075800D02*
X187665789Y-135009133D01*
X187665789Y-135009133D02*
X187699122Y-134975800D01*
X187699122Y-134975800D02*
X187765789Y-134942466D01*
X187765789Y-134942466D02*
X187832455Y-134942466D01*
X188165788Y-135409133D02*
X188099122Y-135375800D01*
X188099122Y-135375800D02*
X188065788Y-135342466D01*
X188065788Y-135342466D02*
X188032455Y-135275800D01*
X188032455Y-135275800D02*
X188032455Y-135075800D01*
X188032455Y-135075800D02*
X188065788Y-135009133D01*
X188065788Y-135009133D02*
X188099122Y-134975800D01*
X188099122Y-134975800D02*
X188165788Y-134942466D01*
X188165788Y-134942466D02*
X188265788Y-134942466D01*
X188265788Y-134942466D02*
X188332455Y-134975800D01*
X188332455Y-134975800D02*
X188365788Y-135009133D01*
X188365788Y-135009133D02*
X188399122Y-135075800D01*
X188399122Y-135075800D02*
X188399122Y-135275800D01*
X188399122Y-135275800D02*
X188365788Y-135342466D01*
X188365788Y-135342466D02*
X188332455Y-135375800D01*
X188332455Y-135375800D02*
X188265788Y-135409133D01*
X188265788Y-135409133D02*
X188165788Y-135409133D01*
X188699121Y-135409133D02*
X188699121Y-134942466D01*
X188699121Y-135009133D02*
X188732455Y-134975800D01*
X188732455Y-134975800D02*
X188799121Y-134942466D01*
X188799121Y-134942466D02*
X188899121Y-134942466D01*
X188899121Y-134942466D02*
X188965788Y-134975800D01*
X188965788Y-134975800D02*
X188999121Y-135042466D01*
X188999121Y-135042466D02*
X188999121Y-135409133D01*
X188999121Y-135042466D02*
X189032455Y-134975800D01*
X189032455Y-134975800D02*
X189099121Y-134942466D01*
X189099121Y-134942466D02*
X189199121Y-134942466D01*
X189199121Y-134942466D02*
X189265788Y-134975800D01*
X189265788Y-134975800D02*
X189299121Y-135042466D01*
X189299121Y-135042466D02*
X189299121Y-135409133D01*
X190165787Y-135409133D02*
X190165787Y-134942466D01*
X190165787Y-135009133D02*
X190199121Y-134975800D01*
X190199121Y-134975800D02*
X190265787Y-134942466D01*
X190265787Y-134942466D02*
X190365787Y-134942466D01*
X190365787Y-134942466D02*
X190432454Y-134975800D01*
X190432454Y-134975800D02*
X190465787Y-135042466D01*
X190465787Y-135042466D02*
X190465787Y-135409133D01*
X190465787Y-135042466D02*
X190499121Y-134975800D01*
X190499121Y-134975800D02*
X190565787Y-134942466D01*
X190565787Y-134942466D02*
X190665787Y-134942466D01*
X190665787Y-134942466D02*
X190732454Y-134975800D01*
X190732454Y-134975800D02*
X190765787Y-135042466D01*
X190765787Y-135042466D02*
X190765787Y-135409133D01*
X191199120Y-135409133D02*
X191132454Y-135375800D01*
X191132454Y-135375800D02*
X191099120Y-135342466D01*
X191099120Y-135342466D02*
X191065787Y-135275800D01*
X191065787Y-135275800D02*
X191065787Y-135075800D01*
X191065787Y-135075800D02*
X191099120Y-135009133D01*
X191099120Y-135009133D02*
X191132454Y-134975800D01*
X191132454Y-134975800D02*
X191199120Y-134942466D01*
X191199120Y-134942466D02*
X191299120Y-134942466D01*
X191299120Y-134942466D02*
X191365787Y-134975800D01*
X191365787Y-134975800D02*
X191399120Y-135009133D01*
X191399120Y-135009133D02*
X191432454Y-135075800D01*
X191432454Y-135075800D02*
X191432454Y-135275800D01*
X191432454Y-135275800D02*
X191399120Y-135342466D01*
X191399120Y-135342466D02*
X191365787Y-135375800D01*
X191365787Y-135375800D02*
X191299120Y-135409133D01*
X191299120Y-135409133D02*
X191199120Y-135409133D01*
X191732453Y-134942466D02*
X191732453Y-135409133D01*
X191732453Y-135009133D02*
X191765787Y-134975800D01*
X191765787Y-134975800D02*
X191832453Y-134942466D01*
X191832453Y-134942466D02*
X191932453Y-134942466D01*
X191932453Y-134942466D02*
X191999120Y-134975800D01*
X191999120Y-134975800D02*
X192032453Y-135042466D01*
X192032453Y-135042466D02*
X192032453Y-135409133D01*
X192265786Y-134942466D02*
X192532453Y-134942466D01*
X192365786Y-134709133D02*
X192365786Y-135309133D01*
X192365786Y-135309133D02*
X192399120Y-135375800D01*
X192399120Y-135375800D02*
X192465786Y-135409133D01*
X192465786Y-135409133D02*
X192532453Y-135409133D01*
X192699120Y-134942466D02*
X192865786Y-135409133D01*
X193032453Y-134942466D02*
X192865786Y-135409133D01*
X192865786Y-135409133D02*
X192799120Y-135575800D01*
X192799120Y-135575800D02*
X192765786Y-135609133D01*
X192765786Y-135609133D02*
X192699120Y-135642466D01*
X193832452Y-135342466D02*
X193865786Y-135375800D01*
X193865786Y-135375800D02*
X193832452Y-135409133D01*
X193832452Y-135409133D02*
X193799119Y-135375800D01*
X193799119Y-135375800D02*
X193832452Y-135342466D01*
X193832452Y-135342466D02*
X193832452Y-135409133D01*
X193832452Y-134975800D02*
X193865786Y-135009133D01*
X193865786Y-135009133D02*
X193832452Y-135042466D01*
X193832452Y-135042466D02*
X193799119Y-135009133D01*
X193799119Y-135009133D02*
X193832452Y-134975800D01*
X193832452Y-134975800D02*
X193832452Y-135042466D01*
X194099119Y-135675800D02*
X194132452Y-135642466D01*
X194132452Y-135642466D02*
X194199119Y-135542466D01*
X194199119Y-135542466D02*
X194232452Y-135475800D01*
X194232452Y-135475800D02*
X194265785Y-135375800D01*
X194265785Y-135375800D02*
X194299119Y-135209133D01*
X194299119Y-135209133D02*
X194299119Y-135075800D01*
X194299119Y-135075800D02*
X194265785Y-134909133D01*
X194265785Y-134909133D02*
X194232452Y-134809133D01*
X194232452Y-134809133D02*
X194199119Y-134742466D01*
X194199119Y-134742466D02*
X194132452Y-134642466D01*
X194132452Y-134642466D02*
X194099119Y-134609133D01*
X259870550Y-106196895D02*
X259794360Y-106158800D01*
X259794360Y-106158800D02*
X259756265Y-106120704D01*
X259756265Y-106120704D02*
X259718169Y-106044514D01*
X259718169Y-106044514D02*
X259718169Y-105815942D01*
X259718169Y-105815942D02*
X259756265Y-105739752D01*
X259756265Y-105739752D02*
X259794360Y-105701657D01*
X259794360Y-105701657D02*
X259870550Y-105663561D01*
X259870550Y-105663561D02*
X259984836Y-105663561D01*
X259984836Y-105663561D02*
X260061027Y-105701657D01*
X260061027Y-105701657D02*
X260099122Y-105739752D01*
X260099122Y-105739752D02*
X260137217Y-105815942D01*
X260137217Y-105815942D02*
X260137217Y-106044514D01*
X260137217Y-106044514D02*
X260099122Y-106120704D01*
X260099122Y-106120704D02*
X260061027Y-106158800D01*
X260061027Y-106158800D02*
X259984836Y-106196895D01*
X259984836Y-106196895D02*
X259870550Y-106196895D01*
X260480075Y-105663561D02*
X260480075Y-106196895D01*
X260480075Y-105739752D02*
X260518170Y-105701657D01*
X260518170Y-105701657D02*
X260594360Y-105663561D01*
X260594360Y-105663561D02*
X260708646Y-105663561D01*
X260708646Y-105663561D02*
X260784837Y-105701657D01*
X260784837Y-105701657D02*
X260822932Y-105777847D01*
X260822932Y-105777847D02*
X260822932Y-106196895D01*
X260629449Y-92403104D02*
X260705639Y-92441200D01*
X260705639Y-92441200D02*
X260743734Y-92479295D01*
X260743734Y-92479295D02*
X260781830Y-92555485D01*
X260781830Y-92555485D02*
X260781830Y-92784057D01*
X260781830Y-92784057D02*
X260743734Y-92860247D01*
X260743734Y-92860247D02*
X260705639Y-92898342D01*
X260705639Y-92898342D02*
X260629449Y-92936438D01*
X260629449Y-92936438D02*
X260515163Y-92936438D01*
X260515163Y-92936438D02*
X260438972Y-92898342D01*
X260438972Y-92898342D02*
X260400877Y-92860247D01*
X260400877Y-92860247D02*
X260362782Y-92784057D01*
X260362782Y-92784057D02*
X260362782Y-92555485D01*
X260362782Y-92555485D02*
X260400877Y-92479295D01*
X260400877Y-92479295D02*
X260438972Y-92441200D01*
X260438972Y-92441200D02*
X260515163Y-92403104D01*
X260515163Y-92403104D02*
X260629449Y-92403104D01*
X260134210Y-92936438D02*
X259829448Y-92936438D01*
X260019924Y-92403104D02*
X260019924Y-93088819D01*
X260019924Y-93088819D02*
X259981829Y-93165009D01*
X259981829Y-93165009D02*
X259905639Y-93203104D01*
X259905639Y-93203104D02*
X259829448Y-93203104D01*
X259677067Y-92936438D02*
X259372305Y-92936438D01*
X259562781Y-92403104D02*
X259562781Y-93088819D01*
X259562781Y-93088819D02*
X259524686Y-93165009D01*
X259524686Y-93165009D02*
X259448496Y-93203104D01*
X259448496Y-93203104D02*
X259372305Y-93203104D01*
D11*
X207804819Y-114166666D02*
X207328628Y-114499999D01*
X207804819Y-114738094D02*
X206804819Y-114738094D01*
X206804819Y-114738094D02*
X206804819Y-114357142D01*
X206804819Y-114357142D02*
X206852438Y-114261904D01*
X206852438Y-114261904D02*
X206900057Y-114214285D01*
X206900057Y-114214285D02*
X206995295Y-114166666D01*
X206995295Y-114166666D02*
X207138152Y-114166666D01*
X207138152Y-114166666D02*
X207233390Y-114214285D01*
X207233390Y-114214285D02*
X207281009Y-114261904D01*
X207281009Y-114261904D02*
X207328628Y-114357142D01*
X207328628Y-114357142D02*
X207328628Y-114738094D01*
X206900057Y-113785713D02*
X206852438Y-113738094D01*
X206852438Y-113738094D02*
X206804819Y-113642856D01*
X206804819Y-113642856D02*
X206804819Y-113404761D01*
X206804819Y-113404761D02*
X206852438Y-113309523D01*
X206852438Y-113309523D02*
X206900057Y-113261904D01*
X206900057Y-113261904D02*
X206995295Y-113214285D01*
X206995295Y-113214285D02*
X207090533Y-113214285D01*
X207090533Y-113214285D02*
X207233390Y-113261904D01*
X207233390Y-113261904D02*
X207804819Y-113833332D01*
X207804819Y-113833332D02*
X207804819Y-113214285D01*
X256907200Y-98643332D02*
X256954819Y-98500475D01*
X256954819Y-98500475D02*
X256954819Y-98262380D01*
X256954819Y-98262380D02*
X256907200Y-98167142D01*
X256907200Y-98167142D02*
X256859580Y-98119523D01*
X256859580Y-98119523D02*
X256764342Y-98071904D01*
X256764342Y-98071904D02*
X256669104Y-98071904D01*
X256669104Y-98071904D02*
X256573866Y-98119523D01*
X256573866Y-98119523D02*
X256526247Y-98167142D01*
X256526247Y-98167142D02*
X256478628Y-98262380D01*
X256478628Y-98262380D02*
X256431009Y-98452856D01*
X256431009Y-98452856D02*
X256383390Y-98548094D01*
X256383390Y-98548094D02*
X256335771Y-98595713D01*
X256335771Y-98595713D02*
X256240533Y-98643332D01*
X256240533Y-98643332D02*
X256145295Y-98643332D01*
X256145295Y-98643332D02*
X256050057Y-98595713D01*
X256050057Y-98595713D02*
X256002438Y-98548094D01*
X256002438Y-98548094D02*
X255954819Y-98452856D01*
X255954819Y-98452856D02*
X255954819Y-98214761D01*
X255954819Y-98214761D02*
X256002438Y-98071904D01*
X255954819Y-97738570D02*
X256954819Y-97500475D01*
X256954819Y-97500475D02*
X256240533Y-97309999D01*
X256240533Y-97309999D02*
X256954819Y-97119523D01*
X256954819Y-97119523D02*
X255954819Y-96881428D01*
X256954819Y-95976666D02*
X256954819Y-96548094D01*
X256954819Y-96262380D02*
X255954819Y-96262380D01*
X255954819Y-96262380D02*
X256097676Y-96357618D01*
X256097676Y-96357618D02*
X256192914Y-96452856D01*
X256192914Y-96452856D02*
X256240533Y-96548094D01*
X257907200Y-113633332D02*
X257954819Y-113490475D01*
X257954819Y-113490475D02*
X257954819Y-113252380D01*
X257954819Y-113252380D02*
X257907200Y-113157142D01*
X257907200Y-113157142D02*
X257859580Y-113109523D01*
X257859580Y-113109523D02*
X257764342Y-113061904D01*
X257764342Y-113061904D02*
X257669104Y-113061904D01*
X257669104Y-113061904D02*
X257573866Y-113109523D01*
X257573866Y-113109523D02*
X257526247Y-113157142D01*
X257526247Y-113157142D02*
X257478628Y-113252380D01*
X257478628Y-113252380D02*
X257431009Y-113442856D01*
X257431009Y-113442856D02*
X257383390Y-113538094D01*
X257383390Y-113538094D02*
X257335771Y-113585713D01*
X257335771Y-113585713D02*
X257240533Y-113633332D01*
X257240533Y-113633332D02*
X257145295Y-113633332D01*
X257145295Y-113633332D02*
X257050057Y-113585713D01*
X257050057Y-113585713D02*
X257002438Y-113538094D01*
X257002438Y-113538094D02*
X256954819Y-113442856D01*
X256954819Y-113442856D02*
X256954819Y-113204761D01*
X256954819Y-113204761D02*
X257002438Y-113061904D01*
X256954819Y-112728570D02*
X257954819Y-112490475D01*
X257954819Y-112490475D02*
X257240533Y-112299999D01*
X257240533Y-112299999D02*
X257954819Y-112109523D01*
X257954819Y-112109523D02*
X256954819Y-111871428D01*
X257050057Y-111538094D02*
X257002438Y-111490475D01*
X257002438Y-111490475D02*
X256954819Y-111395237D01*
X256954819Y-111395237D02*
X256954819Y-111157142D01*
X256954819Y-111157142D02*
X257002438Y-111061904D01*
X257002438Y-111061904D02*
X257050057Y-111014285D01*
X257050057Y-111014285D02*
X257145295Y-110966666D01*
X257145295Y-110966666D02*
X257240533Y-110966666D01*
X257240533Y-110966666D02*
X257383390Y-111014285D01*
X257383390Y-111014285D02*
X257954819Y-111585713D01*
X257954819Y-111585713D02*
X257954819Y-110966666D01*
D10*
X223037419Y-134341904D02*
X223846942Y-134341904D01*
X223846942Y-134341904D02*
X223942180Y-134294285D01*
X223942180Y-134294285D02*
X223989800Y-134246666D01*
X223989800Y-134246666D02*
X224037419Y-134151428D01*
X224037419Y-134151428D02*
X224037419Y-133960952D01*
X224037419Y-133960952D02*
X223989800Y-133865714D01*
X223989800Y-133865714D02*
X223942180Y-133818095D01*
X223942180Y-133818095D02*
X223846942Y-133770476D01*
X223846942Y-133770476D02*
X223037419Y-133770476D01*
X223132657Y-133341904D02*
X223085038Y-133294285D01*
X223085038Y-133294285D02*
X223037419Y-133199047D01*
X223037419Y-133199047D02*
X223037419Y-132960952D01*
X223037419Y-132960952D02*
X223085038Y-132865714D01*
X223085038Y-132865714D02*
X223132657Y-132818095D01*
X223132657Y-132818095D02*
X223227895Y-132770476D01*
X223227895Y-132770476D02*
X223323133Y-132770476D01*
X223323133Y-132770476D02*
X223465990Y-132818095D01*
X223465990Y-132818095D02*
X224037419Y-133389523D01*
X224037419Y-133389523D02*
X224037419Y-132770476D01*
X205072133Y-125723734D02*
X205072133Y-125114211D01*
X205072133Y-129523734D02*
X205072133Y-128914211D01*
X205376895Y-129218972D02*
X204767371Y-129218972D01*
X217876895Y-120638020D02*
X218676895Y-120371353D01*
X218676895Y-120371353D02*
X217876895Y-120104687D01*
X218676895Y-119838020D02*
X218143561Y-119838020D01*
X217876895Y-119838020D02*
X217914990Y-119876116D01*
X217914990Y-119876116D02*
X217953085Y-119838020D01*
X217953085Y-119838020D02*
X217914990Y-119799925D01*
X217914990Y-119799925D02*
X217876895Y-119838020D01*
X217876895Y-119838020D02*
X217953085Y-119838020D01*
X218143561Y-119457068D02*
X218676895Y-119457068D01*
X218219752Y-119457068D02*
X218181657Y-119418973D01*
X218181657Y-119418973D02*
X218143561Y-119342783D01*
X218143561Y-119342783D02*
X218143561Y-119228497D01*
X218143561Y-119228497D02*
X218181657Y-119152306D01*
X218181657Y-119152306D02*
X218257847Y-119114211D01*
X218257847Y-119114211D02*
X218676895Y-119114211D01*
X218638800Y-125361830D02*
X218676895Y-125247544D01*
X218676895Y-125247544D02*
X218676895Y-125057068D01*
X218676895Y-125057068D02*
X218638800Y-124980877D01*
X218638800Y-124980877D02*
X218600704Y-124942782D01*
X218600704Y-124942782D02*
X218524514Y-124904687D01*
X218524514Y-124904687D02*
X218448323Y-124904687D01*
X218448323Y-124904687D02*
X218372133Y-124942782D01*
X218372133Y-124942782D02*
X218334038Y-124980877D01*
X218334038Y-124980877D02*
X218295942Y-125057068D01*
X218295942Y-125057068D02*
X218257847Y-125209449D01*
X218257847Y-125209449D02*
X218219752Y-125285639D01*
X218219752Y-125285639D02*
X218181657Y-125323734D01*
X218181657Y-125323734D02*
X218105466Y-125361830D01*
X218105466Y-125361830D02*
X218029276Y-125361830D01*
X218029276Y-125361830D02*
X217953085Y-125323734D01*
X217953085Y-125323734D02*
X217914990Y-125285639D01*
X217914990Y-125285639D02*
X217876895Y-125209449D01*
X217876895Y-125209449D02*
X217876895Y-125018972D01*
X217876895Y-125018972D02*
X217914990Y-124904687D01*
X218676895Y-124561829D02*
X217876895Y-124561829D01*
X217876895Y-124561829D02*
X217876895Y-124371353D01*
X217876895Y-124371353D02*
X217914990Y-124257067D01*
X217914990Y-124257067D02*
X217991180Y-124180877D01*
X217991180Y-124180877D02*
X218067371Y-124142782D01*
X218067371Y-124142782D02*
X218219752Y-124104686D01*
X218219752Y-124104686D02*
X218334038Y-124104686D01*
X218334038Y-124104686D02*
X218486419Y-124142782D01*
X218486419Y-124142782D02*
X218562609Y-124180877D01*
X218562609Y-124180877D02*
X218638800Y-124257067D01*
X218638800Y-124257067D02*
X218676895Y-124371353D01*
X218676895Y-124371353D02*
X218676895Y-124561829D01*
X218676895Y-135542782D02*
X218676895Y-135923734D01*
X218676895Y-135923734D02*
X217876895Y-135923734D01*
X218676895Y-134818972D02*
X218295942Y-135085639D01*
X218676895Y-135276115D02*
X217876895Y-135276115D01*
X217876895Y-135276115D02*
X217876895Y-134971353D01*
X217876895Y-134971353D02*
X217914990Y-134895163D01*
X217914990Y-134895163D02*
X217953085Y-134857068D01*
X217953085Y-134857068D02*
X218029276Y-134818972D01*
X218029276Y-134818972D02*
X218143561Y-134818972D01*
X218143561Y-134818972D02*
X218219752Y-134857068D01*
X218219752Y-134857068D02*
X218257847Y-134895163D01*
X218257847Y-134895163D02*
X218295942Y-134971353D01*
X218295942Y-134971353D02*
X218295942Y-135276115D01*
X218600704Y-134018972D02*
X218638800Y-134057068D01*
X218638800Y-134057068D02*
X218676895Y-134171353D01*
X218676895Y-134171353D02*
X218676895Y-134247544D01*
X218676895Y-134247544D02*
X218638800Y-134361830D01*
X218638800Y-134361830D02*
X218562609Y-134438020D01*
X218562609Y-134438020D02*
X218486419Y-134476115D01*
X218486419Y-134476115D02*
X218334038Y-134514211D01*
X218334038Y-134514211D02*
X218219752Y-134514211D01*
X218219752Y-134514211D02*
X218067371Y-134476115D01*
X218067371Y-134476115D02*
X217991180Y-134438020D01*
X217991180Y-134438020D02*
X217914990Y-134361830D01*
X217914990Y-134361830D02*
X217876895Y-134247544D01*
X217876895Y-134247544D02*
X217876895Y-134171353D01*
X217876895Y-134171353D02*
X217914990Y-134057068D01*
X217914990Y-134057068D02*
X217953085Y-134018972D01*
X218876895Y-130723734D02*
X218076895Y-130723734D01*
X218076895Y-130723734D02*
X218076895Y-130533258D01*
X218076895Y-130533258D02*
X218114990Y-130418972D01*
X218114990Y-130418972D02*
X218191180Y-130342782D01*
X218191180Y-130342782D02*
X218267371Y-130304687D01*
X218267371Y-130304687D02*
X218419752Y-130266591D01*
X218419752Y-130266591D02*
X218534038Y-130266591D01*
X218534038Y-130266591D02*
X218686419Y-130304687D01*
X218686419Y-130304687D02*
X218762609Y-130342782D01*
X218762609Y-130342782D02*
X218838800Y-130418972D01*
X218838800Y-130418972D02*
X218876895Y-130533258D01*
X218876895Y-130533258D02*
X218876895Y-130723734D01*
X218876895Y-129923734D02*
X218076895Y-129923734D01*
X218876895Y-129542782D02*
X218076895Y-129542782D01*
X218076895Y-129542782D02*
X218876895Y-129085639D01*
X218876895Y-129085639D02*
X218076895Y-129085639D01*
X221314990Y-122904687D02*
X221276895Y-122980877D01*
X221276895Y-122980877D02*
X221276895Y-123095163D01*
X221276895Y-123095163D02*
X221314990Y-123209449D01*
X221314990Y-123209449D02*
X221391180Y-123285639D01*
X221391180Y-123285639D02*
X221467371Y-123323734D01*
X221467371Y-123323734D02*
X221619752Y-123361830D01*
X221619752Y-123361830D02*
X221734038Y-123361830D01*
X221734038Y-123361830D02*
X221886419Y-123323734D01*
X221886419Y-123323734D02*
X221962609Y-123285639D01*
X221962609Y-123285639D02*
X222038800Y-123209449D01*
X222038800Y-123209449D02*
X222076895Y-123095163D01*
X222076895Y-123095163D02*
X222076895Y-123018972D01*
X222076895Y-123018972D02*
X222038800Y-122904687D01*
X222038800Y-122904687D02*
X222000704Y-122866591D01*
X222000704Y-122866591D02*
X221734038Y-122866591D01*
X221734038Y-122866591D02*
X221734038Y-123018972D01*
X222076895Y-122523734D02*
X221276895Y-122523734D01*
X221276895Y-122523734D02*
X222076895Y-122066591D01*
X222076895Y-122066591D02*
X221276895Y-122066591D01*
X222076895Y-121685639D02*
X221276895Y-121685639D01*
X221276895Y-121685639D02*
X221276895Y-121495163D01*
X221276895Y-121495163D02*
X221314990Y-121380877D01*
X221314990Y-121380877D02*
X221391180Y-121304687D01*
X221391180Y-121304687D02*
X221467371Y-121266592D01*
X221467371Y-121266592D02*
X221619752Y-121228496D01*
X221619752Y-121228496D02*
X221734038Y-121228496D01*
X221734038Y-121228496D02*
X221886419Y-121266592D01*
X221886419Y-121266592D02*
X221962609Y-121304687D01*
X221962609Y-121304687D02*
X222038800Y-121380877D01*
X222038800Y-121380877D02*
X222076895Y-121495163D01*
X222076895Y-121495163D02*
X222076895Y-121685639D01*
X221314990Y-128104687D02*
X221276895Y-128180877D01*
X221276895Y-128180877D02*
X221276895Y-128295163D01*
X221276895Y-128295163D02*
X221314990Y-128409449D01*
X221314990Y-128409449D02*
X221391180Y-128485639D01*
X221391180Y-128485639D02*
X221467371Y-128523734D01*
X221467371Y-128523734D02*
X221619752Y-128561830D01*
X221619752Y-128561830D02*
X221734038Y-128561830D01*
X221734038Y-128561830D02*
X221886419Y-128523734D01*
X221886419Y-128523734D02*
X221962609Y-128485639D01*
X221962609Y-128485639D02*
X222038800Y-128409449D01*
X222038800Y-128409449D02*
X222076895Y-128295163D01*
X222076895Y-128295163D02*
X222076895Y-128218972D01*
X222076895Y-128218972D02*
X222038800Y-128104687D01*
X222038800Y-128104687D02*
X222000704Y-128066591D01*
X222000704Y-128066591D02*
X221734038Y-128066591D01*
X221734038Y-128066591D02*
X221734038Y-128218972D01*
X221848323Y-127761830D02*
X221848323Y-127380877D01*
X222076895Y-127838020D02*
X221276895Y-127571353D01*
X221276895Y-127571353D02*
X222076895Y-127304687D01*
X222076895Y-127038020D02*
X221276895Y-127038020D01*
X222076895Y-126657068D02*
X221276895Y-126657068D01*
X221276895Y-126657068D02*
X222076895Y-126199925D01*
X222076895Y-126199925D02*
X221276895Y-126199925D01*
X221657847Y-133457068D02*
X221695942Y-133342782D01*
X221695942Y-133342782D02*
X221734038Y-133304687D01*
X221734038Y-133304687D02*
X221810228Y-133266591D01*
X221810228Y-133266591D02*
X221924514Y-133266591D01*
X221924514Y-133266591D02*
X222000704Y-133304687D01*
X222000704Y-133304687D02*
X222038800Y-133342782D01*
X222038800Y-133342782D02*
X222076895Y-133418972D01*
X222076895Y-133418972D02*
X222076895Y-133723734D01*
X222076895Y-133723734D02*
X221276895Y-133723734D01*
X221276895Y-133723734D02*
X221276895Y-133457068D01*
X221276895Y-133457068D02*
X221314990Y-133380877D01*
X221314990Y-133380877D02*
X221353085Y-133342782D01*
X221353085Y-133342782D02*
X221429276Y-133304687D01*
X221429276Y-133304687D02*
X221505466Y-133304687D01*
X221505466Y-133304687D02*
X221581657Y-133342782D01*
X221581657Y-133342782D02*
X221619752Y-133380877D01*
X221619752Y-133380877D02*
X221657847Y-133457068D01*
X221657847Y-133457068D02*
X221657847Y-133723734D01*
X222000704Y-132466591D02*
X222038800Y-132504687D01*
X222038800Y-132504687D02*
X222076895Y-132618972D01*
X222076895Y-132618972D02*
X222076895Y-132695163D01*
X222076895Y-132695163D02*
X222038800Y-132809449D01*
X222038800Y-132809449D02*
X221962609Y-132885639D01*
X221962609Y-132885639D02*
X221886419Y-132923734D01*
X221886419Y-132923734D02*
X221734038Y-132961830D01*
X221734038Y-132961830D02*
X221619752Y-132961830D01*
X221619752Y-132961830D02*
X221467371Y-132923734D01*
X221467371Y-132923734D02*
X221391180Y-132885639D01*
X221391180Y-132885639D02*
X221314990Y-132809449D01*
X221314990Y-132809449D02*
X221276895Y-132695163D01*
X221276895Y-132695163D02*
X221276895Y-132618972D01*
X221276895Y-132618972D02*
X221314990Y-132504687D01*
X221314990Y-132504687D02*
X221353085Y-132466591D01*
X222076895Y-131742782D02*
X222076895Y-132123734D01*
X222076895Y-132123734D02*
X221276895Y-132123734D01*
X222076895Y-131476115D02*
X221276895Y-131476115D01*
X222076895Y-131018972D02*
X221619752Y-131361830D01*
X221276895Y-131018972D02*
X221734038Y-131476115D01*
D11*
X258954819Y-86738094D02*
X257954819Y-86738094D01*
X257954819Y-86738094D02*
X257954819Y-86499999D01*
X257954819Y-86499999D02*
X258002438Y-86357142D01*
X258002438Y-86357142D02*
X258097676Y-86261904D01*
X258097676Y-86261904D02*
X258192914Y-86214285D01*
X258192914Y-86214285D02*
X258383390Y-86166666D01*
X258383390Y-86166666D02*
X258526247Y-86166666D01*
X258526247Y-86166666D02*
X258716723Y-86214285D01*
X258716723Y-86214285D02*
X258811961Y-86261904D01*
X258811961Y-86261904D02*
X258907200Y-86357142D01*
X258907200Y-86357142D02*
X258954819Y-86499999D01*
X258954819Y-86499999D02*
X258954819Y-86738094D01*
X258050057Y-85785713D02*
X258002438Y-85738094D01*
X258002438Y-85738094D02*
X257954819Y-85642856D01*
X257954819Y-85642856D02*
X257954819Y-85404761D01*
X257954819Y-85404761D02*
X258002438Y-85309523D01*
X258002438Y-85309523D02*
X258050057Y-85261904D01*
X258050057Y-85261904D02*
X258145295Y-85214285D01*
X258145295Y-85214285D02*
X258240533Y-85214285D01*
X258240533Y-85214285D02*
X258383390Y-85261904D01*
X258383390Y-85261904D02*
X258954819Y-85833332D01*
X258954819Y-85833332D02*
X258954819Y-85214285D01*
D10*
X187857142Y-124957419D02*
X187380952Y-124957419D01*
X187380952Y-124957419D02*
X187380952Y-123957419D01*
X188142857Y-124909800D02*
X188285714Y-124957419D01*
X188285714Y-124957419D02*
X188523809Y-124957419D01*
X188523809Y-124957419D02*
X188619047Y-124909800D01*
X188619047Y-124909800D02*
X188666666Y-124862180D01*
X188666666Y-124862180D02*
X188714285Y-124766942D01*
X188714285Y-124766942D02*
X188714285Y-124671704D01*
X188714285Y-124671704D02*
X188666666Y-124576466D01*
X188666666Y-124576466D02*
X188619047Y-124528847D01*
X188619047Y-124528847D02*
X188523809Y-124481228D01*
X188523809Y-124481228D02*
X188333333Y-124433609D01*
X188333333Y-124433609D02*
X188238095Y-124385990D01*
X188238095Y-124385990D02*
X188190476Y-124338371D01*
X188190476Y-124338371D02*
X188142857Y-124243133D01*
X188142857Y-124243133D02*
X188142857Y-124147895D01*
X188142857Y-124147895D02*
X188190476Y-124052657D01*
X188190476Y-124052657D02*
X188238095Y-124005038D01*
X188238095Y-124005038D02*
X188333333Y-123957419D01*
X188333333Y-123957419D02*
X188571428Y-123957419D01*
X188571428Y-123957419D02*
X188714285Y-124005038D01*
X189666666Y-124957419D02*
X189095238Y-124957419D01*
X189380952Y-124957419D02*
X189380952Y-123957419D01*
X189380952Y-123957419D02*
X189285714Y-124100276D01*
X189285714Y-124100276D02*
X189190476Y-124195514D01*
X189190476Y-124195514D02*
X189095238Y-124243133D01*
D11*
X254646660Y-129944104D02*
X255122850Y-129944104D01*
X254551422Y-130229819D02*
X254884755Y-129229819D01*
X254884755Y-129229819D02*
X255218088Y-130229819D01*
X256075231Y-130229819D02*
X255503803Y-130229819D01*
X255789517Y-130229819D02*
X255789517Y-129229819D01*
X255789517Y-129229819D02*
X255694279Y-129372676D01*
X255694279Y-129372676D02*
X255599041Y-129467914D01*
X255599041Y-129467914D02*
X255503803Y-129515533D01*
D10*
X187238095Y-89457419D02*
X187238095Y-90266942D01*
X187238095Y-90266942D02*
X187285714Y-90362180D01*
X187285714Y-90362180D02*
X187333333Y-90409800D01*
X187333333Y-90409800D02*
X187428571Y-90457419D01*
X187428571Y-90457419D02*
X187619047Y-90457419D01*
X187619047Y-90457419D02*
X187714285Y-90409800D01*
X187714285Y-90409800D02*
X187761904Y-90362180D01*
X187761904Y-90362180D02*
X187809523Y-90266942D01*
X187809523Y-90266942D02*
X187809523Y-89457419D01*
X188809523Y-90457419D02*
X188238095Y-90457419D01*
X188523809Y-90457419D02*
X188523809Y-89457419D01*
X188523809Y-89457419D02*
X188428571Y-89600276D01*
X188428571Y-89600276D02*
X188333333Y-89695514D01*
X188333333Y-89695514D02*
X188238095Y-89743133D01*
X187432455Y-82229133D02*
X187665789Y-82929133D01*
X187665789Y-82929133D02*
X187899122Y-82229133D01*
X188132455Y-82662466D02*
X188665789Y-82662466D01*
X188399122Y-82929133D02*
X188399122Y-82395800D01*
X190065789Y-82229133D02*
X190499122Y-82229133D01*
X190499122Y-82229133D02*
X190265789Y-82495800D01*
X190265789Y-82495800D02*
X190365789Y-82495800D01*
X190365789Y-82495800D02*
X190432455Y-82529133D01*
X190432455Y-82529133D02*
X190465789Y-82562466D01*
X190465789Y-82562466D02*
X190499122Y-82629133D01*
X190499122Y-82629133D02*
X190499122Y-82795800D01*
X190499122Y-82795800D02*
X190465789Y-82862466D01*
X190465789Y-82862466D02*
X190432455Y-82895800D01*
X190432455Y-82895800D02*
X190365789Y-82929133D01*
X190365789Y-82929133D02*
X190165789Y-82929133D01*
X190165789Y-82929133D02*
X190099122Y-82895800D01*
X190099122Y-82895800D02*
X190065789Y-82862466D01*
X190699122Y-82229133D02*
X190932456Y-82929133D01*
X190932456Y-82929133D02*
X191165789Y-82229133D01*
X193329122Y-82222466D02*
X193262455Y-82189133D01*
X193262455Y-82189133D02*
X193162455Y-82189133D01*
X193162455Y-82189133D02*
X193062455Y-82222466D01*
X193062455Y-82222466D02*
X192995789Y-82289133D01*
X192995789Y-82289133D02*
X192962455Y-82355800D01*
X192962455Y-82355800D02*
X192929122Y-82489133D01*
X192929122Y-82489133D02*
X192929122Y-82589133D01*
X192929122Y-82589133D02*
X192962455Y-82722466D01*
X192962455Y-82722466D02*
X192995789Y-82789133D01*
X192995789Y-82789133D02*
X193062455Y-82855800D01*
X193062455Y-82855800D02*
X193162455Y-82889133D01*
X193162455Y-82889133D02*
X193229122Y-82889133D01*
X193229122Y-82889133D02*
X193329122Y-82855800D01*
X193329122Y-82855800D02*
X193362455Y-82822466D01*
X193362455Y-82822466D02*
X193362455Y-82589133D01*
X193362455Y-82589133D02*
X193229122Y-82589133D01*
X195550455Y-82862466D02*
X195517122Y-82895800D01*
X195517122Y-82895800D02*
X195417122Y-82929133D01*
X195417122Y-82929133D02*
X195350455Y-82929133D01*
X195350455Y-82929133D02*
X195250455Y-82895800D01*
X195250455Y-82895800D02*
X195183789Y-82829133D01*
X195183789Y-82829133D02*
X195150455Y-82762466D01*
X195150455Y-82762466D02*
X195117122Y-82629133D01*
X195117122Y-82629133D02*
X195117122Y-82529133D01*
X195117122Y-82529133D02*
X195150455Y-82395800D01*
X195150455Y-82395800D02*
X195183789Y-82329133D01*
X195183789Y-82329133D02*
X195250455Y-82262466D01*
X195250455Y-82262466D02*
X195350455Y-82229133D01*
X195350455Y-82229133D02*
X195417122Y-82229133D01*
X195417122Y-82229133D02*
X195517122Y-82262466D01*
X195517122Y-82262466D02*
X195550455Y-82295800D01*
X195850455Y-82929133D02*
X195850455Y-82229133D01*
X196250455Y-82929133D02*
X195950455Y-82529133D01*
X196250455Y-82229133D02*
X195850455Y-82629133D01*
X197717122Y-82895800D02*
X197817122Y-82929133D01*
X197817122Y-82929133D02*
X197983789Y-82929133D01*
X197983789Y-82929133D02*
X198050455Y-82895800D01*
X198050455Y-82895800D02*
X198083789Y-82862466D01*
X198083789Y-82862466D02*
X198117122Y-82795800D01*
X198117122Y-82795800D02*
X198117122Y-82729133D01*
X198117122Y-82729133D02*
X198083789Y-82662466D01*
X198083789Y-82662466D02*
X198050455Y-82629133D01*
X198050455Y-82629133D02*
X197983789Y-82595800D01*
X197983789Y-82595800D02*
X197850455Y-82562466D01*
X197850455Y-82562466D02*
X197783789Y-82529133D01*
X197783789Y-82529133D02*
X197750455Y-82495800D01*
X197750455Y-82495800D02*
X197717122Y-82429133D01*
X197717122Y-82429133D02*
X197717122Y-82362466D01*
X197717122Y-82362466D02*
X197750455Y-82295800D01*
X197750455Y-82295800D02*
X197783789Y-82262466D01*
X197783789Y-82262466D02*
X197850455Y-82229133D01*
X197850455Y-82229133D02*
X198017122Y-82229133D01*
X198017122Y-82229133D02*
X198117122Y-82262466D01*
X198550456Y-82229133D02*
X198683789Y-82229133D01*
X198683789Y-82229133D02*
X198750456Y-82262466D01*
X198750456Y-82262466D02*
X198817122Y-82329133D01*
X198817122Y-82329133D02*
X198850456Y-82462466D01*
X198850456Y-82462466D02*
X198850456Y-82695800D01*
X198850456Y-82695800D02*
X198817122Y-82829133D01*
X198817122Y-82829133D02*
X198750456Y-82895800D01*
X198750456Y-82895800D02*
X198683789Y-82929133D01*
X198683789Y-82929133D02*
X198550456Y-82929133D01*
X198550456Y-82929133D02*
X198483789Y-82895800D01*
X198483789Y-82895800D02*
X198417122Y-82829133D01*
X198417122Y-82829133D02*
X198383789Y-82695800D01*
X198383789Y-82695800D02*
X198383789Y-82462466D01*
X198383789Y-82462466D02*
X198417122Y-82329133D01*
X198417122Y-82329133D02*
X198483789Y-82262466D01*
X198483789Y-82262466D02*
X198550456Y-82229133D01*
X200317122Y-82895800D02*
X200417122Y-82929133D01*
X200417122Y-82929133D02*
X200583789Y-82929133D01*
X200583789Y-82929133D02*
X200650455Y-82895800D01*
X200650455Y-82895800D02*
X200683789Y-82862466D01*
X200683789Y-82862466D02*
X200717122Y-82795800D01*
X200717122Y-82795800D02*
X200717122Y-82729133D01*
X200717122Y-82729133D02*
X200683789Y-82662466D01*
X200683789Y-82662466D02*
X200650455Y-82629133D01*
X200650455Y-82629133D02*
X200583789Y-82595800D01*
X200583789Y-82595800D02*
X200450455Y-82562466D01*
X200450455Y-82562466D02*
X200383789Y-82529133D01*
X200383789Y-82529133D02*
X200350455Y-82495800D01*
X200350455Y-82495800D02*
X200317122Y-82429133D01*
X200317122Y-82429133D02*
X200317122Y-82362466D01*
X200317122Y-82362466D02*
X200350455Y-82295800D01*
X200350455Y-82295800D02*
X200383789Y-82262466D01*
X200383789Y-82262466D02*
X200450455Y-82229133D01*
X200450455Y-82229133D02*
X200617122Y-82229133D01*
X200617122Y-82229133D02*
X200717122Y-82262466D01*
X201017122Y-82929133D02*
X201017122Y-82229133D01*
X202850455Y-82209133D02*
X203250455Y-82209133D01*
X203050455Y-82909133D02*
X203050455Y-82209133D01*
X203883788Y-82842466D02*
X203850455Y-82875800D01*
X203850455Y-82875800D02*
X203750455Y-82909133D01*
X203750455Y-82909133D02*
X203683788Y-82909133D01*
X203683788Y-82909133D02*
X203583788Y-82875800D01*
X203583788Y-82875800D02*
X203517122Y-82809133D01*
X203517122Y-82809133D02*
X203483788Y-82742466D01*
X203483788Y-82742466D02*
X203450455Y-82609133D01*
X203450455Y-82609133D02*
X203450455Y-82509133D01*
X203450455Y-82509133D02*
X203483788Y-82375800D01*
X203483788Y-82375800D02*
X203517122Y-82309133D01*
X203517122Y-82309133D02*
X203583788Y-82242466D01*
X203583788Y-82242466D02*
X203683788Y-82209133D01*
X203683788Y-82209133D02*
X203750455Y-82209133D01*
X203750455Y-82209133D02*
X203850455Y-82242466D01*
X203850455Y-82242466D02*
X203883788Y-82275800D01*
X202853789Y-82014800D02*
X203947122Y-82014800D01*
X205950455Y-82929133D02*
X205717122Y-82595800D01*
X205550455Y-82929133D02*
X205550455Y-82229133D01*
X205550455Y-82229133D02*
X205817122Y-82229133D01*
X205817122Y-82229133D02*
X205883789Y-82262466D01*
X205883789Y-82262466D02*
X205917122Y-82295800D01*
X205917122Y-82295800D02*
X205950455Y-82362466D01*
X205950455Y-82362466D02*
X205950455Y-82462466D01*
X205950455Y-82462466D02*
X205917122Y-82529133D01*
X205917122Y-82529133D02*
X205883789Y-82562466D01*
X205883789Y-82562466D02*
X205817122Y-82595800D01*
X205817122Y-82595800D02*
X205550455Y-82595800D01*
X206150455Y-82229133D02*
X206550455Y-82229133D01*
X206350455Y-82929133D02*
X206350455Y-82229133D01*
X205453789Y-82034800D02*
X206547122Y-82034800D01*
X207950455Y-82929133D02*
X207950455Y-82229133D01*
X207950455Y-82229133D02*
X208117122Y-82229133D01*
X208117122Y-82229133D02*
X208217122Y-82262466D01*
X208217122Y-82262466D02*
X208283789Y-82329133D01*
X208283789Y-82329133D02*
X208317122Y-82395800D01*
X208317122Y-82395800D02*
X208350455Y-82529133D01*
X208350455Y-82529133D02*
X208350455Y-82629133D01*
X208350455Y-82629133D02*
X208317122Y-82762466D01*
X208317122Y-82762466D02*
X208283789Y-82829133D01*
X208283789Y-82829133D02*
X208217122Y-82895800D01*
X208217122Y-82895800D02*
X208117122Y-82929133D01*
X208117122Y-82929133D02*
X207950455Y-82929133D01*
X209050455Y-82862466D02*
X209017122Y-82895800D01*
X209017122Y-82895800D02*
X208917122Y-82929133D01*
X208917122Y-82929133D02*
X208850455Y-82929133D01*
X208850455Y-82929133D02*
X208750455Y-82895800D01*
X208750455Y-82895800D02*
X208683789Y-82829133D01*
X208683789Y-82829133D02*
X208650455Y-82762466D01*
X208650455Y-82762466D02*
X208617122Y-82629133D01*
X208617122Y-82629133D02*
X208617122Y-82529133D01*
X208617122Y-82529133D02*
X208650455Y-82395800D01*
X208650455Y-82395800D02*
X208683789Y-82329133D01*
X208683789Y-82329133D02*
X208750455Y-82262466D01*
X208750455Y-82262466D02*
X208850455Y-82229133D01*
X208850455Y-82229133D02*
X208917122Y-82229133D01*
X208917122Y-82229133D02*
X209017122Y-82262466D01*
X209017122Y-82262466D02*
X209050455Y-82295800D01*
X210750455Y-82862466D02*
X210717122Y-82895800D01*
X210717122Y-82895800D02*
X210617122Y-82929133D01*
X210617122Y-82929133D02*
X210550455Y-82929133D01*
X210550455Y-82929133D02*
X210450455Y-82895800D01*
X210450455Y-82895800D02*
X210383789Y-82829133D01*
X210383789Y-82829133D02*
X210350455Y-82762466D01*
X210350455Y-82762466D02*
X210317122Y-82629133D01*
X210317122Y-82629133D02*
X210317122Y-82529133D01*
X210317122Y-82529133D02*
X210350455Y-82395800D01*
X210350455Y-82395800D02*
X210383789Y-82329133D01*
X210383789Y-82329133D02*
X210450455Y-82262466D01*
X210450455Y-82262466D02*
X210550455Y-82229133D01*
X210550455Y-82229133D02*
X210617122Y-82229133D01*
X210617122Y-82229133D02*
X210717122Y-82262466D01*
X210717122Y-82262466D02*
X210750455Y-82295800D01*
X211450455Y-82862466D02*
X211417122Y-82895800D01*
X211417122Y-82895800D02*
X211317122Y-82929133D01*
X211317122Y-82929133D02*
X211250455Y-82929133D01*
X211250455Y-82929133D02*
X211150455Y-82895800D01*
X211150455Y-82895800D02*
X211083789Y-82829133D01*
X211083789Y-82829133D02*
X211050455Y-82762466D01*
X211050455Y-82762466D02*
X211017122Y-82629133D01*
X211017122Y-82629133D02*
X211017122Y-82529133D01*
X211017122Y-82529133D02*
X211050455Y-82395800D01*
X211050455Y-82395800D02*
X211083789Y-82329133D01*
X211083789Y-82329133D02*
X211150455Y-82262466D01*
X211150455Y-82262466D02*
X211250455Y-82229133D01*
X211250455Y-82229133D02*
X211317122Y-82229133D01*
X211317122Y-82229133D02*
X211417122Y-82262466D01*
X211417122Y-82262466D02*
X211450455Y-82295800D01*
X210253789Y-82034800D02*
X211513789Y-82034800D01*
X213183789Y-82562466D02*
X213283789Y-82595800D01*
X213283789Y-82595800D02*
X213317122Y-82629133D01*
X213317122Y-82629133D02*
X213350455Y-82695800D01*
X213350455Y-82695800D02*
X213350455Y-82795800D01*
X213350455Y-82795800D02*
X213317122Y-82862466D01*
X213317122Y-82862466D02*
X213283789Y-82895800D01*
X213283789Y-82895800D02*
X213217122Y-82929133D01*
X213217122Y-82929133D02*
X212950455Y-82929133D01*
X212950455Y-82929133D02*
X212950455Y-82229133D01*
X212950455Y-82229133D02*
X213183789Y-82229133D01*
X213183789Y-82229133D02*
X213250455Y-82262466D01*
X213250455Y-82262466D02*
X213283789Y-82295800D01*
X213283789Y-82295800D02*
X213317122Y-82362466D01*
X213317122Y-82362466D02*
X213317122Y-82429133D01*
X213317122Y-82429133D02*
X213283789Y-82495800D01*
X213283789Y-82495800D02*
X213250455Y-82529133D01*
X213250455Y-82529133D02*
X213183789Y-82562466D01*
X213183789Y-82562466D02*
X212950455Y-82562466D01*
X213983789Y-82929133D02*
X213650455Y-82929133D01*
X213650455Y-82929133D02*
X213650455Y-82229133D01*
X215450455Y-82229133D02*
X215850455Y-82229133D01*
X215650455Y-82929133D02*
X215650455Y-82229133D01*
X216083788Y-82562466D02*
X216317122Y-82562466D01*
X216417122Y-82929133D02*
X216083788Y-82929133D01*
X216083788Y-82929133D02*
X216083788Y-82229133D01*
X216083788Y-82229133D02*
X216417122Y-82229133D01*
%TO.C,R2*%
D12*
X208290000Y-115386252D02*
X208290000Y-112613748D01*
X211710000Y-115386252D02*
X211710000Y-112613748D01*
%TO.C,SW1*%
X257040000Y-100800000D02*
X257040000Y-101800000D01*
X257040000Y-101800000D02*
X257540000Y-101300000D01*
X257540000Y-101300000D02*
X257040000Y-100800000D01*
X257740000Y-94890000D02*
X258050000Y-94890000D01*
X257740000Y-103710000D02*
X257740000Y-94890000D01*
X258050000Y-103710000D02*
X257740000Y-103710000D01*
X262260000Y-94890000D02*
X261950000Y-94890000D01*
X262260000Y-94890000D02*
X262260000Y-103710000D01*
X262260000Y-103710000D02*
X261950000Y-103710000D01*
%TO.C,SW2*%
X258930000Y-110230000D02*
X259230000Y-110230000D01*
X258930000Y-114370000D02*
X258930000Y-110230000D01*
X259230000Y-114370000D02*
X258930000Y-114370000D01*
X261770000Y-110230000D02*
X262070000Y-110230000D01*
X262070000Y-110230000D02*
X262070000Y-114370000D01*
X262070000Y-114370000D02*
X261770000Y-114370000D01*
%TO.C,U2*%
D10*
X203180000Y-118480000D02*
X222580000Y-118480000D01*
X222580000Y-136280000D01*
X203180000Y-136280000D01*
X203180000Y-118480000D01*
%TO.C,D2*%
D12*
X259640000Y-82840000D02*
X259640000Y-87900000D01*
X262360000Y-82840000D02*
X259640000Y-82840000D01*
X262360000Y-82840000D02*
X262360000Y-87900000D01*
%TO.C,A1*%
X232000000Y-81940000D02*
X231520000Y-81940000D01*
X232000000Y-81940000D02*
X232000000Y-82360000D01*
X232000000Y-84480000D02*
X232000000Y-84900000D01*
X232000000Y-87020000D02*
X232000000Y-87440000D01*
X232000000Y-89560000D02*
X232000000Y-89980000D01*
X232000000Y-92100000D02*
X232000000Y-92520000D01*
X232000000Y-94640000D02*
X232000000Y-95060000D01*
X232000000Y-97180000D02*
X232000000Y-97600000D01*
X232000000Y-99720000D02*
X232000000Y-100140000D01*
X232000000Y-102260000D02*
X232000000Y-102680000D01*
X232000000Y-104800000D02*
X232000000Y-105220000D01*
X232000000Y-107340000D02*
X232000000Y-107760000D01*
X232000000Y-109880000D02*
X232000000Y-110300000D01*
X232000000Y-112420000D02*
X232000000Y-112840000D01*
X232000000Y-114960000D02*
X232000000Y-115380000D01*
X232000000Y-117500000D02*
X232000000Y-117920000D01*
X232000000Y-120040000D02*
X232000000Y-120460000D01*
X232000000Y-122580000D02*
X232000000Y-123000000D01*
X232000000Y-125120000D02*
X232000000Y-125540000D01*
X232000000Y-127660000D02*
X232000000Y-128080000D01*
X232030324Y-79820000D02*
X231520000Y-79820000D01*
X232610000Y-79400000D02*
X235100000Y-79400000D01*
X232610000Y-130620000D02*
X236447939Y-130620000D01*
X235100000Y-79400000D02*
X236447940Y-79400000D01*
X237372061Y-79400000D02*
X238375000Y-79400000D01*
X238375000Y-79400000D02*
X246845000Y-79400000D01*
X238710000Y-79400000D02*
X238710000Y-80316000D01*
X238710000Y-82704000D02*
X238710000Y-83920000D01*
X238710000Y-83920000D02*
X239006090Y-83920000D01*
X239010000Y-130620000D02*
X237372061Y-130620000D01*
X241363910Y-83920000D02*
X243856090Y-83920000D01*
X246210000Y-130620000D02*
X239010000Y-130620000D01*
X246213910Y-83920000D02*
X246510000Y-83920000D01*
X246510000Y-79400000D02*
X246510000Y-80316000D01*
X246510000Y-82704000D02*
X246510000Y-83920000D01*
X246845000Y-79400000D02*
X247847939Y-79400000D01*
X247847939Y-130620000D02*
X246210000Y-130620000D01*
X248772061Y-79400000D02*
X250120000Y-79400000D01*
X248772061Y-130620000D02*
X252610000Y-130620000D01*
X252610000Y-79400000D02*
X250120000Y-79400000D01*
X253220000Y-81940000D02*
X253220000Y-82360000D01*
X253220000Y-84480000D02*
X253220000Y-84900000D01*
X253220000Y-87020000D02*
X253220000Y-87440000D01*
X253220000Y-89560000D02*
X253220000Y-89980000D01*
X253220000Y-92100000D02*
X253220000Y-92520000D01*
X253220000Y-94640000D02*
X253220000Y-95060000D01*
X253220000Y-97180000D02*
X253220000Y-97600000D01*
X253220000Y-99720000D02*
X253220000Y-100140000D01*
X253220000Y-102260000D02*
X253220000Y-102680000D01*
X253220000Y-104800000D02*
X253220000Y-105220000D01*
X253220000Y-107340000D02*
X253220000Y-107760000D01*
X253220000Y-109880000D02*
X253220000Y-110300000D01*
X253220000Y-112420000D02*
X253220000Y-112840000D01*
X253220000Y-114960000D02*
X253220000Y-115380000D01*
X253220000Y-117500000D02*
X253220000Y-117920000D01*
X253220000Y-120040000D02*
X253220000Y-120460000D01*
X253220000Y-122580000D02*
X253220000Y-123000000D01*
X253220000Y-125120000D02*
X253220000Y-125540000D01*
X253220000Y-127660000D02*
X253220000Y-128080000D01*
X232030324Y-79820000D02*
G75*
G02*
X232610000Y-79400000I579692J-190051D01*
G01*
X232610000Y-130620000D02*
G75*
G02*
X232030324Y-130199937I1J610002D01*
G01*
X252610000Y-79400000D02*
G75*
G02*
X253189676Y-79820063I0J-610000D01*
G01*
X253189676Y-130199937D02*
G75*
G02*
X252610000Y-130620069I-579676J189837D01*
G01*
%TD*%
M02*
