%TF.GenerationSoftware,KiCad,Pcbnew,10.0.3*%
%TF.CreationDate,2026-08-20T13:00:50-07:00*%
%TF.ProjectId,e,652e6b69-6361-4645-9f70-636258585858,rev?*%
%TF.SameCoordinates,Original*%
%TF.FileFunction,Copper,L1,Top*%
%TF.FilePolarity,Positive*%
%FSLAX46Y46*%
G04 Gerber Fmt 4.6, Leading zero omitted, Abs format (unit mm)*
G04 Created by KiCad (PCBNEW 10.0.3) date 2026-08-20 13:00:50*
%MOMM*%
%LPD*%
G01*
G04 APERTURE LIST*
G04 Aperture macros list*
%AMRoundRect*
0 Rectangle with rounded corners*
0 $1 Rounding radius*
0 $2 $3 $4 $5 $6 $7 $8 $9 X,Y pos of 4 corners*
0 Add a 4 corners polygon primitive as box body*
4,1,4,$2,$3,$4,$5,$6,$7,$8,$9,$2,$3,0*
0 Add four circle primitives for the rounded corners*
1,1,$1+$1,$2,$3*
1,1,$1+$1,$4,$5*
1,1,$1+$1,$6,$7*
1,1,$1+$1,$8,$9*
0 Add four rect primitives between the rounded corners*
20,1,$1+$1,$2,$3,$4,$5,0*
20,1,$1+$1,$4,$5,$6,$7,0*
20,1,$1+$1,$6,$7,$8,$9,0*
20,1,$1+$1,$8,$9,$2,$3,0*%
%AMFreePoly0*
4,1,37,0.800000,0.796148,0.878414,0.796148,1.032228,0.765552,1.177117,0.705537,1.307515,0.618408,1.418408,0.507515,1.505537,0.377117,1.565552,0.232228,1.596148,0.078414,1.596148,-0.078414,1.565552,-0.232228,1.505537,-0.377117,1.418408,-0.507515,1.307515,-0.618408,1.177117,-0.705537,1.032228,-0.765552,0.878414,-0.796148,0.800000,-0.796148,0.800000,-0.800000,-1.400000,-0.800000,
-1.403843,-0.796157,-1.439018,-0.796157,-1.511114,-0.766294,-1.566294,-0.711114,-1.596157,-0.639018,-1.596157,-0.603843,-1.600000,-0.600000,-1.600000,0.600000,-1.596157,0.603843,-1.596157,0.639018,-1.566294,0.711114,-1.511114,0.766294,-1.439018,0.796157,-1.403843,0.796157,-1.400000,0.800000,0.800000,0.800000,0.800000,0.796148,0.800000,0.796148,$1*%
%AMFreePoly1*
4,1,37,1.403843,0.796157,1.439018,0.796157,1.511114,0.766294,1.566294,0.711114,1.596157,0.639018,1.596157,0.603843,1.600000,0.600000,1.600000,-0.600000,1.596157,-0.603843,1.596157,-0.639018,1.566294,-0.711114,1.511114,-0.766294,1.439018,-0.796157,1.403843,-0.796157,1.400000,-0.800000,-0.800000,-0.800000,-0.800000,-0.796148,-0.878414,-0.796148,-1.032228,-0.765552,-1.177117,-0.705537,
-1.307515,-0.618408,-1.418408,-0.507515,-1.505537,-0.377117,-1.565552,-0.232228,-1.596148,-0.078414,-1.596148,0.078414,-1.565552,0.232228,-1.505537,0.377117,-1.418408,0.507515,-1.307515,0.618408,-1.177117,0.705537,-1.032228,0.765552,-0.878414,0.796148,-0.800000,0.796148,-0.800000,0.800000,1.400000,0.800000,1.403843,0.796157,1.403843,0.796157,$1*%
G04 Aperture macros list end*
%TA.AperFunction,SMDPad,CuDef*%
%ADD10RoundRect,0.250000X1.450000X-0.312500X1.450000X0.312500X-1.450000X0.312500X-1.450000X-0.312500X0*%
%TD*%
%TA.AperFunction,ComponentPad*%
%ADD11O,3.500000X2.200000*%
%TD*%
%TA.AperFunction,ComponentPad*%
%ADD12R,2.500000X1.500000*%
%TD*%
%TA.AperFunction,ComponentPad*%
%ADD13O,2.500000X1.500000*%
%TD*%
%TA.AperFunction,SMDPad,CuDef*%
%ADD14RoundRect,0.200000X0.800000X-0.200000X0.800000X0.200000X-0.800000X0.200000X-0.800000X-0.200000X0*%
%TD*%
%TA.AperFunction,ComponentPad*%
%ADD15RoundRect,0.184783X0.665217X-0.665217X0.665217X0.665217X-0.665217X0.665217X-0.665217X-0.665217X0*%
%TD*%
%TA.AperFunction,ComponentPad*%
%ADD16C,1.700000*%
%TD*%
%TA.AperFunction,ComponentPad*%
%ADD17C,2.500000*%
%TD*%
%TA.AperFunction,SMDPad,CuDef*%
%ADD18RoundRect,0.250000X-0.800000X0.450000X-0.800000X-0.450000X0.800000X-0.450000X0.800000X0.450000X0*%
%TD*%
%TA.AperFunction,SMDPad,CuDef*%
%ADD19FreePoly0,0.000000*%
%TD*%
%TA.AperFunction,SMDPad,CuDef*%
%ADD20RoundRect,0.800000X-0.800000X-0.000010X0.800000X-0.000010X0.800000X0.000010X-0.800000X0.000010X0*%
%TD*%
%TA.AperFunction,SMDPad,CuDef*%
%ADD21FreePoly1,0.000000*%
%TD*%
%TA.AperFunction,ComponentPad*%
%ADD22RoundRect,0.257576X-0.592424X-0.592424X0.592424X-0.592424X0.592424X0.592424X-0.592424X0.592424X0*%
%TD*%
%TA.AperFunction,ViaPad*%
%ADD23C,0.600000*%
%TD*%
%TA.AperFunction,Conductor*%
%ADD24C,0.200000*%
%TD*%
G04 APERTURE END LIST*
D10*
%TO.P,R2,1*%
%TO.N,Net-(U2-GAIN_SLOT)*%
X210000000Y-116137500D03*
%TO.P,R2,2*%
%TO.N,GND*%
X210000000Y-111862500D03*
%TD*%
D11*
%TO.P,SW1,*%
%TO.N,*%
X260000000Y-103400000D03*
X260000000Y-95200000D03*
D12*
%TO.P,SW1,1,A_1*%
%TO.N,Net-(BT1-+)*%
X260000000Y-101300000D03*
D13*
%TO.P,SW1,2,B_2*%
%TO.N,+3V0*%
X260000000Y-99300000D03*
%TO.P,SW1,3,C_3*%
%TO.N,unconnected-(SW1-C-Pad3)*%
X260000000Y-97300000D03*
%TD*%
D14*
%TO.P,SW2,1,1_1*%
%TO.N,GND*%
X260500000Y-114400000D03*
%TO.P,SW2,2,2_2*%
%TO.N,Net-(A1-RUN)*%
X260500000Y-110200000D03*
%TD*%
D15*
%TO.P,U2,1,LRCLK_1*%
%TO.N,Net-(A1-GPIO15)*%
X220000000Y-135000000D03*
D16*
%TO.P,U2,2,BCLK_2*%
%TO.N,Net-(A1-GPIO14)*%
X220000000Y-132460000D03*
%TO.P,U2,3,DIN_3*%
%TO.N,Net-(A1-GPIO13)*%
X220000000Y-129920000D03*
%TO.P,U2,4,GAIN_SLOT_4*%
%TO.N,Net-(U2-GAIN_SLOT)*%
X220000000Y-127380000D03*
%TO.P,U2,5,~{SD_MODE}_5*%
%TO.N,unconnected-(U2-~{SD_MODE}-Pad5)*%
X220000000Y-124840000D03*
%TO.P,U2,6,GND_6*%
%TO.N,GND*%
X220000000Y-122300000D03*
%TO.P,U2,7,VDD_7*%
%TO.N,PICO_PWR*%
X220000000Y-119760000D03*
D17*
%TO.P,U2,8,OUTP_8*%
%TO.N,Net-(U2-OUTP)*%
X207580000Y-125580000D03*
%TO.P,U2,9,OUTN_9*%
%TO.N,Net-(U2-OUTN)*%
X207480000Y-129180000D03*
%TD*%
D18*
%TO.P,D2,1,K_1*%
%TO.N,Net-(A1-VSYS)*%
X261000000Y-83800000D03*
%TO.P,D2,2,A_2*%
%TO.N,+3V0*%
X261000000Y-88200000D03*
%TD*%
D16*
%TO.P,LS1,1,1_1*%
%TO.N,Net-(U2-OUTP)*%
X187025000Y-100700000D03*
%TO.P,LS1,2,2_2*%
%TO.N,Net-(U2-OUTN)*%
X187125000Y-116500000D03*
%TD*%
D19*
%TO.P,A1,1,GPIO0_1*%
%TO.N,Net-(A1-GPIO0)*%
X232920000Y-80880000D03*
D20*
%TO.P,A1,2,GPIO1_2*%
%TO.N,Net-(A1-GPIO1)*%
X232920000Y-83420000D03*
D21*
%TO.P,A1,3,GND_3*%
%TO.N,GND*%
X232920000Y-85960000D03*
D20*
%TO.P,A1,4,GPIO2_4*%
%TO.N,Net-(A1-GPIO2)*%
X232920000Y-88500000D03*
%TO.P,A1,5,GPIO3_5*%
%TO.N,Net-(A1-GPIO3)*%
X232920000Y-91040000D03*
%TO.P,A1,6,GPIO4_6*%
%TO.N,Net-(A1-GPIO4)*%
X232920000Y-93580000D03*
%TO.P,A1,7,GPIO5_7*%
%TO.N,Net-(A1-GPIO5)*%
X232920000Y-96120000D03*
D21*
%TO.P,A1,8,GND_8*%
%TO.N,GND*%
X232920000Y-98660000D03*
D20*
%TO.P,A1,9,GPIO6_9*%
%TO.N,Net-(A1-GPIO6)*%
X232920000Y-101200000D03*
%TO.P,A1,10,GPIO7_10*%
%TO.N,Net-(A1-GPIO7)*%
X232920000Y-103740000D03*
%TO.P,A1,11,GPIO8_11*%
%TO.N,unconnected-(A1-GPIO8-Pad11)*%
X232920000Y-106280000D03*
%TO.P,A1,12,GPIO9_12*%
%TO.N,unconnected-(A1-GPIO9-Pad12)*%
X232920000Y-108820000D03*
D21*
%TO.P,A1,13,GND_13*%
%TO.N,GND*%
X232920000Y-111360000D03*
D20*
%TO.P,A1,14,GPIO10_14*%
%TO.N,unconnected-(A1-GPIO10-Pad14)*%
X232920000Y-113900000D03*
%TO.P,A1,15,GPIO11_15*%
%TO.N,unconnected-(A1-GPIO11-Pad15)*%
X232920000Y-116440000D03*
%TO.P,A1,16,GPIO12_16*%
%TO.N,unconnected-(A1-GPIO12-Pad16)*%
X232920000Y-118980000D03*
%TO.P,A1,17,GPIO13_17*%
%TO.N,Net-(A1-GPIO13)*%
X232920000Y-121520000D03*
D21*
%TO.P,A1,18,GND_18*%
%TO.N,GND*%
X232920000Y-124060000D03*
D20*
%TO.P,A1,19,GPIO14_19*%
%TO.N,Net-(A1-GPIO14)*%
X232920000Y-126600000D03*
%TO.P,A1,20,GPIO15_20*%
%TO.N,Net-(A1-GPIO15)*%
X232920000Y-129140000D03*
%TO.P,A1,21,GPIO16_21*%
%TO.N,unconnected-(A1-GPIO16-Pad21)*%
X252300000Y-129140000D03*
%TO.P,A1,22,GPIO17_22*%
%TO.N,unconnected-(A1-GPIO17-Pad22)*%
X252300000Y-126600000D03*
D19*
%TO.P,A1,23,GND_23*%
%TO.N,GND*%
X252300000Y-124060000D03*
D20*
%TO.P,A1,24,GPIO18_24*%
%TO.N,unconnected-(A1-GPIO18-Pad24)*%
X252300000Y-121520000D03*
%TO.P,A1,25,GPIO19_25*%
%TO.N,unconnected-(A1-GPIO19-Pad25)*%
X252300000Y-118980000D03*
%TO.P,A1,26,GPIO20_26*%
%TO.N,unconnected-(A1-GPIO20-Pad26)*%
X252300000Y-116440000D03*
%TO.P,A1,27,GPIO21_27*%
%TO.N,unconnected-(A1-GPIO21-Pad27)*%
X252300000Y-113900000D03*
D19*
%TO.P,A1,28,GND_28*%
%TO.N,GND*%
X252300000Y-111360000D03*
D20*
%TO.P,A1,29,GPIO22_29*%
%TO.N,unconnected-(A1-GPIO22-Pad29)*%
X252300000Y-108820000D03*
%TO.P,A1,30,RUN_30*%
%TO.N,Net-(A1-RUN)*%
X252300000Y-106280000D03*
%TO.P,A1,31,GPIO26_ADC0_31*%
%TO.N,unconnected-(A1-GPIO26_ADC0-Pad31)*%
X252300000Y-103740000D03*
%TO.P,A1,32,GPIO27_ADC1_32*%
%TO.N,unconnected-(A1-GPIO27_ADC1-Pad32)*%
X252300000Y-101200000D03*
D19*
%TO.P,A1,33,AGND_33*%
%TO.N,GND*%
X252300000Y-98660000D03*
D20*
%TO.P,A1,34,GPIO28_ADC2_34*%
%TO.N,unconnected-(A1-GPIO28_ADC2-Pad34)*%
X252300000Y-96120000D03*
%TO.P,A1,35,ADC_VREF_35*%
%TO.N,unconnected-(A1-ADC_VREF-Pad35)*%
X252300000Y-93580000D03*
%TO.P,A1,36,3V3_36*%
%TO.N,PICO_PWR*%
X252300000Y-91040000D03*
%TO.P,A1,37,3V3_EN_37*%
%TO.N,unconnected-(A1-3V3_EN-Pad37)*%
X252300000Y-88500000D03*
D19*
%TO.P,A1,38,GND_38*%
%TO.N,GND*%
X252300000Y-85960000D03*
D20*
%TO.P,A1,39,VSYS_39*%
%TO.N,Net-(A1-VSYS)*%
X252300000Y-83420000D03*
%TO.P,A1,40,VBUS_40*%
%TO.N,unconnected-(A1-VBUS-Pad40)*%
X252300000Y-80880000D03*
%TD*%
D22*
%TO.P,U1,1,VCC_1*%
%TO.N,PICO_PWR*%
X188060000Y-84000000D03*
D16*
%TO.P,U1,2,3v3_2*%
%TO.N,unconnected-(U1-3v3-Pad2)*%
X190600000Y-84000000D03*
%TO.P,U1,3,GND_3*%
%TO.N,GND*%
X193140000Y-84000000D03*
%TO.P,U1,4,SCK_4*%
%TO.N,Net-(A1-GPIO7)*%
X195680000Y-84000000D03*
%TO.P,U1,5,MISO_5*%
%TO.N,Net-(A1-GPIO0)*%
X198220000Y-84000000D03*
%TO.P,U1,6,MOSI_6*%
%TO.N,Net-(A1-GPIO6)*%
X200760000Y-84000000D03*
%TO.P,U1,7,~{TFT_CS}_7*%
%TO.N,Net-(A1-GPIO5)*%
X203300000Y-84000000D03*
%TO.P,U1,8,~{RESET}_8*%
%TO.N,Net-(A1-GPIO4)*%
X205840000Y-84000000D03*
%TO.P,U1,9,D/C_9*%
%TO.N,Net-(A1-GPIO3)*%
X208380000Y-84000000D03*
%TO.P,U1,10,~{CCS}_10*%
%TO.N,Net-(A1-GPIO2)*%
X210920000Y-84000000D03*
%TO.P,U1,11,LITE_11*%
%TO.N,Net-(A1-GPIO1)*%
X213460000Y-84000000D03*
%TO.P,U1,12*%
%TO.N,N/C*%
X216000000Y-84000000D03*
%TD*%
D23*
%TO.N,GND*%
X204500000Y-108500000D03*
X256500000Y-91000000D03*
X191000000Y-92000000D03*
X232000000Y-134500000D03*
X190000000Y-129000000D03*
X263000000Y-107500000D03*
X208000000Y-91500000D03*
X246000000Y-89000000D03*
X223500000Y-117000000D03*
X262000000Y-134000000D03*
X191000000Y-112500000D03*
X206500000Y-99000000D03*
X200500000Y-124500000D03*
X245000000Y-116500000D03*
X257000000Y-119000000D03*
%TO.N,Net-(BT1-+)*%
X256000000Y-102500000D03*
%TD*%
%TO.N,Net-(U2-GAIN_SLOT)*%
D24*
X210000000Y-117380000D02*
X220000000Y-127380000D01*
X210000000Y-116137500D02*
X210000000Y-117380000D01*
%TO.N,Net-(BT1-+)*%
X257200000Y-101300000D02*
X256000000Y-102500000D01*
X260000000Y-101300000D02*
X257200000Y-101300000D01*
%TO.N,+3V0*%
X262050000Y-97250000D02*
X260000000Y-99300000D01*
X262050000Y-89250000D02*
X262050000Y-97250000D01*
X261000000Y-88200000D02*
X262050000Y-89250000D01*
%TO.N,Net-(A1-RUN)*%
X256220000Y-110200000D02*
X252300000Y-106280000D01*
X260500000Y-110200000D02*
X256220000Y-110200000D01*
%TO.N,Net-(A1-GPIO15)*%
X227060000Y-135000000D02*
X232920000Y-129140000D01*
X220000000Y-135000000D02*
X227060000Y-135000000D01*
%TO.N,Net-(A1-GPIO14)*%
X227500000Y-132000000D02*
X227520000Y-132000000D01*
X226960000Y-132460000D02*
X227000000Y-132500000D01*
X227520000Y-132000000D02*
X232920000Y-126600000D01*
X227000000Y-132500000D02*
X227500000Y-132000000D01*
X220000000Y-132460000D02*
X226960000Y-132460000D01*
%TO.N,Net-(A1-GPIO13)*%
X220000000Y-129920000D02*
X228400000Y-121520000D01*
X228400000Y-121520000D02*
X232920000Y-121520000D01*
%TO.N,PICO_PWR*%
X188060000Y-85060000D02*
X188060000Y-84000000D01*
X220000000Y-119760000D02*
X220000000Y-117000000D01*
X220000000Y-117000000D02*
X217500000Y-114500000D01*
X226820000Y-105180000D02*
X217500000Y-114500000D01*
X252300000Y-91040000D02*
X250460000Y-91040000D01*
X236320000Y-105180000D02*
X226820000Y-105180000D01*
X250460000Y-91040000D02*
X236320000Y-105180000D01*
X217500000Y-114500000D02*
X188060000Y-85060000D01*
%TO.N,Net-(U2-OUTP)*%
X207580000Y-121255000D02*
X207580000Y-125580000D01*
X187025000Y-100700000D02*
X207580000Y-121255000D01*
%TO.N,Net-(U2-OUTN)*%
X187125000Y-116500000D02*
X199805000Y-129180000D01*
X199805000Y-129180000D02*
X207480000Y-129180000D01*
%TO.N,Net-(A1-VSYS)*%
X252680000Y-83800000D02*
X252300000Y-83420000D01*
X261000000Y-83800000D02*
X252680000Y-83800000D01*
%TO.N,Net-(A1-GPIO0)*%
X198220000Y-84000000D02*
X201340000Y-80880000D01*
X201340000Y-80880000D02*
X232920000Y-80880000D01*
%TO.N,Net-(A1-GPIO1)*%
X213460000Y-84000000D02*
X214610000Y-85150000D01*
X214610000Y-85150000D02*
X231190000Y-85150000D01*
X231190000Y-85150000D02*
X232920000Y-83420000D01*
%TO.N,Net-(A1-GPIO2)*%
X215420000Y-88500000D02*
X232920000Y-88500000D01*
X210920000Y-84000000D02*
X215420000Y-88500000D01*
%TO.N,Net-(A1-GPIO3)*%
X215420000Y-91040000D02*
X232920000Y-91040000D01*
X208380000Y-84000000D02*
X215420000Y-91040000D01*
%TO.N,Net-(A1-GPIO4)*%
X215420000Y-93580000D02*
X232920000Y-93580000D01*
X205840000Y-84000000D02*
X215420000Y-93580000D01*
%TO.N,Net-(A1-GPIO5)*%
X203300000Y-84000000D02*
X215420000Y-96120000D01*
X215420000Y-96120000D02*
X232920000Y-96120000D01*
%TO.N,Net-(A1-GPIO6)*%
X214700000Y-101200000D02*
X232920000Y-101200000D01*
X200760000Y-87260000D02*
X214700000Y-101200000D01*
X200760000Y-84000000D02*
X200760000Y-87260000D01*
%TO.N,Net-(A1-GPIO7)*%
X215420000Y-103740000D02*
X232920000Y-103740000D01*
X195680000Y-84000000D02*
X215420000Y-103740000D01*
%TD*%
%TA.AperFunction,Conductor*%
%TO.N,GND*%
G36*
X231081054Y-79520185D02*
G01*
X231126809Y-79572989D01*
X231136753Y-79642147D01*
X231107728Y-79705703D01*
X231088325Y-79723767D01*
X231049274Y-79752999D01*
X231049256Y-79753015D01*
X230993019Y-79809252D01*
X230956843Y-79849524D01*
X230956837Y-79849532D01*
X230883426Y-79973263D01*
X230852978Y-80046774D01*
X230852970Y-80046795D01*
X230834976Y-80097800D01*
X230824143Y-80173147D01*
X230795118Y-80236703D01*
X230736340Y-80274477D01*
X230701405Y-80279500D01*
X201419057Y-80279500D01*
X201260942Y-80279500D01*
X201108215Y-80320423D01*
X201108214Y-80320423D01*
X201108212Y-80320424D01*
X201108209Y-80320425D01*
X201058096Y-80349359D01*
X201058095Y-80349360D01*
X201014689Y-80374420D01*
X200971285Y-80399479D01*
X200971282Y-80399481D01*
X200859478Y-80511286D01*
X198704522Y-82666241D01*
X198643199Y-82699726D01*
X198578523Y-82696491D01*
X198536245Y-82682754D01*
X198393256Y-82660107D01*
X198326287Y-82649500D01*
X198113713Y-82649500D01*
X198065042Y-82657208D01*
X197903760Y-82682753D01*
X197701585Y-82748444D01*
X197512179Y-82844951D01*
X197340213Y-82969890D01*
X197189890Y-83120213D01*
X197064949Y-83292182D01*
X197060484Y-83300946D01*
X197012509Y-83351742D01*
X196944688Y-83368536D01*
X196878553Y-83345998D01*
X196839516Y-83300946D01*
X196835050Y-83292182D01*
X196710109Y-83120213D01*
X196559786Y-82969890D01*
X196387820Y-82844951D01*
X196198414Y-82748444D01*
X196198413Y-82748443D01*
X196198412Y-82748443D01*
X195996243Y-82682754D01*
X195996241Y-82682753D01*
X195996240Y-82682753D01*
X195834957Y-82657208D01*
X195786287Y-82649500D01*
X195573713Y-82649500D01*
X195525042Y-82657208D01*
X195363760Y-82682753D01*
X195161585Y-82748444D01*
X194972179Y-82844951D01*
X194800213Y-82969890D01*
X194649890Y-83120213D01*
X194524949Y-83292182D01*
X194520202Y-83301499D01*
X194472227Y-83352293D01*
X194404405Y-83369087D01*
X194338271Y-83346548D01*
X194299234Y-83301495D01*
X194294626Y-83292452D01*
X194255270Y-83238282D01*
X194255269Y-83238282D01*
X193622962Y-83870590D01*
X193605925Y-83807007D01*
X193540099Y-83692993D01*
X193447007Y-83599901D01*
X193332993Y-83534075D01*
X193269409Y-83517037D01*
X193901716Y-82884728D01*
X193847550Y-82845375D01*
X193658217Y-82748904D01*
X193456129Y-82683242D01*
X193246246Y-82650000D01*
X193033754Y-82650000D01*
X192823872Y-82683242D01*
X192823869Y-82683242D01*
X192621782Y-82748904D01*
X192432439Y-82845380D01*
X192378282Y-82884727D01*
X192378282Y-82884728D01*
X193010591Y-83517037D01*
X192947007Y-83534075D01*
X192832993Y-83599901D01*
X192739901Y-83692993D01*
X192674075Y-83807007D01*
X192657037Y-83870591D01*
X192024728Y-83238282D01*
X192024727Y-83238282D01*
X191985380Y-83292440D01*
X191985376Y-83292446D01*
X191980760Y-83301505D01*
X191932781Y-83352297D01*
X191864959Y-83369087D01*
X191798826Y-83346543D01*
X191759794Y-83301493D01*
X191755051Y-83292184D01*
X191755049Y-83292181D01*
X191755048Y-83292179D01*
X191630109Y-83120213D01*
X191479786Y-82969890D01*
X191307820Y-82844951D01*
X191118414Y-82748444D01*
X191118413Y-82748443D01*
X191118412Y-82748443D01*
X190916243Y-82682754D01*
X190916241Y-82682753D01*
X190916240Y-82682753D01*
X190754957Y-82657208D01*
X190706287Y-82649500D01*
X190493713Y-82649500D01*
X190445042Y-82657208D01*
X190283760Y-82682753D01*
X190081585Y-82748444D01*
X189892179Y-82844951D01*
X189720213Y-82969890D01*
X189569894Y-83120209D01*
X189569890Y-83120214D01*
X189564887Y-83127100D01*
X189509554Y-83169763D01*
X189439940Y-83175738D01*
X189378147Y-83143128D01*
X189346867Y-83093212D01*
X189344153Y-83085022D01*
X189344152Y-83085018D01*
X189344148Y-83085012D01*
X189344147Y-83085009D01*
X189251121Y-82934192D01*
X189251118Y-82934188D01*
X189125811Y-82808881D01*
X189125807Y-82808878D01*
X188974990Y-82715852D01*
X188974984Y-82715849D01*
X188974982Y-82715848D01*
X188958302Y-82710321D01*
X188806765Y-82660107D01*
X188702942Y-82649500D01*
X187417066Y-82649500D01*
X187417050Y-82649501D01*
X187313234Y-82660107D01*
X187145020Y-82715847D01*
X187145009Y-82715852D01*
X186994192Y-82808878D01*
X186994188Y-82808881D01*
X186868881Y-82934188D01*
X186868878Y-82934192D01*
X186775852Y-83085009D01*
X186775847Y-83085020D01*
X186720107Y-83253234D01*
X186709500Y-83357051D01*
X186709500Y-84642933D01*
X186709501Y-84642949D01*
X186720107Y-84746765D01*
X186775847Y-84914979D01*
X186775852Y-84914990D01*
X186868878Y-85065807D01*
X186868881Y-85065811D01*
X186994188Y-85191118D01*
X186994192Y-85191121D01*
X187145009Y-85284147D01*
X187145012Y-85284148D01*
X187145018Y-85284152D01*
X187313236Y-85339893D01*
X187417059Y-85350500D01*
X187462729Y-85350499D01*
X187529767Y-85370182D01*
X187553976Y-85390534D01*
X187563261Y-85400625D01*
X187579480Y-85428716D01*
X187691284Y-85540520D01*
X187691286Y-85540521D01*
X187700178Y-85549413D01*
X219363181Y-117212416D01*
X219396666Y-117273739D01*
X219399500Y-117300097D01*
X219399500Y-118474281D01*
X219379815Y-118541320D01*
X219331795Y-118584765D01*
X219292185Y-118604947D01*
X219292184Y-118604948D01*
X219120213Y-118729890D01*
X218969890Y-118880213D01*
X218844951Y-119052179D01*
X218748444Y-119241585D01*
X218682753Y-119443760D01*
X218649500Y-119653713D01*
X218649500Y-119866286D01*
X218667517Y-119980045D01*
X218682754Y-120076243D01*
X218739211Y-120250000D01*
X218748444Y-120278414D01*
X218844951Y-120467820D01*
X218969890Y-120639786D01*
X219120213Y-120790109D01*
X219292179Y-120915048D01*
X219292181Y-120915049D01*
X219292184Y-120915051D01*
X219301493Y-120919794D01*
X219352290Y-120967766D01*
X219369087Y-121035587D01*
X219346552Y-121101722D01*
X219301505Y-121140760D01*
X219292446Y-121145376D01*
X219292440Y-121145380D01*
X219238282Y-121184727D01*
X219238282Y-121184728D01*
X219870591Y-121817037D01*
X219807007Y-121834075D01*
X219692993Y-121899901D01*
X219599901Y-121992993D01*
X219534075Y-122107007D01*
X219517037Y-122170591D01*
X218884728Y-121538282D01*
X218884727Y-121538282D01*
X218845380Y-121592439D01*
X218748904Y-121781782D01*
X218683242Y-121983869D01*
X218683242Y-121983872D01*
X218650000Y-122193753D01*
X218650000Y-122406246D01*
X218683242Y-122616127D01*
X218683242Y-122616130D01*
X218748904Y-122818217D01*
X218845375Y-123007550D01*
X218884728Y-123061716D01*
X219517037Y-122429408D01*
X219534075Y-122492993D01*
X219599901Y-122607007D01*
X219692993Y-122700099D01*
X219807007Y-122765925D01*
X219870590Y-122782962D01*
X219238282Y-123415269D01*
X219238282Y-123415270D01*
X219292452Y-123454626D01*
X219292451Y-123454626D01*
X219301495Y-123459234D01*
X219352292Y-123507208D01*
X219369087Y-123575029D01*
X219346550Y-123641164D01*
X219301499Y-123680202D01*
X219292182Y-123684949D01*
X219120213Y-123809890D01*
X218969890Y-123960213D01*
X218844951Y-124132179D01*
X218748444Y-124321585D01*
X218682753Y-124523760D01*
X218649500Y-124733713D01*
X218649500Y-124880902D01*
X218629815Y-124947941D01*
X218577011Y-124993696D01*
X218507853Y-125003640D01*
X218444297Y-124974615D01*
X218437819Y-124968583D01*
X215745798Y-122276562D01*
X210881415Y-117412180D01*
X210847930Y-117350857D01*
X210852914Y-117281165D01*
X210894786Y-117225232D01*
X210960250Y-117200815D01*
X210969096Y-117200499D01*
X211500002Y-117200499D01*
X211500008Y-117200499D01*
X211602797Y-117189999D01*
X211769334Y-117134814D01*
X211918656Y-117042712D01*
X212042712Y-116918656D01*
X212134814Y-116769334D01*
X212189999Y-116602797D01*
X212200500Y-116500009D01*
X212200499Y-115774992D01*
X212189999Y-115672203D01*
X212134814Y-115505666D01*
X212042712Y-115356344D01*
X211918656Y-115232288D01*
X211819266Y-115170984D01*
X211769336Y-115140187D01*
X211769331Y-115140185D01*
X211767862Y-115139698D01*
X211602797Y-115085001D01*
X211602795Y-115085000D01*
X211500010Y-115074500D01*
X208499998Y-115074500D01*
X208499981Y-115074501D01*
X208397203Y-115085000D01*
X208397200Y-115085001D01*
X208230668Y-115140185D01*
X208230663Y-115140187D01*
X208081342Y-115232289D01*
X207957289Y-115356342D01*
X207865187Y-115505663D01*
X207865186Y-115505666D01*
X207810001Y-115672203D01*
X207810001Y-115672204D01*
X207810000Y-115672204D01*
X207799500Y-115774983D01*
X207799500Y-116500001D01*
X207799501Y-116500019D01*
X207810000Y-116602796D01*
X207810001Y-116602799D01*
X207865185Y-116769331D01*
X207865187Y-116769336D01*
X207900069Y-116825888D01*
X207957288Y-116918656D01*
X208081344Y-117042712D01*
X208230666Y-117134814D01*
X208397203Y-117189999D01*
X208499991Y-117200500D01*
X209275499Y-117200499D01*
X209342538Y-117220183D01*
X209388293Y-117272987D01*
X209399499Y-117324499D01*
X209399499Y-117459054D01*
X209399498Y-117459054D01*
X209440423Y-117611785D01*
X209465402Y-117655050D01*
X209465404Y-117655052D01*
X209519479Y-117748714D01*
X209519481Y-117748717D01*
X209638349Y-117867585D01*
X209638355Y-117867590D01*
X218666241Y-126895476D01*
X218699726Y-126956799D01*
X218696492Y-127021473D01*
X218682753Y-127063757D01*
X218649500Y-127273713D01*
X218649500Y-127486286D01*
X218667517Y-127600045D01*
X218682754Y-127696243D01*
X218739211Y-127870000D01*
X218748444Y-127898414D01*
X218844951Y-128087820D01*
X218969890Y-128259786D01*
X219120213Y-128410109D01*
X219292182Y-128535050D01*
X219300946Y-128539516D01*
X219351742Y-128587491D01*
X219368536Y-128655312D01*
X219345998Y-128721447D01*
X219300946Y-128760484D01*
X219292182Y-128764949D01*
X219120213Y-128889890D01*
X218969890Y-129040213D01*
X218844951Y-129212179D01*
X218748444Y-129401585D01*
X218682753Y-129603760D01*
X218649500Y-129813713D01*
X218649500Y-130026286D01*
X218669825Y-130154617D01*
X218682754Y-130236243D01*
X218744291Y-130425635D01*
X218748444Y-130438414D01*
X218844951Y-130627820D01*
X218969890Y-130799786D01*
X219120213Y-130950109D01*
X219292182Y-131075050D01*
X219300946Y-131079516D01*
X219351742Y-131127491D01*
X219368536Y-131195312D01*
X219345998Y-131261447D01*
X219300946Y-131300484D01*
X219292182Y-131304949D01*
X219120213Y-131429890D01*
X218969890Y-131580213D01*
X218844951Y-131752179D01*
X218748444Y-131941585D01*
X218682753Y-132143760D01*
X218649500Y-132353713D01*
X218649500Y-132566287D01*
X218682754Y-132776243D01*
X218712800Y-132868716D01*
X218748444Y-132978414D01*
X218844951Y-133167820D01*
X218969890Y-133339786D01*
X219122891Y-133492787D01*
X219156376Y-133554110D01*
X219151392Y-133623802D01*
X219109520Y-133679735D01*
X219072104Y-133698852D01*
X219051474Y-133705281D01*
X219051470Y-133705282D01*
X218909048Y-133791380D01*
X218791380Y-133909048D01*
X218705282Y-134051470D01*
X218705281Y-134051473D01*
X218655774Y-134210348D01*
X218649500Y-134279397D01*
X218649500Y-135720612D01*
X218655772Y-135789645D01*
X218655773Y-135789649D01*
X218705281Y-135948526D01*
X218705282Y-135948529D01*
X218791380Y-136090951D01*
X218909048Y-136208619D01*
X218909050Y-136208620D01*
X218909052Y-136208622D01*
X219051468Y-136294716D01*
X219051470Y-136294717D01*
X219051473Y-136294718D01*
X219113589Y-136314074D01*
X219210350Y-136344226D01*
X219279395Y-136350500D01*
X220720604Y-136350499D01*
X220720611Y-136350499D01*
X220789645Y-136344227D01*
X220789648Y-136344226D01*
X220789650Y-136344226D01*
X220948532Y-136294716D01*
X221090948Y-136208622D01*
X221208622Y-136090948D01*
X221294716Y-135948532D01*
X221344226Y-135789650D01*
X221350500Y-135720605D01*
X221350500Y-135720582D01*
X221350579Y-135718864D01*
X221350686Y-135718551D01*
X221350754Y-135717807D01*
X221350936Y-135717823D01*
X221373290Y-135652789D01*
X221428119Y-135609481D01*
X221474451Y-135600500D01*
X226973331Y-135600500D01*
X226973347Y-135600501D01*
X226980943Y-135600501D01*
X227139054Y-135600501D01*
X227139057Y-135600501D01*
X227291785Y-135559577D01*
X227341904Y-135530639D01*
X227428716Y-135480520D01*
X227540520Y-135368716D01*
X227540520Y-135368714D01*
X227550728Y-135358507D01*
X227550729Y-135358504D01*
X232432416Y-130476819D01*
X232493739Y-130443334D01*
X232520097Y-130440500D01*
X233776785Y-130440500D01*
X233776785Y-130440499D01*
X233946692Y-130425635D01*
X234166496Y-130366739D01*
X234372734Y-130270568D01*
X234559139Y-130140047D01*
X234720047Y-129979139D01*
X234850568Y-129792734D01*
X234946739Y-129586496D01*
X235005635Y-129366692D01*
X235020500Y-129196784D01*
X235020500Y-129083216D01*
X235005635Y-128913308D01*
X234946739Y-128693504D01*
X234850568Y-128487266D01*
X234720047Y-128300861D01*
X234720045Y-128300858D01*
X234559141Y-128139954D01*
X234372734Y-128009432D01*
X234372728Y-128009429D01*
X234314725Y-127982382D01*
X234262285Y-127936210D01*
X234243133Y-127869017D01*
X234263348Y-127802135D01*
X234314725Y-127757618D01*
X234372734Y-127730568D01*
X234559139Y-127600047D01*
X234720047Y-127439139D01*
X234850568Y-127252734D01*
X234946739Y-127046496D01*
X235005635Y-126826692D01*
X235020500Y-126656784D01*
X235020500Y-126543216D01*
X235005635Y-126373308D01*
X234999362Y-126349895D01*
X235510000Y-126349895D01*
X239022057Y-129077343D01*
X239062931Y-129134007D01*
X239070000Y-129175277D01*
X239070000Y-130509966D01*
X239070476Y-130553635D01*
X239070476Y-130553641D01*
X239078083Y-130640590D01*
X239093238Y-130726537D01*
X239093241Y-130726550D01*
X239115824Y-130810834D01*
X239115825Y-130810837D01*
X239145674Y-130892851D01*
X239145675Y-130892854D01*
X239145680Y-130892866D01*
X239182567Y-130971969D01*
X239226207Y-131047556D01*
X239226211Y-131047562D01*
X239226218Y-131047573D01*
X239276269Y-131119053D01*
X239316820Y-131167379D01*
X239332371Y-131185912D01*
X239394088Y-131247629D01*
X239410556Y-131261447D01*
X239460946Y-131303730D01*
X239532426Y-131353781D01*
X239532433Y-131353785D01*
X239532444Y-131353793D01*
X239608031Y-131397433D01*
X239687134Y-131434320D01*
X239769151Y-131464171D01*
X239769161Y-131464173D01*
X239769162Y-131464174D01*
X239769165Y-131464175D01*
X239788131Y-131469256D01*
X239853457Y-131486761D01*
X239939412Y-131501917D01*
X240026360Y-131509524D01*
X240070000Y-131510000D01*
X240113640Y-131509524D01*
X240200588Y-131501917D01*
X240286543Y-131486761D01*
X240370849Y-131464171D01*
X240452866Y-131434320D01*
X240531969Y-131397433D01*
X240607556Y-131353793D01*
X240679052Y-131303731D01*
X240745912Y-131247629D01*
X240807629Y-131185912D01*
X240863731Y-131119052D01*
X240903065Y-131062876D01*
X240957641Y-131019252D01*
X241004640Y-131010000D01*
X241675360Y-131010000D01*
X241742399Y-131029685D01*
X241776935Y-131062877D01*
X241816269Y-131119053D01*
X241856820Y-131167379D01*
X241872371Y-131185912D01*
X241934088Y-131247629D01*
X241950556Y-131261447D01*
X242000946Y-131303730D01*
X242072426Y-131353781D01*
X242072433Y-131353785D01*
X242072444Y-131353793D01*
X242148031Y-131397433D01*
X242227134Y-131434320D01*
X242309151Y-131464171D01*
X242309161Y-131464173D01*
X242309162Y-131464174D01*
X242309165Y-131464175D01*
X242328131Y-131469256D01*
X242393457Y-131486761D01*
X242479412Y-131501917D01*
X242566360Y-131509524D01*
X242610000Y-131510000D01*
X242653640Y-131509524D01*
X242740588Y-131501917D01*
X242826543Y-131486761D01*
X242910849Y-131464171D01*
X242992866Y-131434320D01*
X243071969Y-131397433D01*
X243147556Y-131353793D01*
X243219052Y-131303731D01*
X243285912Y-131247629D01*
X243347629Y-131185912D01*
X243403731Y-131119052D01*
X243443065Y-131062876D01*
X243497641Y-131019252D01*
X243544640Y-131010000D01*
X244215562Y-131010000D01*
X244282601Y-131029685D01*
X244317132Y-131062870D01*
X244328789Y-131079516D01*
X244356416Y-131118968D01*
X244412509Y-131185813D01*
X244412513Y-131185817D01*
X244412514Y-131185818D01*
X244474231Y-131247531D01*
X244474237Y-131247536D01*
X244474238Y-131247537D01*
X244490817Y-131261447D01*
X244541092Y-131303630D01*
X244612589Y-131353689D01*
X244688176Y-131397326D01*
X244767279Y-131434209D01*
X244767289Y-131434212D01*
X244767292Y-131434214D01*
X244849278Y-131464051D01*
X244849281Y-131464052D01*
X244849295Y-131464057D01*
X244933601Y-131486643D01*
X245019555Y-131501795D01*
X245019558Y-131501795D01*
X245019561Y-131501796D01*
X245106477Y-131509397D01*
X245106487Y-131509397D01*
X245106502Y-131509399D01*
X245150141Y-131509925D01*
X245193780Y-131509448D01*
X245280727Y-131501837D01*
X245366679Y-131486679D01*
X245450983Y-131464087D01*
X245532998Y-131434233D01*
X245612099Y-131397346D01*
X245687684Y-131353705D01*
X245728648Y-131325020D01*
X245759155Y-131303659D01*
X245759162Y-131303653D01*
X245759177Y-131303643D01*
X245826036Y-131247540D01*
X245887751Y-131185824D01*
X245943853Y-131118965D01*
X245993914Y-131047470D01*
X246037553Y-130971884D01*
X246074440Y-130892783D01*
X246104292Y-130810768D01*
X246126882Y-130726464D01*
X246142040Y-130640511D01*
X246149648Y-130553564D01*
X246150141Y-130509925D01*
X246150141Y-129175168D01*
X246169826Y-129108129D01*
X246198082Y-129077235D01*
X249710000Y-126349895D01*
X249710000Y-124699785D01*
X250195000Y-124699785D01*
X250197893Y-124753762D01*
X250197893Y-124753764D01*
X250233438Y-124893030D01*
X250233442Y-124893042D01*
X250263881Y-124966528D01*
X250263893Y-124966556D01*
X250287218Y-125015309D01*
X250287221Y-125015314D01*
X250373358Y-125130378D01*
X250373361Y-125130382D01*
X250429623Y-125186643D01*
X250429640Y-125186659D01*
X250469842Y-125222770D01*
X250593454Y-125296111D01*
X250593461Y-125296115D01*
X250666932Y-125326547D01*
X250666956Y-125326556D01*
X250695164Y-125336508D01*
X250751835Y-125377374D01*
X250777417Y-125442392D01*
X250763785Y-125510920D01*
X250725033Y-125555019D01*
X250660859Y-125599953D01*
X250499954Y-125760858D01*
X250369432Y-125947265D01*
X250369431Y-125947267D01*
X250273261Y-126153502D01*
X250273258Y-126153511D01*
X250214366Y-126373302D01*
X250214364Y-126373312D01*
X250199500Y-126543214D01*
X250199500Y-126656785D01*
X250214364Y-126826687D01*
X250214366Y-126826697D01*
X250273258Y-127046488D01*
X250273261Y-127046497D01*
X250369431Y-127252732D01*
X250369432Y-127252734D01*
X250499954Y-127439141D01*
X250660858Y-127600045D01*
X250660861Y-127600047D01*
X250847266Y-127730568D01*
X250905275Y-127757618D01*
X250957714Y-127803791D01*
X250976866Y-127870984D01*
X250956650Y-127937865D01*
X250905275Y-127982382D01*
X250847267Y-128009431D01*
X250847265Y-128009432D01*
X250660858Y-128139954D01*
X250499954Y-128300858D01*
X250369432Y-128487265D01*
X250369431Y-128487267D01*
X250273261Y-128693502D01*
X250273258Y-128693511D01*
X250214366Y-128913302D01*
X250214364Y-128913312D01*
X250199500Y-129083214D01*
X250199500Y-129196785D01*
X250214364Y-129366687D01*
X250214366Y-129366697D01*
X250273258Y-129586488D01*
X250273261Y-129586497D01*
X250369431Y-129792732D01*
X250369432Y-129792734D01*
X250499954Y-129979141D01*
X250660858Y-130140045D01*
X250660861Y-130140047D01*
X250847266Y-130270568D01*
X251053504Y-130366739D01*
X251273308Y-130425635D01*
X251443214Y-130440499D01*
X251443215Y-130440500D01*
X251443216Y-130440500D01*
X253156785Y-130440500D01*
X253156785Y-130440499D01*
X253326692Y-130425635D01*
X253546496Y-130366739D01*
X253752734Y-130270568D01*
X253939139Y-130140047D01*
X254100047Y-129979139D01*
X254230568Y-129792734D01*
X254326739Y-129586496D01*
X254385635Y-129366692D01*
X254400500Y-129196784D01*
X254400500Y-129083216D01*
X254385635Y-128913308D01*
X254326739Y-128693504D01*
X254230568Y-128487266D01*
X254100047Y-128300861D01*
X254100045Y-128300858D01*
X253939141Y-128139954D01*
X253752734Y-128009432D01*
X253752728Y-128009429D01*
X253694725Y-127982382D01*
X253642285Y-127936210D01*
X253623133Y-127869017D01*
X253643348Y-127802135D01*
X253694725Y-127757618D01*
X253752734Y-127730568D01*
X253939139Y-127600047D01*
X254100047Y-127439139D01*
X254230568Y-127252734D01*
X254326739Y-127046496D01*
X254385635Y-126826692D01*
X254400500Y-126656784D01*
X254400500Y-126543216D01*
X254385635Y-126373308D01*
X254326739Y-126153504D01*
X254230568Y-125947266D01*
X254100047Y-125760861D01*
X254100045Y-125760858D01*
X253939141Y-125599954D01*
X253752734Y-125469432D01*
X253752732Y-125469431D01*
X253700779Y-125445205D01*
X253648340Y-125399032D01*
X253629188Y-125331839D01*
X253649404Y-125264958D01*
X253694732Y-125223464D01*
X253759500Y-125188844D01*
X253759521Y-125188832D01*
X253890530Y-125101295D01*
X253890536Y-125101291D01*
X253967064Y-125038485D01*
X254078485Y-124927064D01*
X254141291Y-124850536D01*
X254141295Y-124850530D01*
X254228832Y-124719521D01*
X254228844Y-124719501D01*
X254275509Y-124632198D01*
X254335814Y-124486612D01*
X254364556Y-124391860D01*
X254364559Y-124391849D01*
X254380839Y-124310000D01*
X250195000Y-124310000D01*
X250195000Y-124699785D01*
X249710000Y-124699785D01*
X249710000Y-122010000D01*
X235510000Y-122010000D01*
X235510000Y-126349895D01*
X234999362Y-126349895D01*
X234946739Y-126153504D01*
X234850568Y-125947266D01*
X234720047Y-125760861D01*
X234720045Y-125760858D01*
X234559141Y-125599954D01*
X234492620Y-125553376D01*
X234448995Y-125498800D01*
X234441801Y-125429301D01*
X234473324Y-125366946D01*
X234533083Y-125331651D01*
X234553038Y-125326558D01*
X234553042Y-125326557D01*
X234626528Y-125296118D01*
X234626556Y-125296106D01*
X234675309Y-125272781D01*
X234675314Y-125272778D01*
X234790378Y-125186641D01*
X234790382Y-125186638D01*
X234846643Y-125130376D01*
X234846659Y-125130359D01*
X234882770Y-125090157D01*
X234956111Y-124966545D01*
X234956115Y-124966538D01*
X234986547Y-124893067D01*
X234986548Y-124893064D01*
X235004544Y-124842053D01*
X235024999Y-124699780D01*
X235025000Y-124699779D01*
X235025000Y-124310000D01*
X230839160Y-124310000D01*
X230855440Y-124391849D01*
X230855443Y-124391860D01*
X230884185Y-124486612D01*
X230944490Y-124632198D01*
X230991155Y-124719501D01*
X230991167Y-124719521D01*
X231078704Y-124850530D01*
X231078708Y-124850536D01*
X231141514Y-124927064D01*
X231252935Y-125038485D01*
X231329463Y-125101291D01*
X231329469Y-125101295D01*
X231460478Y-125188832D01*
X231460506Y-125188849D01*
X231525268Y-125223465D01*
X231575112Y-125272427D01*
X231590573Y-125340565D01*
X231566741Y-125406244D01*
X231519221Y-125445205D01*
X231467264Y-125469433D01*
X231280858Y-125599954D01*
X231119954Y-125760858D01*
X230989432Y-125947265D01*
X230989431Y-125947267D01*
X230893261Y-126153502D01*
X230893258Y-126153511D01*
X230834366Y-126373302D01*
X230834364Y-126373312D01*
X230819500Y-126543214D01*
X230819500Y-126656785D01*
X230834364Y-126826687D01*
X230834366Y-126826697D01*
X230893258Y-127046488D01*
X230893261Y-127046497D01*
X230989431Y-127252732D01*
X230989432Y-127252734D01*
X231106264Y-127419589D01*
X231128591Y-127485795D01*
X231111581Y-127553563D01*
X231092370Y-127578393D01*
X227190150Y-131480613D01*
X227164472Y-131500317D01*
X227131285Y-131519478D01*
X227070556Y-131580208D01*
X226827582Y-131823182D01*
X226766261Y-131856666D01*
X226739903Y-131859500D01*
X221285719Y-131859500D01*
X221218680Y-131839815D01*
X221175235Y-131791795D01*
X221155052Y-131752185D01*
X221155051Y-131752184D01*
X221030109Y-131580213D01*
X220879786Y-131429890D01*
X220707820Y-131304951D01*
X220707115Y-131304591D01*
X220699054Y-131300485D01*
X220648259Y-131252512D01*
X220631463Y-131184692D01*
X220653999Y-131118556D01*
X220699054Y-131079515D01*
X220707816Y-131075051D01*
X220729789Y-131059086D01*
X220879786Y-130950109D01*
X220879788Y-130950106D01*
X220879792Y-130950104D01*
X221030104Y-130799792D01*
X221030106Y-130799788D01*
X221030109Y-130799786D01*
X221155048Y-130627820D01*
X221155047Y-130627820D01*
X221155051Y-130627816D01*
X221251557Y-130438412D01*
X221317246Y-130236243D01*
X221350500Y-130026287D01*
X221350500Y-129813713D01*
X221317246Y-129603757D01*
X221303506Y-129561473D01*
X221301512Y-129491635D01*
X221333755Y-129435478D01*
X228612416Y-122156819D01*
X228673739Y-122123334D01*
X228700097Y-122120500D01*
X230888308Y-122120500D01*
X230955347Y-122140185D01*
X230989880Y-122173374D01*
X231075480Y-122295624D01*
X231119954Y-122359141D01*
X231280858Y-122520045D01*
X231280861Y-122520047D01*
X231467266Y-122650568D01*
X231519219Y-122674794D01*
X231571659Y-122720966D01*
X231590811Y-122788159D01*
X231570596Y-122855041D01*
X231525269Y-122896534D01*
X231460499Y-122931155D01*
X231460478Y-122931167D01*
X231329469Y-123018704D01*
X231329463Y-123018708D01*
X231252935Y-123081514D01*
X231141514Y-123192935D01*
X231078708Y-123269463D01*
X231078704Y-123269469D01*
X230991167Y-123400478D01*
X230991155Y-123400498D01*
X230944490Y-123487801D01*
X230884185Y-123633387D01*
X230855443Y-123728139D01*
X230855440Y-123728150D01*
X230839160Y-123809999D01*
X230839161Y-123810000D01*
X235025000Y-123810000D01*
X235025000Y-123420214D01*
X235022106Y-123366237D01*
X235022106Y-123366235D01*
X234986561Y-123226969D01*
X234986557Y-123226957D01*
X234956118Y-123153471D01*
X234956106Y-123153443D01*
X234932781Y-123104690D01*
X234932778Y-123104685D01*
X234846641Y-122989621D01*
X234846638Y-122989617D01*
X234790376Y-122933356D01*
X234790359Y-122933340D01*
X234750157Y-122897229D01*
X234626545Y-122823888D01*
X234626538Y-122823884D01*
X234553067Y-122793452D01*
X234553065Y-122793451D01*
X234524833Y-122783491D01*
X234468162Y-122742623D01*
X234442582Y-122677604D01*
X234456215Y-122609077D01*
X234494964Y-122564982D01*
X234559139Y-122520047D01*
X234720047Y-122359139D01*
X234850568Y-122172734D01*
X234946739Y-121966496D01*
X235005635Y-121746692D01*
X235020500Y-121576784D01*
X235020500Y-121463216D01*
X235005635Y-121293308D01*
X234946739Y-121073504D01*
X234850568Y-120867266D01*
X234720047Y-120680861D01*
X234720045Y-120680858D01*
X234559141Y-120519954D01*
X234372734Y-120389432D01*
X234372728Y-120389429D01*
X234314725Y-120362382D01*
X234262285Y-120316210D01*
X234243133Y-120249017D01*
X234263348Y-120182135D01*
X234314725Y-120137618D01*
X234372734Y-120110568D01*
X234559139Y-119980047D01*
X234720047Y-119819139D01*
X234850568Y-119632734D01*
X234946739Y-119426496D01*
X235005635Y-119206692D01*
X235020500Y-119036784D01*
X235020500Y-118923216D01*
X235005635Y-118753308D01*
X234946739Y-118533504D01*
X234850568Y-118327266D01*
X234720047Y-118140861D01*
X234720045Y-118140858D01*
X234559141Y-117979954D01*
X234372734Y-117849432D01*
X234372728Y-117849429D01*
X234314725Y-117822382D01*
X234262285Y-117776210D01*
X234243133Y-117709017D01*
X234263348Y-117642135D01*
X234314725Y-117597618D01*
X234372734Y-117570568D01*
X234559139Y-117440047D01*
X234720047Y-117279139D01*
X234850568Y-117092734D01*
X234946739Y-116886496D01*
X235005635Y-116666692D01*
X235020500Y-116496784D01*
X235020500Y-116383216D01*
X235005635Y-116213308D01*
X234946739Y-115993504D01*
X234850568Y-115787266D01*
X234720047Y-115600861D01*
X234720045Y-115600858D01*
X234559141Y-115439954D01*
X234372734Y-115309432D01*
X234372728Y-115309429D01*
X234314725Y-115282382D01*
X234262285Y-115236210D01*
X234243133Y-115169017D01*
X234263348Y-115102135D01*
X234314725Y-115057618D01*
X234372734Y-115030568D01*
X234559139Y-114900047D01*
X234720047Y-114739139D01*
X234850568Y-114552734D01*
X234946739Y-114346496D01*
X235005635Y-114126692D01*
X235020500Y-113956784D01*
X235020500Y-113843216D01*
X235005635Y-113673308D01*
X234946739Y-113453504D01*
X234850568Y-113247266D01*
X234720047Y-113060861D01*
X234720045Y-113060858D01*
X234559141Y-112899954D01*
X234492620Y-112853376D01*
X234448995Y-112798800D01*
X234441801Y-112729301D01*
X234473324Y-112666946D01*
X234533083Y-112631651D01*
X234553038Y-112626558D01*
X234553042Y-112626557D01*
X234626528Y-112596118D01*
X234626556Y-112596106D01*
X234675309Y-112572781D01*
X234675314Y-112572778D01*
X234790378Y-112486641D01*
X234790382Y-112486638D01*
X234846643Y-112430376D01*
X234846659Y-112430359D01*
X234882770Y-112390157D01*
X234956111Y-112266545D01*
X234956115Y-112266538D01*
X234986547Y-112193067D01*
X234986548Y-112193064D01*
X235004544Y-112142053D01*
X235024998Y-111999785D01*
X250195000Y-111999785D01*
X250197893Y-112053762D01*
X250197893Y-112053764D01*
X250233438Y-112193030D01*
X250233442Y-112193042D01*
X250263881Y-112266528D01*
X250263893Y-112266556D01*
X250287218Y-112315309D01*
X250287221Y-112315314D01*
X250373358Y-112430378D01*
X250373361Y-112430382D01*
X250429623Y-112486643D01*
X250429640Y-112486659D01*
X250469842Y-112522770D01*
X250593454Y-112596111D01*
X250593461Y-112596115D01*
X250666932Y-112626547D01*
X250666956Y-112626556D01*
X250695164Y-112636508D01*
X250751835Y-112677374D01*
X250777417Y-112742392D01*
X250763785Y-112810920D01*
X250725033Y-112855019D01*
X250660859Y-112899953D01*
X250499954Y-113060858D01*
X250369432Y-113247265D01*
X250369431Y-113247267D01*
X250273261Y-113453502D01*
X250273258Y-113453511D01*
X250214366Y-113673302D01*
X250214364Y-113673312D01*
X250199500Y-113843214D01*
X250199500Y-113956785D01*
X250214364Y-114126687D01*
X250214366Y-114126697D01*
X250273258Y-114346488D01*
X250273261Y-114346497D01*
X250369431Y-114552732D01*
X250369432Y-114552734D01*
X250499954Y-114739141D01*
X250660858Y-114900045D01*
X250660861Y-114900047D01*
X250847266Y-115030568D01*
X250905275Y-115057618D01*
X250957714Y-115103791D01*
X250976866Y-115170984D01*
X250956650Y-115237865D01*
X250905275Y-115282382D01*
X250847267Y-115309431D01*
X250847265Y-115309432D01*
X250660858Y-115439954D01*
X250499954Y-115600858D01*
X250369432Y-115787265D01*
X250369431Y-115787267D01*
X250273261Y-115993502D01*
X250273258Y-115993511D01*
X250214366Y-116213302D01*
X250214364Y-116213312D01*
X250199500Y-116383214D01*
X250199500Y-116496785D01*
X250214364Y-116666687D01*
X250214366Y-116666697D01*
X250273258Y-116886488D01*
X250273261Y-116886497D01*
X250369431Y-117092732D01*
X250369432Y-117092734D01*
X250499954Y-117279141D01*
X250660858Y-117440045D01*
X250660861Y-117440047D01*
X250847266Y-117570568D01*
X250905275Y-117597618D01*
X250957714Y-117643791D01*
X250976866Y-117710984D01*
X250956650Y-117777865D01*
X250905275Y-117822382D01*
X250847267Y-117849431D01*
X250847265Y-117849432D01*
X250660858Y-117979954D01*
X250499954Y-118140858D01*
X250369432Y-118327265D01*
X250369431Y-118327267D01*
X250273261Y-118533502D01*
X250273258Y-118533511D01*
X250214366Y-118753302D01*
X250214364Y-118753312D01*
X250199500Y-118923214D01*
X250199500Y-119036785D01*
X250214364Y-119206687D01*
X250214366Y-119206697D01*
X250273258Y-119426488D01*
X250273261Y-119426497D01*
X250369431Y-119632732D01*
X250369432Y-119632734D01*
X250499954Y-119819141D01*
X250660858Y-119980045D01*
X250660861Y-119980047D01*
X250847266Y-120110568D01*
X250905275Y-120137618D01*
X250957714Y-120183791D01*
X250976866Y-120250984D01*
X250956650Y-120317865D01*
X250905275Y-120362382D01*
X250847267Y-120389431D01*
X250847265Y-120389432D01*
X250660858Y-120519954D01*
X250499954Y-120680858D01*
X250369432Y-120867265D01*
X250369431Y-120867267D01*
X250273261Y-121073502D01*
X250273258Y-121073511D01*
X250214366Y-121293302D01*
X250214364Y-121293312D01*
X250199500Y-121463214D01*
X250199500Y-121576785D01*
X250214364Y-121746687D01*
X250214366Y-121746697D01*
X250273258Y-121966488D01*
X250273261Y-121966497D01*
X250369431Y-122172732D01*
X250369432Y-122172734D01*
X250499954Y-122359141D01*
X250660858Y-122520045D01*
X250727379Y-122566623D01*
X250771004Y-122621199D01*
X250778198Y-122690698D01*
X250746676Y-122753052D01*
X250686922Y-122788346D01*
X250666970Y-122793438D01*
X250666957Y-122793442D01*
X250593471Y-122823881D01*
X250593443Y-122823893D01*
X250544690Y-122847218D01*
X250544685Y-122847221D01*
X250429621Y-122933358D01*
X250429617Y-122933361D01*
X250373356Y-122989623D01*
X250373340Y-122989640D01*
X250337229Y-123029842D01*
X250263888Y-123153454D01*
X250263884Y-123153461D01*
X250233452Y-123226932D01*
X250233451Y-123226935D01*
X250215455Y-123277946D01*
X250195000Y-123420219D01*
X250195000Y-123810000D01*
X254380839Y-123810000D01*
X254380839Y-123809999D01*
X254364559Y-123728150D01*
X254364556Y-123728139D01*
X254335814Y-123633387D01*
X254275509Y-123487801D01*
X254228844Y-123400498D01*
X254228832Y-123400478D01*
X254141295Y-123269469D01*
X254141291Y-123269463D01*
X254078485Y-123192935D01*
X253967064Y-123081514D01*
X253890536Y-123018708D01*
X253890530Y-123018704D01*
X253759521Y-122931167D01*
X253759501Y-122931155D01*
X253694730Y-122896534D01*
X253644886Y-122847571D01*
X253629426Y-122779434D01*
X253653258Y-122713754D01*
X253700777Y-122674795D01*
X253752734Y-122650568D01*
X253939139Y-122520047D01*
X254100047Y-122359139D01*
X254230568Y-122172734D01*
X254326739Y-121966496D01*
X254385635Y-121746692D01*
X254400500Y-121576784D01*
X254400500Y-121463216D01*
X254385635Y-121293308D01*
X254326739Y-121073504D01*
X254230568Y-120867266D01*
X254100047Y-120680861D01*
X254100045Y-120680858D01*
X253939141Y-120519954D01*
X253752734Y-120389432D01*
X253752728Y-120389429D01*
X253694725Y-120362382D01*
X253642285Y-120316210D01*
X253623133Y-120249017D01*
X253643348Y-120182135D01*
X253694725Y-120137618D01*
X253752734Y-120110568D01*
X253939139Y-119980047D01*
X254100047Y-119819139D01*
X254230568Y-119632734D01*
X254326739Y-119426496D01*
X254385635Y-119206692D01*
X254400500Y-119036784D01*
X254400500Y-118923216D01*
X254385635Y-118753308D01*
X254326739Y-118533504D01*
X254230568Y-118327266D01*
X254100047Y-118140861D01*
X254100045Y-118140858D01*
X253939141Y-117979954D01*
X253752734Y-117849432D01*
X253752728Y-117849429D01*
X253694725Y-117822382D01*
X253642285Y-117776210D01*
X253623133Y-117709017D01*
X253643348Y-117642135D01*
X253694725Y-117597618D01*
X253752734Y-117570568D01*
X253939139Y-117440047D01*
X254100047Y-117279139D01*
X254230568Y-117092734D01*
X254326739Y-116886496D01*
X254385635Y-116666692D01*
X254400500Y-116496784D01*
X254400500Y-116383216D01*
X254385635Y-116213308D01*
X254326739Y-115993504D01*
X254230568Y-115787266D01*
X254100047Y-115600861D01*
X254100045Y-115600858D01*
X253939141Y-115439954D01*
X253752734Y-115309432D01*
X253752728Y-115309429D01*
X253694725Y-115282382D01*
X253642285Y-115236210D01*
X253623133Y-115169017D01*
X253643348Y-115102135D01*
X253694725Y-115057618D01*
X253752734Y-115030568D01*
X253939139Y-114900047D01*
X254100047Y-114739139D01*
X254157854Y-114656582D01*
X259000001Y-114656582D01*
X259006408Y-114727102D01*
X259006409Y-114727107D01*
X259056981Y-114889396D01*
X259144927Y-115034877D01*
X259265122Y-115155072D01*
X259410604Y-115243019D01*
X259410603Y-115243019D01*
X259572894Y-115293590D01*
X259572893Y-115293590D01*
X259643427Y-115299999D01*
X260249999Y-115299999D01*
X260750000Y-115299999D01*
X261356581Y-115299999D01*
X261427102Y-115293591D01*
X261427107Y-115293590D01*
X261589396Y-115243018D01*
X261734877Y-115155072D01*
X261855072Y-115034877D01*
X261943019Y-114889395D01*
X261993590Y-114727106D01*
X262000000Y-114656572D01*
X262000000Y-114650000D01*
X260750000Y-114650000D01*
X260750000Y-115299999D01*
X260249999Y-115299999D01*
X260250000Y-115299998D01*
X260250000Y-114650000D01*
X259000001Y-114650000D01*
X259000001Y-114656582D01*
X254157854Y-114656582D01*
X254230568Y-114552734D01*
X254326739Y-114346496D01*
X254381151Y-114143427D01*
X259000000Y-114143427D01*
X259000000Y-114150000D01*
X260250000Y-114150000D01*
X260750000Y-114150000D01*
X261999999Y-114150000D01*
X261999999Y-114143417D01*
X261993591Y-114072897D01*
X261993590Y-114072892D01*
X261943018Y-113910603D01*
X261855072Y-113765122D01*
X261734877Y-113644927D01*
X261589395Y-113556980D01*
X261589396Y-113556980D01*
X261427105Y-113506409D01*
X261427106Y-113506409D01*
X261356572Y-113500000D01*
X260750000Y-113500000D01*
X260750000Y-114150000D01*
X260250000Y-114150000D01*
X260250000Y-113500000D01*
X259643417Y-113500000D01*
X259572897Y-113506408D01*
X259572892Y-113506409D01*
X259410603Y-113556981D01*
X259265122Y-113644927D01*
X259144927Y-113765122D01*
X259056980Y-113910604D01*
X259006409Y-114072893D01*
X259000000Y-114143427D01*
X254381151Y-114143427D01*
X254385635Y-114126692D01*
X254400500Y-113956784D01*
X254400500Y-113843216D01*
X254385635Y-113673308D01*
X254326739Y-113453504D01*
X254230568Y-113247266D01*
X254100047Y-113060861D01*
X254100045Y-113060858D01*
X253939141Y-112899954D01*
X253752734Y-112769432D01*
X253752732Y-112769431D01*
X253700779Y-112745205D01*
X253648340Y-112699032D01*
X253629188Y-112631839D01*
X253649404Y-112564958D01*
X253694732Y-112523464D01*
X253759500Y-112488844D01*
X253759521Y-112488832D01*
X253890530Y-112401295D01*
X253890536Y-112401291D01*
X253967064Y-112338485D01*
X254078485Y-112227064D01*
X254141291Y-112150536D01*
X254141295Y-112150530D01*
X254228832Y-112019521D01*
X254228844Y-112019501D01*
X254275509Y-111932198D01*
X254335814Y-111786612D01*
X254364556Y-111691860D01*
X254364559Y-111691849D01*
X254380839Y-111610000D01*
X250195000Y-111610000D01*
X250195000Y-111999785D01*
X235024998Y-111999785D01*
X235024999Y-111999780D01*
X235025000Y-111999779D01*
X235025000Y-111610000D01*
X230839160Y-111610000D01*
X230855440Y-111691849D01*
X230855443Y-111691860D01*
X230884185Y-111786612D01*
X230944490Y-111932198D01*
X230991155Y-112019501D01*
X230991167Y-112019521D01*
X231078704Y-112150530D01*
X231078708Y-112150536D01*
X231141514Y-112227064D01*
X231252935Y-112338485D01*
X231329463Y-112401291D01*
X231329469Y-112401295D01*
X231460478Y-112488832D01*
X231460506Y-112488849D01*
X231525268Y-112523465D01*
X231575112Y-112572427D01*
X231590573Y-112640565D01*
X231566741Y-112706244D01*
X231519221Y-112745205D01*
X231467264Y-112769433D01*
X231280858Y-112899954D01*
X231119954Y-113060858D01*
X230989432Y-113247265D01*
X230989431Y-113247267D01*
X230893261Y-113453502D01*
X230893258Y-113453511D01*
X230834366Y-113673302D01*
X230834364Y-113673312D01*
X230819500Y-113843214D01*
X230819500Y-113956785D01*
X230834364Y-114126687D01*
X230834366Y-114126697D01*
X230893258Y-114346488D01*
X230893261Y-114346497D01*
X230989431Y-114552732D01*
X230989432Y-114552734D01*
X231119954Y-114739141D01*
X231280858Y-114900045D01*
X231280861Y-114900047D01*
X231467266Y-115030568D01*
X231525275Y-115057618D01*
X231577714Y-115103791D01*
X231596866Y-115170984D01*
X231576650Y-115237865D01*
X231525275Y-115282382D01*
X231467267Y-115309431D01*
X231467265Y-115309432D01*
X231280858Y-115439954D01*
X231119954Y-115600858D01*
X230989432Y-115787265D01*
X230989431Y-115787267D01*
X230893261Y-115993502D01*
X230893258Y-115993511D01*
X230834366Y-116213302D01*
X230834364Y-116213312D01*
X230819500Y-116383214D01*
X230819500Y-116496785D01*
X230834364Y-116666687D01*
X230834366Y-116666697D01*
X230893258Y-116886488D01*
X230893261Y-116886497D01*
X230989431Y-117092732D01*
X230989432Y-117092734D01*
X231119954Y-117279141D01*
X231280858Y-117440045D01*
X231280861Y-117440047D01*
X231467266Y-117570568D01*
X231525275Y-117597618D01*
X231577714Y-117643791D01*
X231596866Y-117710984D01*
X231576650Y-117777865D01*
X231525275Y-117822382D01*
X231467267Y-117849431D01*
X231467265Y-117849432D01*
X231280858Y-117979954D01*
X231119954Y-118140858D01*
X230989432Y-118327265D01*
X230989431Y-118327267D01*
X230893261Y-118533502D01*
X230893258Y-118533511D01*
X230834366Y-118753302D01*
X230834364Y-118753312D01*
X230819500Y-118923214D01*
X230819500Y-119036785D01*
X230834364Y-119206687D01*
X230834366Y-119206697D01*
X230893258Y-119426488D01*
X230893261Y-119426497D01*
X230989431Y-119632732D01*
X230989432Y-119632734D01*
X231119954Y-119819141D01*
X231280858Y-119980045D01*
X231280861Y-119980047D01*
X231467266Y-120110568D01*
X231525275Y-120137618D01*
X231577714Y-120183791D01*
X231596866Y-120250984D01*
X231576650Y-120317865D01*
X231525275Y-120362382D01*
X231467267Y-120389431D01*
X231467265Y-120389432D01*
X231280858Y-120519954D01*
X231119954Y-120680858D01*
X231043461Y-120790104D01*
X230989881Y-120866624D01*
X230935307Y-120910248D01*
X230888308Y-120919500D01*
X228486669Y-120919500D01*
X228486653Y-120919499D01*
X228479057Y-120919499D01*
X228320943Y-120919499D01*
X228213587Y-120948265D01*
X228168210Y-120960424D01*
X228168209Y-120960425D01*
X228118096Y-120989359D01*
X228118095Y-120989360D01*
X228079648Y-121011557D01*
X228031285Y-121039479D01*
X228031282Y-121039481D01*
X221562181Y-127508583D01*
X221500858Y-127542068D01*
X221431166Y-127537084D01*
X221375233Y-127495212D01*
X221350816Y-127429748D01*
X221350500Y-127420902D01*
X221350500Y-127273713D01*
X221317246Y-127063760D01*
X221317246Y-127063757D01*
X221251557Y-126861588D01*
X221155051Y-126672184D01*
X221155049Y-126672181D01*
X221155048Y-126672179D01*
X221030109Y-126500213D01*
X220879786Y-126349890D01*
X220707820Y-126224951D01*
X220707115Y-126224591D01*
X220699054Y-126220485D01*
X220648259Y-126172512D01*
X220631463Y-126104692D01*
X220653999Y-126038556D01*
X220699054Y-125999515D01*
X220707816Y-125995051D01*
X220729789Y-125979086D01*
X220879786Y-125870109D01*
X220879788Y-125870106D01*
X220879792Y-125870104D01*
X221030104Y-125719792D01*
X221030106Y-125719788D01*
X221030109Y-125719786D01*
X221155048Y-125547820D01*
X221155047Y-125547820D01*
X221155051Y-125547816D01*
X221251557Y-125358412D01*
X221317246Y-125156243D01*
X221350500Y-124946287D01*
X221350500Y-124733713D01*
X221317246Y-124523757D01*
X221251557Y-124321588D01*
X221155051Y-124132184D01*
X221155049Y-124132181D01*
X221155048Y-124132179D01*
X221030109Y-123960213D01*
X220879786Y-123809890D01*
X220707817Y-123684949D01*
X220698504Y-123680204D01*
X220647707Y-123632230D01*
X220630912Y-123564409D01*
X220653449Y-123498274D01*
X220698507Y-123459232D01*
X220707555Y-123454622D01*
X220761716Y-123415270D01*
X220761717Y-123415270D01*
X220129408Y-122782962D01*
X220192993Y-122765925D01*
X220307007Y-122700099D01*
X220400099Y-122607007D01*
X220465925Y-122492993D01*
X220482962Y-122429408D01*
X221115270Y-123061717D01*
X221115270Y-123061716D01*
X221154622Y-123007554D01*
X221251095Y-122818217D01*
X221316757Y-122616130D01*
X221316757Y-122616127D01*
X221350000Y-122406246D01*
X221350000Y-122193753D01*
X221316757Y-121983872D01*
X221316757Y-121983869D01*
X221251095Y-121781782D01*
X221154624Y-121592449D01*
X221115270Y-121538282D01*
X221115269Y-121538282D01*
X220482962Y-122170590D01*
X220465925Y-122107007D01*
X220400099Y-121992993D01*
X220307007Y-121899901D01*
X220192993Y-121834075D01*
X220129409Y-121817037D01*
X220761716Y-121184728D01*
X220707547Y-121145373D01*
X220707547Y-121145372D01*
X220698500Y-121140763D01*
X220647706Y-121092788D01*
X220630912Y-121024966D01*
X220653451Y-120958832D01*
X220698508Y-120919793D01*
X220707816Y-120915051D01*
X220787007Y-120857515D01*
X220879786Y-120790109D01*
X220879788Y-120790106D01*
X220879792Y-120790104D01*
X221030104Y-120639792D01*
X221030106Y-120639788D01*
X221030109Y-120639786D01*
X221155048Y-120467820D01*
X221155047Y-120467820D01*
X221155051Y-120467816D01*
X221251557Y-120278412D01*
X221317246Y-120076243D01*
X221350500Y-119866287D01*
X221350500Y-119653713D01*
X221317246Y-119443757D01*
X221251557Y-119241588D01*
X221155051Y-119052184D01*
X221155049Y-119052181D01*
X221155048Y-119052179D01*
X221030109Y-118880213D01*
X220879786Y-118729890D01*
X220707815Y-118604948D01*
X220707814Y-118604947D01*
X220668205Y-118584765D01*
X220617409Y-118536791D01*
X220600500Y-118474281D01*
X220600500Y-117089059D01*
X220600501Y-117089046D01*
X220600501Y-116920945D01*
X220600501Y-116920943D01*
X220559577Y-116768215D01*
X220530639Y-116718095D01*
X220480520Y-116631284D01*
X220368716Y-116519480D01*
X220368715Y-116519479D01*
X220364385Y-116515149D01*
X220364374Y-116515139D01*
X218436916Y-114587681D01*
X218403431Y-114526358D01*
X218408415Y-114456666D01*
X218436916Y-114412319D01*
X227032416Y-105816819D01*
X227093739Y-105783334D01*
X227120097Y-105780500D01*
X230745863Y-105780500D01*
X230812902Y-105800185D01*
X230858657Y-105852989D01*
X230868601Y-105922147D01*
X230865638Y-105936593D01*
X230834366Y-106053302D01*
X230834364Y-106053312D01*
X230819500Y-106223214D01*
X230819500Y-106336785D01*
X230834364Y-106506687D01*
X230834366Y-106506697D01*
X230893258Y-106726488D01*
X230893261Y-106726497D01*
X230989431Y-106932732D01*
X230989432Y-106932734D01*
X231119954Y-107119141D01*
X231280858Y-107280045D01*
X231280861Y-107280047D01*
X231467266Y-107410568D01*
X231525275Y-107437618D01*
X231577714Y-107483791D01*
X231596866Y-107550984D01*
X231576650Y-107617865D01*
X231525275Y-107662382D01*
X231467267Y-107689431D01*
X231467265Y-107689432D01*
X231280858Y-107819954D01*
X231119954Y-107980858D01*
X230989432Y-108167265D01*
X230989431Y-108167267D01*
X230893261Y-108373502D01*
X230893258Y-108373511D01*
X230834366Y-108593302D01*
X230834364Y-108593312D01*
X230819500Y-108763214D01*
X230819500Y-108876785D01*
X230834364Y-109046687D01*
X230834366Y-109046697D01*
X230893258Y-109266488D01*
X230893261Y-109266497D01*
X230989431Y-109472732D01*
X230989432Y-109472734D01*
X231119954Y-109659141D01*
X231280858Y-109820045D01*
X231280861Y-109820047D01*
X231467266Y-109950568D01*
X231519219Y-109974794D01*
X231571659Y-110020966D01*
X231590811Y-110088159D01*
X231570596Y-110155041D01*
X231525269Y-110196534D01*
X231460499Y-110231155D01*
X231460478Y-110231167D01*
X231329469Y-110318704D01*
X231329463Y-110318708D01*
X231252935Y-110381514D01*
X231141514Y-110492935D01*
X231078708Y-110569463D01*
X231078704Y-110569469D01*
X230991167Y-110700478D01*
X230991155Y-110700498D01*
X230944490Y-110787801D01*
X230884185Y-110933387D01*
X230855443Y-111028139D01*
X230855440Y-111028150D01*
X230839160Y-111109999D01*
X230839161Y-111110000D01*
X235025000Y-111110000D01*
X235025000Y-110720214D01*
X235022106Y-110666237D01*
X235022106Y-110666235D01*
X234986561Y-110526969D01*
X234986557Y-110526957D01*
X234956118Y-110453471D01*
X234956106Y-110453443D01*
X234932781Y-110404690D01*
X234932778Y-110404685D01*
X234846641Y-110289621D01*
X234846638Y-110289617D01*
X234790376Y-110233356D01*
X234790359Y-110233340D01*
X234750157Y-110197229D01*
X234626545Y-110123888D01*
X234626538Y-110123884D01*
X234553067Y-110093452D01*
X234553065Y-110093451D01*
X234524833Y-110083491D01*
X234514997Y-110076398D01*
X234503237Y-110073446D01*
X234487186Y-110056342D01*
X234468162Y-110042623D01*
X234463722Y-110031339D01*
X234455425Y-110022497D01*
X234451169Y-109999431D01*
X234442582Y-109977604D01*
X234444948Y-109965711D01*
X234442748Y-109953787D01*
X234451638Y-109932081D01*
X234453524Y-109922600D01*
X242206700Y-109922600D01*
X242206700Y-111497400D01*
X242208033Y-111524726D01*
X242208622Y-111536799D01*
X242238778Y-111609603D01*
X242294496Y-111665321D01*
X242294497Y-111665321D01*
X242294498Y-111665322D01*
X242367300Y-111695478D01*
X242406700Y-111697400D01*
X242406715Y-111697400D01*
X243981485Y-111697400D01*
X243981500Y-111697400D01*
X244020900Y-111695478D01*
X244093702Y-111665323D01*
X244149423Y-111609602D01*
X244179578Y-111536800D01*
X244181500Y-111497400D01*
X244181500Y-110696146D01*
X244742019Y-110696146D01*
X244742019Y-110696153D01*
X244758221Y-110889101D01*
X244758222Y-110889107D01*
X244798089Y-111028139D01*
X244811596Y-111075245D01*
X244891578Y-111230875D01*
X244900108Y-111247471D01*
X245020387Y-111399225D01*
X245167851Y-111524726D01*
X245167854Y-111524728D01*
X245167857Y-111524730D01*
X245268340Y-111580887D01*
X245336882Y-111619195D01*
X245521044Y-111679033D01*
X245713321Y-111701960D01*
X245906390Y-111687105D01*
X246092896Y-111635031D01*
X246265736Y-111547724D01*
X246418325Y-111428507D01*
X246544853Y-111281923D01*
X246640500Y-111113555D01*
X246701622Y-110929816D01*
X246725891Y-110737703D01*
X246726278Y-110710000D01*
X246724920Y-110696146D01*
X247282019Y-110696146D01*
X247282019Y-110696153D01*
X247298221Y-110889101D01*
X247298222Y-110889107D01*
X247338089Y-111028139D01*
X247351596Y-111075245D01*
X247431578Y-111230875D01*
X247440108Y-111247471D01*
X247560387Y-111399225D01*
X247707851Y-111524726D01*
X247707854Y-111524728D01*
X247707857Y-111524730D01*
X247808340Y-111580887D01*
X247876882Y-111619195D01*
X248061044Y-111679033D01*
X248253321Y-111701960D01*
X248446390Y-111687105D01*
X248632896Y-111635031D01*
X248805736Y-111547724D01*
X248958325Y-111428507D01*
X249084853Y-111281923D01*
X249180500Y-111113555D01*
X249241622Y-110929816D01*
X249265891Y-110737703D01*
X249266278Y-110710000D01*
X249247382Y-110517285D01*
X249191414Y-110331910D01*
X249191413Y-110331908D01*
X249191413Y-110331907D01*
X249143401Y-110241611D01*
X249100506Y-110160937D01*
X248978120Y-110010877D01*
X248828919Y-109887447D01*
X248658584Y-109795348D01*
X248658583Y-109795347D01*
X248658580Y-109795346D01*
X248473609Y-109738087D01*
X248281029Y-109717846D01*
X248281027Y-109717846D01*
X248207670Y-109724522D01*
X248088182Y-109735396D01*
X247902426Y-109790067D01*
X247902422Y-109790069D01*
X247730831Y-109879773D01*
X247730819Y-109879781D01*
X247579910Y-110001115D01*
X247579909Y-110001116D01*
X247455444Y-110149446D01*
X247455442Y-110149449D01*
X247362154Y-110319139D01*
X247303602Y-110503718D01*
X247303602Y-110503719D01*
X247282019Y-110696146D01*
X246724920Y-110696146D01*
X246707382Y-110517285D01*
X246651414Y-110331910D01*
X246651413Y-110331908D01*
X246651413Y-110331907D01*
X246603401Y-110241611D01*
X246560506Y-110160937D01*
X246438120Y-110010877D01*
X246288919Y-109887447D01*
X246118584Y-109795348D01*
X246118583Y-109795347D01*
X246118580Y-109795346D01*
X245933609Y-109738087D01*
X245741029Y-109717846D01*
X245741027Y-109717846D01*
X245667670Y-109724522D01*
X245548182Y-109735396D01*
X245362426Y-109790067D01*
X245362422Y-109790069D01*
X245190831Y-109879773D01*
X245190819Y-109879781D01*
X245039910Y-110001115D01*
X245039909Y-110001116D01*
X244915444Y-110149446D01*
X244915442Y-110149449D01*
X244822154Y-110319139D01*
X244763602Y-110503718D01*
X244763602Y-110503719D01*
X244742019Y-110696146D01*
X244181500Y-110696146D01*
X244181500Y-109922600D01*
X244179578Y-109883200D01*
X244149423Y-109810398D01*
X244093702Y-109754677D01*
X244093698Y-109754675D01*
X244093696Y-109754674D01*
X244020901Y-109724522D01*
X244020903Y-109724522D01*
X244012457Y-109724110D01*
X243981500Y-109722600D01*
X243194100Y-109722600D01*
X242406700Y-109722600D01*
X242367300Y-109724522D01*
X242294496Y-109754678D01*
X242294495Y-109754680D01*
X242238780Y-109810395D01*
X242238778Y-109810396D01*
X242210038Y-109879781D01*
X242208622Y-109883200D01*
X242206700Y-109922600D01*
X234453524Y-109922600D01*
X234456215Y-109909077D01*
X234465291Y-109898749D01*
X234469231Y-109889130D01*
X234494965Y-109864981D01*
X234559139Y-109820047D01*
X234720047Y-109659139D01*
X234850568Y-109472734D01*
X234946739Y-109266496D01*
X235005635Y-109046692D01*
X235020500Y-108876784D01*
X235020500Y-108763216D01*
X235005635Y-108593308D01*
X234946739Y-108373504D01*
X234850568Y-108167266D01*
X234720047Y-107980861D01*
X234720045Y-107980858D01*
X234559141Y-107819954D01*
X234372734Y-107689432D01*
X234372728Y-107689429D01*
X234314725Y-107662382D01*
X234262285Y-107616210D01*
X234243133Y-107549017D01*
X234263348Y-107482135D01*
X234314725Y-107437618D01*
X234372734Y-107410568D01*
X234559139Y-107280047D01*
X234720047Y-107119139D01*
X234850568Y-106932734D01*
X234946739Y-106726496D01*
X235005635Y-106506692D01*
X235020500Y-106336784D01*
X235020500Y-106223216D01*
X235005635Y-106053308D01*
X234992308Y-106003573D01*
X234974362Y-105936593D01*
X234976025Y-105866743D01*
X235015188Y-105808881D01*
X235079417Y-105781377D01*
X235094137Y-105780500D01*
X236233331Y-105780500D01*
X236233347Y-105780501D01*
X236240943Y-105780501D01*
X236399054Y-105780501D01*
X236399057Y-105780501D01*
X236551785Y-105739577D01*
X236601904Y-105710639D01*
X236688716Y-105660520D01*
X236800520Y-105548716D01*
X236800520Y-105548714D01*
X236810728Y-105538507D01*
X236810730Y-105538504D01*
X242448319Y-99900915D01*
X242509642Y-99867430D01*
X242579334Y-99872414D01*
X242635267Y-99914286D01*
X242659684Y-99979750D01*
X242660000Y-99988596D01*
X242660000Y-100460000D01*
X242662138Y-100525541D01*
X242662138Y-100525544D01*
X242662139Y-100525545D01*
X242696068Y-100652167D01*
X242761612Y-100765694D01*
X242854306Y-100858388D01*
X242967833Y-100923932D01*
X243094455Y-100957861D01*
X243160000Y-100960000D01*
X244060000Y-100960000D01*
X244125545Y-100957861D01*
X244252167Y-100923933D01*
X244365694Y-100858388D01*
X244458388Y-100765694D01*
X244523933Y-100652167D01*
X244557861Y-100525545D01*
X244560000Y-100460000D01*
X244560000Y-99560000D01*
X244557861Y-99494455D01*
X244523933Y-99367833D01*
X244484645Y-99299785D01*
X250195000Y-99299785D01*
X250197893Y-99353762D01*
X250197893Y-99353764D01*
X250233438Y-99493030D01*
X250233442Y-99493042D01*
X250263881Y-99566528D01*
X250263893Y-99566556D01*
X250287218Y-99615309D01*
X250287221Y-99615314D01*
X250373358Y-99730378D01*
X250373361Y-99730382D01*
X250429623Y-99786643D01*
X250429640Y-99786659D01*
X250469842Y-99822770D01*
X250593454Y-99896111D01*
X250593461Y-99896115D01*
X250666932Y-99926547D01*
X250666956Y-99926556D01*
X250695164Y-99936508D01*
X250751835Y-99977374D01*
X250777417Y-100042392D01*
X250763785Y-100110920D01*
X250725033Y-100155019D01*
X250660859Y-100199953D01*
X250499954Y-100360858D01*
X250369432Y-100547265D01*
X250369431Y-100547267D01*
X250273261Y-100753502D01*
X250273258Y-100753511D01*
X250214366Y-100973302D01*
X250214364Y-100973312D01*
X250199500Y-101143214D01*
X250199500Y-101256785D01*
X250214364Y-101426687D01*
X250214366Y-101426697D01*
X250273258Y-101646488D01*
X250273261Y-101646497D01*
X250369431Y-101852732D01*
X250369432Y-101852734D01*
X250499954Y-102039141D01*
X250660858Y-102200045D01*
X250666745Y-102204167D01*
X250847266Y-102330568D01*
X250904700Y-102357350D01*
X250905275Y-102357618D01*
X250957714Y-102403791D01*
X250976866Y-102470984D01*
X250956650Y-102537865D01*
X250905275Y-102582382D01*
X250847267Y-102609431D01*
X250847265Y-102609432D01*
X250660858Y-102739954D01*
X250499954Y-102900858D01*
X250369432Y-103087265D01*
X250369431Y-103087267D01*
X250273261Y-103293502D01*
X250273258Y-103293511D01*
X250214366Y-103513302D01*
X250214364Y-103513312D01*
X250199500Y-103683214D01*
X250199500Y-103796785D01*
X250214364Y-103966687D01*
X250214366Y-103966697D01*
X250273258Y-104186488D01*
X250273261Y-104186497D01*
X250369431Y-104392732D01*
X250369432Y-104392734D01*
X250499954Y-104579141D01*
X250660858Y-104740045D01*
X250660861Y-104740047D01*
X250847266Y-104870568D01*
X250905275Y-104897618D01*
X250957714Y-104943791D01*
X250976866Y-105010984D01*
X250956650Y-105077865D01*
X250905275Y-105122382D01*
X250847267Y-105149431D01*
X250847265Y-105149432D01*
X250660858Y-105279954D01*
X250499954Y-105440858D01*
X250369432Y-105627265D01*
X250369431Y-105627267D01*
X250273261Y-105833502D01*
X250273258Y-105833511D01*
X250214366Y-106053302D01*
X250214364Y-106053312D01*
X250199500Y-106223214D01*
X250199500Y-106336785D01*
X250214364Y-106506687D01*
X250214366Y-106506697D01*
X250273258Y-106726488D01*
X250273261Y-106726497D01*
X250369431Y-106932732D01*
X250369432Y-106932734D01*
X250499954Y-107119141D01*
X250660858Y-107280045D01*
X250660861Y-107280047D01*
X250847266Y-107410568D01*
X250905275Y-107437618D01*
X250957714Y-107483791D01*
X250976866Y-107550984D01*
X250956650Y-107617865D01*
X250905275Y-107662382D01*
X250847267Y-107689431D01*
X250847265Y-107689432D01*
X250660858Y-107819954D01*
X250499954Y-107980858D01*
X250369432Y-108167265D01*
X250369431Y-108167267D01*
X250273261Y-108373502D01*
X250273258Y-108373511D01*
X250214366Y-108593302D01*
X250214364Y-108593312D01*
X250199500Y-108763214D01*
X250199500Y-108876785D01*
X250214364Y-109046687D01*
X250214366Y-109046697D01*
X250273258Y-109266488D01*
X250273261Y-109266497D01*
X250369431Y-109472732D01*
X250369432Y-109472734D01*
X250499954Y-109659141D01*
X250660858Y-109820045D01*
X250727379Y-109866623D01*
X250771004Y-109921199D01*
X250778198Y-109990698D01*
X250746676Y-110053052D01*
X250686922Y-110088346D01*
X250666970Y-110093438D01*
X250666957Y-110093442D01*
X250593471Y-110123881D01*
X250593443Y-110123893D01*
X250544690Y-110147218D01*
X250544685Y-110147221D01*
X250429621Y-110233358D01*
X250429617Y-110233361D01*
X250373356Y-110289623D01*
X250373340Y-110289640D01*
X250337229Y-110329842D01*
X250263888Y-110453454D01*
X250263884Y-110453461D01*
X250233452Y-110526932D01*
X250233451Y-110526935D01*
X250215455Y-110577946D01*
X250195000Y-110720219D01*
X250195000Y-111110000D01*
X254380839Y-111110000D01*
X254380839Y-111109999D01*
X254364559Y-111028150D01*
X254364556Y-111028139D01*
X254335814Y-110933387D01*
X254275509Y-110787801D01*
X254228844Y-110700498D01*
X254228832Y-110700478D01*
X254141295Y-110569469D01*
X254141291Y-110569463D01*
X254078485Y-110492935D01*
X253967064Y-110381514D01*
X253890536Y-110318708D01*
X253890530Y-110318704D01*
X253759521Y-110231167D01*
X253759501Y-110231155D01*
X253694730Y-110196534D01*
X253644886Y-110147571D01*
X253629426Y-110079434D01*
X253653258Y-110013754D01*
X253700777Y-109974795D01*
X253752734Y-109950568D01*
X253939139Y-109820047D01*
X254100047Y-109659139D01*
X254230568Y-109472734D01*
X254287045Y-109351618D01*
X254333218Y-109299180D01*
X254400411Y-109280028D01*
X254467292Y-109300244D01*
X254487108Y-109316343D01*
X255735139Y-110564374D01*
X255735149Y-110564385D01*
X255739479Y-110568715D01*
X255739480Y-110568716D01*
X255851284Y-110680520D01*
X255920038Y-110720214D01*
X255938095Y-110730639D01*
X255938097Y-110730641D01*
X255976151Y-110752611D01*
X255988215Y-110759577D01*
X256140943Y-110800500D01*
X259058480Y-110800500D01*
X259125519Y-110820185D01*
X259146161Y-110836819D01*
X259264811Y-110955469D01*
X259264813Y-110955470D01*
X259264815Y-110955472D01*
X259410394Y-111043478D01*
X259572804Y-111094086D01*
X259643384Y-111100500D01*
X259643387Y-111100500D01*
X261356613Y-111100500D01*
X261356616Y-111100500D01*
X261427196Y-111094086D01*
X261589606Y-111043478D01*
X261735185Y-110955472D01*
X261855472Y-110835185D01*
X261943478Y-110689606D01*
X261994086Y-110527196D01*
X262000500Y-110456616D01*
X262000500Y-109943384D01*
X261994086Y-109872804D01*
X261943478Y-109710394D01*
X261855472Y-109564815D01*
X261855470Y-109564813D01*
X261855469Y-109564811D01*
X261735188Y-109444530D01*
X261589606Y-109356522D01*
X261573871Y-109351619D01*
X261427196Y-109305914D01*
X261427194Y-109305913D01*
X261427192Y-109305913D01*
X261377778Y-109301423D01*
X261356616Y-109299500D01*
X259643384Y-109299500D01*
X259624145Y-109301248D01*
X259572807Y-109305913D01*
X259410393Y-109356522D01*
X259264811Y-109444530D01*
X259264810Y-109444531D01*
X259146161Y-109563181D01*
X259084838Y-109596666D01*
X259058480Y-109599500D01*
X256520097Y-109599500D01*
X256453058Y-109579815D01*
X256432416Y-109563181D01*
X254127629Y-107258394D01*
X254094144Y-107197071D01*
X254099128Y-107127379D01*
X254113735Y-107099590D01*
X254230568Y-106932734D01*
X254326739Y-106726496D01*
X254385635Y-106506692D01*
X254400500Y-106336784D01*
X254400500Y-106223216D01*
X254385635Y-106053308D01*
X254326739Y-105833504D01*
X254230568Y-105627266D01*
X254100047Y-105440861D01*
X254100045Y-105440858D01*
X253939141Y-105279954D01*
X253752734Y-105149432D01*
X253752728Y-105149429D01*
X253694725Y-105122382D01*
X253642285Y-105076210D01*
X253623133Y-105009017D01*
X253643348Y-104942135D01*
X253694725Y-104897618D01*
X253752734Y-104870568D01*
X253939139Y-104740047D01*
X254100047Y-104579139D01*
X254230568Y-104392734D01*
X254326739Y-104186496D01*
X254385635Y-103966692D01*
X254400500Y-103796784D01*
X254400500Y-103683216D01*
X254385635Y-103513308D01*
X254326739Y-103293504D01*
X254230568Y-103087266D01*
X254100047Y-102900861D01*
X254100045Y-102900858D01*
X253939141Y-102739954D01*
X253752734Y-102609432D01*
X253752728Y-102609429D01*
X253694725Y-102582382D01*
X253684883Y-102573716D01*
X253672607Y-102569108D01*
X253659166Y-102551073D01*
X253642285Y-102536210D01*
X253638690Y-102523599D01*
X253630855Y-102513086D01*
X253629298Y-102490646D01*
X253623133Y-102469017D01*
X253626926Y-102456465D01*
X253626019Y-102443384D01*
X253636839Y-102423666D01*
X253637599Y-102421153D01*
X255199500Y-102421153D01*
X255199500Y-102578846D01*
X255230261Y-102733489D01*
X255230264Y-102733501D01*
X255290602Y-102879172D01*
X255290609Y-102879185D01*
X255378210Y-103010288D01*
X255378213Y-103010292D01*
X255489707Y-103121786D01*
X255489711Y-103121789D01*
X255620814Y-103209390D01*
X255620827Y-103209397D01*
X255766498Y-103269735D01*
X255766503Y-103269737D01*
X255921153Y-103300499D01*
X255921156Y-103300500D01*
X255921158Y-103300500D01*
X256078844Y-103300500D01*
X256078845Y-103300499D01*
X256233497Y-103269737D01*
X256379179Y-103209394D01*
X256510289Y-103121789D01*
X256621789Y-103010289D01*
X256709394Y-102879179D01*
X256769737Y-102733497D01*
X256794415Y-102609432D01*
X256800638Y-102578150D01*
X256833023Y-102516239D01*
X256834518Y-102514716D01*
X257412416Y-101936819D01*
X257473739Y-101903334D01*
X257500097Y-101900500D01*
X258125501Y-101900500D01*
X258131099Y-101902143D01*
X258136826Y-101901018D01*
X258164249Y-101911877D01*
X258192540Y-101920185D01*
X258196360Y-101924594D01*
X258201787Y-101926743D01*
X258218988Y-101950707D01*
X258238295Y-101972989D01*
X258240008Y-101979992D01*
X258242529Y-101983505D01*
X258246320Y-102005801D01*
X258249338Y-102018136D01*
X258249501Y-102021308D01*
X258249501Y-102097872D01*
X258255909Y-102157483D01*
X258256592Y-102159316D01*
X258257216Y-102171444D01*
X258249876Y-102202197D01*
X258244262Y-102233314D01*
X258241554Y-102237067D01*
X258240997Y-102239406D01*
X258237325Y-102242932D01*
X258221061Y-102265488D01*
X258129205Y-102357345D01*
X258129201Y-102357350D01*
X257981132Y-102561151D01*
X257866760Y-102785616D01*
X257788910Y-103025214D01*
X257773614Y-103121789D01*
X257749500Y-103274038D01*
X257749500Y-103525962D01*
X257774407Y-103683215D01*
X257788910Y-103774785D01*
X257866760Y-104014383D01*
X257945413Y-104168747D01*
X257954457Y-104186497D01*
X257981132Y-104238848D01*
X258129201Y-104442649D01*
X258129205Y-104442654D01*
X258307345Y-104620794D01*
X258307350Y-104620798D01*
X258415649Y-104699481D01*
X258511155Y-104768870D01*
X258654184Y-104841747D01*
X258735616Y-104883239D01*
X258735618Y-104883239D01*
X258735621Y-104883241D01*
X258975215Y-104961090D01*
X259224038Y-105000500D01*
X259224039Y-105000500D01*
X260775961Y-105000500D01*
X260775962Y-105000500D01*
X261024785Y-104961090D01*
X261264379Y-104883241D01*
X261488845Y-104768870D01*
X261692656Y-104620793D01*
X261870793Y-104442656D01*
X262018870Y-104238845D01*
X262133241Y-104014379D01*
X262211090Y-103774785D01*
X262250500Y-103525962D01*
X262250500Y-103274038D01*
X262211090Y-103025215D01*
X262133241Y-102785621D01*
X262133239Y-102785618D01*
X262133239Y-102785616D01*
X262043468Y-102609432D01*
X262018870Y-102561155D01*
X261986237Y-102516239D01*
X261870798Y-102357350D01*
X261870794Y-102357345D01*
X261778939Y-102265490D01*
X261745454Y-102204167D01*
X261743331Y-102164554D01*
X261748032Y-102120827D01*
X261750500Y-102097873D01*
X261750499Y-100502128D01*
X261744091Y-100442517D01*
X261713635Y-100360861D01*
X261693797Y-100307671D01*
X261693793Y-100307664D01*
X261607548Y-100192456D01*
X261607546Y-100192455D01*
X261607546Y-100192454D01*
X261569220Y-100163763D01*
X261527351Y-100107829D01*
X261522368Y-100038137D01*
X261543214Y-99991616D01*
X261569524Y-99955405D01*
X261658884Y-99780025D01*
X261719709Y-99592826D01*
X261723870Y-99566556D01*
X261750500Y-99398422D01*
X261750500Y-99201577D01*
X261719709Y-99007173D01*
X261670198Y-98854797D01*
X261658884Y-98819975D01*
X261658882Y-98819972D01*
X261658882Y-98819970D01*
X261588523Y-98681883D01*
X261575627Y-98613213D01*
X261601903Y-98548473D01*
X261611318Y-98537916D01*
X262530520Y-97618716D01*
X262609577Y-97481785D01*
X262650501Y-97329057D01*
X262650501Y-97170942D01*
X262650501Y-97163347D01*
X262650500Y-97163329D01*
X262650500Y-89170945D01*
X262650500Y-89170943D01*
X262609577Y-89018216D01*
X262609577Y-89018215D01*
X262568170Y-88946496D01*
X262546977Y-88909789D01*
X262546194Y-88908343D01*
X262539217Y-88875747D01*
X262531365Y-88843382D01*
X262531795Y-88841068D01*
X262531571Y-88840021D01*
X262532397Y-88837826D01*
X262537520Y-88810277D01*
X262539999Y-88802797D01*
X262550500Y-88700009D01*
X262550499Y-87699992D01*
X262546501Y-87660858D01*
X262539999Y-87597203D01*
X262539998Y-87597200D01*
X262484814Y-87430666D01*
X262392712Y-87281344D01*
X262268656Y-87157288D01*
X262157690Y-87088844D01*
X262119336Y-87065187D01*
X262119331Y-87065185D01*
X262103681Y-87059999D01*
X261952797Y-87010001D01*
X261952795Y-87010000D01*
X261850010Y-86999500D01*
X260149998Y-86999500D01*
X260149981Y-86999501D01*
X260047203Y-87010000D01*
X260047200Y-87010001D01*
X259880668Y-87065185D01*
X259880663Y-87065187D01*
X259731342Y-87157289D01*
X259607289Y-87281342D01*
X259515187Y-87430663D01*
X259515185Y-87430668D01*
X259492226Y-87499954D01*
X259460001Y-87597203D01*
X259460001Y-87597204D01*
X259460000Y-87597204D01*
X259449500Y-87699983D01*
X259449500Y-88700001D01*
X259449501Y-88700019D01*
X259460000Y-88802796D01*
X259460001Y-88802799D01*
X259515185Y-88969331D01*
X259515187Y-88969336D01*
X259522086Y-88980521D01*
X259607288Y-89118656D01*
X259731344Y-89242712D01*
X259880666Y-89334814D01*
X260047203Y-89389999D01*
X260149991Y-89400500D01*
X261299902Y-89400499D01*
X261329342Y-89409143D01*
X261359329Y-89415667D01*
X261364344Y-89419421D01*
X261366941Y-89420184D01*
X261387583Y-89436818D01*
X261413181Y-89462416D01*
X261446666Y-89523739D01*
X261449500Y-89550097D01*
X261449500Y-93608732D01*
X261429815Y-93675771D01*
X261377011Y-93721526D01*
X261307853Y-93731470D01*
X261269213Y-93719221D01*
X261264385Y-93716761D01*
X261024785Y-93638910D01*
X261011362Y-93636784D01*
X260775962Y-93599500D01*
X259224038Y-93599500D01*
X259165750Y-93608732D01*
X258975214Y-93638910D01*
X258735616Y-93716760D01*
X258511151Y-93831132D01*
X258307350Y-93979201D01*
X258307345Y-93979205D01*
X258129205Y-94157345D01*
X258129201Y-94157350D01*
X257981132Y-94361151D01*
X257866760Y-94585616D01*
X257788910Y-94825214D01*
X257749500Y-95074038D01*
X257749500Y-95325961D01*
X257788910Y-95574785D01*
X257866760Y-95814383D01*
X257981132Y-96038848D01*
X258129201Y-96242649D01*
X258129205Y-96242654D01*
X258307349Y-96420798D01*
X258394752Y-96484299D01*
X258437418Y-96539628D01*
X258443397Y-96609242D01*
X258432352Y-96640911D01*
X258341118Y-96819967D01*
X258280290Y-97007173D01*
X258249500Y-97201577D01*
X258249500Y-97398422D01*
X258280290Y-97592826D01*
X258341117Y-97780029D01*
X258430476Y-97955405D01*
X258546172Y-98114646D01*
X258546174Y-98114648D01*
X258643845Y-98212319D01*
X258677330Y-98273642D01*
X258672346Y-98343334D01*
X258643845Y-98387681D01*
X258546174Y-98485351D01*
X258546174Y-98485352D01*
X258546172Y-98485354D01*
X258507990Y-98537907D01*
X258430476Y-98644594D01*
X258341117Y-98819970D01*
X258280290Y-99007173D01*
X258249500Y-99201577D01*
X258249500Y-99398422D01*
X258280290Y-99592826D01*
X258341117Y-99780029D01*
X258422915Y-99940565D01*
X258430476Y-99955405D01*
X258456781Y-99991611D01*
X258456783Y-99991613D01*
X258480263Y-100057419D01*
X258464438Y-100125473D01*
X258430777Y-100163765D01*
X258392452Y-100192455D01*
X258306206Y-100307664D01*
X258306202Y-100307671D01*
X258255908Y-100442517D01*
X258254029Y-100460000D01*
X258249501Y-100502123D01*
X258249500Y-100502135D01*
X258249500Y-100575500D01*
X258229815Y-100642539D01*
X258177011Y-100688294D01*
X258125500Y-100699500D01*
X257279057Y-100699500D01*
X257120942Y-100699500D01*
X256968215Y-100740423D01*
X256968214Y-100740423D01*
X256968212Y-100740424D01*
X256968209Y-100740425D01*
X256918096Y-100769359D01*
X256918095Y-100769360D01*
X256874689Y-100794420D01*
X256831285Y-100819479D01*
X256831282Y-100819481D01*
X255985339Y-101665425D01*
X255924016Y-101698910D01*
X255921850Y-101699361D01*
X255766508Y-101730261D01*
X255766498Y-101730264D01*
X255620827Y-101790602D01*
X255620814Y-101790609D01*
X255489711Y-101878210D01*
X255489707Y-101878213D01*
X255378213Y-101989707D01*
X255378210Y-101989711D01*
X255290609Y-102120814D01*
X255290602Y-102120827D01*
X255230264Y-102266498D01*
X255230261Y-102266510D01*
X255199500Y-102421153D01*
X253637599Y-102421153D01*
X253643348Y-102402135D01*
X253654091Y-102392233D01*
X253659635Y-102382132D01*
X253682011Y-102366499D01*
X253687934Y-102361041D01*
X253691260Y-102359233D01*
X253752734Y-102330568D01*
X253939139Y-102200047D01*
X254100047Y-102039139D01*
X254230568Y-101852734D01*
X254326739Y-101646496D01*
X254385635Y-101426692D01*
X254400500Y-101256784D01*
X254400500Y-101143216D01*
X254385635Y-100973308D01*
X254326739Y-100753504D01*
X254230568Y-100547266D01*
X254100047Y-100360861D01*
X254100045Y-100360858D01*
X253939141Y-100199954D01*
X253752734Y-100069432D01*
X253752732Y-100069431D01*
X253700779Y-100045205D01*
X253648340Y-99999032D01*
X253629188Y-99931839D01*
X253649404Y-99864958D01*
X253694732Y-99823464D01*
X253759500Y-99788844D01*
X253759521Y-99788832D01*
X253890530Y-99701295D01*
X253890536Y-99701291D01*
X253967064Y-99638485D01*
X254078485Y-99527064D01*
X254141291Y-99450536D01*
X254141295Y-99450530D01*
X254228832Y-99319521D01*
X254228844Y-99319501D01*
X254275509Y-99232198D01*
X254335814Y-99086612D01*
X254364556Y-98991860D01*
X254364559Y-98991849D01*
X254380839Y-98910000D01*
X250195000Y-98910000D01*
X250195000Y-99299785D01*
X244484645Y-99299785D01*
X244458388Y-99254306D01*
X244365694Y-99161612D01*
X244252167Y-99096067D01*
X244125545Y-99062139D01*
X244060000Y-99060000D01*
X243588596Y-99060000D01*
X243567350Y-99053761D01*
X243545262Y-99052182D01*
X243534478Y-99044109D01*
X243521557Y-99040315D01*
X243507057Y-99023581D01*
X243489329Y-99010310D01*
X243484621Y-98997689D01*
X243475802Y-98987511D01*
X243472650Y-98965593D01*
X243464912Y-98944846D01*
X243467774Y-98931685D01*
X243465858Y-98918353D01*
X243475057Y-98898209D01*
X243479764Y-98876573D01*
X243493032Y-98858847D01*
X243494883Y-98854797D01*
X243500915Y-98848319D01*
X243578277Y-98770957D01*
X246882611Y-95466623D01*
X250397346Y-91951888D01*
X250458665Y-91918406D01*
X250528357Y-91923390D01*
X250572704Y-91951891D01*
X250660858Y-92040045D01*
X250660861Y-92040047D01*
X250847266Y-92170568D01*
X250905275Y-92197618D01*
X250957714Y-92243791D01*
X250976866Y-92310984D01*
X250956650Y-92377865D01*
X250905275Y-92422382D01*
X250847267Y-92449431D01*
X250847265Y-92449432D01*
X250660858Y-92579954D01*
X250499954Y-92740858D01*
X250369432Y-92927265D01*
X250369431Y-92927267D01*
X250273261Y-93133502D01*
X250273258Y-93133511D01*
X250214366Y-93353302D01*
X250214364Y-93353312D01*
X250199500Y-93523214D01*
X250199500Y-93636785D01*
X250214364Y-93806687D01*
X250214366Y-93806697D01*
X250273258Y-94026488D01*
X250273261Y-94026497D01*
X250369431Y-94232732D01*
X250369432Y-94232734D01*
X250499954Y-94419141D01*
X250660858Y-94580045D01*
X250707693Y-94612839D01*
X250847266Y-94710568D01*
X250905275Y-94737618D01*
X250957714Y-94783791D01*
X250976866Y-94850984D01*
X250956650Y-94917865D01*
X250905275Y-94962382D01*
X250847267Y-94989431D01*
X250847265Y-94989432D01*
X250660858Y-95119954D01*
X250499954Y-95280858D01*
X250369432Y-95467265D01*
X250369431Y-95467267D01*
X250273261Y-95673502D01*
X250273258Y-95673511D01*
X250214366Y-95893302D01*
X250214364Y-95893312D01*
X250199500Y-96063214D01*
X250199500Y-96176785D01*
X250214364Y-96346687D01*
X250214366Y-96346697D01*
X250273258Y-96566488D01*
X250273261Y-96566497D01*
X250369431Y-96772732D01*
X250369432Y-96772734D01*
X250499954Y-96959141D01*
X250660858Y-97120045D01*
X250727379Y-97166623D01*
X250771004Y-97221199D01*
X250778198Y-97290698D01*
X250746676Y-97353052D01*
X250686922Y-97388346D01*
X250666970Y-97393438D01*
X250666957Y-97393442D01*
X250593471Y-97423881D01*
X250593443Y-97423893D01*
X250544690Y-97447218D01*
X250544685Y-97447221D01*
X250429621Y-97533358D01*
X250429617Y-97533361D01*
X250373356Y-97589623D01*
X250373340Y-97589640D01*
X250337229Y-97629842D01*
X250263888Y-97753454D01*
X250263884Y-97753461D01*
X250233452Y-97826932D01*
X250233451Y-97826935D01*
X250215455Y-97877946D01*
X250195000Y-98020219D01*
X250195000Y-98410000D01*
X254380839Y-98410000D01*
X254380839Y-98409999D01*
X254364559Y-98328150D01*
X254364556Y-98328139D01*
X254335814Y-98233387D01*
X254275509Y-98087801D01*
X254228844Y-98000498D01*
X254228832Y-98000478D01*
X254141295Y-97869469D01*
X254141291Y-97869463D01*
X254078485Y-97792935D01*
X253967064Y-97681514D01*
X253890536Y-97618708D01*
X253890530Y-97618704D01*
X253759521Y-97531167D01*
X253759501Y-97531155D01*
X253694730Y-97496534D01*
X253644886Y-97447571D01*
X253629426Y-97379434D01*
X253653258Y-97313754D01*
X253700777Y-97274795D01*
X253752734Y-97250568D01*
X253939139Y-97120047D01*
X254100047Y-96959139D01*
X254230568Y-96772734D01*
X254326739Y-96566496D01*
X254385635Y-96346692D01*
X254400500Y-96176784D01*
X254400500Y-96063216D01*
X254385635Y-95893308D01*
X254326739Y-95673504D01*
X254230568Y-95467266D01*
X254100047Y-95280861D01*
X254100045Y-95280858D01*
X253939141Y-95119954D01*
X253752734Y-94989432D01*
X253752728Y-94989429D01*
X253694725Y-94962382D01*
X253642285Y-94916210D01*
X253623133Y-94849017D01*
X253643348Y-94782135D01*
X253694725Y-94737618D01*
X253752734Y-94710568D01*
X253939139Y-94580047D01*
X254100047Y-94419139D01*
X254230568Y-94232734D01*
X254326739Y-94026496D01*
X254385635Y-93806692D01*
X254400500Y-93636784D01*
X254400500Y-93523216D01*
X254385635Y-93353308D01*
X254326739Y-93133504D01*
X254230568Y-92927266D01*
X254100047Y-92740861D01*
X254100045Y-92740858D01*
X253939141Y-92579954D01*
X253752734Y-92449432D01*
X253752728Y-92449429D01*
X253694725Y-92422382D01*
X253642285Y-92376210D01*
X253623133Y-92309017D01*
X253643348Y-92242135D01*
X253694725Y-92197618D01*
X253752734Y-92170568D01*
X253939139Y-92040047D01*
X254100047Y-91879139D01*
X254230568Y-91692734D01*
X254326739Y-91486496D01*
X254385635Y-91266692D01*
X254400500Y-91096784D01*
X254400500Y-90983216D01*
X254385635Y-90813308D01*
X254326739Y-90593504D01*
X254230568Y-90387266D01*
X254100047Y-90200861D01*
X254100045Y-90200858D01*
X253939141Y-90039954D01*
X253752734Y-89909432D01*
X253752728Y-89909429D01*
X253694725Y-89882382D01*
X253642285Y-89836210D01*
X253623133Y-89769017D01*
X253643348Y-89702135D01*
X253694725Y-89657618D01*
X253752734Y-89630568D01*
X253939139Y-89500047D01*
X254100047Y-89339139D01*
X254230568Y-89152734D01*
X254326739Y-88946496D01*
X254385635Y-88726692D01*
X254400500Y-88556784D01*
X254400500Y-88443216D01*
X254385635Y-88273308D01*
X254326739Y-88053504D01*
X254230568Y-87847266D01*
X254100047Y-87660861D01*
X254100045Y-87660858D01*
X253939141Y-87499954D01*
X253752734Y-87369432D01*
X253752732Y-87369431D01*
X253700779Y-87345205D01*
X253648340Y-87299032D01*
X253629188Y-87231839D01*
X253649404Y-87164958D01*
X253694732Y-87123464D01*
X253759500Y-87088844D01*
X253759521Y-87088832D01*
X253890530Y-87001295D01*
X253890536Y-87001291D01*
X253967064Y-86938485D01*
X254078485Y-86827064D01*
X254141291Y-86750536D01*
X254141295Y-86750530D01*
X254228832Y-86619521D01*
X254228844Y-86619501D01*
X254275509Y-86532198D01*
X254335814Y-86386612D01*
X254364556Y-86291860D01*
X254364559Y-86291849D01*
X254380839Y-86210000D01*
X250195000Y-86210000D01*
X250195000Y-86599785D01*
X250197893Y-86653762D01*
X250197893Y-86653764D01*
X250233438Y-86793030D01*
X250233442Y-86793042D01*
X250263881Y-86866528D01*
X250263893Y-86866556D01*
X250287218Y-86915309D01*
X250287221Y-86915314D01*
X250373358Y-87030378D01*
X250373361Y-87030382D01*
X250429623Y-87086643D01*
X250429640Y-87086659D01*
X250469842Y-87122770D01*
X250593454Y-87196111D01*
X250593461Y-87196115D01*
X250666932Y-87226547D01*
X250666956Y-87226556D01*
X250695164Y-87236508D01*
X250751835Y-87277374D01*
X250777417Y-87342392D01*
X250763785Y-87410920D01*
X250725033Y-87455019D01*
X250660859Y-87499953D01*
X250499954Y-87660858D01*
X250369432Y-87847265D01*
X250369431Y-87847267D01*
X250273261Y-88053502D01*
X250273258Y-88053511D01*
X250214366Y-88273302D01*
X250214364Y-88273312D01*
X250199500Y-88443214D01*
X250199500Y-88556785D01*
X250214364Y-88726687D01*
X250214366Y-88726697D01*
X250273258Y-88946488D01*
X250273261Y-88946496D01*
X250369431Y-89152732D01*
X250369432Y-89152734D01*
X250499954Y-89339141D01*
X250660858Y-89500045D01*
X250660861Y-89500047D01*
X250847266Y-89630568D01*
X250905275Y-89657618D01*
X250957714Y-89703791D01*
X250976866Y-89770984D01*
X250956650Y-89837865D01*
X250905275Y-89882382D01*
X250847267Y-89909431D01*
X250847265Y-89909432D01*
X250660858Y-90039954D01*
X250499954Y-90200858D01*
X250369432Y-90387264D01*
X250369428Y-90387271D01*
X250364386Y-90398084D01*
X250318211Y-90450521D01*
X250284102Y-90465447D01*
X250228222Y-90480420D01*
X250228209Y-90480426D01*
X250091290Y-90559475D01*
X250091282Y-90559481D01*
X236107584Y-104543181D01*
X236046261Y-104576666D01*
X236019903Y-104579500D01*
X234957512Y-104579500D01*
X234890473Y-104559815D01*
X234844718Y-104507011D01*
X234834774Y-104437853D01*
X234848636Y-104397806D01*
X234848280Y-104397640D01*
X234849887Y-104394193D01*
X234850130Y-104393492D01*
X234850559Y-104392746D01*
X234850568Y-104392734D01*
X234946739Y-104186496D01*
X235005635Y-103966692D01*
X235020500Y-103796784D01*
X235020500Y-103683216D01*
X235005635Y-103513308D01*
X234946739Y-103293504D01*
X234850568Y-103087266D01*
X234720047Y-102900861D01*
X234720045Y-102900858D01*
X234559141Y-102739954D01*
X234372734Y-102609432D01*
X234372728Y-102609429D01*
X234314725Y-102582382D01*
X234262285Y-102536210D01*
X234243133Y-102469017D01*
X234263348Y-102402135D01*
X234314725Y-102357618D01*
X234315300Y-102357350D01*
X234372734Y-102330568D01*
X234559139Y-102200047D01*
X234720047Y-102039139D01*
X234850568Y-101852734D01*
X234946739Y-101646496D01*
X235005635Y-101426692D01*
X235020500Y-101256784D01*
X235020500Y-101143216D01*
X235005635Y-100973308D01*
X234946739Y-100753504D01*
X234850568Y-100547266D01*
X234720047Y-100360861D01*
X234720045Y-100360858D01*
X234559141Y-100199954D01*
X234492620Y-100153376D01*
X234448995Y-100098800D01*
X234441801Y-100029301D01*
X234473324Y-99966946D01*
X234533083Y-99931651D01*
X234553038Y-99926558D01*
X234553042Y-99926557D01*
X234626528Y-99896118D01*
X234626556Y-99896106D01*
X234675309Y-99872781D01*
X234675314Y-99872778D01*
X234790378Y-99786641D01*
X234790382Y-99786638D01*
X234846643Y-99730376D01*
X234846659Y-99730359D01*
X234882770Y-99690157D01*
X234956111Y-99566545D01*
X234956115Y-99566538D01*
X234986547Y-99493067D01*
X234986548Y-99493064D01*
X235004544Y-99442053D01*
X235024999Y-99299780D01*
X235025000Y-99299779D01*
X235025000Y-98910000D01*
X230839160Y-98910000D01*
X230855440Y-98991849D01*
X230855443Y-98991860D01*
X230884185Y-99086612D01*
X230944490Y-99232198D01*
X230991155Y-99319501D01*
X230991167Y-99319521D01*
X231078704Y-99450530D01*
X231078708Y-99450536D01*
X231141514Y-99527064D01*
X231252935Y-99638485D01*
X231329463Y-99701291D01*
X231329469Y-99701295D01*
X231460478Y-99788832D01*
X231460506Y-99788849D01*
X231525268Y-99823465D01*
X231575112Y-99872427D01*
X231590573Y-99940565D01*
X231566741Y-100006244D01*
X231519221Y-100045205D01*
X231467264Y-100069433D01*
X231280858Y-100199954D01*
X231119954Y-100360858D01*
X231062778Y-100442516D01*
X230989881Y-100546624D01*
X230935307Y-100590248D01*
X230888308Y-100599500D01*
X215000097Y-100599500D01*
X214933058Y-100579815D01*
X214912416Y-100563181D01*
X201396819Y-87047584D01*
X201363334Y-86986261D01*
X201360500Y-86959903D01*
X201360500Y-85285718D01*
X201380185Y-85218679D01*
X201428207Y-85175233D01*
X201467815Y-85155052D01*
X201467815Y-85155051D01*
X201467816Y-85155051D01*
X201559193Y-85088661D01*
X201639786Y-85030109D01*
X201639788Y-85030106D01*
X201639792Y-85030104D01*
X201790104Y-84879792D01*
X201790106Y-84879788D01*
X201790109Y-84879786D01*
X201915048Y-84707820D01*
X201915047Y-84707820D01*
X201915051Y-84707816D01*
X201919514Y-84699054D01*
X201967488Y-84648259D01*
X202035308Y-84631463D01*
X202101444Y-84653999D01*
X202140486Y-84699056D01*
X202144951Y-84707820D01*
X202269890Y-84879786D01*
X202420213Y-85030109D01*
X202592179Y-85155048D01*
X202592181Y-85155049D01*
X202592184Y-85155051D01*
X202781588Y-85251557D01*
X202983757Y-85317246D01*
X203193713Y-85350500D01*
X203193714Y-85350500D01*
X203406286Y-85350500D01*
X203406287Y-85350500D01*
X203616243Y-85317246D01*
X203658523Y-85303507D01*
X203728362Y-85301511D01*
X203784522Y-85333757D01*
X214935139Y-96484374D01*
X214935149Y-96484385D01*
X214939479Y-96488715D01*
X214939480Y-96488716D01*
X215051284Y-96600520D01*
X215051286Y-96600521D01*
X215051290Y-96600524D01*
X215188209Y-96679573D01*
X215188216Y-96679577D01*
X215300019Y-96709534D01*
X215340942Y-96720500D01*
X215340943Y-96720500D01*
X230888308Y-96720500D01*
X230955347Y-96740185D01*
X230989880Y-96773374D01*
X231075480Y-96895624D01*
X231119954Y-96959141D01*
X231280858Y-97120045D01*
X231280861Y-97120047D01*
X231467266Y-97250568D01*
X231519219Y-97274794D01*
X231571659Y-97320966D01*
X231590811Y-97388159D01*
X231570596Y-97455041D01*
X231525269Y-97496534D01*
X231460499Y-97531155D01*
X231460478Y-97531167D01*
X231329469Y-97618704D01*
X231329463Y-97618708D01*
X231252935Y-97681514D01*
X231141514Y-97792935D01*
X231078708Y-97869463D01*
X231078704Y-97869469D01*
X230991167Y-98000478D01*
X230991155Y-98000498D01*
X230944490Y-98087801D01*
X230884185Y-98233387D01*
X230855443Y-98328139D01*
X230855440Y-98328150D01*
X230839160Y-98409999D01*
X230839161Y-98410000D01*
X235025000Y-98410000D01*
X235025000Y-98020214D01*
X235022106Y-97966237D01*
X235022106Y-97966235D01*
X234986561Y-97826969D01*
X234986557Y-97826957D01*
X234956118Y-97753471D01*
X234956106Y-97753443D01*
X234932781Y-97704690D01*
X234932778Y-97704685D01*
X234846641Y-97589621D01*
X234846638Y-97589617D01*
X234790376Y-97533356D01*
X234790359Y-97533340D01*
X234750157Y-97497229D01*
X234626545Y-97423888D01*
X234626538Y-97423884D01*
X234553067Y-97393452D01*
X234553065Y-97393451D01*
X234524833Y-97383491D01*
X234468162Y-97342623D01*
X234442582Y-97277604D01*
X234456215Y-97209077D01*
X234494964Y-97164982D01*
X234559139Y-97120047D01*
X234720047Y-96959139D01*
X234850568Y-96772734D01*
X234946739Y-96566496D01*
X235005635Y-96346692D01*
X235020500Y-96176784D01*
X235020500Y-96063216D01*
X235005635Y-95893308D01*
X234946739Y-95673504D01*
X234850568Y-95467266D01*
X234720047Y-95280861D01*
X234720045Y-95280858D01*
X234559141Y-95119954D01*
X234372734Y-94989432D01*
X234372728Y-94989429D01*
X234314725Y-94962382D01*
X234262285Y-94916210D01*
X234243133Y-94849017D01*
X234263348Y-94782135D01*
X234314725Y-94737618D01*
X234372734Y-94710568D01*
X234559139Y-94580047D01*
X234720047Y-94419139D01*
X234850568Y-94232734D01*
X234946739Y-94026496D01*
X235005635Y-93806692D01*
X235020500Y-93636784D01*
X235020500Y-93523216D01*
X235005635Y-93353308D01*
X234946739Y-93133504D01*
X234850568Y-92927266D01*
X234720047Y-92740861D01*
X234720045Y-92740858D01*
X234559141Y-92579954D01*
X234372734Y-92449432D01*
X234372728Y-92449429D01*
X234314725Y-92422382D01*
X234262285Y-92376210D01*
X234243133Y-92309017D01*
X234263348Y-92242135D01*
X234314725Y-92197618D01*
X234372734Y-92170568D01*
X234559139Y-92040047D01*
X234720047Y-91879139D01*
X234850568Y-91692734D01*
X234946739Y-91486496D01*
X235005635Y-91266692D01*
X235020500Y-91096784D01*
X235020500Y-90983216D01*
X235005635Y-90813308D01*
X234946739Y-90593504D01*
X234850568Y-90387266D01*
X234720047Y-90200861D01*
X234720045Y-90200858D01*
X234559141Y-90039954D01*
X234372734Y-89909432D01*
X234372728Y-89909429D01*
X234314725Y-89882382D01*
X234262285Y-89836210D01*
X234243133Y-89769017D01*
X234263348Y-89702135D01*
X234314725Y-89657618D01*
X234372734Y-89630568D01*
X234559139Y-89500047D01*
X234720047Y-89339139D01*
X234850568Y-89152734D01*
X234946739Y-88946496D01*
X235005635Y-88726692D01*
X235020500Y-88556784D01*
X235020500Y-88443216D01*
X235005635Y-88273308D01*
X234946739Y-88053504D01*
X234850568Y-87847266D01*
X234720047Y-87660861D01*
X234720045Y-87660858D01*
X234559141Y-87499954D01*
X234492620Y-87453376D01*
X234448995Y-87398800D01*
X234441801Y-87329301D01*
X234473324Y-87266946D01*
X234533083Y-87231651D01*
X234553038Y-87226558D01*
X234553042Y-87226557D01*
X234626528Y-87196118D01*
X234626556Y-87196106D01*
X234675309Y-87172781D01*
X234675314Y-87172778D01*
X234790378Y-87086641D01*
X234790382Y-87086638D01*
X234817021Y-87059999D01*
X239160000Y-87059999D01*
X239160000Y-94460000D01*
X239162138Y-94525541D01*
X239162138Y-94525544D01*
X239162139Y-94525545D01*
X239196068Y-94652167D01*
X239261612Y-94765694D01*
X239354306Y-94858388D01*
X239467833Y-94923932D01*
X239594455Y-94957861D01*
X239660000Y-94960000D01*
X240560000Y-94960000D01*
X240625545Y-94957861D01*
X240752167Y-94923932D01*
X240865694Y-94858388D01*
X240958388Y-94765694D01*
X241023932Y-94652167D01*
X241057861Y-94525545D01*
X241060000Y-94460000D01*
X241060000Y-90760000D01*
X241060000Y-87060000D01*
X241057861Y-86994455D01*
X241023933Y-86867833D01*
X240958388Y-86754306D01*
X240865694Y-86661612D01*
X240752167Y-86596067D01*
X240625545Y-86562139D01*
X240560000Y-86560000D01*
X239660000Y-86560000D01*
X239594455Y-86562139D01*
X239467833Y-86596067D01*
X239467831Y-86596067D01*
X239467831Y-86596068D01*
X239354306Y-86661612D01*
X239354303Y-86661614D01*
X239261614Y-86754303D01*
X239261612Y-86754306D01*
X239196068Y-86867831D01*
X239162139Y-86994455D01*
X239160000Y-87059999D01*
X234817021Y-87059999D01*
X234846643Y-87030376D01*
X234846659Y-87030359D01*
X234882770Y-86990157D01*
X234956111Y-86866545D01*
X234956115Y-86866538D01*
X234986547Y-86793067D01*
X234986548Y-86793064D01*
X235004544Y-86742053D01*
X235024999Y-86599780D01*
X235025000Y-86599779D01*
X235025000Y-86210000D01*
X230839160Y-86210000D01*
X230855440Y-86291849D01*
X230855443Y-86291860D01*
X230884185Y-86386612D01*
X230944490Y-86532198D01*
X230991155Y-86619501D01*
X230991167Y-86619521D01*
X231078704Y-86750530D01*
X231078708Y-86750536D01*
X231141514Y-86827064D01*
X231252935Y-86938485D01*
X231329463Y-87001291D01*
X231329469Y-87001295D01*
X231460478Y-87088832D01*
X231460506Y-87088849D01*
X231525268Y-87123465D01*
X231575112Y-87172427D01*
X231590573Y-87240565D01*
X231566741Y-87306244D01*
X231519221Y-87345205D01*
X231467264Y-87369433D01*
X231280858Y-87499954D01*
X231119954Y-87660858D01*
X231064175Y-87740521D01*
X230989881Y-87846624D01*
X230935307Y-87890248D01*
X230888308Y-87899500D01*
X215720097Y-87899500D01*
X215653058Y-87879815D01*
X215632416Y-87863181D01*
X213331416Y-85562181D01*
X213297931Y-85500858D01*
X213302915Y-85431166D01*
X213344787Y-85375233D01*
X213410251Y-85350816D01*
X213419097Y-85350500D01*
X213566286Y-85350500D01*
X213566287Y-85350500D01*
X213776243Y-85317246D01*
X213818523Y-85303507D01*
X213888362Y-85301511D01*
X213944521Y-85333756D01*
X214241284Y-85630520D01*
X214241286Y-85630521D01*
X214241290Y-85630524D01*
X214328093Y-85680639D01*
X214378216Y-85709577D01*
X214530943Y-85750501D01*
X214530945Y-85750501D01*
X214696654Y-85750501D01*
X214696670Y-85750500D01*
X231103331Y-85750500D01*
X231103347Y-85750501D01*
X231110943Y-85750501D01*
X231269055Y-85750501D01*
X231269057Y-85750501D01*
X231404439Y-85714224D01*
X231436532Y-85710000D01*
X235025000Y-85710000D01*
X235025000Y-85320214D01*
X235022106Y-85266237D01*
X235022106Y-85266235D01*
X234986561Y-85126969D01*
X234986557Y-85126957D01*
X234956118Y-85053471D01*
X234956106Y-85053443D01*
X234932781Y-85004690D01*
X234932778Y-85004685D01*
X234846641Y-84889621D01*
X234846638Y-84889617D01*
X234790376Y-84833356D01*
X234790359Y-84833340D01*
X234750157Y-84797229D01*
X234626545Y-84723888D01*
X234626538Y-84723884D01*
X234553067Y-84693452D01*
X234553065Y-84693451D01*
X234524833Y-84683491D01*
X234468162Y-84642623D01*
X234442582Y-84577604D01*
X234456215Y-84509077D01*
X234494964Y-84464982D01*
X234559139Y-84420047D01*
X234720047Y-84259139D01*
X234850568Y-84072734D01*
X234908972Y-83947486D01*
X239009500Y-83947486D01*
X239009500Y-84132513D01*
X239038445Y-84315265D01*
X239095619Y-84491232D01*
X239095620Y-84491235D01*
X239166790Y-84630912D01*
X239179622Y-84656096D01*
X239288379Y-84805787D01*
X239419213Y-84936621D01*
X239568904Y-85045378D01*
X239609006Y-85065811D01*
X239733764Y-85129379D01*
X239733767Y-85129380D01*
X239811462Y-85154624D01*
X239909736Y-85186555D01*
X240092486Y-85215500D01*
X240092487Y-85215500D01*
X240277513Y-85215500D01*
X240277514Y-85215500D01*
X240460264Y-85186555D01*
X240636235Y-85129379D01*
X240801096Y-85045378D01*
X240950787Y-84936621D01*
X241081621Y-84805787D01*
X241190378Y-84656096D01*
X241274379Y-84491235D01*
X241331555Y-84315264D01*
X241360500Y-84132514D01*
X241360500Y-83947486D01*
X241331555Y-83764736D01*
X241293202Y-83646697D01*
X241276826Y-83596295D01*
X241274380Y-83588767D01*
X241274379Y-83588764D01*
X241259722Y-83559999D01*
X241660000Y-83559999D01*
X241660000Y-84460000D01*
X241662138Y-84525541D01*
X241662138Y-84525544D01*
X241662139Y-84525545D01*
X241696068Y-84652167D01*
X241761612Y-84765694D01*
X241854306Y-84858388D01*
X241967833Y-84923932D01*
X242094455Y-84957861D01*
X242160000Y-84960000D01*
X243060000Y-84960000D01*
X243125545Y-84957861D01*
X243252167Y-84923933D01*
X243365694Y-84858388D01*
X243458388Y-84765694D01*
X243523933Y-84652167D01*
X243557861Y-84525545D01*
X243560000Y-84460000D01*
X243560000Y-83947486D01*
X243859500Y-83947486D01*
X243859500Y-84132513D01*
X243888445Y-84315265D01*
X243945619Y-84491232D01*
X243945620Y-84491235D01*
X244016790Y-84630912D01*
X244029622Y-84656096D01*
X244138379Y-84805787D01*
X244269213Y-84936621D01*
X244418904Y-85045378D01*
X244459006Y-85065811D01*
X244583764Y-85129379D01*
X244583767Y-85129380D01*
X244661462Y-85154624D01*
X244759736Y-85186555D01*
X244942486Y-85215500D01*
X244942487Y-85215500D01*
X245127513Y-85215500D01*
X245127514Y-85215500D01*
X245310264Y-85186555D01*
X245486235Y-85129379D01*
X245651096Y-85045378D01*
X245800787Y-84936621D01*
X245931621Y-84805787D01*
X246040378Y-84656096D01*
X246124379Y-84491235D01*
X246181555Y-84315264D01*
X246210500Y-84132514D01*
X246210500Y-83947486D01*
X246181555Y-83764736D01*
X246143202Y-83646697D01*
X246124380Y-83588767D01*
X246124379Y-83588764D01*
X246076326Y-83494455D01*
X246040378Y-83423904D01*
X245931621Y-83274213D01*
X245800787Y-83143379D01*
X245651096Y-83034622D01*
X245643326Y-83030663D01*
X245486235Y-82950620D01*
X245486232Y-82950619D01*
X245310265Y-82893445D01*
X245218889Y-82878972D01*
X245127514Y-82864500D01*
X244942486Y-82864500D01*
X244881569Y-82874148D01*
X244759734Y-82893445D01*
X244583767Y-82950619D01*
X244583764Y-82950620D01*
X244418903Y-83034622D01*
X244381030Y-83062139D01*
X244269213Y-83143379D01*
X244269211Y-83143381D01*
X244269210Y-83143381D01*
X244138381Y-83274210D01*
X244138381Y-83274211D01*
X244138379Y-83274213D01*
X244118555Y-83301499D01*
X244029622Y-83423903D01*
X243945620Y-83588764D01*
X243945619Y-83588767D01*
X243888445Y-83764734D01*
X243859500Y-83947486D01*
X243560000Y-83947486D01*
X243560000Y-83560000D01*
X243557861Y-83494455D01*
X243523933Y-83367833D01*
X243458388Y-83254306D01*
X243365694Y-83161612D01*
X243252167Y-83096067D01*
X243125545Y-83062139D01*
X243060000Y-83060000D01*
X242610000Y-83060000D01*
X242160000Y-83060000D01*
X242094458Y-83062138D01*
X241967832Y-83096068D01*
X241854307Y-83161611D01*
X241854304Y-83161613D01*
X241761613Y-83254304D01*
X241761611Y-83254307D01*
X241696068Y-83367832D01*
X241662138Y-83494458D01*
X241660000Y-83559999D01*
X241259722Y-83559999D01*
X241226326Y-83494455D01*
X241190378Y-83423904D01*
X241081621Y-83274213D01*
X240950787Y-83143379D01*
X240801096Y-83034622D01*
X240793326Y-83030663D01*
X240636235Y-82950620D01*
X240636232Y-82950619D01*
X240460265Y-82893445D01*
X240368889Y-82878972D01*
X240277514Y-82864500D01*
X240092486Y-82864500D01*
X240031569Y-82874148D01*
X239909734Y-82893445D01*
X239733767Y-82950619D01*
X239733764Y-82950620D01*
X239568903Y-83034622D01*
X239531030Y-83062139D01*
X239419213Y-83143379D01*
X239419211Y-83143381D01*
X239419210Y-83143381D01*
X239288381Y-83274210D01*
X239288381Y-83274211D01*
X239288379Y-83274213D01*
X239268555Y-83301499D01*
X239179622Y-83423903D01*
X239095620Y-83588764D01*
X239095619Y-83588767D01*
X239038445Y-83764734D01*
X239009500Y-83947486D01*
X234908972Y-83947486D01*
X234946739Y-83866496D01*
X235005635Y-83646692D01*
X235020500Y-83476784D01*
X235020500Y-83363216D01*
X235005635Y-83193308D01*
X234946739Y-82973504D01*
X234850568Y-82767266D01*
X234720047Y-82580861D01*
X234720045Y-82580858D01*
X234559141Y-82419954D01*
X234372734Y-82289432D01*
X234372732Y-82289431D01*
X234321343Y-82265468D01*
X234268904Y-82219295D01*
X234249752Y-82152102D01*
X234269968Y-82085221D01*
X234315293Y-82043729D01*
X234379783Y-82009259D01*
X234510811Y-81921709D01*
X234587412Y-81858843D01*
X234698843Y-81747412D01*
X234761709Y-81670811D01*
X234849259Y-81539783D01*
X234895972Y-81452389D01*
X234956278Y-81306798D01*
X234985044Y-81211968D01*
X235015787Y-81057410D01*
X235025500Y-80958793D01*
X235025500Y-80801207D01*
X235015787Y-80702590D01*
X234985044Y-80548032D01*
X234956278Y-80453202D01*
X234895972Y-80307611D01*
X234880946Y-80279500D01*
X234849265Y-80220228D01*
X234849263Y-80220226D01*
X234849259Y-80220217D01*
X234842068Y-80209455D01*
X234761721Y-80089206D01*
X234761712Y-80089194D01*
X234761709Y-80089189D01*
X234698843Y-80012588D01*
X234587412Y-79901157D01*
X234510811Y-79838291D01*
X234510804Y-79838286D01*
X234510793Y-79838278D01*
X234379799Y-79750751D01*
X234379788Y-79750744D01*
X234379783Y-79750741D01*
X234348196Y-79733857D01*
X234298353Y-79684895D01*
X234282893Y-79616757D01*
X234306725Y-79551078D01*
X234362283Y-79508709D01*
X234406651Y-79500500D01*
X239377551Y-79500500D01*
X239444590Y-79520185D01*
X239490345Y-79572989D01*
X239500289Y-79642147D01*
X239471264Y-79705703D01*
X239415870Y-79742430D01*
X239383294Y-79753015D01*
X239366585Y-79758444D01*
X239177179Y-79854951D01*
X239005213Y-79979890D01*
X238854890Y-80130213D01*
X238729951Y-80302179D01*
X238633444Y-80491585D01*
X238567753Y-80693760D01*
X238534500Y-80903713D01*
X238534500Y-81116286D01*
X238549653Y-81211962D01*
X238567754Y-81326243D01*
X238629676Y-81516819D01*
X238633444Y-81528414D01*
X238729951Y-81717820D01*
X238854890Y-81889786D01*
X239005213Y-82040109D01*
X239177179Y-82165048D01*
X239177181Y-82165049D01*
X239177184Y-82165051D01*
X239366588Y-82261557D01*
X239568757Y-82327246D01*
X239778713Y-82360500D01*
X239778714Y-82360500D01*
X239991286Y-82360500D01*
X239991287Y-82360500D01*
X240201243Y-82327246D01*
X240403412Y-82261557D01*
X240592816Y-82165051D01*
X240620353Y-82145044D01*
X240764786Y-82040109D01*
X240764788Y-82040106D01*
X240764792Y-82040104D01*
X240915104Y-81889792D01*
X241040051Y-81717816D01*
X241040053Y-81717811D01*
X241042914Y-81713874D01*
X241044013Y-81714672D01*
X241091241Y-81671928D01*
X241149225Y-81659648D01*
X241160000Y-81660000D01*
X241160004Y-81660000D01*
X242060000Y-81660000D01*
X242125545Y-81657861D01*
X242252167Y-81623933D01*
X242365694Y-81558388D01*
X242458388Y-81465694D01*
X242498283Y-81396594D01*
X242548850Y-81348378D01*
X242617457Y-81335155D01*
X242682322Y-81361124D01*
X242713057Y-81396594D01*
X242761609Y-81480690D01*
X242761611Y-81480693D01*
X242761612Y-81480694D01*
X242854306Y-81573388D01*
X242967833Y-81638932D01*
X243094455Y-81672861D01*
X243160000Y-81675000D01*
X244059997Y-81675000D01*
X244060000Y-81675000D01*
X244081066Y-81674312D01*
X244148711Y-81691798D01*
X244185430Y-81725361D01*
X244304890Y-81889786D01*
X244455213Y-82040109D01*
X244627179Y-82165048D01*
X244627181Y-82165049D01*
X244627184Y-82165051D01*
X244816588Y-82261557D01*
X245018757Y-82327246D01*
X245228713Y-82360500D01*
X245228714Y-82360500D01*
X245441286Y-82360500D01*
X245441287Y-82360500D01*
X245651243Y-82327246D01*
X245853412Y-82261557D01*
X246042816Y-82165051D01*
X246070353Y-82145044D01*
X246214786Y-82040109D01*
X246214788Y-82040106D01*
X246214792Y-82040104D01*
X246365104Y-81889792D01*
X246365106Y-81889788D01*
X246365109Y-81889786D01*
X246490048Y-81717820D01*
X246490047Y-81717820D01*
X246490051Y-81717816D01*
X246586557Y-81528412D01*
X246652246Y-81326243D01*
X246685500Y-81116287D01*
X246685500Y-80903713D01*
X246652246Y-80693757D01*
X246586557Y-80491588D01*
X246490051Y-80302184D01*
X246490049Y-80302181D01*
X246490048Y-80302179D01*
X246365109Y-80130213D01*
X246214786Y-79979890D01*
X246042820Y-79854951D01*
X245853414Y-79758444D01*
X245853413Y-79758443D01*
X245853412Y-79758443D01*
X245804129Y-79742430D01*
X245746456Y-79702994D01*
X245719257Y-79638635D01*
X245731172Y-79569789D01*
X245778416Y-79518313D01*
X245842449Y-79500500D01*
X250821775Y-79500500D01*
X250888814Y-79520185D01*
X250934569Y-79572989D01*
X250944513Y-79642147D01*
X250915488Y-79705703D01*
X250874180Y-79736881D01*
X250864747Y-79741280D01*
X250847267Y-79749431D01*
X250847265Y-79749432D01*
X250660858Y-79879954D01*
X250499954Y-80040858D01*
X250369432Y-80227265D01*
X250369431Y-80227267D01*
X250273261Y-80433502D01*
X250273258Y-80433511D01*
X250214366Y-80653302D01*
X250214364Y-80653312D01*
X250199500Y-80823214D01*
X250199500Y-80936785D01*
X250214364Y-81106687D01*
X250214366Y-81106697D01*
X250273258Y-81326488D01*
X250273261Y-81326497D01*
X250369431Y-81532732D01*
X250369432Y-81532734D01*
X250499954Y-81719141D01*
X250660858Y-81880045D01*
X250660861Y-81880047D01*
X250847266Y-82010568D01*
X250905275Y-82037618D01*
X250957714Y-82083791D01*
X250976866Y-82150984D01*
X250956650Y-82217865D01*
X250905275Y-82262381D01*
X250898657Y-82265468D01*
X250847267Y-82289431D01*
X250847265Y-82289432D01*
X250660858Y-82419954D01*
X250499954Y-82580858D01*
X250369432Y-82767265D01*
X250369431Y-82767267D01*
X250273261Y-82973502D01*
X250273258Y-82973511D01*
X250214366Y-83193302D01*
X250214364Y-83193312D01*
X250199500Y-83363214D01*
X250199500Y-83476785D01*
X250214364Y-83646687D01*
X250214366Y-83646697D01*
X250273258Y-83866488D01*
X250273261Y-83866497D01*
X250369431Y-84072732D01*
X250369432Y-84072734D01*
X250499954Y-84259141D01*
X250660858Y-84420045D01*
X250727379Y-84466623D01*
X250771004Y-84521199D01*
X250778198Y-84590698D01*
X250746676Y-84653052D01*
X250686922Y-84688346D01*
X250666970Y-84693438D01*
X250666957Y-84693442D01*
X250593471Y-84723881D01*
X250593443Y-84723893D01*
X250544690Y-84747218D01*
X250544685Y-84747221D01*
X250429621Y-84833358D01*
X250429617Y-84833361D01*
X250373356Y-84889623D01*
X250373340Y-84889640D01*
X250337229Y-84929842D01*
X250263888Y-85053454D01*
X250263884Y-85053461D01*
X250233452Y-85126932D01*
X250233451Y-85126935D01*
X250215455Y-85177946D01*
X250195000Y-85320219D01*
X250195000Y-85710000D01*
X254380839Y-85710000D01*
X254380839Y-85709999D01*
X254364559Y-85628150D01*
X254364556Y-85628139D01*
X254335814Y-85533387D01*
X254275509Y-85387801D01*
X254228844Y-85300498D01*
X254228832Y-85300478D01*
X254141295Y-85169469D01*
X254141291Y-85169463D01*
X254078485Y-85092935D01*
X253967064Y-84981514D01*
X253890536Y-84918708D01*
X253890530Y-84918704D01*
X253759521Y-84831167D01*
X253759501Y-84831155D01*
X253694730Y-84796534D01*
X253644886Y-84747571D01*
X253629426Y-84679434D01*
X253653258Y-84613754D01*
X253700777Y-84574795D01*
X253752734Y-84550568D01*
X253935029Y-84422925D01*
X254001235Y-84400598D01*
X254006152Y-84400500D01*
X259369699Y-84400500D01*
X259436738Y-84420185D01*
X259482493Y-84472989D01*
X259487403Y-84485492D01*
X259515186Y-84569334D01*
X259607288Y-84718656D01*
X259731344Y-84842712D01*
X259880666Y-84934814D01*
X260047203Y-84989999D01*
X260149991Y-85000500D01*
X261850008Y-85000499D01*
X261952797Y-84989999D01*
X262119334Y-84934814D01*
X262268656Y-84842712D01*
X262392712Y-84718656D01*
X262484814Y-84569334D01*
X262539999Y-84402797D01*
X262550500Y-84300009D01*
X262550499Y-83299992D01*
X262549701Y-83292184D01*
X262539999Y-83197203D01*
X262539998Y-83197200D01*
X262528206Y-83161614D01*
X262484814Y-83030666D01*
X262392712Y-82881344D01*
X262268656Y-82757288D01*
X262148608Y-82683242D01*
X262119336Y-82665187D01*
X262119331Y-82665185D01*
X262117862Y-82664698D01*
X261952797Y-82610001D01*
X261952795Y-82610000D01*
X261850010Y-82599500D01*
X260149998Y-82599500D01*
X260149981Y-82599501D01*
X260047203Y-82610000D01*
X260047200Y-82610001D01*
X259880668Y-82665185D01*
X259880663Y-82665187D01*
X259731342Y-82757289D01*
X259607289Y-82881342D01*
X259515187Y-83030663D01*
X259515186Y-83030666D01*
X259497176Y-83085018D01*
X259487405Y-83114504D01*
X259447632Y-83171949D01*
X259383116Y-83198772D01*
X259369699Y-83199500D01*
X254482443Y-83199500D01*
X254415404Y-83179815D01*
X254369649Y-83127011D01*
X254362668Y-83107593D01*
X254326741Y-82973511D01*
X254326738Y-82973502D01*
X254230568Y-82767266D01*
X254100047Y-82580861D01*
X254100045Y-82580858D01*
X253939141Y-82419954D01*
X253752734Y-82289432D01*
X253752728Y-82289429D01*
X253701343Y-82265468D01*
X253694724Y-82262381D01*
X253642285Y-82216210D01*
X253623133Y-82149017D01*
X253643348Y-82082135D01*
X253694725Y-82037618D01*
X253752734Y-82010568D01*
X253939139Y-81880047D01*
X254100047Y-81719139D01*
X254230568Y-81532734D01*
X254326739Y-81326496D01*
X254385635Y-81106692D01*
X254400500Y-80936784D01*
X254400500Y-80823216D01*
X254385635Y-80653308D01*
X254326739Y-80433504D01*
X254230568Y-80227266D01*
X254100047Y-80040861D01*
X254100045Y-80040858D01*
X253939141Y-79879954D01*
X253752734Y-79749432D01*
X253752732Y-79749431D01*
X253737720Y-79742431D01*
X253725819Y-79736881D01*
X253673381Y-79690710D01*
X253654229Y-79623516D01*
X253674445Y-79556635D01*
X253727610Y-79511300D01*
X253778225Y-79500500D01*
X263875500Y-79500500D01*
X263942539Y-79520185D01*
X263988294Y-79572989D01*
X263999500Y-79624500D01*
X263999500Y-136875500D01*
X263979815Y-136942539D01*
X263927011Y-136988294D01*
X263875500Y-136999500D01*
X185124500Y-136999500D01*
X185057461Y-136979815D01*
X185011706Y-136927011D01*
X185000500Y-136875500D01*
X185000500Y-100593713D01*
X185674500Y-100593713D01*
X185674500Y-100806287D01*
X185676590Y-100819480D01*
X185707753Y-101016239D01*
X185707753Y-101016241D01*
X185707754Y-101016243D01*
X185762431Y-101184522D01*
X185773444Y-101218414D01*
X185869951Y-101407820D01*
X185994890Y-101579786D01*
X186145213Y-101730109D01*
X186317179Y-101855048D01*
X186317181Y-101855049D01*
X186317184Y-101855051D01*
X186506588Y-101951557D01*
X186708757Y-102017246D01*
X186918713Y-102050500D01*
X186918714Y-102050500D01*
X187131286Y-102050500D01*
X187131287Y-102050500D01*
X187341243Y-102017246D01*
X187383523Y-102003507D01*
X187453362Y-102001511D01*
X187509522Y-102033757D01*
X206943181Y-121467416D01*
X206976666Y-121528739D01*
X206979500Y-121555097D01*
X206979500Y-123851153D01*
X206959815Y-123918192D01*
X206907011Y-123963947D01*
X206902963Y-123965709D01*
X206804112Y-124006656D01*
X206804109Y-124006657D01*
X206804101Y-124006661D01*
X206605382Y-124121392D01*
X206423338Y-124261081D01*
X206261081Y-124423338D01*
X206121392Y-124605382D01*
X206006657Y-124804109D01*
X206006650Y-124804123D01*
X205918842Y-125016112D01*
X205899002Y-125090157D01*
X205873151Y-125186638D01*
X205859453Y-125237759D01*
X205859451Y-125237770D01*
X205829500Y-125465258D01*
X205829500Y-125694741D01*
X205852588Y-125870104D01*
X205859452Y-125922238D01*
X205878961Y-125995048D01*
X205918842Y-126143887D01*
X206006650Y-126355876D01*
X206006657Y-126355890D01*
X206121392Y-126554617D01*
X206261081Y-126736661D01*
X206261089Y-126736670D01*
X206423330Y-126898911D01*
X206423338Y-126898918D01*
X206605382Y-127038607D01*
X206605385Y-127038608D01*
X206605388Y-127038611D01*
X206804112Y-127153344D01*
X206804117Y-127153346D01*
X206804123Y-127153349D01*
X206882429Y-127185784D01*
X207016113Y-127241158D01*
X207037274Y-127246828D01*
X207096933Y-127283190D01*
X207127464Y-127346036D01*
X207119171Y-127415412D01*
X207074687Y-127469291D01*
X207037274Y-127486377D01*
X206916113Y-127518842D01*
X206916111Y-127518842D01*
X206916110Y-127518843D01*
X206704123Y-127606650D01*
X206704109Y-127606657D01*
X206505382Y-127721392D01*
X206323338Y-127861081D01*
X206161081Y-128023338D01*
X206021392Y-128205382D01*
X205906657Y-128404109D01*
X205906650Y-128404123D01*
X205865715Y-128502952D01*
X205821875Y-128557356D01*
X205755580Y-128579421D01*
X205751154Y-128579500D01*
X200105097Y-128579500D01*
X200038058Y-128559815D01*
X200017416Y-128543181D01*
X188458757Y-116984522D01*
X188425272Y-116923199D01*
X188428507Y-116858523D01*
X188442246Y-116816243D01*
X188475500Y-116606287D01*
X188475500Y-116393713D01*
X188442246Y-116183757D01*
X188376557Y-115981588D01*
X188280051Y-115792184D01*
X188280049Y-115792181D01*
X188280048Y-115792179D01*
X188155109Y-115620213D01*
X188004786Y-115469890D01*
X187832820Y-115344951D01*
X187643414Y-115248444D01*
X187643413Y-115248443D01*
X187643412Y-115248443D01*
X187441243Y-115182754D01*
X187441241Y-115182753D01*
X187441240Y-115182753D01*
X187266467Y-115155072D01*
X187231287Y-115149500D01*
X187018713Y-115149500D01*
X186983533Y-115155072D01*
X186808760Y-115182753D01*
X186606585Y-115248444D01*
X186417179Y-115344951D01*
X186245213Y-115469890D01*
X186094890Y-115620213D01*
X185969951Y-115792179D01*
X185873444Y-115981585D01*
X185807753Y-116183760D01*
X185774500Y-116393713D01*
X185774500Y-116606286D01*
X185807753Y-116816239D01*
X185807753Y-116816241D01*
X185807754Y-116816243D01*
X185862431Y-116984522D01*
X185873444Y-117018414D01*
X185969951Y-117207820D01*
X186094890Y-117379786D01*
X186245213Y-117530109D01*
X186417179Y-117655048D01*
X186417181Y-117655049D01*
X186417184Y-117655051D01*
X186606588Y-117751557D01*
X186808757Y-117817246D01*
X187018713Y-117850500D01*
X187018714Y-117850500D01*
X187231286Y-117850500D01*
X187231287Y-117850500D01*
X187441243Y-117817246D01*
X187483523Y-117803507D01*
X187553362Y-117801511D01*
X187609522Y-117833757D01*
X199320139Y-129544374D01*
X199320149Y-129544385D01*
X199324479Y-129548715D01*
X199324480Y-129548716D01*
X199436284Y-129660520D01*
X199436286Y-129660521D01*
X199484254Y-129688215D01*
X199484253Y-129688215D01*
X199484256Y-129688216D01*
X199573209Y-129739574D01*
X199573210Y-129739575D01*
X199573212Y-129739575D01*
X199573215Y-129739577D01*
X199725943Y-129780501D01*
X199725946Y-129780501D01*
X199891653Y-129780501D01*
X199891669Y-129780500D01*
X205751154Y-129780500D01*
X205818193Y-129800185D01*
X205863948Y-129852989D01*
X205865715Y-129857048D01*
X205906650Y-129955876D01*
X205906657Y-129955890D01*
X206021392Y-130154617D01*
X206161081Y-130336661D01*
X206161089Y-130336670D01*
X206323330Y-130498911D01*
X206323338Y-130498918D01*
X206505382Y-130638607D01*
X206505385Y-130638608D01*
X206505388Y-130638611D01*
X206704112Y-130753344D01*
X206704117Y-130753346D01*
X206704123Y-130753349D01*
X206795480Y-130791190D01*
X206916113Y-130841158D01*
X207137762Y-130900548D01*
X207365266Y-130930500D01*
X207365273Y-130930500D01*
X207594727Y-130930500D01*
X207594734Y-130930500D01*
X207822238Y-130900548D01*
X208043887Y-130841158D01*
X208255888Y-130753344D01*
X208454612Y-130638611D01*
X208636661Y-130498919D01*
X208636665Y-130498914D01*
X208636670Y-130498911D01*
X208798911Y-130336670D01*
X208798914Y-130336665D01*
X208798919Y-130336661D01*
X208938611Y-130154612D01*
X209053344Y-129955888D01*
X209141158Y-129743887D01*
X209200548Y-129522238D01*
X209230500Y-129294734D01*
X209230500Y-129065266D01*
X209200548Y-128837762D01*
X209141158Y-128616113D01*
X209053344Y-128404112D01*
X208938611Y-128205388D01*
X208938608Y-128205385D01*
X208938607Y-128205382D01*
X208798918Y-128023338D01*
X208798911Y-128023330D01*
X208636670Y-127861089D01*
X208636661Y-127861081D01*
X208454617Y-127721392D01*
X208255890Y-127606657D01*
X208255876Y-127606650D01*
X208043889Y-127518843D01*
X208043890Y-127518843D01*
X208043887Y-127518842D01*
X208022722Y-127513171D01*
X207963064Y-127476807D01*
X207932535Y-127413960D01*
X207940830Y-127344584D01*
X207985315Y-127290706D01*
X208022720Y-127273624D01*
X208143887Y-127241158D01*
X208355888Y-127153344D01*
X208554612Y-127038611D01*
X208736661Y-126898919D01*
X208736665Y-126898914D01*
X208736670Y-126898911D01*
X208898911Y-126736670D01*
X208898914Y-126736665D01*
X208898919Y-126736661D01*
X209038611Y-126554612D01*
X209153344Y-126355888D01*
X209241158Y-126143887D01*
X209300548Y-125922238D01*
X209330500Y-125694734D01*
X209330500Y-125465266D01*
X209300548Y-125237762D01*
X209241158Y-125016113D01*
X209191190Y-124895480D01*
X209153349Y-124804123D01*
X209153346Y-124804117D01*
X209153344Y-124804112D01*
X209038611Y-124605388D01*
X209038608Y-124605385D01*
X209038607Y-124605382D01*
X208898918Y-124423338D01*
X208898911Y-124423330D01*
X208736670Y-124261089D01*
X208736661Y-124261081D01*
X208554617Y-124121392D01*
X208355898Y-124006661D01*
X208355893Y-124006659D01*
X208355888Y-124006656D01*
X208257045Y-123965713D01*
X208202643Y-123921872D01*
X208180579Y-123855577D01*
X208180500Y-123851153D01*
X208180500Y-121344060D01*
X208180501Y-121344047D01*
X208180501Y-121175944D01*
X208172310Y-121145376D01*
X208139577Y-121023216D01*
X208120031Y-120989361D01*
X208060524Y-120886290D01*
X208060518Y-120886282D01*
X199399222Y-112224986D01*
X207800001Y-112224986D01*
X207810494Y-112327697D01*
X207865641Y-112494119D01*
X207865643Y-112494124D01*
X207957684Y-112643345D01*
X208081654Y-112767315D01*
X208230875Y-112859356D01*
X208230880Y-112859358D01*
X208397302Y-112914505D01*
X208397309Y-112914506D01*
X208500019Y-112924999D01*
X209749999Y-112924999D01*
X210250000Y-112924999D01*
X211499972Y-112924999D01*
X211499986Y-112924998D01*
X211602697Y-112914505D01*
X211769119Y-112859358D01*
X211769124Y-112859356D01*
X211918345Y-112767315D01*
X212042315Y-112643345D01*
X212134356Y-112494124D01*
X212134358Y-112494119D01*
X212189505Y-112327697D01*
X212189506Y-112327690D01*
X212199999Y-112224986D01*
X212200000Y-112224973D01*
X212200000Y-112112500D01*
X210250000Y-112112500D01*
X210250000Y-112924999D01*
X209749999Y-112924999D01*
X209750000Y-112924998D01*
X209750000Y-112112500D01*
X207800001Y-112112500D01*
X207800001Y-112224986D01*
X199399222Y-112224986D01*
X198758781Y-111584545D01*
X198674249Y-111500013D01*
X207800000Y-111500013D01*
X207800000Y-111612500D01*
X209750000Y-111612500D01*
X210250000Y-111612500D01*
X212199999Y-111612500D01*
X212199999Y-111500028D01*
X212199998Y-111500013D01*
X212189505Y-111397302D01*
X212134358Y-111230880D01*
X212134356Y-111230875D01*
X212042315Y-111081654D01*
X211918345Y-110957684D01*
X211769124Y-110865643D01*
X211769119Y-110865641D01*
X211602697Y-110810494D01*
X211602690Y-110810493D01*
X211499986Y-110800000D01*
X210250000Y-110800000D01*
X210250000Y-111612500D01*
X209750000Y-111612500D01*
X209750000Y-110800000D01*
X208500028Y-110800000D01*
X208500012Y-110800001D01*
X208397302Y-110810494D01*
X208230880Y-110865641D01*
X208230875Y-110865643D01*
X208081654Y-110957684D01*
X207957684Y-111081654D01*
X207865643Y-111230875D01*
X207865641Y-111230880D01*
X207810494Y-111397302D01*
X207810493Y-111397309D01*
X207800000Y-111500013D01*
X198674249Y-111500013D01*
X188358757Y-101184522D01*
X188325272Y-101123199D01*
X188328507Y-101058523D01*
X188342246Y-101016243D01*
X188375500Y-100806287D01*
X188375500Y-100593713D01*
X188342246Y-100383757D01*
X188276557Y-100181588D01*
X188180051Y-99992184D01*
X188180049Y-99992181D01*
X188180048Y-99992179D01*
X188055109Y-99820213D01*
X187904786Y-99669890D01*
X187732820Y-99544951D01*
X187543414Y-99448444D01*
X187543413Y-99448443D01*
X187543412Y-99448443D01*
X187341243Y-99382754D01*
X187341241Y-99382753D01*
X187341240Y-99382753D01*
X187179957Y-99357208D01*
X187131287Y-99349500D01*
X186918713Y-99349500D01*
X186870042Y-99357208D01*
X186708760Y-99382753D01*
X186506585Y-99448444D01*
X186317179Y-99544951D01*
X186145213Y-99669890D01*
X185994890Y-99820213D01*
X185869951Y-99992179D01*
X185773444Y-100181585D01*
X185773443Y-100181587D01*
X185773443Y-100181588D01*
X185740598Y-100282672D01*
X185707753Y-100383760D01*
X185681856Y-100547267D01*
X185674500Y-100593713D01*
X185000500Y-100593713D01*
X185000500Y-79624500D01*
X185020185Y-79557461D01*
X185072989Y-79511706D01*
X185124500Y-79500500D01*
X231014015Y-79500500D01*
X231081054Y-79520185D01*
G37*
%TD.AperFunction*%
%TA.AperFunction,Conductor*%
G36*
X192674075Y-84192993D02*
G01*
X192739901Y-84307007D01*
X192832993Y-84400099D01*
X192947007Y-84465925D01*
X193010590Y-84482962D01*
X192378282Y-85115269D01*
X192378282Y-85115270D01*
X192432449Y-85154624D01*
X192621782Y-85251095D01*
X192823870Y-85316757D01*
X193033754Y-85350000D01*
X193246246Y-85350000D01*
X193456127Y-85316757D01*
X193456130Y-85316757D01*
X193658217Y-85251095D01*
X193847554Y-85154622D01*
X193901716Y-85115270D01*
X193901717Y-85115270D01*
X193269408Y-84482962D01*
X193332993Y-84465925D01*
X193447007Y-84400099D01*
X193540099Y-84307007D01*
X193605925Y-84192993D01*
X193622962Y-84129409D01*
X194255270Y-84761717D01*
X194255270Y-84761716D01*
X194294622Y-84707555D01*
X194299232Y-84698507D01*
X194347205Y-84647709D01*
X194415025Y-84630912D01*
X194481161Y-84653447D01*
X194520204Y-84698504D01*
X194524949Y-84707817D01*
X194649890Y-84879786D01*
X194800213Y-85030109D01*
X194972179Y-85155048D01*
X194972181Y-85155049D01*
X194972184Y-85155051D01*
X195161588Y-85251557D01*
X195363757Y-85317246D01*
X195573713Y-85350500D01*
X195573714Y-85350500D01*
X195786286Y-85350500D01*
X195786287Y-85350500D01*
X195996243Y-85317246D01*
X196038523Y-85303507D01*
X196108362Y-85301511D01*
X196164521Y-85333756D01*
X215051284Y-104220520D01*
X215051286Y-104220521D01*
X215051290Y-104220524D01*
X215083029Y-104238848D01*
X215188216Y-104299577D01*
X215340943Y-104340501D01*
X215340945Y-104340501D01*
X215506654Y-104340501D01*
X215506670Y-104340500D01*
X226691029Y-104340500D01*
X226758068Y-104360185D01*
X226803823Y-104412989D01*
X226813767Y-104482147D01*
X226784742Y-104545703D01*
X226725964Y-104583477D01*
X226723120Y-104584275D01*
X226700019Y-104590464D01*
X226700019Y-104590465D01*
X226662751Y-104600451D01*
X226588214Y-104620423D01*
X226588209Y-104620426D01*
X226451290Y-104699475D01*
X226451282Y-104699481D01*
X226339478Y-104811286D01*
X217587680Y-113563083D01*
X217526357Y-113596568D01*
X217456665Y-113591584D01*
X217412318Y-113563083D01*
X189170763Y-85321528D01*
X189137278Y-85260205D01*
X189142262Y-85190513D01*
X189170759Y-85146170D01*
X189251119Y-85065811D01*
X189344152Y-84914982D01*
X189346867Y-84906786D01*
X189386637Y-84849343D01*
X189451152Y-84822518D01*
X189519928Y-84834832D01*
X189564890Y-84872903D01*
X189569892Y-84879788D01*
X189720213Y-85030109D01*
X189892179Y-85155048D01*
X189892181Y-85155049D01*
X189892184Y-85155051D01*
X190081588Y-85251557D01*
X190283757Y-85317246D01*
X190493713Y-85350500D01*
X190493714Y-85350500D01*
X190706286Y-85350500D01*
X190706287Y-85350500D01*
X190916243Y-85317246D01*
X191118412Y-85251557D01*
X191307816Y-85155051D01*
X191393312Y-85092935D01*
X191479786Y-85030109D01*
X191479788Y-85030106D01*
X191479792Y-85030104D01*
X191630104Y-84879792D01*
X191630106Y-84879788D01*
X191630109Y-84879786D01*
X191715890Y-84761717D01*
X191755051Y-84707816D01*
X191759793Y-84698508D01*
X191807763Y-84647711D01*
X191875583Y-84630911D01*
X191941719Y-84653445D01*
X191980763Y-84698500D01*
X191985373Y-84707547D01*
X192024728Y-84761716D01*
X192657037Y-84129408D01*
X192674075Y-84192993D01*
G37*
%TD.AperFunction*%
%TD*%
M02*
