%TF.GenerationSoftware,KiCad,Pcbnew,10.0.3*%
%TF.CreationDate,2026-08-20T21:53:27-07:00*%
%TF.ProjectId,e,652e6b69-6361-4645-9f70-636258585858,1*%
%TF.SameCoordinates,Original*%
%TF.FileFunction,Soldermask,Top*%
%TF.FilePolarity,Negative*%
%FSLAX46Y46*%
G04 Gerber Fmt 4.6, Leading zero omitted, Abs format (unit mm)*
G04 Created by KiCad (PCBNEW 10.0.3) date 2026-08-20 21:53:27*
%MOMM*%
%LPD*%
G01*
G04 APERTURE LIST*
G04 Aperture macros list*
%AMRoundRect*
0 Rectangle with rounded corners*
0 $1 Rounding radius*
0 $2 $3 $4 $5 $6 $7 $8 $9 X,Y pos of 4 corners*
0 Add a 4 corners polygon primitive as box body*
4,1,4,$2,$3,$4,$5,$6,$7,$8,$9,$2,$3,0*
0 Add four circle primitives for the rounded corners*
1,1,$1+$1,$2,$3*
1,1,$1+$1,$4,$5*
1,1,$1+$1,$6,$7*
1,1,$1+$1,$8,$9*
0 Add four rect primitives between the rounded corners*
20,1,$1+$1,$2,$3,$4,$5,0*
20,1,$1+$1,$4,$5,$6,$7,0*
20,1,$1+$1,$6,$7,$8,$9,0*
20,1,$1+$1,$8,$9,$2,$3,0*%
%AMFreePoly0*
4,1,37,0.800000,0.796148,0.878414,0.796148,1.032228,0.765552,1.177117,0.705537,1.307515,0.618408,1.418408,0.507515,1.505537,0.377117,1.565552,0.232228,1.596148,0.078414,1.596148,-0.078414,1.565552,-0.232228,1.505537,-0.377117,1.418408,-0.507515,1.307515,-0.618408,1.177117,-0.705537,1.032228,-0.765552,0.878414,-0.796148,0.800000,-0.796148,0.800000,-0.800000,-1.400000,-0.800000,
-1.403843,-0.796157,-1.439018,-0.796157,-1.511114,-0.766294,-1.566294,-0.711114,-1.596157,-0.639018,-1.596157,-0.603843,-1.600000,-0.600000,-1.600000,0.600000,-1.596157,0.603843,-1.596157,0.639018,-1.566294,0.711114,-1.511114,0.766294,-1.439018,0.796157,-1.403843,0.796157,-1.400000,0.800000,0.800000,0.800000,0.800000,0.796148,0.800000,0.796148,$1*%
%AMFreePoly1*
4,1,37,1.403843,0.796157,1.439018,0.796157,1.511114,0.766294,1.566294,0.711114,1.596157,0.639018,1.596157,0.603843,1.600000,0.600000,1.600000,-0.600000,1.596157,-0.603843,1.596157,-0.639018,1.566294,-0.711114,1.511114,-0.766294,1.439018,-0.796157,1.403843,-0.796157,1.400000,-0.800000,-0.800000,-0.800000,-0.800000,-0.796148,-0.878414,-0.796148,-1.032228,-0.765552,-1.177117,-0.705537,
-1.307515,-0.618408,-1.418408,-0.507515,-1.505537,-0.377117,-1.565552,-0.232228,-1.596148,-0.078414,-1.596148,0.078414,-1.565552,0.232228,-1.505537,0.377117,-1.418408,0.507515,-1.307515,0.618408,-1.177117,0.705537,-1.032228,0.765552,-0.878414,0.796148,-0.800000,0.796148,-0.800000,0.800000,1.400000,0.800000,1.403843,0.796157,1.403843,0.796157,$1*%
G04 Aperture macros list end*
%ADD10C,1.600000*%
%ADD11O,3.500000X2.200000*%
%ADD12R,2.500000X1.500000*%
%ADD13O,2.500000X1.500000*%
%ADD14C,2.000000*%
%ADD15RoundRect,0.184783X0.665217X-0.665217X0.665217X0.665217X-0.665217X0.665217X-0.665217X-0.665217X0*%
%ADD16C,1.700000*%
%ADD17C,2.500000*%
%ADD18RoundRect,0.250000X-0.800000X0.450000X-0.800000X-0.450000X0.800000X-0.450000X0.800000X0.450000X0*%
%ADD19C,2.200000*%
%ADD20C,1.850000*%
%ADD21FreePoly0,0.000000*%
%ADD22RoundRect,0.800000X-0.800000X-0.000010X0.800000X-0.000010X0.800000X0.000010X-0.800000X0.000010X0*%
%ADD23FreePoly1,0.000000*%
%ADD24RoundRect,0.257576X-0.592424X-0.592424X0.592424X-0.592424X0.592424X0.592424X-0.592424X0.592424X0*%
G04 APERTURE END LIST*
D10*
%TO.C,R2*%
X129000000Y-111500000D03*
X129000000Y-101340000D03*
%TD*%
D11*
%TO.C,SW1*%
X180190000Y-98700000D03*
X180190000Y-90500000D03*
D12*
X180190000Y-96600000D03*
D13*
X180190000Y-94600000D03*
X180190000Y-92600000D03*
%TD*%
D14*
%TO.C,SW2*%
X178500000Y-111500000D03*
X178500000Y-105000000D03*
X183000000Y-111500000D03*
X183000000Y-105000000D03*
%TD*%
D15*
%TO.C,U2*%
X140190000Y-130300000D03*
D16*
X140190000Y-127760000D03*
X140190000Y-125220000D03*
X140190000Y-122680000D03*
X140190000Y-120140000D03*
X140190000Y-117600000D03*
X140190000Y-115060000D03*
D17*
X127770000Y-120880000D03*
X127670000Y-124480000D03*
%TD*%
D18*
%TO.C,D2*%
X181190000Y-79100000D03*
X181190000Y-83500000D03*
%TD*%
D16*
%TO.C,LS1*%
X107215000Y-96000000D03*
X107315000Y-111800000D03*
%TD*%
D19*
%TO.C,A1*%
X160075000Y-76310000D03*
D20*
X160375000Y-79340000D03*
X165225000Y-79340000D03*
D19*
X165525000Y-76310000D03*
D21*
X153110000Y-76180000D03*
D22*
X153110000Y-78720000D03*
D23*
X153110000Y-81260000D03*
D22*
X153110000Y-83800000D03*
X153110000Y-86340000D03*
X153110000Y-88880000D03*
X153110000Y-91420000D03*
D23*
X153110000Y-93960000D03*
D22*
X153110000Y-96500000D03*
X153110000Y-99040000D03*
X153110000Y-101580000D03*
X153110000Y-104120000D03*
D23*
X153110000Y-106660000D03*
D22*
X153110000Y-109200000D03*
X153110000Y-111740000D03*
X153110000Y-114280000D03*
X153110000Y-116820000D03*
D23*
X153110000Y-119360000D03*
D22*
X153110000Y-121900000D03*
X153110000Y-124440000D03*
X172490000Y-124440000D03*
X172490000Y-121900000D03*
D21*
X172490000Y-119360000D03*
D22*
X172490000Y-116820000D03*
X172490000Y-114280000D03*
X172490000Y-111740000D03*
X172490000Y-109200000D03*
D21*
X172490000Y-106660000D03*
D22*
X172490000Y-104120000D03*
X172490000Y-101580000D03*
X172490000Y-99040000D03*
X172490000Y-96500000D03*
D21*
X172490000Y-93960000D03*
D22*
X172490000Y-91420000D03*
X172490000Y-88880000D03*
X172490000Y-86340000D03*
X172490000Y-83800000D03*
D21*
X172490000Y-81260000D03*
D22*
X172490000Y-78720000D03*
X172490000Y-76180000D03*
%TD*%
D24*
%TO.C,U1*%
X108250000Y-79300000D03*
D16*
X110790000Y-79300000D03*
X113330000Y-79300000D03*
X115870000Y-79300000D03*
X118410000Y-79300000D03*
X120950000Y-79300000D03*
X123490000Y-79300000D03*
X126030000Y-79300000D03*
X128570000Y-79300000D03*
X131110000Y-79300000D03*
X133650000Y-79300000D03*
X136190000Y-79300000D03*
%TD*%
M02*
