%TF.GenerationSoftware,KiCad,Pcbnew,10.0.3*%
%TF.CreationDate,2026-07-02T21:02:42+03:00*%
%TF.ProjectId,e,652e6b69-6361-4645-9f70-636258585858,rev?*%
%TF.SameCoordinates,Original*%
%TF.FileFunction,Legend,Top*%
%TF.FilePolarity,Positive*%
%FSLAX46Y46*%
G04 Gerber Fmt 4.6, Leading zero omitted, Abs format (unit mm)*
G04 Created by KiCad (PCBNEW 10.0.3) date 2026-07-02 21:02:42*
%MOMM*%
%LPD*%
G01*
G04 APERTURE LIST*
%ADD10C,0.100000*%
%ADD11C,0.150000*%
%ADD12C,0.120000*%
G04 APERTURE END LIST*
D10*
X187942466Y-110867544D02*
X187942466Y-110600877D01*
X187709133Y-110767544D02*
X188309133Y-110767544D01*
X188309133Y-110767544D02*
X188375800Y-110734211D01*
X188375800Y-110734211D02*
X188409133Y-110667544D01*
X188409133Y-110667544D02*
X188409133Y-110600877D01*
X188409133Y-110367544D02*
X187709133Y-110367544D01*
X188409133Y-110067544D02*
X188042466Y-110067544D01*
X188042466Y-110067544D02*
X187975800Y-110100877D01*
X187975800Y-110100877D02*
X187942466Y-110167544D01*
X187942466Y-110167544D02*
X187942466Y-110267544D01*
X187942466Y-110267544D02*
X187975800Y-110334211D01*
X187975800Y-110334211D02*
X188009133Y-110367544D01*
X188409133Y-109734211D02*
X187942466Y-109734211D01*
X187709133Y-109734211D02*
X187742466Y-109767544D01*
X187742466Y-109767544D02*
X187775800Y-109734211D01*
X187775800Y-109734211D02*
X187742466Y-109700878D01*
X187742466Y-109700878D02*
X187709133Y-109734211D01*
X187709133Y-109734211D02*
X187775800Y-109734211D01*
X188375800Y-109434211D02*
X188409133Y-109367545D01*
X188409133Y-109367545D02*
X188409133Y-109234211D01*
X188409133Y-109234211D02*
X188375800Y-109167545D01*
X188375800Y-109167545D02*
X188309133Y-109134211D01*
X188309133Y-109134211D02*
X188275800Y-109134211D01*
X188275800Y-109134211D02*
X188209133Y-109167545D01*
X188209133Y-109167545D02*
X188175800Y-109234211D01*
X188175800Y-109234211D02*
X188175800Y-109334211D01*
X188175800Y-109334211D02*
X188142466Y-109400878D01*
X188142466Y-109400878D02*
X188075800Y-109434211D01*
X188075800Y-109434211D02*
X188042466Y-109434211D01*
X188042466Y-109434211D02*
X187975800Y-109400878D01*
X187975800Y-109400878D02*
X187942466Y-109334211D01*
X187942466Y-109334211D02*
X187942466Y-109234211D01*
X187942466Y-109234211D02*
X187975800Y-109167545D01*
X188409133Y-108300878D02*
X187942466Y-108300878D01*
X188075800Y-108300878D02*
X188009133Y-108267545D01*
X188009133Y-108267545D02*
X187975800Y-108234211D01*
X187975800Y-108234211D02*
X187942466Y-108167545D01*
X187942466Y-108167545D02*
X187942466Y-108100878D01*
X188409133Y-107767545D02*
X188375800Y-107834212D01*
X188375800Y-107834212D02*
X188342466Y-107867545D01*
X188342466Y-107867545D02*
X188275800Y-107900878D01*
X188275800Y-107900878D02*
X188075800Y-107900878D01*
X188075800Y-107900878D02*
X188009133Y-107867545D01*
X188009133Y-107867545D02*
X187975800Y-107834212D01*
X187975800Y-107834212D02*
X187942466Y-107767545D01*
X187942466Y-107767545D02*
X187942466Y-107667545D01*
X187942466Y-107667545D02*
X187975800Y-107600878D01*
X187975800Y-107600878D02*
X188009133Y-107567545D01*
X188009133Y-107567545D02*
X188075800Y-107534212D01*
X188075800Y-107534212D02*
X188275800Y-107534212D01*
X188275800Y-107534212D02*
X188342466Y-107567545D01*
X188342466Y-107567545D02*
X188375800Y-107600878D01*
X188375800Y-107600878D02*
X188409133Y-107667545D01*
X188409133Y-107667545D02*
X188409133Y-107767545D01*
X187942466Y-106934212D02*
X188409133Y-106934212D01*
X187942466Y-107234212D02*
X188309133Y-107234212D01*
X188309133Y-107234212D02*
X188375800Y-107200879D01*
X188375800Y-107200879D02*
X188409133Y-107134212D01*
X188409133Y-107134212D02*
X188409133Y-107034212D01*
X188409133Y-107034212D02*
X188375800Y-106967545D01*
X188375800Y-106967545D02*
X188342466Y-106934212D01*
X187942466Y-106700879D02*
X187942466Y-106434212D01*
X187709133Y-106600879D02*
X188309133Y-106600879D01*
X188309133Y-106600879D02*
X188375800Y-106567546D01*
X188375800Y-106567546D02*
X188409133Y-106500879D01*
X188409133Y-106500879D02*
X188409133Y-106434212D01*
X188409133Y-106200879D02*
X187942466Y-106200879D01*
X187709133Y-106200879D02*
X187742466Y-106234212D01*
X187742466Y-106234212D02*
X187775800Y-106200879D01*
X187775800Y-106200879D02*
X187742466Y-106167546D01*
X187742466Y-106167546D02*
X187709133Y-106200879D01*
X187709133Y-106200879D02*
X187775800Y-106200879D01*
X187942466Y-105867546D02*
X188409133Y-105867546D01*
X188009133Y-105867546D02*
X187975800Y-105834213D01*
X187975800Y-105834213D02*
X187942466Y-105767546D01*
X187942466Y-105767546D02*
X187942466Y-105667546D01*
X187942466Y-105667546D02*
X187975800Y-105600879D01*
X187975800Y-105600879D02*
X188042466Y-105567546D01*
X188042466Y-105567546D02*
X188409133Y-105567546D01*
X187942466Y-104934213D02*
X188509133Y-104934213D01*
X188509133Y-104934213D02*
X188575800Y-104967546D01*
X188575800Y-104967546D02*
X188609133Y-105000880D01*
X188609133Y-105000880D02*
X188642466Y-105067546D01*
X188642466Y-105067546D02*
X188642466Y-105167546D01*
X188642466Y-105167546D02*
X188609133Y-105234213D01*
X188375800Y-104934213D02*
X188409133Y-105000880D01*
X188409133Y-105000880D02*
X188409133Y-105134213D01*
X188409133Y-105134213D02*
X188375800Y-105200880D01*
X188375800Y-105200880D02*
X188342466Y-105234213D01*
X188342466Y-105234213D02*
X188275800Y-105267546D01*
X188275800Y-105267546D02*
X188075800Y-105267546D01*
X188075800Y-105267546D02*
X188009133Y-105234213D01*
X188009133Y-105234213D02*
X187975800Y-105200880D01*
X187975800Y-105200880D02*
X187942466Y-105134213D01*
X187942466Y-105134213D02*
X187942466Y-105000880D01*
X187942466Y-105000880D02*
X187975800Y-104934213D01*
X188409133Y-104067547D02*
X187709133Y-104067547D01*
X188409133Y-103767547D02*
X188042466Y-103767547D01*
X188042466Y-103767547D02*
X187975800Y-103800880D01*
X187975800Y-103800880D02*
X187942466Y-103867547D01*
X187942466Y-103867547D02*
X187942466Y-103967547D01*
X187942466Y-103967547D02*
X187975800Y-104034214D01*
X187975800Y-104034214D02*
X188009133Y-104067547D01*
X188409133Y-103134214D02*
X188042466Y-103134214D01*
X188042466Y-103134214D02*
X187975800Y-103167547D01*
X187975800Y-103167547D02*
X187942466Y-103234214D01*
X187942466Y-103234214D02*
X187942466Y-103367547D01*
X187942466Y-103367547D02*
X187975800Y-103434214D01*
X188375800Y-103134214D02*
X188409133Y-103200881D01*
X188409133Y-103200881D02*
X188409133Y-103367547D01*
X188409133Y-103367547D02*
X188375800Y-103434214D01*
X188375800Y-103434214D02*
X188309133Y-103467547D01*
X188309133Y-103467547D02*
X188242466Y-103467547D01*
X188242466Y-103467547D02*
X188175800Y-103434214D01*
X188175800Y-103434214D02*
X188142466Y-103367547D01*
X188142466Y-103367547D02*
X188142466Y-103200881D01*
X188142466Y-103200881D02*
X188109133Y-103134214D01*
X187942466Y-102500881D02*
X188409133Y-102500881D01*
X187942466Y-102800881D02*
X188309133Y-102800881D01*
X188309133Y-102800881D02*
X188375800Y-102767548D01*
X188375800Y-102767548D02*
X188409133Y-102700881D01*
X188409133Y-102700881D02*
X188409133Y-102600881D01*
X188409133Y-102600881D02*
X188375800Y-102534214D01*
X188375800Y-102534214D02*
X188342466Y-102500881D01*
X187942466Y-102167548D02*
X188409133Y-102167548D01*
X188009133Y-102167548D02*
X187975800Y-102134215D01*
X187975800Y-102134215D02*
X187942466Y-102067548D01*
X187942466Y-102067548D02*
X187942466Y-101967548D01*
X187942466Y-101967548D02*
X187975800Y-101900881D01*
X187975800Y-101900881D02*
X188042466Y-101867548D01*
X188042466Y-101867548D02*
X188409133Y-101867548D01*
X187942466Y-101634215D02*
X187942466Y-101367548D01*
X187709133Y-101534215D02*
X188309133Y-101534215D01*
X188309133Y-101534215D02*
X188375800Y-101500882D01*
X188375800Y-101500882D02*
X188409133Y-101434215D01*
X188409133Y-101434215D02*
X188409133Y-101367548D01*
X188375800Y-101167548D02*
X188409133Y-101100882D01*
X188409133Y-101100882D02*
X188409133Y-100967548D01*
X188409133Y-100967548D02*
X188375800Y-100900882D01*
X188375800Y-100900882D02*
X188309133Y-100867548D01*
X188309133Y-100867548D02*
X188275800Y-100867548D01*
X188275800Y-100867548D02*
X188209133Y-100900882D01*
X188209133Y-100900882D02*
X188175800Y-100967548D01*
X188175800Y-100967548D02*
X188175800Y-101067548D01*
X188175800Y-101067548D02*
X188142466Y-101134215D01*
X188142466Y-101134215D02*
X188075800Y-101167548D01*
X188075800Y-101167548D02*
X188042466Y-101167548D01*
X188042466Y-101167548D02*
X187975800Y-101134215D01*
X187975800Y-101134215D02*
X187942466Y-101067548D01*
X187942466Y-101067548D02*
X187942466Y-100967548D01*
X187942466Y-100967548D02*
X187975800Y-100900882D01*
X188409133Y-100034215D02*
X187942466Y-100034215D01*
X188009133Y-100034215D02*
X187975800Y-100000882D01*
X187975800Y-100000882D02*
X187942466Y-99934215D01*
X187942466Y-99934215D02*
X187942466Y-99834215D01*
X187942466Y-99834215D02*
X187975800Y-99767548D01*
X187975800Y-99767548D02*
X188042466Y-99734215D01*
X188042466Y-99734215D02*
X188409133Y-99734215D01*
X188042466Y-99734215D02*
X187975800Y-99700882D01*
X187975800Y-99700882D02*
X187942466Y-99634215D01*
X187942466Y-99634215D02*
X187942466Y-99534215D01*
X187942466Y-99534215D02*
X187975800Y-99467548D01*
X187975800Y-99467548D02*
X188042466Y-99434215D01*
X188042466Y-99434215D02*
X188409133Y-99434215D01*
X188375800Y-98834215D02*
X188409133Y-98900882D01*
X188409133Y-98900882D02*
X188409133Y-99034215D01*
X188409133Y-99034215D02*
X188375800Y-99100882D01*
X188375800Y-99100882D02*
X188309133Y-99134215D01*
X188309133Y-99134215D02*
X188042466Y-99134215D01*
X188042466Y-99134215D02*
X187975800Y-99100882D01*
X187975800Y-99100882D02*
X187942466Y-99034215D01*
X187942466Y-99034215D02*
X187942466Y-98900882D01*
X187942466Y-98900882D02*
X187975800Y-98834215D01*
X187975800Y-98834215D02*
X188042466Y-98800882D01*
X188042466Y-98800882D02*
X188109133Y-98800882D01*
X188109133Y-98800882D02*
X188175800Y-99134215D01*
X188409133Y-97967549D02*
X187942466Y-97967549D01*
X187709133Y-97967549D02*
X187742466Y-98000882D01*
X187742466Y-98000882D02*
X187775800Y-97967549D01*
X187775800Y-97967549D02*
X187742466Y-97934216D01*
X187742466Y-97934216D02*
X187709133Y-97967549D01*
X187709133Y-97967549D02*
X187775800Y-97967549D01*
X187942466Y-97634216D02*
X188409133Y-97634216D01*
X188009133Y-97634216D02*
X187975800Y-97600883D01*
X187975800Y-97600883D02*
X187942466Y-97534216D01*
X187942466Y-97534216D02*
X187942466Y-97434216D01*
X187942466Y-97434216D02*
X187975800Y-97367549D01*
X187975800Y-97367549D02*
X188042466Y-97334216D01*
X188042466Y-97334216D02*
X188409133Y-97334216D01*
X188409133Y-96467550D02*
X187942466Y-96467550D01*
X188009133Y-96467550D02*
X187975800Y-96434217D01*
X187975800Y-96434217D02*
X187942466Y-96367550D01*
X187942466Y-96367550D02*
X187942466Y-96267550D01*
X187942466Y-96267550D02*
X187975800Y-96200883D01*
X187975800Y-96200883D02*
X188042466Y-96167550D01*
X188042466Y-96167550D02*
X188409133Y-96167550D01*
X188042466Y-96167550D02*
X187975800Y-96134217D01*
X187975800Y-96134217D02*
X187942466Y-96067550D01*
X187942466Y-96067550D02*
X187942466Y-95967550D01*
X187942466Y-95967550D02*
X187975800Y-95900883D01*
X187975800Y-95900883D02*
X188042466Y-95867550D01*
X188042466Y-95867550D02*
X188409133Y-95867550D01*
X187942466Y-95600884D02*
X188409133Y-95434217D01*
X187942466Y-95267550D02*
X188409133Y-95434217D01*
X188409133Y-95434217D02*
X188575800Y-95500884D01*
X188575800Y-95500884D02*
X188609133Y-95534217D01*
X188609133Y-95534217D02*
X188642466Y-95600884D01*
X188375800Y-94500884D02*
X188409133Y-94434218D01*
X188409133Y-94434218D02*
X188409133Y-94300884D01*
X188409133Y-94300884D02*
X188375800Y-94234218D01*
X188375800Y-94234218D02*
X188309133Y-94200884D01*
X188309133Y-94200884D02*
X188275800Y-94200884D01*
X188275800Y-94200884D02*
X188209133Y-94234218D01*
X188209133Y-94234218D02*
X188175800Y-94300884D01*
X188175800Y-94300884D02*
X188175800Y-94400884D01*
X188175800Y-94400884D02*
X188142466Y-94467551D01*
X188142466Y-94467551D02*
X188075800Y-94500884D01*
X188075800Y-94500884D02*
X188042466Y-94500884D01*
X188042466Y-94500884D02*
X187975800Y-94467551D01*
X187975800Y-94467551D02*
X187942466Y-94400884D01*
X187942466Y-94400884D02*
X187942466Y-94300884D01*
X187942466Y-94300884D02*
X187975800Y-94234218D01*
X188409133Y-93800884D02*
X188375800Y-93867551D01*
X188375800Y-93867551D02*
X188309133Y-93900884D01*
X188309133Y-93900884D02*
X187709133Y-93900884D01*
X188375800Y-93267550D02*
X188409133Y-93334217D01*
X188409133Y-93334217D02*
X188409133Y-93467550D01*
X188409133Y-93467550D02*
X188375800Y-93534217D01*
X188375800Y-93534217D02*
X188309133Y-93567550D01*
X188309133Y-93567550D02*
X188042466Y-93567550D01*
X188042466Y-93567550D02*
X187975800Y-93534217D01*
X187975800Y-93534217D02*
X187942466Y-93467550D01*
X187942466Y-93467550D02*
X187942466Y-93334217D01*
X187942466Y-93334217D02*
X187975800Y-93267550D01*
X187975800Y-93267550D02*
X188042466Y-93234217D01*
X188042466Y-93234217D02*
X188109133Y-93234217D01*
X188109133Y-93234217D02*
X188175800Y-93567550D01*
X188375800Y-92667550D02*
X188409133Y-92734217D01*
X188409133Y-92734217D02*
X188409133Y-92867550D01*
X188409133Y-92867550D02*
X188375800Y-92934217D01*
X188375800Y-92934217D02*
X188309133Y-92967550D01*
X188309133Y-92967550D02*
X188042466Y-92967550D01*
X188042466Y-92967550D02*
X187975800Y-92934217D01*
X187975800Y-92934217D02*
X187942466Y-92867550D01*
X187942466Y-92867550D02*
X187942466Y-92734217D01*
X187942466Y-92734217D02*
X187975800Y-92667550D01*
X187975800Y-92667550D02*
X188042466Y-92634217D01*
X188042466Y-92634217D02*
X188109133Y-92634217D01*
X188109133Y-92634217D02*
X188175800Y-92967550D01*
X187942466Y-92334217D02*
X188642466Y-92334217D01*
X187975800Y-92334217D02*
X187942466Y-92267550D01*
X187942466Y-92267550D02*
X187942466Y-92134217D01*
X187942466Y-92134217D02*
X187975800Y-92067550D01*
X187975800Y-92067550D02*
X188009133Y-92034217D01*
X188009133Y-92034217D02*
X188075800Y-92000884D01*
X188075800Y-92000884D02*
X188275800Y-92000884D01*
X188275800Y-92000884D02*
X188342466Y-92034217D01*
X188342466Y-92034217D02*
X188375800Y-92067550D01*
X188375800Y-92067550D02*
X188409133Y-92134217D01*
X188409133Y-92134217D02*
X188409133Y-92267550D01*
X188409133Y-92267550D02*
X188375800Y-92334217D01*
X135896895Y-70629449D02*
X135858800Y-70705639D01*
X135858800Y-70705639D02*
X135820704Y-70743734D01*
X135820704Y-70743734D02*
X135744514Y-70781830D01*
X135744514Y-70781830D02*
X135515942Y-70781830D01*
X135515942Y-70781830D02*
X135439752Y-70743734D01*
X135439752Y-70743734D02*
X135401657Y-70705639D01*
X135401657Y-70705639D02*
X135363561Y-70629449D01*
X135363561Y-70629449D02*
X135363561Y-70515163D01*
X135363561Y-70515163D02*
X135401657Y-70438972D01*
X135401657Y-70438972D02*
X135439752Y-70400877D01*
X135439752Y-70400877D02*
X135515942Y-70362782D01*
X135515942Y-70362782D02*
X135744514Y-70362782D01*
X135744514Y-70362782D02*
X135820704Y-70400877D01*
X135820704Y-70400877D02*
X135858800Y-70438972D01*
X135858800Y-70438972D02*
X135896895Y-70515163D01*
X135896895Y-70515163D02*
X135896895Y-70629449D01*
X135363561Y-70019924D02*
X135896895Y-70019924D01*
X135439752Y-70019924D02*
X135401657Y-69981829D01*
X135401657Y-69981829D02*
X135363561Y-69905639D01*
X135363561Y-69905639D02*
X135363561Y-69791353D01*
X135363561Y-69791353D02*
X135401657Y-69715162D01*
X135401657Y-69715162D02*
X135477847Y-69677067D01*
X135477847Y-69677067D02*
X135896895Y-69677067D01*
X122103104Y-69870550D02*
X122141200Y-69794360D01*
X122141200Y-69794360D02*
X122179295Y-69756265D01*
X122179295Y-69756265D02*
X122255485Y-69718169D01*
X122255485Y-69718169D02*
X122484057Y-69718169D01*
X122484057Y-69718169D02*
X122560247Y-69756265D01*
X122560247Y-69756265D02*
X122598342Y-69794360D01*
X122598342Y-69794360D02*
X122636438Y-69870550D01*
X122636438Y-69870550D02*
X122636438Y-69984836D01*
X122636438Y-69984836D02*
X122598342Y-70061027D01*
X122598342Y-70061027D02*
X122560247Y-70099122D01*
X122560247Y-70099122D02*
X122484057Y-70137217D01*
X122484057Y-70137217D02*
X122255485Y-70137217D01*
X122255485Y-70137217D02*
X122179295Y-70099122D01*
X122179295Y-70099122D02*
X122141200Y-70061027D01*
X122141200Y-70061027D02*
X122103104Y-69984836D01*
X122103104Y-69984836D02*
X122103104Y-69870550D01*
X122636438Y-70365789D02*
X122636438Y-70670551D01*
X122103104Y-70480075D02*
X122788819Y-70480075D01*
X122788819Y-70480075D02*
X122865009Y-70518170D01*
X122865009Y-70518170D02*
X122903104Y-70594360D01*
X122903104Y-70594360D02*
X122903104Y-70670551D01*
X122636438Y-70822932D02*
X122636438Y-71127694D01*
X122103104Y-70937218D02*
X122788819Y-70937218D01*
X122788819Y-70937218D02*
X122865009Y-70975313D01*
X122865009Y-70975313D02*
X122903104Y-71051503D01*
X122903104Y-71051503D02*
X122903104Y-71127694D01*
X114294247Y-67661027D02*
X114294247Y-68041979D01*
X113627580Y-67803884D02*
X114484723Y-67803884D01*
X114484723Y-67803884D02*
X114579961Y-67851503D01*
X114579961Y-67851503D02*
X114627580Y-67946741D01*
X114627580Y-67946741D02*
X114627580Y-68041979D01*
X113627580Y-68375313D02*
X114294247Y-68375313D01*
X114103771Y-68375313D02*
X114199009Y-68422932D01*
X114199009Y-68422932D02*
X114246628Y-68470551D01*
X114246628Y-68470551D02*
X114294247Y-68565789D01*
X114294247Y-68565789D02*
X114294247Y-68661027D01*
X113627580Y-69137218D02*
X113675200Y-69041980D01*
X113675200Y-69041980D02*
X113722819Y-68994361D01*
X113722819Y-68994361D02*
X113818057Y-68946742D01*
X113818057Y-68946742D02*
X114103771Y-68946742D01*
X114103771Y-68946742D02*
X114199009Y-68994361D01*
X114199009Y-68994361D02*
X114246628Y-69041980D01*
X114246628Y-69041980D02*
X114294247Y-69137218D01*
X114294247Y-69137218D02*
X114294247Y-69280075D01*
X114294247Y-69280075D02*
X114246628Y-69375313D01*
X114246628Y-69375313D02*
X114199009Y-69422932D01*
X114199009Y-69422932D02*
X114103771Y-69470551D01*
X114103771Y-69470551D02*
X113818057Y-69470551D01*
X113818057Y-69470551D02*
X113722819Y-69422932D01*
X113722819Y-69422932D02*
X113675200Y-69375313D01*
X113675200Y-69375313D02*
X113627580Y-69280075D01*
X113627580Y-69280075D02*
X113627580Y-69137218D01*
X113627580Y-69899123D02*
X114294247Y-69899123D01*
X114199009Y-69899123D02*
X114246628Y-69946742D01*
X114246628Y-69946742D02*
X114294247Y-70041980D01*
X114294247Y-70041980D02*
X114294247Y-70184837D01*
X114294247Y-70184837D02*
X114246628Y-70280075D01*
X114246628Y-70280075D02*
X114151390Y-70327694D01*
X114151390Y-70327694D02*
X113627580Y-70327694D01*
X114151390Y-70327694D02*
X114246628Y-70375313D01*
X114246628Y-70375313D02*
X114294247Y-70470551D01*
X114294247Y-70470551D02*
X114294247Y-70613408D01*
X114294247Y-70613408D02*
X114246628Y-70708647D01*
X114246628Y-70708647D02*
X114151390Y-70756266D01*
X114151390Y-70756266D02*
X113627580Y-70756266D01*
X113627580Y-71994361D02*
X114294247Y-71994361D01*
X114199009Y-71994361D02*
X114246628Y-72041980D01*
X114246628Y-72041980D02*
X114294247Y-72137218D01*
X114294247Y-72137218D02*
X114294247Y-72280075D01*
X114294247Y-72280075D02*
X114246628Y-72375313D01*
X114246628Y-72375313D02*
X114151390Y-72422932D01*
X114151390Y-72422932D02*
X113627580Y-72422932D01*
X114151390Y-72422932D02*
X114246628Y-72470551D01*
X114246628Y-72470551D02*
X114294247Y-72565789D01*
X114294247Y-72565789D02*
X114294247Y-72708646D01*
X114294247Y-72708646D02*
X114246628Y-72803885D01*
X114246628Y-72803885D02*
X114151390Y-72851504D01*
X114151390Y-72851504D02*
X113627580Y-72851504D01*
X113627580Y-73470551D02*
X113675200Y-73375313D01*
X113675200Y-73375313D02*
X113722819Y-73327694D01*
X113722819Y-73327694D02*
X113818057Y-73280075D01*
X113818057Y-73280075D02*
X114103771Y-73280075D01*
X114103771Y-73280075D02*
X114199009Y-73327694D01*
X114199009Y-73327694D02*
X114246628Y-73375313D01*
X114246628Y-73375313D02*
X114294247Y-73470551D01*
X114294247Y-73470551D02*
X114294247Y-73613408D01*
X114294247Y-73613408D02*
X114246628Y-73708646D01*
X114246628Y-73708646D02*
X114199009Y-73756265D01*
X114199009Y-73756265D02*
X114103771Y-73803884D01*
X114103771Y-73803884D02*
X113818057Y-73803884D01*
X113818057Y-73803884D02*
X113722819Y-73756265D01*
X113722819Y-73756265D02*
X113675200Y-73708646D01*
X113675200Y-73708646D02*
X113627580Y-73613408D01*
X113627580Y-73613408D02*
X113627580Y-73470551D01*
X114294247Y-74232456D02*
X113627580Y-74232456D01*
X114199009Y-74232456D02*
X114246628Y-74280075D01*
X114246628Y-74280075D02*
X114294247Y-74375313D01*
X114294247Y-74375313D02*
X114294247Y-74518170D01*
X114294247Y-74518170D02*
X114246628Y-74613408D01*
X114246628Y-74613408D02*
X114151390Y-74661027D01*
X114151390Y-74661027D02*
X113627580Y-74661027D01*
X114294247Y-74994361D02*
X114294247Y-75375313D01*
X114627580Y-75137218D02*
X113770438Y-75137218D01*
X113770438Y-75137218D02*
X113675200Y-75184837D01*
X113675200Y-75184837D02*
X113627580Y-75280075D01*
X113627580Y-75280075D02*
X113627580Y-75375313D01*
X114294247Y-75613409D02*
X113627580Y-75851504D01*
X114294247Y-76089599D02*
X113627580Y-75851504D01*
X113627580Y-75851504D02*
X113389485Y-75756266D01*
X113389485Y-75756266D02*
X113341866Y-75708647D01*
X113341866Y-75708647D02*
X113294247Y-75613409D01*
X114627580Y-77137219D02*
X113627580Y-77803885D01*
X114627580Y-77803885D02*
X113627580Y-77137219D01*
X114627580Y-78089600D02*
X114627580Y-78708647D01*
X114627580Y-78708647D02*
X114246628Y-78375314D01*
X114246628Y-78375314D02*
X114246628Y-78518171D01*
X114246628Y-78518171D02*
X114199009Y-78613409D01*
X114199009Y-78613409D02*
X114151390Y-78661028D01*
X114151390Y-78661028D02*
X114056152Y-78708647D01*
X114056152Y-78708647D02*
X113818057Y-78708647D01*
X113818057Y-78708647D02*
X113722819Y-78661028D01*
X113722819Y-78661028D02*
X113675200Y-78613409D01*
X113675200Y-78613409D02*
X113627580Y-78518171D01*
X113627580Y-78518171D02*
X113627580Y-78232457D01*
X113627580Y-78232457D02*
X113675200Y-78137219D01*
X113675200Y-78137219D02*
X113722819Y-78089600D01*
X115311228Y-122577068D02*
X113811228Y-122577068D01*
X115311228Y-121934211D02*
X114525514Y-121934211D01*
X114525514Y-121934211D02*
X114382657Y-122005639D01*
X114382657Y-122005639D02*
X114311228Y-122148496D01*
X114311228Y-122148496D02*
X114311228Y-122362782D01*
X114311228Y-122362782D02*
X114382657Y-122505639D01*
X114382657Y-122505639D02*
X114454085Y-122577068D01*
X115311228Y-120577068D02*
X114525514Y-120577068D01*
X114525514Y-120577068D02*
X114382657Y-120648496D01*
X114382657Y-120648496D02*
X114311228Y-120791353D01*
X114311228Y-120791353D02*
X114311228Y-121077068D01*
X114311228Y-121077068D02*
X114382657Y-121219925D01*
X115239800Y-120577068D02*
X115311228Y-120719925D01*
X115311228Y-120719925D02*
X115311228Y-121077068D01*
X115311228Y-121077068D02*
X115239800Y-121219925D01*
X115239800Y-121219925D02*
X115096942Y-121291353D01*
X115096942Y-121291353D02*
X114954085Y-121291353D01*
X114954085Y-121291353D02*
X114811228Y-121219925D01*
X114811228Y-121219925D02*
X114739800Y-121077068D01*
X114739800Y-121077068D02*
X114739800Y-120719925D01*
X114739800Y-120719925D02*
X114668371Y-120577068D01*
X114311228Y-119862782D02*
X115811228Y-119862782D01*
X114382657Y-119862782D02*
X114311228Y-119719925D01*
X114311228Y-119719925D02*
X114311228Y-119434210D01*
X114311228Y-119434210D02*
X114382657Y-119291353D01*
X114382657Y-119291353D02*
X114454085Y-119219925D01*
X114454085Y-119219925D02*
X114596942Y-119148496D01*
X114596942Y-119148496D02*
X115025514Y-119148496D01*
X115025514Y-119148496D02*
X115168371Y-119219925D01*
X115168371Y-119219925D02*
X115239800Y-119291353D01*
X115239800Y-119291353D02*
X115311228Y-119434210D01*
X115311228Y-119434210D02*
X115311228Y-119719925D01*
X115311228Y-119719925D02*
X115239800Y-119862782D01*
X114311228Y-118505639D02*
X115811228Y-118505639D01*
X114382657Y-118505639D02*
X114311228Y-118362782D01*
X114311228Y-118362782D02*
X114311228Y-118077067D01*
X114311228Y-118077067D02*
X114382657Y-117934210D01*
X114382657Y-117934210D02*
X114454085Y-117862782D01*
X114454085Y-117862782D02*
X114596942Y-117791353D01*
X114596942Y-117791353D02*
X115025514Y-117791353D01*
X115025514Y-117791353D02*
X115168371Y-117862782D01*
X115168371Y-117862782D02*
X115239800Y-117934210D01*
X115239800Y-117934210D02*
X115311228Y-118077067D01*
X115311228Y-118077067D02*
X115311228Y-118362782D01*
X115311228Y-118362782D02*
X115239800Y-118505639D01*
X114311228Y-117291353D02*
X115311228Y-116934210D01*
X114311228Y-116577067D02*
X115311228Y-116934210D01*
X115311228Y-116934210D02*
X115668371Y-117077067D01*
X115668371Y-117077067D02*
X115739800Y-117148496D01*
X115739800Y-117148496D02*
X115811228Y-117291353D01*
X115311228Y-114862782D02*
X113811228Y-114862782D01*
X114382657Y-114862782D02*
X114311228Y-114719925D01*
X114311228Y-114719925D02*
X114311228Y-114434210D01*
X114311228Y-114434210D02*
X114382657Y-114291353D01*
X114382657Y-114291353D02*
X114454085Y-114219925D01*
X114454085Y-114219925D02*
X114596942Y-114148496D01*
X114596942Y-114148496D02*
X115025514Y-114148496D01*
X115025514Y-114148496D02*
X115168371Y-114219925D01*
X115168371Y-114219925D02*
X115239800Y-114291353D01*
X115239800Y-114291353D02*
X115311228Y-114434210D01*
X115311228Y-114434210D02*
X115311228Y-114719925D01*
X115311228Y-114719925D02*
X115239800Y-114862782D01*
X115311228Y-113505639D02*
X114311228Y-113505639D01*
X113811228Y-113505639D02*
X113882657Y-113577067D01*
X113882657Y-113577067D02*
X113954085Y-113505639D01*
X113954085Y-113505639D02*
X113882657Y-113434210D01*
X113882657Y-113434210D02*
X113811228Y-113505639D01*
X113811228Y-113505639D02*
X113954085Y-113505639D01*
X115311228Y-112791353D02*
X114311228Y-112791353D01*
X114596942Y-112791353D02*
X114454085Y-112719924D01*
X114454085Y-112719924D02*
X114382657Y-112648496D01*
X114382657Y-112648496D02*
X114311228Y-112505638D01*
X114311228Y-112505638D02*
X114311228Y-112362781D01*
X114311228Y-112077067D02*
X114311228Y-111505639D01*
X113811228Y-111862782D02*
X115096942Y-111862782D01*
X115096942Y-111862782D02*
X115239800Y-111791353D01*
X115239800Y-111791353D02*
X115311228Y-111648496D01*
X115311228Y-111648496D02*
X115311228Y-111505639D01*
X115311228Y-111005639D02*
X113811228Y-111005639D01*
X115311228Y-110362782D02*
X114525514Y-110362782D01*
X114525514Y-110362782D02*
X114382657Y-110434210D01*
X114382657Y-110434210D02*
X114311228Y-110577067D01*
X114311228Y-110577067D02*
X114311228Y-110791353D01*
X114311228Y-110791353D02*
X114382657Y-110934210D01*
X114382657Y-110934210D02*
X114454085Y-111005639D01*
X115311228Y-109005639D02*
X113811228Y-109005639D01*
X115239800Y-109005639D02*
X115311228Y-109148496D01*
X115311228Y-109148496D02*
X115311228Y-109434210D01*
X115311228Y-109434210D02*
X115239800Y-109577067D01*
X115239800Y-109577067D02*
X115168371Y-109648496D01*
X115168371Y-109648496D02*
X115025514Y-109719924D01*
X115025514Y-109719924D02*
X114596942Y-109719924D01*
X114596942Y-109719924D02*
X114454085Y-109648496D01*
X114454085Y-109648496D02*
X114382657Y-109577067D01*
X114382657Y-109577067D02*
X114311228Y-109434210D01*
X114311228Y-109434210D02*
X114311228Y-109148496D01*
X114311228Y-109148496D02*
X114382657Y-109005639D01*
X115311228Y-107648496D02*
X114525514Y-107648496D01*
X114525514Y-107648496D02*
X114382657Y-107719924D01*
X114382657Y-107719924D02*
X114311228Y-107862781D01*
X114311228Y-107862781D02*
X114311228Y-108148496D01*
X114311228Y-108148496D02*
X114382657Y-108291353D01*
X115239800Y-107648496D02*
X115311228Y-107791353D01*
X115311228Y-107791353D02*
X115311228Y-108148496D01*
X115311228Y-108148496D02*
X115239800Y-108291353D01*
X115239800Y-108291353D02*
X115096942Y-108362781D01*
X115096942Y-108362781D02*
X114954085Y-108362781D01*
X114954085Y-108362781D02*
X114811228Y-108291353D01*
X114811228Y-108291353D02*
X114739800Y-108148496D01*
X114739800Y-108148496D02*
X114739800Y-107791353D01*
X114739800Y-107791353D02*
X114668371Y-107648496D01*
X114311228Y-107077067D02*
X115311228Y-106719924D01*
X114311228Y-106362781D02*
X115311228Y-106719924D01*
X115311228Y-106719924D02*
X115668371Y-106862781D01*
X115668371Y-106862781D02*
X115739800Y-106934210D01*
X115739800Y-106934210D02*
X115811228Y-107077067D01*
X114311228Y-104648496D02*
X115596942Y-104648496D01*
X115596942Y-104648496D02*
X115739800Y-104719924D01*
X115739800Y-104719924D02*
X115811228Y-104862781D01*
X115811228Y-104862781D02*
X115811228Y-104934210D01*
X113811228Y-104648496D02*
X113882657Y-104719924D01*
X113882657Y-104719924D02*
X113954085Y-104648496D01*
X113954085Y-104648496D02*
X113882657Y-104577067D01*
X113882657Y-104577067D02*
X113811228Y-104648496D01*
X113811228Y-104648496D02*
X113954085Y-104648496D01*
X115311228Y-103291353D02*
X114525514Y-103291353D01*
X114525514Y-103291353D02*
X114382657Y-103362781D01*
X114382657Y-103362781D02*
X114311228Y-103505638D01*
X114311228Y-103505638D02*
X114311228Y-103791353D01*
X114311228Y-103791353D02*
X114382657Y-103934210D01*
X115239800Y-103291353D02*
X115311228Y-103434210D01*
X115311228Y-103434210D02*
X115311228Y-103791353D01*
X115311228Y-103791353D02*
X115239800Y-103934210D01*
X115239800Y-103934210D02*
X115096942Y-104005638D01*
X115096942Y-104005638D02*
X114954085Y-104005638D01*
X114954085Y-104005638D02*
X114811228Y-103934210D01*
X114811228Y-103934210D02*
X114739800Y-103791353D01*
X114739800Y-103791353D02*
X114739800Y-103434210D01*
X114739800Y-103434210D02*
X114668371Y-103291353D01*
X115311228Y-102577067D02*
X113811228Y-102577067D01*
X114739800Y-102434210D02*
X115311228Y-102005638D01*
X114311228Y-102005638D02*
X114882657Y-102577067D01*
X115239800Y-100791352D02*
X115311228Y-100934209D01*
X115311228Y-100934209D02*
X115311228Y-101219924D01*
X115311228Y-101219924D02*
X115239800Y-101362781D01*
X115239800Y-101362781D02*
X115096942Y-101434209D01*
X115096942Y-101434209D02*
X114525514Y-101434209D01*
X114525514Y-101434209D02*
X114382657Y-101362781D01*
X114382657Y-101362781D02*
X114311228Y-101219924D01*
X114311228Y-101219924D02*
X114311228Y-100934209D01*
X114311228Y-100934209D02*
X114382657Y-100791352D01*
X114382657Y-100791352D02*
X114525514Y-100719924D01*
X114525514Y-100719924D02*
X114668371Y-100719924D01*
X114668371Y-100719924D02*
X114811228Y-101434209D01*
X115168371Y-100077067D02*
X115239800Y-100005638D01*
X115239800Y-100005638D02*
X115311228Y-100077067D01*
X115311228Y-100077067D02*
X115239800Y-100148495D01*
X115239800Y-100148495D02*
X115168371Y-100077067D01*
X115168371Y-100077067D02*
X115311228Y-100077067D01*
X114739800Y-100077067D02*
X113882657Y-100148495D01*
X113882657Y-100148495D02*
X113811228Y-100077067D01*
X113811228Y-100077067D02*
X113882657Y-100005638D01*
X113882657Y-100005638D02*
X114739800Y-100077067D01*
X114739800Y-100077067D02*
X113811228Y-100077067D01*
X115168371Y-99362781D02*
X115239800Y-99291352D01*
X115239800Y-99291352D02*
X115311228Y-99362781D01*
X115311228Y-99362781D02*
X115239800Y-99434209D01*
X115239800Y-99434209D02*
X115168371Y-99362781D01*
X115168371Y-99362781D02*
X115311228Y-99362781D01*
X114739800Y-99362781D02*
X113882657Y-99434209D01*
X113882657Y-99434209D02*
X113811228Y-99362781D01*
X113811228Y-99362781D02*
X113882657Y-99291352D01*
X113882657Y-99291352D02*
X114739800Y-99362781D01*
X114739800Y-99362781D02*
X113811228Y-99362781D01*
D11*
X140483333Y-113004819D02*
X140150000Y-112528628D01*
X139911905Y-113004819D02*
X139911905Y-112004819D01*
X139911905Y-112004819D02*
X140292857Y-112004819D01*
X140292857Y-112004819D02*
X140388095Y-112052438D01*
X140388095Y-112052438D02*
X140435714Y-112100057D01*
X140435714Y-112100057D02*
X140483333Y-112195295D01*
X140483333Y-112195295D02*
X140483333Y-112338152D01*
X140483333Y-112338152D02*
X140435714Y-112433390D01*
X140435714Y-112433390D02*
X140388095Y-112481009D01*
X140388095Y-112481009D02*
X140292857Y-112528628D01*
X140292857Y-112528628D02*
X139911905Y-112528628D01*
X140864286Y-112100057D02*
X140911905Y-112052438D01*
X140911905Y-112052438D02*
X141007143Y-112004819D01*
X141007143Y-112004819D02*
X141245238Y-112004819D01*
X141245238Y-112004819D02*
X141340476Y-112052438D01*
X141340476Y-112052438D02*
X141388095Y-112100057D01*
X141388095Y-112100057D02*
X141435714Y-112195295D01*
X141435714Y-112195295D02*
X141435714Y-112290533D01*
X141435714Y-112290533D02*
X141388095Y-112433390D01*
X141388095Y-112433390D02*
X140816667Y-113004819D01*
X140816667Y-113004819D02*
X141435714Y-113004819D01*
X129806667Y-67557200D02*
X129949524Y-67604819D01*
X129949524Y-67604819D02*
X130187619Y-67604819D01*
X130187619Y-67604819D02*
X130282857Y-67557200D01*
X130282857Y-67557200D02*
X130330476Y-67509580D01*
X130330476Y-67509580D02*
X130378095Y-67414342D01*
X130378095Y-67414342D02*
X130378095Y-67319104D01*
X130378095Y-67319104D02*
X130330476Y-67223866D01*
X130330476Y-67223866D02*
X130282857Y-67176247D01*
X130282857Y-67176247D02*
X130187619Y-67128628D01*
X130187619Y-67128628D02*
X129997143Y-67081009D01*
X129997143Y-67081009D02*
X129901905Y-67033390D01*
X129901905Y-67033390D02*
X129854286Y-66985771D01*
X129854286Y-66985771D02*
X129806667Y-66890533D01*
X129806667Y-66890533D02*
X129806667Y-66795295D01*
X129806667Y-66795295D02*
X129854286Y-66700057D01*
X129854286Y-66700057D02*
X129901905Y-66652438D01*
X129901905Y-66652438D02*
X129997143Y-66604819D01*
X129997143Y-66604819D02*
X130235238Y-66604819D01*
X130235238Y-66604819D02*
X130378095Y-66652438D01*
X130711429Y-66604819D02*
X130949524Y-67604819D01*
X130949524Y-67604819D02*
X131140000Y-66890533D01*
X131140000Y-66890533D02*
X131330476Y-67604819D01*
X131330476Y-67604819D02*
X131568572Y-66604819D01*
X132473333Y-67604819D02*
X131901905Y-67604819D01*
X132187619Y-67604819D02*
X132187619Y-66604819D01*
X132187619Y-66604819D02*
X132092381Y-66747676D01*
X132092381Y-66747676D02*
X131997143Y-66842914D01*
X131997143Y-66842914D02*
X131901905Y-66890533D01*
D10*
X185238095Y-120957419D02*
X185238095Y-121766942D01*
X185238095Y-121766942D02*
X185285714Y-121862180D01*
X185285714Y-121862180D02*
X185333333Y-121909800D01*
X185333333Y-121909800D02*
X185428571Y-121957419D01*
X185428571Y-121957419D02*
X185619047Y-121957419D01*
X185619047Y-121957419D02*
X185714285Y-121909800D01*
X185714285Y-121909800D02*
X185761904Y-121862180D01*
X185761904Y-121862180D02*
X185809523Y-121766942D01*
X185809523Y-121766942D02*
X185809523Y-120957419D01*
X186809523Y-121957419D02*
X186238095Y-121957419D01*
X186523809Y-121957419D02*
X186523809Y-120957419D01*
X186523809Y-120957419D02*
X186428571Y-121100276D01*
X186428571Y-121100276D02*
X186333333Y-121195514D01*
X186333333Y-121195514D02*
X186238095Y-121243133D01*
X180892466Y-107010877D02*
X180859133Y-107077544D01*
X180859133Y-107077544D02*
X180859133Y-107177544D01*
X180859133Y-107177544D02*
X180892466Y-107277544D01*
X180892466Y-107277544D02*
X180959133Y-107344211D01*
X180959133Y-107344211D02*
X181025800Y-107377544D01*
X181025800Y-107377544D02*
X181159133Y-107410877D01*
X181159133Y-107410877D02*
X181259133Y-107410877D01*
X181259133Y-107410877D02*
X181392466Y-107377544D01*
X181392466Y-107377544D02*
X181459133Y-107344211D01*
X181459133Y-107344211D02*
X181525800Y-107277544D01*
X181525800Y-107277544D02*
X181559133Y-107177544D01*
X181559133Y-107177544D02*
X181559133Y-107110877D01*
X181559133Y-107110877D02*
X181525800Y-107010877D01*
X181525800Y-107010877D02*
X181492466Y-106977544D01*
X181492466Y-106977544D02*
X181259133Y-106977544D01*
X181259133Y-106977544D02*
X181259133Y-107110877D01*
X180879133Y-97489544D02*
X180879133Y-97089544D01*
X181579133Y-97289544D02*
X180879133Y-97289544D01*
X181512466Y-96456211D02*
X181545800Y-96489544D01*
X181545800Y-96489544D02*
X181579133Y-96589544D01*
X181579133Y-96589544D02*
X181579133Y-96656211D01*
X181579133Y-96656211D02*
X181545800Y-96756211D01*
X181545800Y-96756211D02*
X181479133Y-96822878D01*
X181479133Y-96822878D02*
X181412466Y-96856211D01*
X181412466Y-96856211D02*
X181279133Y-96889544D01*
X181279133Y-96889544D02*
X181179133Y-96889544D01*
X181179133Y-96889544D02*
X181045800Y-96856211D01*
X181045800Y-96856211D02*
X180979133Y-96822878D01*
X180979133Y-96822878D02*
X180912466Y-96756211D01*
X180912466Y-96756211D02*
X180879133Y-96656211D01*
X180879133Y-96656211D02*
X180879133Y-96589544D01*
X180879133Y-96589544D02*
X180912466Y-96489544D01*
X180912466Y-96489544D02*
X180945800Y-96456211D01*
X180684800Y-97486211D02*
X180684800Y-96392878D01*
X180899133Y-84889544D02*
X180899133Y-84489544D01*
X181599133Y-84689544D02*
X180899133Y-84689544D01*
X181232466Y-84256211D02*
X181232466Y-84022878D01*
X181599133Y-83922878D02*
X181599133Y-84256211D01*
X181599133Y-84256211D02*
X180899133Y-84256211D01*
X180899133Y-84256211D02*
X180899133Y-83922878D01*
X181232466Y-87156211D02*
X181265800Y-87056211D01*
X181265800Y-87056211D02*
X181299133Y-87022877D01*
X181299133Y-87022877D02*
X181365800Y-86989544D01*
X181365800Y-86989544D02*
X181465800Y-86989544D01*
X181465800Y-86989544D02*
X181532466Y-87022877D01*
X181532466Y-87022877D02*
X181565800Y-87056211D01*
X181565800Y-87056211D02*
X181599133Y-87122877D01*
X181599133Y-87122877D02*
X181599133Y-87389544D01*
X181599133Y-87389544D02*
X180899133Y-87389544D01*
X180899133Y-87389544D02*
X180899133Y-87156211D01*
X180899133Y-87156211D02*
X180932466Y-87089544D01*
X180932466Y-87089544D02*
X180965800Y-87056211D01*
X180965800Y-87056211D02*
X181032466Y-87022877D01*
X181032466Y-87022877D02*
X181099133Y-87022877D01*
X181099133Y-87022877D02*
X181165800Y-87056211D01*
X181165800Y-87056211D02*
X181199133Y-87089544D01*
X181199133Y-87089544D02*
X181232466Y-87156211D01*
X181232466Y-87156211D02*
X181232466Y-87389544D01*
X181599133Y-86356211D02*
X181599133Y-86689544D01*
X181599133Y-86689544D02*
X180899133Y-86689544D01*
X181532466Y-89589544D02*
X181565800Y-89622877D01*
X181565800Y-89622877D02*
X181599133Y-89722877D01*
X181599133Y-89722877D02*
X181599133Y-89789544D01*
X181599133Y-89789544D02*
X181565800Y-89889544D01*
X181565800Y-89889544D02*
X181499133Y-89956211D01*
X181499133Y-89956211D02*
X181432466Y-89989544D01*
X181432466Y-89989544D02*
X181299133Y-90022877D01*
X181299133Y-90022877D02*
X181199133Y-90022877D01*
X181199133Y-90022877D02*
X181065800Y-89989544D01*
X181065800Y-89989544D02*
X180999133Y-89956211D01*
X180999133Y-89956211D02*
X180932466Y-89889544D01*
X180932466Y-89889544D02*
X180899133Y-89789544D01*
X180899133Y-89789544D02*
X180899133Y-89722877D01*
X180899133Y-89722877D02*
X180932466Y-89622877D01*
X180932466Y-89622877D02*
X180965800Y-89589544D01*
X181532466Y-88889544D02*
X181565800Y-88922877D01*
X181565800Y-88922877D02*
X181599133Y-89022877D01*
X181599133Y-89022877D02*
X181599133Y-89089544D01*
X181599133Y-89089544D02*
X181565800Y-89189544D01*
X181565800Y-89189544D02*
X181499133Y-89256211D01*
X181499133Y-89256211D02*
X181432466Y-89289544D01*
X181432466Y-89289544D02*
X181299133Y-89322877D01*
X181299133Y-89322877D02*
X181199133Y-89322877D01*
X181199133Y-89322877D02*
X181065800Y-89289544D01*
X181065800Y-89289544D02*
X180999133Y-89256211D01*
X180999133Y-89256211D02*
X180932466Y-89189544D01*
X180932466Y-89189544D02*
X180899133Y-89089544D01*
X180899133Y-89089544D02*
X180899133Y-89022877D01*
X180899133Y-89022877D02*
X180932466Y-88922877D01*
X180932466Y-88922877D02*
X180965800Y-88889544D01*
X180704800Y-90086211D02*
X180704800Y-88826211D01*
X181599133Y-92389544D02*
X180899133Y-92389544D01*
X180899133Y-92389544D02*
X180899133Y-92222877D01*
X180899133Y-92222877D02*
X180932466Y-92122877D01*
X180932466Y-92122877D02*
X180999133Y-92056211D01*
X180999133Y-92056211D02*
X181065800Y-92022877D01*
X181065800Y-92022877D02*
X181199133Y-91989544D01*
X181199133Y-91989544D02*
X181299133Y-91989544D01*
X181299133Y-91989544D02*
X181432466Y-92022877D01*
X181432466Y-92022877D02*
X181499133Y-92056211D01*
X181499133Y-92056211D02*
X181565800Y-92122877D01*
X181565800Y-92122877D02*
X181599133Y-92222877D01*
X181599133Y-92222877D02*
X181599133Y-92389544D01*
X181532466Y-91289544D02*
X181565800Y-91322877D01*
X181565800Y-91322877D02*
X181599133Y-91422877D01*
X181599133Y-91422877D02*
X181599133Y-91489544D01*
X181599133Y-91489544D02*
X181565800Y-91589544D01*
X181565800Y-91589544D02*
X181499133Y-91656211D01*
X181499133Y-91656211D02*
X181432466Y-91689544D01*
X181432466Y-91689544D02*
X181299133Y-91722877D01*
X181299133Y-91722877D02*
X181199133Y-91722877D01*
X181199133Y-91722877D02*
X181065800Y-91689544D01*
X181065800Y-91689544D02*
X180999133Y-91656211D01*
X180999133Y-91656211D02*
X180932466Y-91589544D01*
X180932466Y-91589544D02*
X180899133Y-91489544D01*
X180899133Y-91489544D02*
X180899133Y-91422877D01*
X180899133Y-91422877D02*
X180932466Y-91322877D01*
X180932466Y-91322877D02*
X180965800Y-91289544D01*
X181599133Y-94389544D02*
X181265800Y-94622877D01*
X181599133Y-94789544D02*
X180899133Y-94789544D01*
X180899133Y-94789544D02*
X180899133Y-94522877D01*
X180899133Y-94522877D02*
X180932466Y-94456211D01*
X180932466Y-94456211D02*
X180965800Y-94422877D01*
X180965800Y-94422877D02*
X181032466Y-94389544D01*
X181032466Y-94389544D02*
X181132466Y-94389544D01*
X181132466Y-94389544D02*
X181199133Y-94422877D01*
X181199133Y-94422877D02*
X181232466Y-94456211D01*
X181232466Y-94456211D02*
X181265800Y-94522877D01*
X181265800Y-94522877D02*
X181265800Y-94789544D01*
X180899133Y-94189544D02*
X180899133Y-93789544D01*
X181599133Y-93989544D02*
X180899133Y-93989544D01*
X180704800Y-94886211D02*
X180704800Y-93792878D01*
X181565800Y-100022877D02*
X181599133Y-99922877D01*
X181599133Y-99922877D02*
X181599133Y-99756211D01*
X181599133Y-99756211D02*
X181565800Y-99689544D01*
X181565800Y-99689544D02*
X181532466Y-99656211D01*
X181532466Y-99656211D02*
X181465800Y-99622877D01*
X181465800Y-99622877D02*
X181399133Y-99622877D01*
X181399133Y-99622877D02*
X181332466Y-99656211D01*
X181332466Y-99656211D02*
X181299133Y-99689544D01*
X181299133Y-99689544D02*
X181265800Y-99756211D01*
X181265800Y-99756211D02*
X181232466Y-99889544D01*
X181232466Y-99889544D02*
X181199133Y-99956211D01*
X181199133Y-99956211D02*
X181165800Y-99989544D01*
X181165800Y-99989544D02*
X181099133Y-100022877D01*
X181099133Y-100022877D02*
X181032466Y-100022877D01*
X181032466Y-100022877D02*
X180965800Y-99989544D01*
X180965800Y-99989544D02*
X180932466Y-99956211D01*
X180932466Y-99956211D02*
X180899133Y-99889544D01*
X180899133Y-99889544D02*
X180899133Y-99722877D01*
X180899133Y-99722877D02*
X180932466Y-99622877D01*
X181599133Y-99322877D02*
X180899133Y-99322877D01*
X181565800Y-102622877D02*
X181599133Y-102522877D01*
X181599133Y-102522877D02*
X181599133Y-102356211D01*
X181599133Y-102356211D02*
X181565800Y-102289544D01*
X181565800Y-102289544D02*
X181532466Y-102256211D01*
X181532466Y-102256211D02*
X181465800Y-102222877D01*
X181465800Y-102222877D02*
X181399133Y-102222877D01*
X181399133Y-102222877D02*
X181332466Y-102256211D01*
X181332466Y-102256211D02*
X181299133Y-102289544D01*
X181299133Y-102289544D02*
X181265800Y-102356211D01*
X181265800Y-102356211D02*
X181232466Y-102489544D01*
X181232466Y-102489544D02*
X181199133Y-102556211D01*
X181199133Y-102556211D02*
X181165800Y-102589544D01*
X181165800Y-102589544D02*
X181099133Y-102622877D01*
X181099133Y-102622877D02*
X181032466Y-102622877D01*
X181032466Y-102622877D02*
X180965800Y-102589544D01*
X180965800Y-102589544D02*
X180932466Y-102556211D01*
X180932466Y-102556211D02*
X180899133Y-102489544D01*
X180899133Y-102489544D02*
X180899133Y-102322877D01*
X180899133Y-102322877D02*
X180932466Y-102222877D01*
X180899133Y-101789544D02*
X180899133Y-101656210D01*
X180899133Y-101656210D02*
X180932466Y-101589544D01*
X180932466Y-101589544D02*
X180999133Y-101522877D01*
X180999133Y-101522877D02*
X181132466Y-101489544D01*
X181132466Y-101489544D02*
X181365800Y-101489544D01*
X181365800Y-101489544D02*
X181499133Y-101522877D01*
X181499133Y-101522877D02*
X181565800Y-101589544D01*
X181565800Y-101589544D02*
X181599133Y-101656210D01*
X181599133Y-101656210D02*
X181599133Y-101789544D01*
X181599133Y-101789544D02*
X181565800Y-101856210D01*
X181565800Y-101856210D02*
X181499133Y-101922877D01*
X181499133Y-101922877D02*
X181365800Y-101956210D01*
X181365800Y-101956210D02*
X181132466Y-101956210D01*
X181132466Y-101956210D02*
X180999133Y-101922877D01*
X180999133Y-101922877D02*
X180932466Y-101856210D01*
X180932466Y-101856210D02*
X180899133Y-101789544D01*
X181532466Y-104789544D02*
X181565800Y-104822877D01*
X181565800Y-104822877D02*
X181599133Y-104922877D01*
X181599133Y-104922877D02*
X181599133Y-104989544D01*
X181599133Y-104989544D02*
X181565800Y-105089544D01*
X181565800Y-105089544D02*
X181499133Y-105156211D01*
X181499133Y-105156211D02*
X181432466Y-105189544D01*
X181432466Y-105189544D02*
X181299133Y-105222877D01*
X181299133Y-105222877D02*
X181199133Y-105222877D01*
X181199133Y-105222877D02*
X181065800Y-105189544D01*
X181065800Y-105189544D02*
X180999133Y-105156211D01*
X180999133Y-105156211D02*
X180932466Y-105089544D01*
X180932466Y-105089544D02*
X180899133Y-104989544D01*
X180899133Y-104989544D02*
X180899133Y-104922877D01*
X180899133Y-104922877D02*
X180932466Y-104822877D01*
X180932466Y-104822877D02*
X180965800Y-104789544D01*
X181599133Y-104489544D02*
X180899133Y-104489544D01*
X181599133Y-104089544D02*
X181199133Y-104389544D01*
X180899133Y-104089544D02*
X181299133Y-104489544D01*
X180899133Y-110274211D02*
X180899133Y-109840877D01*
X180899133Y-109840877D02*
X181165800Y-110074211D01*
X181165800Y-110074211D02*
X181165800Y-109974211D01*
X181165800Y-109974211D02*
X181199133Y-109907544D01*
X181199133Y-109907544D02*
X181232466Y-109874211D01*
X181232466Y-109874211D02*
X181299133Y-109840877D01*
X181299133Y-109840877D02*
X181465800Y-109840877D01*
X181465800Y-109840877D02*
X181532466Y-109874211D01*
X181532466Y-109874211D02*
X181565800Y-109907544D01*
X181565800Y-109907544D02*
X181599133Y-109974211D01*
X181599133Y-109974211D02*
X181599133Y-110174211D01*
X181599133Y-110174211D02*
X181565800Y-110240877D01*
X181565800Y-110240877D02*
X181532466Y-110274211D01*
X180899133Y-109640877D02*
X181599133Y-109407544D01*
X181599133Y-109407544D02*
X180899133Y-109174210D01*
X180899133Y-112907544D02*
X181599133Y-112674211D01*
X181599133Y-112674211D02*
X180899133Y-112440877D01*
X181332466Y-112207544D02*
X181332466Y-111674211D01*
X181599133Y-111940877D02*
X181065800Y-111940877D01*
X138107419Y-121411904D02*
X138916942Y-121411904D01*
X138916942Y-121411904D02*
X139012180Y-121364285D01*
X139012180Y-121364285D02*
X139059800Y-121316666D01*
X139059800Y-121316666D02*
X139107419Y-121221428D01*
X139107419Y-121221428D02*
X139107419Y-121030952D01*
X139107419Y-121030952D02*
X139059800Y-120935714D01*
X139059800Y-120935714D02*
X139012180Y-120888095D01*
X139012180Y-120888095D02*
X138916942Y-120840476D01*
X138916942Y-120840476D02*
X138107419Y-120840476D01*
X138202657Y-120411904D02*
X138155038Y-120364285D01*
X138155038Y-120364285D02*
X138107419Y-120269047D01*
X138107419Y-120269047D02*
X138107419Y-120030952D01*
X138107419Y-120030952D02*
X138155038Y-119935714D01*
X138155038Y-119935714D02*
X138202657Y-119888095D01*
X138202657Y-119888095D02*
X138297895Y-119840476D01*
X138297895Y-119840476D02*
X138393133Y-119840476D01*
X138393133Y-119840476D02*
X138535990Y-119888095D01*
X138535990Y-119888095D02*
X139107419Y-120459523D01*
X139107419Y-120459523D02*
X139107419Y-119840476D01*
X120142133Y-112793734D02*
X120142133Y-112184211D01*
X120142133Y-116593734D02*
X120142133Y-115984211D01*
X120446895Y-116288972D02*
X119837371Y-116288972D01*
X132946895Y-107708020D02*
X133746895Y-107441353D01*
X133746895Y-107441353D02*
X132946895Y-107174687D01*
X133746895Y-106908020D02*
X133213561Y-106908020D01*
X132946895Y-106908020D02*
X132984990Y-106946116D01*
X132984990Y-106946116D02*
X133023085Y-106908020D01*
X133023085Y-106908020D02*
X132984990Y-106869925D01*
X132984990Y-106869925D02*
X132946895Y-106908020D01*
X132946895Y-106908020D02*
X133023085Y-106908020D01*
X133213561Y-106527068D02*
X133746895Y-106527068D01*
X133289752Y-106527068D02*
X133251657Y-106488973D01*
X133251657Y-106488973D02*
X133213561Y-106412783D01*
X133213561Y-106412783D02*
X133213561Y-106298497D01*
X133213561Y-106298497D02*
X133251657Y-106222306D01*
X133251657Y-106222306D02*
X133327847Y-106184211D01*
X133327847Y-106184211D02*
X133746895Y-106184211D01*
X133708800Y-112431830D02*
X133746895Y-112317544D01*
X133746895Y-112317544D02*
X133746895Y-112127068D01*
X133746895Y-112127068D02*
X133708800Y-112050877D01*
X133708800Y-112050877D02*
X133670704Y-112012782D01*
X133670704Y-112012782D02*
X133594514Y-111974687D01*
X133594514Y-111974687D02*
X133518323Y-111974687D01*
X133518323Y-111974687D02*
X133442133Y-112012782D01*
X133442133Y-112012782D02*
X133404038Y-112050877D01*
X133404038Y-112050877D02*
X133365942Y-112127068D01*
X133365942Y-112127068D02*
X133327847Y-112279449D01*
X133327847Y-112279449D02*
X133289752Y-112355639D01*
X133289752Y-112355639D02*
X133251657Y-112393734D01*
X133251657Y-112393734D02*
X133175466Y-112431830D01*
X133175466Y-112431830D02*
X133099276Y-112431830D01*
X133099276Y-112431830D02*
X133023085Y-112393734D01*
X133023085Y-112393734D02*
X132984990Y-112355639D01*
X132984990Y-112355639D02*
X132946895Y-112279449D01*
X132946895Y-112279449D02*
X132946895Y-112088972D01*
X132946895Y-112088972D02*
X132984990Y-111974687D01*
X133746895Y-111631829D02*
X132946895Y-111631829D01*
X132946895Y-111631829D02*
X132946895Y-111441353D01*
X132946895Y-111441353D02*
X132984990Y-111327067D01*
X132984990Y-111327067D02*
X133061180Y-111250877D01*
X133061180Y-111250877D02*
X133137371Y-111212782D01*
X133137371Y-111212782D02*
X133289752Y-111174686D01*
X133289752Y-111174686D02*
X133404038Y-111174686D01*
X133404038Y-111174686D02*
X133556419Y-111212782D01*
X133556419Y-111212782D02*
X133632609Y-111250877D01*
X133632609Y-111250877D02*
X133708800Y-111327067D01*
X133708800Y-111327067D02*
X133746895Y-111441353D01*
X133746895Y-111441353D02*
X133746895Y-111631829D01*
X133746895Y-122612782D02*
X133746895Y-122993734D01*
X133746895Y-122993734D02*
X132946895Y-122993734D01*
X133746895Y-121888972D02*
X133365942Y-122155639D01*
X133746895Y-122346115D02*
X132946895Y-122346115D01*
X132946895Y-122346115D02*
X132946895Y-122041353D01*
X132946895Y-122041353D02*
X132984990Y-121965163D01*
X132984990Y-121965163D02*
X133023085Y-121927068D01*
X133023085Y-121927068D02*
X133099276Y-121888972D01*
X133099276Y-121888972D02*
X133213561Y-121888972D01*
X133213561Y-121888972D02*
X133289752Y-121927068D01*
X133289752Y-121927068D02*
X133327847Y-121965163D01*
X133327847Y-121965163D02*
X133365942Y-122041353D01*
X133365942Y-122041353D02*
X133365942Y-122346115D01*
X133670704Y-121088972D02*
X133708800Y-121127068D01*
X133708800Y-121127068D02*
X133746895Y-121241353D01*
X133746895Y-121241353D02*
X133746895Y-121317544D01*
X133746895Y-121317544D02*
X133708800Y-121431830D01*
X133708800Y-121431830D02*
X133632609Y-121508020D01*
X133632609Y-121508020D02*
X133556419Y-121546115D01*
X133556419Y-121546115D02*
X133404038Y-121584211D01*
X133404038Y-121584211D02*
X133289752Y-121584211D01*
X133289752Y-121584211D02*
X133137371Y-121546115D01*
X133137371Y-121546115D02*
X133061180Y-121508020D01*
X133061180Y-121508020D02*
X132984990Y-121431830D01*
X132984990Y-121431830D02*
X132946895Y-121317544D01*
X132946895Y-121317544D02*
X132946895Y-121241353D01*
X132946895Y-121241353D02*
X132984990Y-121127068D01*
X132984990Y-121127068D02*
X133023085Y-121088972D01*
X133946895Y-117793734D02*
X133146895Y-117793734D01*
X133146895Y-117793734D02*
X133146895Y-117603258D01*
X133146895Y-117603258D02*
X133184990Y-117488972D01*
X133184990Y-117488972D02*
X133261180Y-117412782D01*
X133261180Y-117412782D02*
X133337371Y-117374687D01*
X133337371Y-117374687D02*
X133489752Y-117336591D01*
X133489752Y-117336591D02*
X133604038Y-117336591D01*
X133604038Y-117336591D02*
X133756419Y-117374687D01*
X133756419Y-117374687D02*
X133832609Y-117412782D01*
X133832609Y-117412782D02*
X133908800Y-117488972D01*
X133908800Y-117488972D02*
X133946895Y-117603258D01*
X133946895Y-117603258D02*
X133946895Y-117793734D01*
X133946895Y-116993734D02*
X133146895Y-116993734D01*
X133946895Y-116612782D02*
X133146895Y-116612782D01*
X133146895Y-116612782D02*
X133946895Y-116155639D01*
X133946895Y-116155639D02*
X133146895Y-116155639D01*
X136384990Y-109974687D02*
X136346895Y-110050877D01*
X136346895Y-110050877D02*
X136346895Y-110165163D01*
X136346895Y-110165163D02*
X136384990Y-110279449D01*
X136384990Y-110279449D02*
X136461180Y-110355639D01*
X136461180Y-110355639D02*
X136537371Y-110393734D01*
X136537371Y-110393734D02*
X136689752Y-110431830D01*
X136689752Y-110431830D02*
X136804038Y-110431830D01*
X136804038Y-110431830D02*
X136956419Y-110393734D01*
X136956419Y-110393734D02*
X137032609Y-110355639D01*
X137032609Y-110355639D02*
X137108800Y-110279449D01*
X137108800Y-110279449D02*
X137146895Y-110165163D01*
X137146895Y-110165163D02*
X137146895Y-110088972D01*
X137146895Y-110088972D02*
X137108800Y-109974687D01*
X137108800Y-109974687D02*
X137070704Y-109936591D01*
X137070704Y-109936591D02*
X136804038Y-109936591D01*
X136804038Y-109936591D02*
X136804038Y-110088972D01*
X137146895Y-109593734D02*
X136346895Y-109593734D01*
X136346895Y-109593734D02*
X137146895Y-109136591D01*
X137146895Y-109136591D02*
X136346895Y-109136591D01*
X137146895Y-108755639D02*
X136346895Y-108755639D01*
X136346895Y-108755639D02*
X136346895Y-108565163D01*
X136346895Y-108565163D02*
X136384990Y-108450877D01*
X136384990Y-108450877D02*
X136461180Y-108374687D01*
X136461180Y-108374687D02*
X136537371Y-108336592D01*
X136537371Y-108336592D02*
X136689752Y-108298496D01*
X136689752Y-108298496D02*
X136804038Y-108298496D01*
X136804038Y-108298496D02*
X136956419Y-108336592D01*
X136956419Y-108336592D02*
X137032609Y-108374687D01*
X137032609Y-108374687D02*
X137108800Y-108450877D01*
X137108800Y-108450877D02*
X137146895Y-108565163D01*
X137146895Y-108565163D02*
X137146895Y-108755639D01*
X136384990Y-115174687D02*
X136346895Y-115250877D01*
X136346895Y-115250877D02*
X136346895Y-115365163D01*
X136346895Y-115365163D02*
X136384990Y-115479449D01*
X136384990Y-115479449D02*
X136461180Y-115555639D01*
X136461180Y-115555639D02*
X136537371Y-115593734D01*
X136537371Y-115593734D02*
X136689752Y-115631830D01*
X136689752Y-115631830D02*
X136804038Y-115631830D01*
X136804038Y-115631830D02*
X136956419Y-115593734D01*
X136956419Y-115593734D02*
X137032609Y-115555639D01*
X137032609Y-115555639D02*
X137108800Y-115479449D01*
X137108800Y-115479449D02*
X137146895Y-115365163D01*
X137146895Y-115365163D02*
X137146895Y-115288972D01*
X137146895Y-115288972D02*
X137108800Y-115174687D01*
X137108800Y-115174687D02*
X137070704Y-115136591D01*
X137070704Y-115136591D02*
X136804038Y-115136591D01*
X136804038Y-115136591D02*
X136804038Y-115288972D01*
X136918323Y-114831830D02*
X136918323Y-114450877D01*
X137146895Y-114908020D02*
X136346895Y-114641353D01*
X136346895Y-114641353D02*
X137146895Y-114374687D01*
X137146895Y-114108020D02*
X136346895Y-114108020D01*
X137146895Y-113727068D02*
X136346895Y-113727068D01*
X136346895Y-113727068D02*
X137146895Y-113269925D01*
X137146895Y-113269925D02*
X136346895Y-113269925D01*
X136727847Y-120527068D02*
X136765942Y-120412782D01*
X136765942Y-120412782D02*
X136804038Y-120374687D01*
X136804038Y-120374687D02*
X136880228Y-120336591D01*
X136880228Y-120336591D02*
X136994514Y-120336591D01*
X136994514Y-120336591D02*
X137070704Y-120374687D01*
X137070704Y-120374687D02*
X137108800Y-120412782D01*
X137108800Y-120412782D02*
X137146895Y-120488972D01*
X137146895Y-120488972D02*
X137146895Y-120793734D01*
X137146895Y-120793734D02*
X136346895Y-120793734D01*
X136346895Y-120793734D02*
X136346895Y-120527068D01*
X136346895Y-120527068D02*
X136384990Y-120450877D01*
X136384990Y-120450877D02*
X136423085Y-120412782D01*
X136423085Y-120412782D02*
X136499276Y-120374687D01*
X136499276Y-120374687D02*
X136575466Y-120374687D01*
X136575466Y-120374687D02*
X136651657Y-120412782D01*
X136651657Y-120412782D02*
X136689752Y-120450877D01*
X136689752Y-120450877D02*
X136727847Y-120527068D01*
X136727847Y-120527068D02*
X136727847Y-120793734D01*
X137070704Y-119536591D02*
X137108800Y-119574687D01*
X137108800Y-119574687D02*
X137146895Y-119688972D01*
X137146895Y-119688972D02*
X137146895Y-119765163D01*
X137146895Y-119765163D02*
X137108800Y-119879449D01*
X137108800Y-119879449D02*
X137032609Y-119955639D01*
X137032609Y-119955639D02*
X136956419Y-119993734D01*
X136956419Y-119993734D02*
X136804038Y-120031830D01*
X136804038Y-120031830D02*
X136689752Y-120031830D01*
X136689752Y-120031830D02*
X136537371Y-119993734D01*
X136537371Y-119993734D02*
X136461180Y-119955639D01*
X136461180Y-119955639D02*
X136384990Y-119879449D01*
X136384990Y-119879449D02*
X136346895Y-119765163D01*
X136346895Y-119765163D02*
X136346895Y-119688972D01*
X136346895Y-119688972D02*
X136384990Y-119574687D01*
X136384990Y-119574687D02*
X136423085Y-119536591D01*
X137146895Y-118812782D02*
X137146895Y-119193734D01*
X137146895Y-119193734D02*
X136346895Y-119193734D01*
X137146895Y-118546115D02*
X136346895Y-118546115D01*
X137146895Y-118088972D02*
X136689752Y-118431830D01*
X136346895Y-118088972D02*
X136804038Y-118546115D01*
D11*
X180411905Y-70204819D02*
X180411905Y-69204819D01*
X180411905Y-69204819D02*
X180650000Y-69204819D01*
X180650000Y-69204819D02*
X180792857Y-69252438D01*
X180792857Y-69252438D02*
X180888095Y-69347676D01*
X180888095Y-69347676D02*
X180935714Y-69442914D01*
X180935714Y-69442914D02*
X180983333Y-69633390D01*
X180983333Y-69633390D02*
X180983333Y-69776247D01*
X180983333Y-69776247D02*
X180935714Y-69966723D01*
X180935714Y-69966723D02*
X180888095Y-70061961D01*
X180888095Y-70061961D02*
X180792857Y-70157200D01*
X180792857Y-70157200D02*
X180650000Y-70204819D01*
X180650000Y-70204819D02*
X180411905Y-70204819D01*
X181364286Y-69300057D02*
X181411905Y-69252438D01*
X181411905Y-69252438D02*
X181507143Y-69204819D01*
X181507143Y-69204819D02*
X181745238Y-69204819D01*
X181745238Y-69204819D02*
X181840476Y-69252438D01*
X181840476Y-69252438D02*
X181888095Y-69300057D01*
X181888095Y-69300057D02*
X181935714Y-69395295D01*
X181935714Y-69395295D02*
X181935714Y-69490533D01*
X181935714Y-69490533D02*
X181888095Y-69633390D01*
X181888095Y-69633390D02*
X181316667Y-70204819D01*
X181316667Y-70204819D02*
X181935714Y-70204819D01*
X185516667Y-74557200D02*
X185659524Y-74604819D01*
X185659524Y-74604819D02*
X185897619Y-74604819D01*
X185897619Y-74604819D02*
X185992857Y-74557200D01*
X185992857Y-74557200D02*
X186040476Y-74509580D01*
X186040476Y-74509580D02*
X186088095Y-74414342D01*
X186088095Y-74414342D02*
X186088095Y-74319104D01*
X186088095Y-74319104D02*
X186040476Y-74223866D01*
X186040476Y-74223866D02*
X185992857Y-74176247D01*
X185992857Y-74176247D02*
X185897619Y-74128628D01*
X185897619Y-74128628D02*
X185707143Y-74081009D01*
X185707143Y-74081009D02*
X185611905Y-74033390D01*
X185611905Y-74033390D02*
X185564286Y-73985771D01*
X185564286Y-73985771D02*
X185516667Y-73890533D01*
X185516667Y-73890533D02*
X185516667Y-73795295D01*
X185516667Y-73795295D02*
X185564286Y-73700057D01*
X185564286Y-73700057D02*
X185611905Y-73652438D01*
X185611905Y-73652438D02*
X185707143Y-73604819D01*
X185707143Y-73604819D02*
X185945238Y-73604819D01*
X185945238Y-73604819D02*
X186088095Y-73652438D01*
X186421429Y-73604819D02*
X186659524Y-74604819D01*
X186659524Y-74604819D02*
X186850000Y-73890533D01*
X186850000Y-73890533D02*
X187040476Y-74604819D01*
X187040476Y-74604819D02*
X187278572Y-73604819D01*
X187611905Y-73700057D02*
X187659524Y-73652438D01*
X187659524Y-73652438D02*
X187754762Y-73604819D01*
X187754762Y-73604819D02*
X187992857Y-73604819D01*
X187992857Y-73604819D02*
X188088095Y-73652438D01*
X188088095Y-73652438D02*
X188135714Y-73700057D01*
X188135714Y-73700057D02*
X188183333Y-73795295D01*
X188183333Y-73795295D02*
X188183333Y-73890533D01*
X188183333Y-73890533D02*
X188135714Y-74033390D01*
X188135714Y-74033390D02*
X187564286Y-74604819D01*
X187564286Y-74604819D02*
X188183333Y-74604819D01*
X158360839Y-69480895D02*
X157884649Y-69480895D01*
X158456077Y-69195180D02*
X158122744Y-70195180D01*
X158122744Y-70195180D02*
X157789411Y-69195180D01*
X156932268Y-69195180D02*
X157503696Y-69195180D01*
X157217982Y-69195180D02*
X157217982Y-70195180D01*
X157217982Y-70195180D02*
X157313220Y-70052323D01*
X157313220Y-70052323D02*
X157408458Y-69957085D01*
X157408458Y-69957085D02*
X157503696Y-69909466D01*
D10*
X138957419Y-76142857D02*
X138957419Y-76619047D01*
X138957419Y-76619047D02*
X137957419Y-76619047D01*
X138909800Y-75857142D02*
X138957419Y-75714285D01*
X138957419Y-75714285D02*
X138957419Y-75476190D01*
X138957419Y-75476190D02*
X138909800Y-75380952D01*
X138909800Y-75380952D02*
X138862180Y-75333333D01*
X138862180Y-75333333D02*
X138766942Y-75285714D01*
X138766942Y-75285714D02*
X138671704Y-75285714D01*
X138671704Y-75285714D02*
X138576466Y-75333333D01*
X138576466Y-75333333D02*
X138528847Y-75380952D01*
X138528847Y-75380952D02*
X138481228Y-75476190D01*
X138481228Y-75476190D02*
X138433609Y-75666666D01*
X138433609Y-75666666D02*
X138385990Y-75761904D01*
X138385990Y-75761904D02*
X138338371Y-75809523D01*
X138338371Y-75809523D02*
X138243133Y-75857142D01*
X138243133Y-75857142D02*
X138147895Y-75857142D01*
X138147895Y-75857142D02*
X138052657Y-75809523D01*
X138052657Y-75809523D02*
X138005038Y-75761904D01*
X138005038Y-75761904D02*
X137957419Y-75666666D01*
X137957419Y-75666666D02*
X137957419Y-75428571D01*
X137957419Y-75428571D02*
X138005038Y-75285714D01*
X138957419Y-74333333D02*
X138957419Y-74904761D01*
X138957419Y-74619047D02*
X137957419Y-74619047D01*
X137957419Y-74619047D02*
X138100276Y-74714285D01*
X138100276Y-74714285D02*
X138195514Y-74809523D01*
X138195514Y-74809523D02*
X138243133Y-74904761D01*
%TO.C,R2*%
D12*
X139922936Y-113470000D02*
X141377064Y-113470000D01*
X139922936Y-115290000D02*
X141377064Y-115290000D01*
%TO.C,SW1*%
X124740000Y-67880000D02*
X133560000Y-67880000D01*
X124740000Y-68190000D02*
X124740000Y-67880000D01*
X124740000Y-72400000D02*
X124740000Y-72090000D01*
X126650000Y-67180000D02*
X127150000Y-67680000D01*
X127150000Y-67680000D02*
X127650000Y-67180000D01*
X127650000Y-67180000D02*
X126650000Y-67180000D01*
X133560000Y-67880000D02*
X133560000Y-68190000D01*
X133560000Y-72400000D02*
X124740000Y-72400000D01*
X133560000Y-72400000D02*
X133560000Y-72090000D01*
%TO.C,U1*%
D10*
X145450000Y-76466000D02*
X145450000Y-76974000D01*
X145450000Y-76466000D02*
X145958000Y-76466000D01*
X187278000Y-120154000D02*
X186770000Y-120154000D01*
X187278000Y-120154000D02*
X187278000Y-119646000D01*
%TO.C,U2*%
X118250000Y-105550000D02*
X137650000Y-105550000D01*
X137650000Y-123350000D01*
X118250000Y-123350000D01*
X118250000Y-105550000D01*
%TO.C,D2*%
D12*
X179540000Y-70750000D02*
X179540000Y-72450000D01*
X179540000Y-70750000D02*
X182200000Y-70750000D01*
X179540000Y-72450000D02*
X182200000Y-72450000D01*
%TO.C,SW2*%
X184650000Y-71650000D02*
X184650000Y-71750000D01*
X184650000Y-73250000D02*
X189050000Y-73250000D01*
X189050000Y-70150000D02*
X184650000Y-70150000D01*
X189050000Y-71650000D02*
X189050000Y-71750000D01*
%TO.C,A1*%
X155930000Y-73270000D02*
X155450000Y-73270000D01*
X155930000Y-73270000D02*
X155930000Y-73690000D01*
X155930000Y-75810000D02*
X155930000Y-76230000D01*
X155930000Y-78350000D02*
X155930000Y-78770000D01*
X155930000Y-80890000D02*
X155930000Y-81310000D01*
X155930000Y-83430000D02*
X155930000Y-83850000D01*
X155930000Y-85970000D02*
X155930000Y-86390000D01*
X155930000Y-88510000D02*
X155930000Y-88930000D01*
X155930000Y-91050000D02*
X155930000Y-91470000D01*
X155930000Y-93590000D02*
X155930000Y-94010000D01*
X155930000Y-96130000D02*
X155930000Y-96550000D01*
X155930000Y-98670000D02*
X155930000Y-99090000D01*
X155930000Y-101210000D02*
X155930000Y-101630000D01*
X155930000Y-103750000D02*
X155930000Y-104170000D01*
X155930000Y-106290000D02*
X155930000Y-106710000D01*
X155930000Y-108830000D02*
X155930000Y-109250000D01*
X155930000Y-111370000D02*
X155930000Y-111790000D01*
X155930000Y-113910000D02*
X155930000Y-114330000D01*
X155930000Y-116450000D02*
X155930000Y-116870000D01*
X155930000Y-118990000D02*
X155930000Y-119410000D01*
X155960324Y-71150000D02*
X155450000Y-71150000D01*
X156270000Y-71150063D02*
X156270000Y-70793000D01*
X156270000Y-73270000D02*
X156270000Y-73690000D01*
X156270000Y-75810000D02*
X156270000Y-76230000D01*
X156270000Y-78350000D02*
X156270000Y-78770000D01*
X156270000Y-80890000D02*
X156270000Y-81310000D01*
X156270000Y-83430000D02*
X156270000Y-83850000D01*
X156270000Y-85970000D02*
X156270000Y-86390000D01*
X156270000Y-88510000D02*
X156270000Y-88930000D01*
X156270000Y-91050000D02*
X156270000Y-91470000D01*
X156270000Y-93590000D02*
X156270000Y-94010000D01*
X156270000Y-96130000D02*
X156270000Y-96550000D01*
X156270000Y-98670000D02*
X156270000Y-99090000D01*
X156270000Y-101210000D02*
X156270000Y-101630000D01*
X156270000Y-103750000D02*
X156270000Y-104170000D01*
X156270000Y-106290000D02*
X156270000Y-106710000D01*
X156270000Y-108830000D02*
X156270000Y-109250000D01*
X156270000Y-111370000D02*
X156270000Y-111790000D01*
X156270000Y-113910000D02*
X156270000Y-114330000D01*
X156270000Y-116450000D02*
X156270000Y-116870000D01*
X156270000Y-118990000D02*
X156270000Y-119410000D01*
X156270000Y-121529937D02*
X156270000Y-121887000D01*
X156540000Y-70730000D02*
X159030000Y-70730000D01*
X156540000Y-121950000D02*
X160377939Y-121950000D01*
X159030000Y-70730000D02*
X159030000Y-71643520D01*
X159030000Y-70730000D02*
X160377940Y-70730000D01*
X159030000Y-74036480D02*
X159030000Y-118643520D01*
X159030000Y-121036480D02*
X159030000Y-121950000D01*
X161302061Y-70730000D02*
X162305000Y-70730000D01*
X162305000Y-70730000D02*
X170775000Y-70730000D01*
X162640000Y-70730000D02*
X162640000Y-71646000D01*
X162640000Y-74034000D02*
X162640000Y-75250000D01*
X162640000Y-75250000D02*
X162936090Y-75250000D01*
X162940000Y-121950000D02*
X161302061Y-121950000D01*
X165293910Y-75250000D02*
X167786090Y-75250000D01*
X170140000Y-121950000D02*
X162940000Y-121950000D01*
X170143910Y-75250000D02*
X170440000Y-75250000D01*
X170440000Y-70730000D02*
X170440000Y-71646000D01*
X170440000Y-74034000D02*
X170440000Y-75250000D01*
X170775000Y-70730000D02*
X171777939Y-70730000D01*
X171777939Y-121950000D02*
X170140000Y-121950000D01*
X172702061Y-70730000D02*
X174050000Y-70730000D01*
X172702061Y-121950000D02*
X176540000Y-121950000D01*
X174050000Y-70730000D02*
X174050000Y-71643520D01*
X174050000Y-74036480D02*
X174050000Y-118643520D01*
X174050000Y-121036480D02*
X174050000Y-121950000D01*
X176540000Y-70730000D02*
X174050000Y-70730000D01*
X176810000Y-71150063D02*
X176810000Y-70793000D01*
X176810000Y-73270000D02*
X176810000Y-73690000D01*
X176810000Y-75810000D02*
X176810000Y-76230000D01*
X176810000Y-78350000D02*
X176810000Y-78770000D01*
X176810000Y-80890000D02*
X176810000Y-81310000D01*
X176810000Y-83430000D02*
X176810000Y-83850000D01*
X176810000Y-85970000D02*
X176810000Y-86390000D01*
X176810000Y-88510000D02*
X176810000Y-88930000D01*
X176810000Y-91050000D02*
X176810000Y-91470000D01*
X176810000Y-93590000D02*
X176810000Y-94010000D01*
X176810000Y-96130000D02*
X176810000Y-96550000D01*
X176810000Y-98670000D02*
X176810000Y-99090000D01*
X176810000Y-101210000D02*
X176810000Y-101630000D01*
X176810000Y-103750000D02*
X176810000Y-104170000D01*
X176810000Y-106290000D02*
X176810000Y-106710000D01*
X176810000Y-108830000D02*
X176810000Y-109250000D01*
X176810000Y-111370000D02*
X176810000Y-111790000D01*
X176810000Y-113910000D02*
X176810000Y-114330000D01*
X176810000Y-116450000D02*
X176810000Y-116870000D01*
X176810000Y-118990000D02*
X176810000Y-119410000D01*
X176810000Y-121529937D02*
X176810000Y-121887000D01*
X177150000Y-73270000D02*
X177150000Y-73690000D01*
X177150000Y-75810000D02*
X177150000Y-76230000D01*
X177150000Y-78350000D02*
X177150000Y-78770000D01*
X177150000Y-80890000D02*
X177150000Y-81310000D01*
X177150000Y-83430000D02*
X177150000Y-83850000D01*
X177150000Y-85970000D02*
X177150000Y-86390000D01*
X177150000Y-88510000D02*
X177150000Y-88930000D01*
X177150000Y-91050000D02*
X177150000Y-91470000D01*
X177150000Y-93590000D02*
X177150000Y-94010000D01*
X177150000Y-96130000D02*
X177150000Y-96550000D01*
X177150000Y-98670000D02*
X177150000Y-99090000D01*
X177150000Y-101210000D02*
X177150000Y-101630000D01*
X177150000Y-103750000D02*
X177150000Y-104170000D01*
X177150000Y-106290000D02*
X177150000Y-106710000D01*
X177150000Y-108830000D02*
X177150000Y-109250000D01*
X177150000Y-111370000D02*
X177150000Y-111790000D01*
X177150000Y-113910000D02*
X177150000Y-114330000D01*
X177150000Y-116450000D02*
X177150000Y-116870000D01*
X177150000Y-118990000D02*
X177150000Y-119410000D01*
X155960324Y-71150000D02*
G75*
G02*
X156540000Y-70730000I579692J-190051D01*
G01*
X156540000Y-121950000D02*
G75*
G02*
X155960324Y-121529937I1J610002D01*
G01*
X176540000Y-70730000D02*
G75*
G02*
X177119676Y-71150063I0J-610000D01*
G01*
X177119676Y-121529937D02*
G75*
G02*
X176540000Y-121950069I-579676J189837D01*
G01*
%TO.C,LS1*%
D10*
X142650000Y-88350000D02*
G75*
G02*
X113650000Y-88350000I-14500000J0D01*
G01*
X113650000Y-88350000D02*
G75*
G02*
X142650000Y-88350000I14500000J0D01*
G01*
%TD*%
M02*
