%TF.GenerationSoftware,KiCad,Pcbnew,10.0.3*%
%TF.CreationDate,2026-08-20T14:53:28-07:00*%
%TF.ProjectId,e,652e6b69-6361-4645-9f70-636258585858,1*%
%TF.SameCoordinates,Original*%
%TF.FileFunction,Paste,Top*%
%TF.FilePolarity,Positive*%
%FSLAX46Y46*%
G04 Gerber Fmt 4.6, Leading zero omitted, Abs format (unit mm)*
G04 Created by KiCad (PCBNEW 10.0.3) date 2026-08-20 14:53:28*
%MOMM*%
%LPD*%
G01*
G04 APERTURE LIST*
G04 Aperture macros list*
%AMRoundRect*
0 Rectangle with rounded corners*
0 $1 Rounding radius*
0 $2 $3 $4 $5 $6 $7 $8 $9 X,Y pos of 4 corners*
0 Add a 4 corners polygon primitive as box body*
4,1,4,$2,$3,$4,$5,$6,$7,$8,$9,$2,$3,0*
0 Add four circle primitives for the rounded corners*
1,1,$1+$1,$2,$3*
1,1,$1+$1,$4,$5*
1,1,$1+$1,$6,$7*
1,1,$1+$1,$8,$9*
0 Add four rect primitives between the rounded corners*
20,1,$1+$1,$2,$3,$4,$5,0*
20,1,$1+$1,$4,$5,$6,$7,0*
20,1,$1+$1,$6,$7,$8,$9,0*
20,1,$1+$1,$8,$9,$2,$3,0*%
G04 Aperture macros list end*
%ADD10R,3.800000X2.200000*%
%ADD11RoundRect,0.250000X-0.800000X0.450000X-0.800000X-0.450000X0.800000X-0.450000X0.800000X0.450000X0*%
G04 APERTURE END LIST*
D10*
%TO.C,A1*%
X172490000Y-124440000D03*
X172490000Y-121900000D03*
X172490000Y-119360000D03*
X172490000Y-116820000D03*
X172490000Y-114280000D03*
X172490000Y-111740000D03*
X172490000Y-109200000D03*
X172490000Y-106660000D03*
X172490000Y-104120000D03*
X172490000Y-101580000D03*
X172490000Y-99040000D03*
X172490000Y-96500000D03*
X172490000Y-93960000D03*
X172490000Y-91420000D03*
X172490000Y-88880000D03*
X172490000Y-86340000D03*
X172490000Y-83800000D03*
X172490000Y-81260000D03*
X172490000Y-78720000D03*
X172490000Y-76180000D03*
X153110000Y-124440000D03*
X153110000Y-121900000D03*
X153110000Y-119360000D03*
X153110000Y-116820000D03*
X153110000Y-114280000D03*
X153110000Y-111740000D03*
X153110000Y-109200000D03*
X153110000Y-106660000D03*
X153110000Y-104120000D03*
X153110000Y-101580000D03*
X153110000Y-99040000D03*
X153110000Y-96500000D03*
X153110000Y-93960000D03*
X153110000Y-91420000D03*
X153110000Y-88880000D03*
X153110000Y-86340000D03*
X153110000Y-83800000D03*
X153110000Y-81260000D03*
X153110000Y-78720000D03*
X153110000Y-76180000D03*
%TD*%
D11*
%TO.C,D2*%
X181190000Y-79100000D03*
X181190000Y-83500000D03*
%TD*%
M02*
