%TF.GenerationSoftware,KiCad,Pcbnew,10.0.3*%
%TF.CreationDate,2026-07-02T21:02:42+03:00*%
%TF.ProjectId,e,652e6b69-6361-4645-9f70-636258585858,rev?*%
%TF.SameCoordinates,Original*%
%TF.FileFunction,Soldermask,Top*%
%TF.FilePolarity,Negative*%
%FSLAX46Y46*%
G04 Gerber Fmt 4.6, Leading zero omitted, Abs format (unit mm)*
G04 Created by KiCad (PCBNEW 10.0.3) date 2026-07-02 21:02:42*
%MOMM*%
%LPD*%
G01*
G04 APERTURE LIST*
G04 Aperture macros list*
%AMRoundRect*
0 Rectangle with rounded corners*
0 $1 Rounding radius*
0 $2 $3 $4 $5 $6 $7 $8 $9 X,Y pos of 4 corners*
0 Add a 4 corners polygon primitive as box body*
4,1,4,$2,$3,$4,$5,$6,$7,$8,$9,$2,$3,0*
0 Add four circle primitives for the rounded corners*
1,1,$1+$1,$2,$3*
1,1,$1+$1,$4,$5*
1,1,$1+$1,$6,$7*
1,1,$1+$1,$8,$9*
0 Add four rect primitives between the rounded corners*
20,1,$1+$1,$2,$3,$4,$5,0*
20,1,$1+$1,$4,$5,$6,$7,0*
20,1,$1+$1,$6,$7,$8,$9,0*
20,1,$1+$1,$8,$9,$2,$3,0*%
%AMFreePoly0*
4,1,37,0.800000,0.796148,0.878414,0.796148,1.032228,0.765552,1.177117,0.705537,1.307515,0.618408,1.418408,0.507515,1.505537,0.377117,1.565552,0.232228,1.596148,0.078414,1.596148,-0.078414,1.565552,-0.232228,1.505537,-0.377117,1.418408,-0.507515,1.307515,-0.618408,1.177117,-0.705537,1.032228,-0.765552,0.878414,-0.796148,0.800000,-0.796148,0.800000,-0.800000,-1.400000,-0.800000,
-1.403843,-0.796157,-1.439018,-0.796157,-1.511114,-0.766294,-1.566294,-0.711114,-1.596157,-0.639018,-1.596157,-0.603843,-1.600000,-0.600000,-1.600000,0.600000,-1.596157,0.603843,-1.596157,0.639018,-1.566294,0.711114,-1.511114,0.766294,-1.439018,0.796157,-1.403843,0.796157,-1.400000,0.800000,0.800000,0.800000,0.800000,0.796148,0.800000,0.796148,$1*%
%AMFreePoly1*
4,1,37,1.403843,0.796157,1.439018,0.796157,1.511114,0.766294,1.566294,0.711114,1.596157,0.639018,1.596157,0.603843,1.600000,0.600000,1.600000,-0.600000,1.596157,-0.603843,1.596157,-0.639018,1.566294,-0.711114,1.511114,-0.766294,1.439018,-0.796157,1.403843,-0.796157,1.400000,-0.800000,-0.800000,-0.800000,-0.800000,-0.796148,-0.878414,-0.796148,-1.032228,-0.765552,-1.177117,-0.705537,
-1.307515,-0.618408,-1.418408,-0.507515,-1.505537,-0.377117,-1.565552,-0.232228,-1.596148,-0.078414,-1.596148,0.078414,-1.565552,0.232228,-1.505537,0.377117,-1.418408,0.507515,-1.307515,0.618408,-1.177117,0.705537,-1.032228,0.765552,-0.878414,0.796148,-0.800000,0.796148,-0.800000,0.800000,1.400000,0.800000,1.403843,0.796157,1.403843,0.796157,$1*%
%AMFreePoly2*
4,1,37,0.603843,0.796157,0.639018,0.796157,0.711114,0.766294,0.766294,0.711114,0.796157,0.639018,0.796157,0.603843,0.800000,0.600000,0.800000,-0.600000,0.796157,-0.603843,0.796157,-0.639018,0.766294,-0.711114,0.711114,-0.766294,0.639018,-0.796157,0.603843,-0.796157,0.600000,-0.800000,0.000000,-0.800000,0.000000,-0.796148,-0.078414,-0.796148,-0.232228,-0.765552,-0.377117,-0.705537,
-0.507515,-0.618408,-0.618408,-0.507515,-0.705537,-0.377117,-0.765552,-0.232228,-0.796148,-0.078414,-0.796148,0.078414,-0.765552,0.232228,-0.705537,0.377117,-0.618408,0.507515,-0.507515,0.618408,-0.377117,0.705537,-0.232228,0.765552,-0.078414,0.796148,0.000000,0.796148,0.000000,0.800000,0.600000,0.800000,0.603843,0.796157,0.603843,0.796157,$1*%
%AMFreePoly3*
4,1,37,0.000000,0.796148,0.078414,0.796148,0.232228,0.765552,0.377117,0.705537,0.507515,0.618408,0.618408,0.507515,0.705537,0.377117,0.765552,0.232228,0.796148,0.078414,0.796148,-0.078414,0.765552,-0.232228,0.705537,-0.377117,0.618408,-0.507515,0.507515,-0.618408,0.377117,-0.705537,0.232228,-0.765552,0.078414,-0.796148,0.000000,-0.796148,0.000000,-0.800000,-0.600000,-0.800000,
-0.603843,-0.796157,-0.639018,-0.796157,-0.711114,-0.766294,-0.766294,-0.711114,-0.796157,-0.639018,-0.796157,-0.603843,-0.800000,-0.600000,-0.800000,0.600000,-0.796157,0.603843,-0.796157,0.639018,-0.766294,0.711114,-0.711114,0.766294,-0.639018,0.796157,-0.603843,0.796157,-0.600000,0.800000,0.000000,0.800000,0.000000,0.796148,0.000000,0.796148,$1*%
G04 Aperture macros list end*
%ADD10RoundRect,0.250000X-0.312500X-0.625000X0.312500X-0.625000X0.312500X0.625000X-0.312500X0.625000X0*%
%ADD11O,2.200000X3.500000*%
%ADD12R,1.500000X2.500000*%
%ADD13O,1.500000X2.500000*%
%ADD14RoundRect,0.257576X0.592424X-0.592424X0.592424X0.592424X-0.592424X0.592424X-0.592424X-0.592424X0*%
%ADD15C,1.700000*%
%ADD16RoundRect,0.184783X0.665217X-0.665217X0.665217X0.665217X-0.665217X0.665217X-0.665217X-0.665217X0*%
%ADD17C,2.500000*%
%ADD18RoundRect,0.112500X-0.187500X-0.112500X0.187500X-0.112500X0.187500X0.112500X-0.187500X0.112500X0*%
%ADD19R,0.900000X1.000000*%
%ADD20C,2.200000*%
%ADD21C,1.850000*%
%ADD22FreePoly0,0.000000*%
%ADD23RoundRect,0.200000X-0.600000X-0.600000X0.600000X-0.600000X0.600000X0.600000X-0.600000X0.600000X0*%
%ADD24RoundRect,0.800000X-0.800000X-0.000010X0.800000X-0.000010X0.800000X0.000010X-0.800000X0.000010X0*%
%ADD25C,1.600000*%
%ADD26FreePoly1,0.000000*%
%ADD27FreePoly2,0.000000*%
%ADD28FreePoly3,0.000000*%
G04 APERTURE END LIST*
D10*
%TO.C,R2*%
X139187500Y-114380000D03*
X142112500Y-114380000D03*
%TD*%
D11*
%TO.C,SW1*%
X125050000Y-70140000D03*
X133250000Y-70140000D03*
D12*
X127150000Y-70140000D03*
D13*
X129150000Y-70140000D03*
X131150000Y-70140000D03*
%TD*%
D14*
%TO.C,U1*%
X182670000Y-112280000D03*
D15*
X182670000Y-109740000D03*
X182670000Y-107200000D03*
X182670000Y-104660000D03*
X182670000Y-102120000D03*
X182670000Y-99580000D03*
X182670000Y-97040000D03*
X182670000Y-94500000D03*
X182670000Y-91960000D03*
X182670000Y-89420000D03*
X182670000Y-86880000D03*
X182670000Y-84340000D03*
%TD*%
D16*
%TO.C,U2*%
X135070000Y-122070000D03*
D15*
X135070000Y-119530000D03*
X135070000Y-116990000D03*
X135070000Y-114450000D03*
X135070000Y-111910000D03*
X135070000Y-109370000D03*
X135070000Y-106830000D03*
D17*
X122650000Y-112650000D03*
X122550000Y-116250000D03*
%TD*%
D18*
%TO.C,D2*%
X180100000Y-71600000D03*
X182200000Y-71600000D03*
%TD*%
D19*
%TO.C,SW2*%
X188900000Y-72500000D03*
X184800000Y-72500000D03*
X188900000Y-70900000D03*
X184800000Y-70900000D03*
%TD*%
D20*
%TO.C,A1*%
X163815000Y-72340000D03*
D21*
X164115000Y-75370000D03*
X168965000Y-75370000D03*
D20*
X169265000Y-72340000D03*
D22*
X156850000Y-72210000D03*
D23*
X157650000Y-72210000D03*
D24*
X156850000Y-74750000D03*
D25*
X157650000Y-74750000D03*
D26*
X156850000Y-77290000D03*
D27*
X157650000Y-77290000D03*
D24*
X156850000Y-79830000D03*
D25*
X157650000Y-79830000D03*
D24*
X156850000Y-82370000D03*
D25*
X157650000Y-82370000D03*
D24*
X156850000Y-84910000D03*
D25*
X157650000Y-84910000D03*
D24*
X156850000Y-87450000D03*
D25*
X157650000Y-87450000D03*
D26*
X156850000Y-89990000D03*
D27*
X157650000Y-89990000D03*
D24*
X156850000Y-92530000D03*
D25*
X157650000Y-92530000D03*
D24*
X156850000Y-95070000D03*
D25*
X157650000Y-95070000D03*
D24*
X156850000Y-97610000D03*
D25*
X157650000Y-97610000D03*
D24*
X156850000Y-100150000D03*
D25*
X157650000Y-100150000D03*
D26*
X156850000Y-102690000D03*
D27*
X157650000Y-102690000D03*
D24*
X156850000Y-105230000D03*
D25*
X157650000Y-105230000D03*
D24*
X156850000Y-107770000D03*
D25*
X157650000Y-107770000D03*
D24*
X156850000Y-110310000D03*
D25*
X157650000Y-110310000D03*
D24*
X156850000Y-112850000D03*
D25*
X157650000Y-112850000D03*
D26*
X156850000Y-115390000D03*
D27*
X157650000Y-115390000D03*
D24*
X156850000Y-117930000D03*
D25*
X157650000Y-117930000D03*
D24*
X156850000Y-120470000D03*
D25*
X157650000Y-120470000D03*
X175430000Y-120470000D03*
D24*
X176230000Y-120470000D03*
D25*
X175430000Y-117930000D03*
D24*
X176230000Y-117930000D03*
D28*
X175430000Y-115390000D03*
D22*
X176230000Y-115390000D03*
D25*
X175430000Y-112850000D03*
D24*
X176230000Y-112850000D03*
D25*
X175430000Y-110310000D03*
D24*
X176230000Y-110310000D03*
D25*
X175430000Y-107770000D03*
D24*
X176230000Y-107770000D03*
D25*
X175430000Y-105230000D03*
D24*
X176230000Y-105230000D03*
D28*
X175430000Y-102690000D03*
D22*
X176230000Y-102690000D03*
D25*
X175430000Y-100150000D03*
D24*
X176230000Y-100150000D03*
D25*
X175430000Y-97610000D03*
D24*
X176230000Y-97610000D03*
D25*
X175430000Y-95070000D03*
D24*
X176230000Y-95070000D03*
D25*
X175430000Y-92530000D03*
D24*
X176230000Y-92530000D03*
D28*
X175430000Y-89990000D03*
D22*
X176230000Y-89990000D03*
D25*
X175430000Y-87450000D03*
D24*
X176230000Y-87450000D03*
D25*
X175430000Y-84910000D03*
D24*
X176230000Y-84910000D03*
D25*
X175430000Y-82370000D03*
D24*
X176230000Y-82370000D03*
D25*
X175430000Y-79830000D03*
D24*
X176230000Y-79830000D03*
D28*
X175430000Y-77290000D03*
D22*
X176230000Y-77290000D03*
D25*
X175430000Y-74750000D03*
D24*
X176230000Y-74750000D03*
D25*
X175430000Y-72210000D03*
D24*
X176230000Y-72210000D03*
%TD*%
D15*
%TO.C,LS1*%
X128150000Y-80650000D03*
X128250000Y-96450000D03*
%TD*%
M02*
