%TF.GenerationSoftware,KiCad,Pcbnew,10.0.3*%
%TF.CreationDate,2026-08-20T13:00:50-07:00*%
%TF.ProjectId,e,652e6b69-6361-4645-9f70-636258585858,rev?*%
%TF.SameCoordinates,Original*%
%TF.FileFunction,Soldermask,Top*%
%TF.FilePolarity,Negative*%
%FSLAX46Y46*%
G04 Gerber Fmt 4.6, Leading zero omitted, Abs format (unit mm)*
G04 Created by KiCad (PCBNEW 10.0.3) date 2026-08-20 13:00:50*
%MOMM*%
%LPD*%
G01*
G04 APERTURE LIST*
G04 Aperture macros list*
%AMRoundRect*
0 Rectangle with rounded corners*
0 $1 Rounding radius*
0 $2 $3 $4 $5 $6 $7 $8 $9 X,Y pos of 4 corners*
0 Add a 4 corners polygon primitive as box body*
4,1,4,$2,$3,$4,$5,$6,$7,$8,$9,$2,$3,0*
0 Add four circle primitives for the rounded corners*
1,1,$1+$1,$2,$3*
1,1,$1+$1,$4,$5*
1,1,$1+$1,$6,$7*
1,1,$1+$1,$8,$9*
0 Add four rect primitives between the rounded corners*
20,1,$1+$1,$2,$3,$4,$5,0*
20,1,$1+$1,$4,$5,$6,$7,0*
20,1,$1+$1,$6,$7,$8,$9,0*
20,1,$1+$1,$8,$9,$2,$3,0*%
%AMFreePoly0*
4,1,37,0.800000,0.796148,0.878414,0.796148,1.032228,0.765552,1.177117,0.705537,1.307515,0.618408,1.418408,0.507515,1.505537,0.377117,1.565552,0.232228,1.596148,0.078414,1.596148,-0.078414,1.565552,-0.232228,1.505537,-0.377117,1.418408,-0.507515,1.307515,-0.618408,1.177117,-0.705537,1.032228,-0.765552,0.878414,-0.796148,0.800000,-0.796148,0.800000,-0.800000,-1.400000,-0.800000,
-1.403843,-0.796157,-1.439018,-0.796157,-1.511114,-0.766294,-1.566294,-0.711114,-1.596157,-0.639018,-1.596157,-0.603843,-1.600000,-0.600000,-1.600000,0.600000,-1.596157,0.603843,-1.596157,0.639018,-1.566294,0.711114,-1.511114,0.766294,-1.439018,0.796157,-1.403843,0.796157,-1.400000,0.800000,0.800000,0.800000,0.800000,0.796148,0.800000,0.796148,$1*%
%AMFreePoly1*
4,1,37,1.403843,0.796157,1.439018,0.796157,1.511114,0.766294,1.566294,0.711114,1.596157,0.639018,1.596157,0.603843,1.600000,0.600000,1.600000,-0.600000,1.596157,-0.603843,1.596157,-0.639018,1.566294,-0.711114,1.511114,-0.766294,1.439018,-0.796157,1.403843,-0.796157,1.400000,-0.800000,-0.800000,-0.800000,-0.800000,-0.796148,-0.878414,-0.796148,-1.032228,-0.765552,-1.177117,-0.705537,
-1.307515,-0.618408,-1.418408,-0.507515,-1.505537,-0.377117,-1.565552,-0.232228,-1.596148,-0.078414,-1.596148,0.078414,-1.565552,0.232228,-1.505537,0.377117,-1.418408,0.507515,-1.307515,0.618408,-1.177117,0.705537,-1.032228,0.765552,-0.878414,0.796148,-0.800000,0.796148,-0.800000,0.800000,1.400000,0.800000,1.403843,0.796157,1.403843,0.796157,$1*%
G04 Aperture macros list end*
%ADD10RoundRect,0.250000X1.450000X-0.312500X1.450000X0.312500X-1.450000X0.312500X-1.450000X-0.312500X0*%
%ADD11O,3.500000X2.200000*%
%ADD12R,2.500000X1.500000*%
%ADD13O,2.500000X1.500000*%
%ADD14RoundRect,0.200000X0.800000X-0.200000X0.800000X0.200000X-0.800000X0.200000X-0.800000X-0.200000X0*%
%ADD15RoundRect,0.184783X0.665217X-0.665217X0.665217X0.665217X-0.665217X0.665217X-0.665217X-0.665217X0*%
%ADD16C,1.700000*%
%ADD17C,2.500000*%
%ADD18RoundRect,0.250000X-0.800000X0.450000X-0.800000X-0.450000X0.800000X-0.450000X0.800000X0.450000X0*%
%ADD19C,2.200000*%
%ADD20C,1.850000*%
%ADD21FreePoly0,0.000000*%
%ADD22RoundRect,0.800000X-0.800000X-0.000010X0.800000X-0.000010X0.800000X0.000010X-0.800000X0.000010X0*%
%ADD23FreePoly1,0.000000*%
%ADD24RoundRect,0.257576X-0.592424X-0.592424X0.592424X-0.592424X0.592424X0.592424X-0.592424X0.592424X0*%
G04 APERTURE END LIST*
D10*
%TO.C,R2*%
X210000000Y-116137500D03*
X210000000Y-111862500D03*
%TD*%
D11*
%TO.C,SW1*%
X260000000Y-103400000D03*
X260000000Y-95200000D03*
D12*
X260000000Y-101300000D03*
D13*
X260000000Y-99300000D03*
X260000000Y-97300000D03*
%TD*%
D14*
%TO.C,SW2*%
X260500000Y-114400000D03*
X260500000Y-110200000D03*
%TD*%
D15*
%TO.C,U2*%
X220000000Y-135000000D03*
D16*
X220000000Y-132460000D03*
X220000000Y-129920000D03*
X220000000Y-127380000D03*
X220000000Y-124840000D03*
X220000000Y-122300000D03*
X220000000Y-119760000D03*
D17*
X207580000Y-125580000D03*
X207480000Y-129180000D03*
%TD*%
D18*
%TO.C,D2*%
X261000000Y-83800000D03*
X261000000Y-88200000D03*
%TD*%
D16*
%TO.C,LS1*%
X187025000Y-100700000D03*
X187125000Y-116500000D03*
%TD*%
D19*
%TO.C,A1*%
X239885000Y-81010000D03*
D20*
X240185000Y-84040000D03*
X245035000Y-84040000D03*
D19*
X245335000Y-81010000D03*
D21*
X232920000Y-80880000D03*
D22*
X232920000Y-83420000D03*
D23*
X232920000Y-85960000D03*
D22*
X232920000Y-88500000D03*
X232920000Y-91040000D03*
X232920000Y-93580000D03*
X232920000Y-96120000D03*
D23*
X232920000Y-98660000D03*
D22*
X232920000Y-101200000D03*
X232920000Y-103740000D03*
X232920000Y-106280000D03*
X232920000Y-108820000D03*
D23*
X232920000Y-111360000D03*
D22*
X232920000Y-113900000D03*
X232920000Y-116440000D03*
X232920000Y-118980000D03*
X232920000Y-121520000D03*
D23*
X232920000Y-124060000D03*
D22*
X232920000Y-126600000D03*
X232920000Y-129140000D03*
X252300000Y-129140000D03*
X252300000Y-126600000D03*
D21*
X252300000Y-124060000D03*
D22*
X252300000Y-121520000D03*
X252300000Y-118980000D03*
X252300000Y-116440000D03*
X252300000Y-113900000D03*
D21*
X252300000Y-111360000D03*
D22*
X252300000Y-108820000D03*
X252300000Y-106280000D03*
X252300000Y-103740000D03*
X252300000Y-101200000D03*
D21*
X252300000Y-98660000D03*
D22*
X252300000Y-96120000D03*
X252300000Y-93580000D03*
X252300000Y-91040000D03*
X252300000Y-88500000D03*
D21*
X252300000Y-85960000D03*
D22*
X252300000Y-83420000D03*
X252300000Y-80880000D03*
%TD*%
D24*
%TO.C,U1*%
X188060000Y-84000000D03*
D16*
X190600000Y-84000000D03*
X193140000Y-84000000D03*
X195680000Y-84000000D03*
X198220000Y-84000000D03*
X200760000Y-84000000D03*
X203300000Y-84000000D03*
X205840000Y-84000000D03*
X208380000Y-84000000D03*
X210920000Y-84000000D03*
X213460000Y-84000000D03*
X216000000Y-84000000D03*
%TD*%
M02*
