%TF.GenerationSoftware,KiCad,Pcbnew,10.0.3*%
%TF.CreationDate,2026-08-20T21:53:27-07:00*%
%TF.ProjectId,e,652e6b69-6361-4645-9f70-636258585858,1*%
%TF.SameCoordinates,Original*%
%TF.FileFunction,Copper,L1,Top*%
%TF.FilePolarity,Positive*%
%FSLAX46Y46*%
G04 Gerber Fmt 4.6, Leading zero omitted, Abs format (unit mm)*
G04 Created by KiCad (PCBNEW 10.0.3) date 2026-08-20 21:53:27*
%MOMM*%
%LPD*%
G01*
G04 APERTURE LIST*
G04 Aperture macros list*
%AMRoundRect*
0 Rectangle with rounded corners*
0 $1 Rounding radius*
0 $2 $3 $4 $5 $6 $7 $8 $9 X,Y pos of 4 corners*
0 Add a 4 corners polygon primitive as box body*
4,1,4,$2,$3,$4,$5,$6,$7,$8,$9,$2,$3,0*
0 Add four circle primitives for the rounded corners*
1,1,$1+$1,$2,$3*
1,1,$1+$1,$4,$5*
1,1,$1+$1,$6,$7*
1,1,$1+$1,$8,$9*
0 Add four rect primitives between the rounded corners*
20,1,$1+$1,$2,$3,$4,$5,0*
20,1,$1+$1,$4,$5,$6,$7,0*
20,1,$1+$1,$6,$7,$8,$9,0*
20,1,$1+$1,$8,$9,$2,$3,0*%
%AMFreePoly0*
4,1,37,0.800000,0.796148,0.878414,0.796148,1.032228,0.765552,1.177117,0.705537,1.307515,0.618408,1.418408,0.507515,1.505537,0.377117,1.565552,0.232228,1.596148,0.078414,1.596148,-0.078414,1.565552,-0.232228,1.505537,-0.377117,1.418408,-0.507515,1.307515,-0.618408,1.177117,-0.705537,1.032228,-0.765552,0.878414,-0.796148,0.800000,-0.796148,0.800000,-0.800000,-1.400000,-0.800000,
-1.403843,-0.796157,-1.439018,-0.796157,-1.511114,-0.766294,-1.566294,-0.711114,-1.596157,-0.639018,-1.596157,-0.603843,-1.600000,-0.600000,-1.600000,0.600000,-1.596157,0.603843,-1.596157,0.639018,-1.566294,0.711114,-1.511114,0.766294,-1.439018,0.796157,-1.403843,0.796157,-1.400000,0.800000,0.800000,0.800000,0.800000,0.796148,0.800000,0.796148,$1*%
%AMFreePoly1*
4,1,37,1.403843,0.796157,1.439018,0.796157,1.511114,0.766294,1.566294,0.711114,1.596157,0.639018,1.596157,0.603843,1.600000,0.600000,1.600000,-0.600000,1.596157,-0.603843,1.596157,-0.639018,1.566294,-0.711114,1.511114,-0.766294,1.439018,-0.796157,1.403843,-0.796157,1.400000,-0.800000,-0.800000,-0.800000,-0.800000,-0.796148,-0.878414,-0.796148,-1.032228,-0.765552,-1.177117,-0.705537,
-1.307515,-0.618408,-1.418408,-0.507515,-1.505537,-0.377117,-1.565552,-0.232228,-1.596148,-0.078414,-1.596148,0.078414,-1.565552,0.232228,-1.505537,0.377117,-1.418408,0.507515,-1.307515,0.618408,-1.177117,0.705537,-1.032228,0.765552,-0.878414,0.796148,-0.800000,0.796148,-0.800000,0.800000,1.400000,0.800000,1.403843,0.796157,1.403843,0.796157,$1*%
G04 Aperture macros list end*
%TA.AperFunction,ComponentPad*%
%ADD10C,1.600000*%
%TD*%
%TA.AperFunction,ComponentPad*%
%ADD11O,3.500000X2.200000*%
%TD*%
%TA.AperFunction,ComponentPad*%
%ADD12R,2.500000X1.500000*%
%TD*%
%TA.AperFunction,ComponentPad*%
%ADD13O,2.500000X1.500000*%
%TD*%
%TA.AperFunction,ComponentPad*%
%ADD14C,2.000000*%
%TD*%
%TA.AperFunction,ComponentPad*%
%ADD15RoundRect,0.184783X0.665217X-0.665217X0.665217X0.665217X-0.665217X0.665217X-0.665217X-0.665217X0*%
%TD*%
%TA.AperFunction,ComponentPad*%
%ADD16C,1.700000*%
%TD*%
%TA.AperFunction,ComponentPad*%
%ADD17C,2.500000*%
%TD*%
%TA.AperFunction,SMDPad,CuDef*%
%ADD18RoundRect,0.250000X-0.800000X0.450000X-0.800000X-0.450000X0.800000X-0.450000X0.800000X0.450000X0*%
%TD*%
%TA.AperFunction,SMDPad,CuDef*%
%ADD19FreePoly0,0.000000*%
%TD*%
%TA.AperFunction,SMDPad,CuDef*%
%ADD20RoundRect,0.800000X-0.800000X-0.000010X0.800000X-0.000010X0.800000X0.000010X-0.800000X0.000010X0*%
%TD*%
%TA.AperFunction,SMDPad,CuDef*%
%ADD21FreePoly1,0.000000*%
%TD*%
%TA.AperFunction,ComponentPad*%
%ADD22RoundRect,0.257576X-0.592424X-0.592424X0.592424X-0.592424X0.592424X0.592424X-0.592424X0.592424X0*%
%TD*%
%TA.AperFunction,ViaPad*%
%ADD23C,0.600000*%
%TD*%
%TA.AperFunction,Conductor*%
%ADD24C,0.200000*%
%TD*%
G04 APERTURE END LIST*
D10*
%TO.P,R2,1*%
%TO.N,Net-(U2-GAIN_SLOT)*%
X129000000Y-111500000D03*
%TO.P,R2,2*%
%TO.N,GND*%
X129000000Y-101340000D03*
%TD*%
D11*
%TO.P,SW1,*%
%TO.N,*%
X180190000Y-98700000D03*
X180190000Y-90500000D03*
D12*
%TO.P,SW1,1,A_1*%
%TO.N,Net-(BT1-+)*%
X180190000Y-96600000D03*
D13*
%TO.P,SW1,2,B_2*%
%TO.N,+3V0*%
X180190000Y-94600000D03*
%TO.P,SW1,3,C_3*%
%TO.N,unconnected-(SW1-C-Pad3)*%
X180190000Y-92600000D03*
%TD*%
D14*
%TO.P,SW2,1,1_1*%
%TO.N,GND*%
X178500000Y-111500000D03*
X178500000Y-105000000D03*
%TO.P,SW2,2,2_2*%
%TO.N,Net-(A1-RUN)*%
X183000000Y-111500000D03*
X183000000Y-105000000D03*
%TD*%
D15*
%TO.P,U2,1,LRCLK_1*%
%TO.N,Net-(A1-GPIO15)*%
X140190000Y-130300000D03*
D16*
%TO.P,U2,2,BCLK_2*%
%TO.N,Net-(A1-GPIO14)*%
X140190000Y-127760000D03*
%TO.P,U2,3,DIN_3*%
%TO.N,Net-(A1-GPIO13)*%
X140190000Y-125220000D03*
%TO.P,U2,4,GAIN_SLOT_4*%
%TO.N,Net-(U2-GAIN_SLOT)*%
X140190000Y-122680000D03*
%TO.P,U2,5,~{SD_MODE}_5*%
%TO.N,unconnected-(U2-~{SD_MODE}-Pad5)*%
X140190000Y-120140000D03*
%TO.P,U2,6,GND_6*%
%TO.N,GND*%
X140190000Y-117600000D03*
%TO.P,U2,7,VDD_7*%
%TO.N,PICO_PWR*%
X140190000Y-115060000D03*
D17*
%TO.P,U2,8,OUTP_8*%
%TO.N,Net-(U2-OUTP)*%
X127770000Y-120880000D03*
%TO.P,U2,9,OUTN_9*%
%TO.N,Net-(U2-OUTN)*%
X127670000Y-124480000D03*
%TD*%
D18*
%TO.P,D2,1,K_1*%
%TO.N,Net-(A1-VSYS)*%
X181190000Y-79100000D03*
%TO.P,D2,2,A_2*%
%TO.N,+3V0*%
X181190000Y-83500000D03*
%TD*%
D16*
%TO.P,LS1,1,1_1*%
%TO.N,Net-(U2-OUTP)*%
X107215000Y-96000000D03*
%TO.P,LS1,2,2_2*%
%TO.N,Net-(U2-OUTN)*%
X107315000Y-111800000D03*
%TD*%
D19*
%TO.P,A1,1,GPIO0_1*%
%TO.N,Net-(A1-GPIO0)*%
X153110000Y-76180000D03*
D20*
%TO.P,A1,2,GPIO1_2*%
%TO.N,Net-(A1-GPIO1)*%
X153110000Y-78720000D03*
D21*
%TO.P,A1,3,GND_3*%
%TO.N,GND*%
X153110000Y-81260000D03*
D20*
%TO.P,A1,4,GPIO2_4*%
%TO.N,Net-(A1-GPIO2)*%
X153110000Y-83800000D03*
%TO.P,A1,5,GPIO3_5*%
%TO.N,Net-(A1-GPIO3)*%
X153110000Y-86340000D03*
%TO.P,A1,6,GPIO4_6*%
%TO.N,Net-(A1-GPIO4)*%
X153110000Y-88880000D03*
%TO.P,A1,7,GPIO5_7*%
%TO.N,Net-(A1-GPIO5)*%
X153110000Y-91420000D03*
D21*
%TO.P,A1,8,GND_8*%
%TO.N,GND*%
X153110000Y-93960000D03*
D20*
%TO.P,A1,9,GPIO6_9*%
%TO.N,Net-(A1-GPIO6)*%
X153110000Y-96500000D03*
%TO.P,A1,10,GPIO7_10*%
%TO.N,Net-(A1-GPIO7)*%
X153110000Y-99040000D03*
%TO.P,A1,11,GPIO8_11*%
%TO.N,unconnected-(A1-GPIO8-Pad11)*%
X153110000Y-101580000D03*
%TO.P,A1,12,GPIO9_12*%
%TO.N,unconnected-(A1-GPIO9-Pad12)*%
X153110000Y-104120000D03*
D21*
%TO.P,A1,13,GND_13*%
%TO.N,GND*%
X153110000Y-106660000D03*
D20*
%TO.P,A1,14,GPIO10_14*%
%TO.N,unconnected-(A1-GPIO10-Pad14)*%
X153110000Y-109200000D03*
%TO.P,A1,15,GPIO11_15*%
%TO.N,unconnected-(A1-GPIO11-Pad15)*%
X153110000Y-111740000D03*
%TO.P,A1,16,GPIO12_16*%
%TO.N,unconnected-(A1-GPIO12-Pad16)*%
X153110000Y-114280000D03*
%TO.P,A1,17,GPIO13_17*%
%TO.N,Net-(A1-GPIO13)*%
X153110000Y-116820000D03*
D21*
%TO.P,A1,18,GND_18*%
%TO.N,GND*%
X153110000Y-119360000D03*
D20*
%TO.P,A1,19,GPIO14_19*%
%TO.N,Net-(A1-GPIO14)*%
X153110000Y-121900000D03*
%TO.P,A1,20,GPIO15_20*%
%TO.N,Net-(A1-GPIO15)*%
X153110000Y-124440000D03*
%TO.P,A1,21,GPIO16_21*%
%TO.N,unconnected-(A1-GPIO16-Pad21)*%
X172490000Y-124440000D03*
%TO.P,A1,22,GPIO17_22*%
%TO.N,unconnected-(A1-GPIO17-Pad22)*%
X172490000Y-121900000D03*
D19*
%TO.P,A1,23,GND_23*%
%TO.N,GND*%
X172490000Y-119360000D03*
D20*
%TO.P,A1,24,GPIO18_24*%
%TO.N,unconnected-(A1-GPIO18-Pad24)*%
X172490000Y-116820000D03*
%TO.P,A1,25,GPIO19_25*%
%TO.N,unconnected-(A1-GPIO19-Pad25)*%
X172490000Y-114280000D03*
%TO.P,A1,26,GPIO20_26*%
%TO.N,unconnected-(A1-GPIO20-Pad26)*%
X172490000Y-111740000D03*
%TO.P,A1,27,GPIO21_27*%
%TO.N,unconnected-(A1-GPIO21-Pad27)*%
X172490000Y-109200000D03*
D19*
%TO.P,A1,28,GND_28*%
%TO.N,GND*%
X172490000Y-106660000D03*
D20*
%TO.P,A1,29,GPIO22_29*%
%TO.N,unconnected-(A1-GPIO22-Pad29)*%
X172490000Y-104120000D03*
%TO.P,A1,30,RUN_30*%
%TO.N,Net-(A1-RUN)*%
X172490000Y-101580000D03*
%TO.P,A1,31,GPIO26_ADC0_31*%
%TO.N,unconnected-(A1-GPIO26_ADC0-Pad31)*%
X172490000Y-99040000D03*
%TO.P,A1,32,GPIO27_ADC1_32*%
%TO.N,unconnected-(A1-GPIO27_ADC1-Pad32)*%
X172490000Y-96500000D03*
D19*
%TO.P,A1,33,AGND_33*%
%TO.N,GND*%
X172490000Y-93960000D03*
D20*
%TO.P,A1,34,GPIO28_ADC2_34*%
%TO.N,unconnected-(A1-GPIO28_ADC2-Pad34)*%
X172490000Y-91420000D03*
%TO.P,A1,35,ADC_VREF_35*%
%TO.N,unconnected-(A1-ADC_VREF-Pad35)*%
X172490000Y-88880000D03*
%TO.P,A1,36,3V3_36*%
%TO.N,PICO_PWR*%
X172490000Y-86340000D03*
%TO.P,A1,37,3V3_EN_37*%
%TO.N,unconnected-(A1-3V3_EN-Pad37)*%
X172490000Y-83800000D03*
D19*
%TO.P,A1,38,GND_38*%
%TO.N,GND*%
X172490000Y-81260000D03*
D20*
%TO.P,A1,39,VSYS_39*%
%TO.N,Net-(A1-VSYS)*%
X172490000Y-78720000D03*
%TO.P,A1,40,VBUS_40*%
%TO.N,unconnected-(A1-VBUS-Pad40)*%
X172490000Y-76180000D03*
%TD*%
D22*
%TO.P,U1,1,VCC_1*%
%TO.N,PICO_PWR*%
X108250000Y-79300000D03*
D16*
%TO.P,U1,2,3v3_2*%
%TO.N,unconnected-(U1-3v3-Pad2)*%
X110790000Y-79300000D03*
%TO.P,U1,3,GND_3*%
%TO.N,GND*%
X113330000Y-79300000D03*
%TO.P,U1,4,SCK_4*%
%TO.N,Net-(A1-GPIO7)*%
X115870000Y-79300000D03*
%TO.P,U1,5,MISO_5*%
%TO.N,Net-(A1-GPIO0)*%
X118410000Y-79300000D03*
%TO.P,U1,6,MOSI_6*%
%TO.N,Net-(A1-GPIO6)*%
X120950000Y-79300000D03*
%TO.P,U1,7,~{TFT_CS}_7*%
%TO.N,Net-(A1-GPIO5)*%
X123490000Y-79300000D03*
%TO.P,U1,8,~{RESET}_8*%
%TO.N,Net-(A1-GPIO4)*%
X126030000Y-79300000D03*
%TO.P,U1,9,D/C_9*%
%TO.N,Net-(A1-GPIO3)*%
X128570000Y-79300000D03*
%TO.P,U1,10,~{CCS}_10*%
%TO.N,Net-(A1-GPIO2)*%
X131110000Y-79300000D03*
%TO.P,U1,11,LITE_11*%
%TO.N,Net-(A1-GPIO1)*%
X133650000Y-79300000D03*
%TO.P,U1,12*%
%TO.N,N/C*%
X136190000Y-79300000D03*
%TD*%
D23*
%TO.N,GND*%
X124690000Y-103800000D03*
X176690000Y-86300000D03*
X111190000Y-87300000D03*
X152190000Y-129800000D03*
X110190000Y-124300000D03*
X183190000Y-102800000D03*
X128190000Y-86800000D03*
X166190000Y-84300000D03*
X143690000Y-112300000D03*
X180500000Y-129300000D03*
X111190000Y-107800000D03*
X120690000Y-119800000D03*
X165190000Y-111800000D03*
X177190000Y-114300000D03*
%TO.N,Net-(BT1-+)*%
X176190000Y-97800000D03*
%TD*%
%TO.N,Net-(U2-GAIN_SLOT)*%
D24*
X129000000Y-111500000D02*
X129000000Y-111580000D01*
X129000000Y-111580000D02*
X140100000Y-122680000D01*
X140100000Y-122680000D02*
X140190000Y-122680000D01*
%TO.N,Net-(BT1-+)*%
X177390000Y-96600000D02*
X176190000Y-97800000D01*
X180190000Y-96600000D02*
X177390000Y-96600000D01*
%TO.N,+3V0*%
X182240000Y-92550000D02*
X180190000Y-94600000D01*
X182240000Y-84550000D02*
X182240000Y-92550000D01*
X181190000Y-83500000D02*
X182240000Y-84550000D01*
%TO.N,Net-(A1-RUN)*%
X179580000Y-101580000D02*
X172490000Y-101580000D01*
X183000000Y-105000000D02*
X179580000Y-101580000D01*
X183000000Y-111500000D02*
X183000000Y-105000000D01*
%TO.N,Net-(A1-GPIO15)*%
X147250000Y-130300000D02*
X153110000Y-124440000D01*
X140190000Y-130300000D02*
X147250000Y-130300000D01*
%TO.N,Net-(A1-GPIO14)*%
X147690000Y-127300000D02*
X147710000Y-127300000D01*
X147150000Y-127760000D02*
X147190000Y-127800000D01*
X147710000Y-127300000D02*
X153110000Y-121900000D01*
X147190000Y-127800000D02*
X147690000Y-127300000D01*
X140190000Y-127760000D02*
X147150000Y-127760000D01*
%TO.N,Net-(A1-GPIO13)*%
X140190000Y-125220000D02*
X148590000Y-116820000D01*
X148590000Y-116820000D02*
X153110000Y-116820000D01*
%TO.N,PICO_PWR*%
X140190000Y-115060000D02*
X140190000Y-100670000D01*
X172490000Y-86340000D02*
X170650000Y-86340000D01*
X135500000Y-100480000D02*
X140000000Y-100480000D01*
X140190000Y-100670000D02*
X140000000Y-100480000D01*
X156510000Y-100480000D02*
X140000000Y-100480000D01*
X108250000Y-79300000D02*
X108250000Y-80250000D01*
X122520000Y-87500000D02*
X135500000Y-100480000D01*
X170650000Y-86340000D02*
X156510000Y-100480000D01*
X115500000Y-87500000D02*
X122520000Y-87500000D01*
X108250000Y-80250000D02*
X115500000Y-87500000D01*
%TO.N,Net-(U2-OUTP)*%
X127770000Y-116555000D02*
X127770000Y-120880000D01*
X107215000Y-96000000D02*
X127770000Y-116555000D01*
%TO.N,Net-(U2-OUTN)*%
X107315000Y-111800000D02*
X119995000Y-124480000D01*
X119995000Y-124480000D02*
X127670000Y-124480000D01*
%TO.N,Net-(A1-VSYS)*%
X172870000Y-79100000D02*
X172490000Y-78720000D01*
X181190000Y-79100000D02*
X172870000Y-79100000D01*
%TO.N,Net-(A1-GPIO0)*%
X118410000Y-79300000D02*
X121530000Y-76180000D01*
X121530000Y-76180000D02*
X153110000Y-76180000D01*
%TO.N,Net-(A1-GPIO1)*%
X133650000Y-79300000D02*
X134800000Y-80450000D01*
X134800000Y-80450000D02*
X151380000Y-80450000D01*
X151380000Y-80450000D02*
X153110000Y-78720000D01*
%TO.N,Net-(A1-GPIO2)*%
X135610000Y-83800000D02*
X153110000Y-83800000D01*
X131110000Y-79300000D02*
X135610000Y-83800000D01*
%TO.N,Net-(A1-GPIO3)*%
X135610000Y-86340000D02*
X153110000Y-86340000D01*
X128570000Y-79300000D02*
X135610000Y-86340000D01*
%TO.N,Net-(A1-GPIO4)*%
X135610000Y-88880000D02*
X153110000Y-88880000D01*
X126030000Y-79300000D02*
X135610000Y-88880000D01*
%TO.N,Net-(A1-GPIO5)*%
X123490000Y-79300000D02*
X135610000Y-91420000D01*
X135610000Y-91420000D02*
X153110000Y-91420000D01*
%TO.N,Net-(A1-GPIO6)*%
X134890000Y-96500000D02*
X153110000Y-96500000D01*
X120950000Y-82560000D02*
X134890000Y-96500000D01*
X120950000Y-79300000D02*
X120950000Y-82560000D01*
%TO.N,Net-(A1-GPIO7)*%
X135610000Y-99040000D02*
X153110000Y-99040000D01*
X115870000Y-79300000D02*
X135610000Y-99040000D01*
%TD*%
%TA.AperFunction,Conductor*%
%TO.N,GND*%
G36*
X151271054Y-74820185D02*
G01*
X151316809Y-74872989D01*
X151326753Y-74942147D01*
X151297728Y-75005703D01*
X151278325Y-75023767D01*
X151239274Y-75052999D01*
X151239256Y-75053015D01*
X151183019Y-75109252D01*
X151146843Y-75149524D01*
X151146837Y-75149532D01*
X151073426Y-75273263D01*
X151042978Y-75346774D01*
X151042970Y-75346795D01*
X151024976Y-75397800D01*
X151004500Y-75540219D01*
X151004500Y-75828500D01*
X150984815Y-75895539D01*
X150932011Y-75941294D01*
X150880500Y-75952500D01*
X121484746Y-75952500D01*
X121401130Y-75987136D01*
X119264659Y-78123606D01*
X119203336Y-78157091D01*
X119133644Y-78152107D01*
X119120683Y-78146410D01*
X119047022Y-78108878D01*
X118928412Y-78048443D01*
X118726243Y-77982754D01*
X118726241Y-77982753D01*
X118726240Y-77982753D01*
X118564957Y-77957208D01*
X118516287Y-77949500D01*
X118303713Y-77949500D01*
X118255042Y-77957208D01*
X118093760Y-77982753D01*
X117891585Y-78048444D01*
X117702179Y-78144951D01*
X117530213Y-78269890D01*
X117379890Y-78420213D01*
X117254949Y-78592182D01*
X117250484Y-78600946D01*
X117202509Y-78651742D01*
X117134688Y-78668536D01*
X117068553Y-78645998D01*
X117029516Y-78600946D01*
X117025050Y-78592182D01*
X116900109Y-78420213D01*
X116749786Y-78269890D01*
X116577820Y-78144951D01*
X116388414Y-78048444D01*
X116388413Y-78048443D01*
X116388412Y-78048443D01*
X116186243Y-77982754D01*
X116186241Y-77982753D01*
X116186240Y-77982753D01*
X116024957Y-77957208D01*
X115976287Y-77949500D01*
X115763713Y-77949500D01*
X115715042Y-77957208D01*
X115553760Y-77982753D01*
X115351585Y-78048444D01*
X115162179Y-78144951D01*
X114990213Y-78269890D01*
X114839890Y-78420213D01*
X114714949Y-78592182D01*
X114710202Y-78601499D01*
X114662227Y-78652293D01*
X114594405Y-78669087D01*
X114528271Y-78646548D01*
X114489234Y-78601495D01*
X114484626Y-78592452D01*
X114445270Y-78538282D01*
X114445269Y-78538282D01*
X113812962Y-79170590D01*
X113795925Y-79107007D01*
X113730099Y-78992993D01*
X113637007Y-78899901D01*
X113522993Y-78834075D01*
X113459409Y-78817037D01*
X114091716Y-78184728D01*
X114037550Y-78145375D01*
X113848217Y-78048904D01*
X113646129Y-77983242D01*
X113436246Y-77950000D01*
X113223754Y-77950000D01*
X113013872Y-77983242D01*
X113013869Y-77983242D01*
X112811782Y-78048904D01*
X112622439Y-78145380D01*
X112568282Y-78184727D01*
X112568282Y-78184728D01*
X113200591Y-78817037D01*
X113137007Y-78834075D01*
X113022993Y-78899901D01*
X112929901Y-78992993D01*
X112864075Y-79107007D01*
X112847037Y-79170591D01*
X112214728Y-78538282D01*
X112214727Y-78538282D01*
X112175380Y-78592440D01*
X112175376Y-78592446D01*
X112170760Y-78601505D01*
X112122781Y-78652297D01*
X112054959Y-78669087D01*
X111988826Y-78646543D01*
X111949794Y-78601493D01*
X111945051Y-78592184D01*
X111945049Y-78592181D01*
X111945048Y-78592179D01*
X111820109Y-78420213D01*
X111669786Y-78269890D01*
X111497820Y-78144951D01*
X111308414Y-78048444D01*
X111308413Y-78048443D01*
X111308412Y-78048443D01*
X111106243Y-77982754D01*
X111106241Y-77982753D01*
X111106240Y-77982753D01*
X110944957Y-77957208D01*
X110896287Y-77949500D01*
X110683713Y-77949500D01*
X110635042Y-77957208D01*
X110473760Y-77982753D01*
X110271585Y-78048444D01*
X110082179Y-78144951D01*
X109910213Y-78269890D01*
X109759894Y-78420209D01*
X109759890Y-78420214D01*
X109754887Y-78427100D01*
X109699554Y-78469763D01*
X109629940Y-78475738D01*
X109568147Y-78443128D01*
X109536867Y-78393212D01*
X109534153Y-78385022D01*
X109534152Y-78385018D01*
X109534148Y-78385012D01*
X109534147Y-78385009D01*
X109441121Y-78234192D01*
X109441118Y-78234188D01*
X109315811Y-78108881D01*
X109315807Y-78108878D01*
X109164990Y-78015852D01*
X109164984Y-78015849D01*
X109164982Y-78015848D01*
X109164979Y-78015847D01*
X108996765Y-77960107D01*
X108892942Y-77949500D01*
X107607066Y-77949500D01*
X107607050Y-77949501D01*
X107503234Y-77960107D01*
X107335020Y-78015847D01*
X107335009Y-78015852D01*
X107184192Y-78108878D01*
X107184188Y-78108881D01*
X107058881Y-78234188D01*
X107058878Y-78234192D01*
X106965852Y-78385009D01*
X106965847Y-78385020D01*
X106910107Y-78553234D01*
X106899500Y-78657051D01*
X106899500Y-79942933D01*
X106899501Y-79942949D01*
X106910107Y-80046765D01*
X106965847Y-80214979D01*
X106965852Y-80214990D01*
X107058878Y-80365807D01*
X107058881Y-80365811D01*
X107184188Y-80491118D01*
X107184192Y-80491121D01*
X107335009Y-80584147D01*
X107335012Y-80584148D01*
X107335018Y-80584152D01*
X107503236Y-80639893D01*
X107607059Y-80650500D01*
X108277404Y-80650499D01*
X108344443Y-80670183D01*
X108365085Y-80686818D01*
X115307135Y-87628868D01*
X115371132Y-87692865D01*
X115454747Y-87727500D01*
X122374405Y-87727500D01*
X122441444Y-87747185D01*
X122462086Y-87763819D01*
X135371129Y-100672863D01*
X135371130Y-100672863D01*
X135371132Y-100672865D01*
X135454747Y-100707500D01*
X135545253Y-100707500D01*
X139838500Y-100707500D01*
X139905539Y-100727185D01*
X139951294Y-100779989D01*
X139962500Y-100831500D01*
X139962500Y-113623828D01*
X139942815Y-113690867D01*
X139890011Y-113736622D01*
X139876819Y-113741759D01*
X139671583Y-113808444D01*
X139482179Y-113904951D01*
X139310213Y-114029890D01*
X139159890Y-114180213D01*
X139034951Y-114352179D01*
X138938444Y-114541585D01*
X138872753Y-114743760D01*
X138839500Y-114953713D01*
X138839500Y-115166286D01*
X138857517Y-115280045D01*
X138872754Y-115376243D01*
X138929211Y-115550000D01*
X138938444Y-115578414D01*
X139034951Y-115767820D01*
X139159890Y-115939786D01*
X139310213Y-116090109D01*
X139482179Y-116215048D01*
X139482181Y-116215049D01*
X139482184Y-116215051D01*
X139491493Y-116219794D01*
X139542290Y-116267766D01*
X139559087Y-116335587D01*
X139536552Y-116401722D01*
X139491505Y-116440760D01*
X139482446Y-116445376D01*
X139482440Y-116445380D01*
X139428282Y-116484727D01*
X139428282Y-116484728D01*
X140060591Y-117117037D01*
X139997007Y-117134075D01*
X139882993Y-117199901D01*
X139789901Y-117292993D01*
X139724075Y-117407007D01*
X139707037Y-117470591D01*
X139074728Y-116838282D01*
X139074727Y-116838282D01*
X139035380Y-116892439D01*
X138938904Y-117081782D01*
X138873242Y-117283869D01*
X138873242Y-117283872D01*
X138840000Y-117493753D01*
X138840000Y-117706246D01*
X138873242Y-117916127D01*
X138873242Y-117916130D01*
X138938904Y-118118217D01*
X139035375Y-118307550D01*
X139074728Y-118361716D01*
X139707037Y-117729408D01*
X139724075Y-117792993D01*
X139789901Y-117907007D01*
X139882993Y-118000099D01*
X139997007Y-118065925D01*
X140060590Y-118082962D01*
X139428282Y-118715269D01*
X139428282Y-118715270D01*
X139482452Y-118754626D01*
X139482451Y-118754626D01*
X139491495Y-118759234D01*
X139542292Y-118807208D01*
X139559087Y-118875029D01*
X139536550Y-118941164D01*
X139491499Y-118980202D01*
X139482182Y-118984949D01*
X139310213Y-119109890D01*
X139159890Y-119260213D01*
X139034951Y-119432179D01*
X138938444Y-119621585D01*
X138872753Y-119823760D01*
X138844875Y-119999779D01*
X138839500Y-120033713D01*
X138839500Y-120246287D01*
X138872754Y-120456243D01*
X138928092Y-120626556D01*
X138938444Y-120658414D01*
X139034951Y-120847820D01*
X139159890Y-121019786D01*
X139310213Y-121170109D01*
X139482182Y-121295050D01*
X139490946Y-121299516D01*
X139541742Y-121347491D01*
X139558536Y-121415312D01*
X139535998Y-121481447D01*
X139490946Y-121520484D01*
X139482190Y-121524945D01*
X139482185Y-121524948D01*
X139443044Y-121553385D01*
X139377237Y-121576863D01*
X139309184Y-121561036D01*
X139282480Y-121540746D01*
X135318296Y-117576562D01*
X130107664Y-112365931D01*
X130074179Y-112304608D01*
X130079163Y-112234916D01*
X130095027Y-112205365D01*
X130112287Y-112181610D01*
X130205220Y-111999219D01*
X130268477Y-111804534D01*
X130300500Y-111602352D01*
X130300500Y-111397648D01*
X130268477Y-111195466D01*
X130253259Y-111148631D01*
X130205218Y-111000776D01*
X130154308Y-110900861D01*
X130112287Y-110818390D01*
X130104556Y-110807749D01*
X129991971Y-110652786D01*
X129847213Y-110508028D01*
X129681613Y-110387715D01*
X129681612Y-110387714D01*
X129681610Y-110387713D01*
X129618355Y-110355483D01*
X129499223Y-110294781D01*
X129304534Y-110231522D01*
X129129995Y-110203878D01*
X129102352Y-110199500D01*
X128897648Y-110199500D01*
X128873329Y-110203351D01*
X128695465Y-110231522D01*
X128500776Y-110294781D01*
X128318386Y-110387715D01*
X128152786Y-110508028D01*
X128008028Y-110652786D01*
X127887715Y-110818386D01*
X127794781Y-111000776D01*
X127731522Y-111195465D01*
X127699500Y-111397648D01*
X127699500Y-111602351D01*
X127731522Y-111804534D01*
X127794781Y-111999223D01*
X127887715Y-112181613D01*
X128008028Y-112347213D01*
X128152786Y-112491971D01*
X128307749Y-112604556D01*
X128318390Y-112612287D01*
X128401550Y-112654659D01*
X128500776Y-112705218D01*
X128500778Y-112705218D01*
X128500781Y-112705220D01*
X128554450Y-112722658D01*
X128695465Y-112768477D01*
X128786616Y-112782914D01*
X128897648Y-112800500D01*
X128897649Y-112800500D01*
X129102351Y-112800500D01*
X129102352Y-112800500D01*
X129304534Y-112768477D01*
X129499219Y-112705220D01*
X129620512Y-112643417D01*
X129689180Y-112630521D01*
X129753921Y-112656797D01*
X129764488Y-112666221D01*
X138983228Y-121884961D01*
X139016713Y-121946284D01*
X139011729Y-122015976D01*
X139006032Y-122028937D01*
X138938444Y-122161585D01*
X138872753Y-122363760D01*
X138839500Y-122573713D01*
X138839500Y-122786286D01*
X138864793Y-122945983D01*
X138872754Y-122996243D01*
X138929211Y-123170000D01*
X138938444Y-123198414D01*
X139034951Y-123387820D01*
X139159890Y-123559786D01*
X139310213Y-123710109D01*
X139482182Y-123835050D01*
X139490946Y-123839516D01*
X139541742Y-123887491D01*
X139558536Y-123955312D01*
X139535998Y-124021447D01*
X139490946Y-124060484D01*
X139482182Y-124064949D01*
X139310213Y-124189890D01*
X139159890Y-124340213D01*
X139034951Y-124512179D01*
X138938444Y-124701585D01*
X138872753Y-124903760D01*
X138839500Y-125113713D01*
X138839500Y-125326286D01*
X138864793Y-125485983D01*
X138872754Y-125536243D01*
X138938337Y-125738087D01*
X138938444Y-125738414D01*
X139034951Y-125927820D01*
X139159890Y-126099786D01*
X139310213Y-126250109D01*
X139482182Y-126375050D01*
X139490946Y-126379516D01*
X139541742Y-126427491D01*
X139558536Y-126495312D01*
X139535998Y-126561447D01*
X139490946Y-126600484D01*
X139482182Y-126604949D01*
X139310213Y-126729890D01*
X139159890Y-126880213D01*
X139034951Y-127052179D01*
X138938444Y-127241585D01*
X138872753Y-127443760D01*
X138839500Y-127653713D01*
X138839500Y-127866286D01*
X138872753Y-128076239D01*
X138938444Y-128278414D01*
X139034951Y-128467820D01*
X139159890Y-128639786D01*
X139312891Y-128792787D01*
X139346376Y-128854110D01*
X139341392Y-128923802D01*
X139299520Y-128979735D01*
X139262104Y-128998852D01*
X139241474Y-129005281D01*
X139241470Y-129005282D01*
X139099048Y-129091380D01*
X138981380Y-129209048D01*
X138895282Y-129351470D01*
X138895281Y-129351473D01*
X138845774Y-129510348D01*
X138839500Y-129579397D01*
X138839500Y-131020612D01*
X138845772Y-131089645D01*
X138845773Y-131089649D01*
X138895281Y-131248526D01*
X138895282Y-131248529D01*
X138981380Y-131390951D01*
X139099048Y-131508619D01*
X139099050Y-131508620D01*
X139099052Y-131508622D01*
X139241468Y-131594716D01*
X139241470Y-131594717D01*
X139241473Y-131594718D01*
X139303589Y-131614074D01*
X139400350Y-131644226D01*
X139469395Y-131650500D01*
X140910604Y-131650499D01*
X140910611Y-131650499D01*
X140979645Y-131644227D01*
X140979648Y-131644226D01*
X140979650Y-131644226D01*
X141138532Y-131594716D01*
X141280948Y-131508622D01*
X141398622Y-131390948D01*
X141484716Y-131248532D01*
X141534226Y-131089650D01*
X141540500Y-131020605D01*
X141540500Y-130651500D01*
X141560185Y-130584461D01*
X141612989Y-130538706D01*
X141664500Y-130527500D01*
X147295252Y-130527500D01*
X147295253Y-130527500D01*
X147378868Y-130492865D01*
X152100161Y-125771570D01*
X152161482Y-125738087D01*
X152198644Y-125735725D01*
X152253216Y-125740500D01*
X152253217Y-125740500D01*
X153966785Y-125740500D01*
X153966785Y-125740499D01*
X154136692Y-125725635D01*
X154356496Y-125666739D01*
X154562734Y-125570568D01*
X154749139Y-125440047D01*
X154910047Y-125279139D01*
X155040568Y-125092734D01*
X155136739Y-124886496D01*
X155195635Y-124666692D01*
X155210500Y-124496784D01*
X155210500Y-124383216D01*
X155195635Y-124213308D01*
X155136739Y-123993504D01*
X155040568Y-123787266D01*
X154914241Y-123606851D01*
X154910045Y-123600858D01*
X154749141Y-123439954D01*
X154562734Y-123309432D01*
X154562728Y-123309429D01*
X154504725Y-123282382D01*
X154452285Y-123236210D01*
X154433133Y-123169017D01*
X154453348Y-123102135D01*
X154504725Y-123057618D01*
X154562734Y-123030568D01*
X154749139Y-122900047D01*
X154910047Y-122739139D01*
X155040568Y-122552734D01*
X155136739Y-122346496D01*
X155195635Y-122126692D01*
X155210500Y-121956784D01*
X155210500Y-121843216D01*
X155195635Y-121673308D01*
X155189362Y-121649895D01*
X155700000Y-121649895D01*
X159212057Y-124377343D01*
X159252931Y-124434007D01*
X159260000Y-124475277D01*
X159260000Y-125809966D01*
X159260476Y-125853635D01*
X159260476Y-125853641D01*
X159268083Y-125940590D01*
X159283238Y-126026537D01*
X159283241Y-126026550D01*
X159305824Y-126110834D01*
X159305825Y-126110837D01*
X159335674Y-126192851D01*
X159335675Y-126192854D01*
X159335680Y-126192866D01*
X159372567Y-126271969D01*
X159416207Y-126347556D01*
X159416211Y-126347562D01*
X159416218Y-126347573D01*
X159466269Y-126419053D01*
X159506820Y-126467379D01*
X159522371Y-126485912D01*
X159584088Y-126547629D01*
X159600556Y-126561447D01*
X159650946Y-126603730D01*
X159722426Y-126653781D01*
X159722433Y-126653785D01*
X159722444Y-126653793D01*
X159798031Y-126697433D01*
X159877134Y-126734320D01*
X159959151Y-126764171D01*
X159959161Y-126764173D01*
X159959162Y-126764174D01*
X159959165Y-126764175D01*
X159978131Y-126769256D01*
X160043457Y-126786761D01*
X160129412Y-126801917D01*
X160216360Y-126809524D01*
X160260000Y-126810000D01*
X160303640Y-126809524D01*
X160390588Y-126801917D01*
X160476543Y-126786761D01*
X160560849Y-126764171D01*
X160642866Y-126734320D01*
X160721969Y-126697433D01*
X160797556Y-126653793D01*
X160869052Y-126603731D01*
X160935912Y-126547629D01*
X160997629Y-126485912D01*
X161053731Y-126419052D01*
X161093065Y-126362876D01*
X161147641Y-126319252D01*
X161194640Y-126310000D01*
X161865360Y-126310000D01*
X161932399Y-126329685D01*
X161966935Y-126362877D01*
X162006269Y-126419053D01*
X162046820Y-126467379D01*
X162062371Y-126485912D01*
X162124088Y-126547629D01*
X162140556Y-126561447D01*
X162190946Y-126603730D01*
X162262426Y-126653781D01*
X162262433Y-126653785D01*
X162262444Y-126653793D01*
X162338031Y-126697433D01*
X162417134Y-126734320D01*
X162499151Y-126764171D01*
X162499161Y-126764173D01*
X162499162Y-126764174D01*
X162499165Y-126764175D01*
X162518131Y-126769256D01*
X162583457Y-126786761D01*
X162669412Y-126801917D01*
X162756360Y-126809524D01*
X162800000Y-126810000D01*
X162843640Y-126809524D01*
X162930588Y-126801917D01*
X163016543Y-126786761D01*
X163100849Y-126764171D01*
X163182866Y-126734320D01*
X163261969Y-126697433D01*
X163337556Y-126653793D01*
X163409052Y-126603731D01*
X163475912Y-126547629D01*
X163537629Y-126485912D01*
X163593731Y-126419052D01*
X163633065Y-126362876D01*
X163687641Y-126319252D01*
X163734640Y-126310000D01*
X164405562Y-126310000D01*
X164472601Y-126329685D01*
X164507132Y-126362870D01*
X164518789Y-126379516D01*
X164546416Y-126418968D01*
X164602509Y-126485813D01*
X164602513Y-126485817D01*
X164602514Y-126485818D01*
X164664231Y-126547531D01*
X164664237Y-126547536D01*
X164664238Y-126547537D01*
X164680817Y-126561447D01*
X164731092Y-126603630D01*
X164802589Y-126653689D01*
X164878176Y-126697326D01*
X164957279Y-126734209D01*
X164957289Y-126734212D01*
X164957292Y-126734214D01*
X165039278Y-126764051D01*
X165039281Y-126764052D01*
X165039295Y-126764057D01*
X165123601Y-126786643D01*
X165209555Y-126801795D01*
X165209558Y-126801795D01*
X165209561Y-126801796D01*
X165296477Y-126809397D01*
X165296487Y-126809397D01*
X165296502Y-126809399D01*
X165340141Y-126809925D01*
X165383780Y-126809448D01*
X165470727Y-126801837D01*
X165556679Y-126786679D01*
X165640983Y-126764087D01*
X165722998Y-126734233D01*
X165802099Y-126697346D01*
X165877684Y-126653705D01*
X165918648Y-126625020D01*
X165949155Y-126603659D01*
X165949162Y-126603653D01*
X165949177Y-126603643D01*
X166016036Y-126547540D01*
X166077751Y-126485824D01*
X166133853Y-126418965D01*
X166183914Y-126347470D01*
X166227553Y-126271884D01*
X166264440Y-126192783D01*
X166294292Y-126110768D01*
X166316882Y-126026464D01*
X166332040Y-125940511D01*
X166339648Y-125853564D01*
X166340141Y-125809925D01*
X166340141Y-124475168D01*
X166359826Y-124408129D01*
X166388082Y-124377235D01*
X169900000Y-121649895D01*
X169900000Y-119999785D01*
X170385000Y-119999785D01*
X170387893Y-120053762D01*
X170387893Y-120053764D01*
X170423438Y-120193030D01*
X170423442Y-120193042D01*
X170453881Y-120266528D01*
X170453893Y-120266556D01*
X170477218Y-120315309D01*
X170477221Y-120315314D01*
X170563358Y-120430378D01*
X170563361Y-120430382D01*
X170619623Y-120486643D01*
X170619640Y-120486659D01*
X170659842Y-120522770D01*
X170783454Y-120596111D01*
X170783461Y-120596115D01*
X170856932Y-120626547D01*
X170856956Y-120626556D01*
X170885164Y-120636508D01*
X170941835Y-120677374D01*
X170967417Y-120742392D01*
X170953785Y-120810920D01*
X170915033Y-120855019D01*
X170850859Y-120899953D01*
X170689954Y-121060858D01*
X170559432Y-121247265D01*
X170559431Y-121247267D01*
X170463261Y-121453502D01*
X170463258Y-121453511D01*
X170404366Y-121673302D01*
X170404364Y-121673312D01*
X170389500Y-121843214D01*
X170389500Y-121956785D01*
X170404364Y-122126687D01*
X170404366Y-122126697D01*
X170463258Y-122346488D01*
X170463261Y-122346497D01*
X170559431Y-122552732D01*
X170559432Y-122552734D01*
X170689954Y-122739141D01*
X170850858Y-122900045D01*
X170850861Y-122900047D01*
X171037266Y-123030568D01*
X171095275Y-123057618D01*
X171147714Y-123103791D01*
X171166866Y-123170984D01*
X171146650Y-123237865D01*
X171095275Y-123282382D01*
X171037267Y-123309431D01*
X171037265Y-123309432D01*
X170850858Y-123439954D01*
X170689954Y-123600858D01*
X170559432Y-123787265D01*
X170559431Y-123787267D01*
X170463261Y-123993502D01*
X170463258Y-123993511D01*
X170404366Y-124213302D01*
X170404364Y-124213312D01*
X170389500Y-124383214D01*
X170389500Y-124496785D01*
X170404364Y-124666687D01*
X170404366Y-124666697D01*
X170463258Y-124886488D01*
X170463261Y-124886497D01*
X170559431Y-125092732D01*
X170559432Y-125092734D01*
X170689954Y-125279141D01*
X170850858Y-125440045D01*
X170850861Y-125440047D01*
X171037266Y-125570568D01*
X171243504Y-125666739D01*
X171243509Y-125666740D01*
X171243511Y-125666741D01*
X171275230Y-125675240D01*
X171463308Y-125725635D01*
X171633214Y-125740499D01*
X171633215Y-125740500D01*
X171633216Y-125740500D01*
X173346785Y-125740500D01*
X173346785Y-125740499D01*
X173516692Y-125725635D01*
X173736496Y-125666739D01*
X173942734Y-125570568D01*
X174129139Y-125440047D01*
X174290047Y-125279139D01*
X174420568Y-125092734D01*
X174516739Y-124886496D01*
X174575635Y-124666692D01*
X174590500Y-124496784D01*
X174590500Y-124383216D01*
X174575635Y-124213308D01*
X174516739Y-123993504D01*
X174420568Y-123787266D01*
X174294241Y-123606851D01*
X174290045Y-123600858D01*
X174129141Y-123439954D01*
X173942734Y-123309432D01*
X173942728Y-123309429D01*
X173884725Y-123282382D01*
X173832285Y-123236210D01*
X173813133Y-123169017D01*
X173833348Y-123102135D01*
X173884725Y-123057618D01*
X173942734Y-123030568D01*
X174129139Y-122900047D01*
X174290047Y-122739139D01*
X174420568Y-122552734D01*
X174516739Y-122346496D01*
X174575635Y-122126692D01*
X174590500Y-121956784D01*
X174590500Y-121843216D01*
X174575635Y-121673308D01*
X174516739Y-121453504D01*
X174420568Y-121247266D01*
X174290047Y-121060861D01*
X174290045Y-121060858D01*
X174129141Y-120899954D01*
X173942734Y-120769432D01*
X173942732Y-120769431D01*
X173890779Y-120745205D01*
X173838340Y-120699032D01*
X173819188Y-120631839D01*
X173839404Y-120564958D01*
X173884732Y-120523464D01*
X173949500Y-120488844D01*
X173949521Y-120488832D01*
X174080530Y-120401295D01*
X174080536Y-120401291D01*
X174157064Y-120338485D01*
X174268485Y-120227064D01*
X174331291Y-120150536D01*
X174331295Y-120150530D01*
X174418832Y-120019521D01*
X174418844Y-120019501D01*
X174465509Y-119932198D01*
X174525814Y-119786612D01*
X174554556Y-119691860D01*
X174554559Y-119691849D01*
X174570839Y-119610000D01*
X170385000Y-119610000D01*
X170385000Y-119999785D01*
X169900000Y-119999785D01*
X169900000Y-117310000D01*
X155700000Y-117310000D01*
X155700000Y-121649895D01*
X155189362Y-121649895D01*
X155136739Y-121453504D01*
X155040568Y-121247266D01*
X154910047Y-121060861D01*
X154910045Y-121060858D01*
X154749141Y-120899954D01*
X154682620Y-120853376D01*
X154638995Y-120798800D01*
X154631801Y-120729301D01*
X154663324Y-120666946D01*
X154723083Y-120631651D01*
X154743038Y-120626558D01*
X154743042Y-120626557D01*
X154816528Y-120596118D01*
X154816556Y-120596106D01*
X154865309Y-120572781D01*
X154865314Y-120572778D01*
X154980378Y-120486641D01*
X154980382Y-120486638D01*
X155036643Y-120430376D01*
X155036659Y-120430359D01*
X155072770Y-120390157D01*
X155146111Y-120266545D01*
X155146115Y-120266538D01*
X155176547Y-120193067D01*
X155176548Y-120193064D01*
X155194544Y-120142053D01*
X155214999Y-119999780D01*
X155215000Y-119999779D01*
X155215000Y-119610000D01*
X151029160Y-119610000D01*
X151045440Y-119691849D01*
X151045443Y-119691860D01*
X151074185Y-119786612D01*
X151134490Y-119932198D01*
X151181155Y-120019501D01*
X151181167Y-120019521D01*
X151268704Y-120150530D01*
X151268708Y-120150536D01*
X151331514Y-120227064D01*
X151442935Y-120338485D01*
X151519463Y-120401291D01*
X151519469Y-120401295D01*
X151650478Y-120488832D01*
X151650506Y-120488849D01*
X151715268Y-120523465D01*
X151765112Y-120572427D01*
X151780573Y-120640565D01*
X151756741Y-120706244D01*
X151709221Y-120745205D01*
X151657264Y-120769433D01*
X151470858Y-120899954D01*
X151309954Y-121060858D01*
X151179432Y-121247265D01*
X151179431Y-121247267D01*
X151083261Y-121453502D01*
X151083258Y-121453511D01*
X151024366Y-121673302D01*
X151024364Y-121673312D01*
X151009500Y-121843214D01*
X151009500Y-121956785D01*
X151024364Y-122126687D01*
X151024366Y-122126697D01*
X151083258Y-122346488D01*
X151083261Y-122346497D01*
X151179431Y-122552732D01*
X151179432Y-122552734D01*
X151309954Y-122739141D01*
X151470857Y-122900044D01*
X151470860Y-122900046D01*
X151470861Y-122900047D01*
X151536467Y-122945984D01*
X151580092Y-123000560D01*
X151587286Y-123070058D01*
X151555764Y-123132413D01*
X151553025Y-123135240D01*
X147612715Y-127075550D01*
X147572489Y-127102429D01*
X147561132Y-127107133D01*
X147561130Y-127107134D01*
X147172086Y-127496181D01*
X147110763Y-127529666D01*
X147084405Y-127532500D01*
X141626171Y-127532500D01*
X141559132Y-127512815D01*
X141513377Y-127460011D01*
X141508240Y-127446818D01*
X141507246Y-127443760D01*
X141507246Y-127443757D01*
X141441557Y-127241588D01*
X141345051Y-127052184D01*
X141345049Y-127052181D01*
X141345048Y-127052179D01*
X141220109Y-126880213D01*
X141069786Y-126729890D01*
X140897820Y-126604951D01*
X140897115Y-126604591D01*
X140889054Y-126600485D01*
X140838259Y-126552512D01*
X140821463Y-126484692D01*
X140843999Y-126418556D01*
X140889054Y-126379515D01*
X140897816Y-126375051D01*
X140919789Y-126359086D01*
X141069786Y-126250109D01*
X141069788Y-126250106D01*
X141069792Y-126250104D01*
X141220104Y-126099792D01*
X141220106Y-126099788D01*
X141220109Y-126099786D01*
X141345048Y-125927820D01*
X141345047Y-125927820D01*
X141345051Y-125927816D01*
X141441557Y-125738412D01*
X141507246Y-125536243D01*
X141540500Y-125326287D01*
X141540500Y-125113713D01*
X141507246Y-124903757D01*
X141441557Y-124701588D01*
X141345051Y-124512184D01*
X141345050Y-124512183D01*
X141343589Y-124509315D01*
X141330693Y-124440646D01*
X141356969Y-124375905D01*
X141366384Y-124365348D01*
X148647915Y-117083819D01*
X148709238Y-117050334D01*
X148735596Y-117047500D01*
X150929433Y-117047500D01*
X150996472Y-117067185D01*
X151042227Y-117119989D01*
X151049208Y-117139407D01*
X151083258Y-117266488D01*
X151083261Y-117266497D01*
X151179431Y-117472732D01*
X151179432Y-117472734D01*
X151309954Y-117659141D01*
X151470858Y-117820045D01*
X151470861Y-117820047D01*
X151657266Y-117950568D01*
X151709219Y-117974794D01*
X151761659Y-118020966D01*
X151780811Y-118088159D01*
X151760596Y-118155041D01*
X151715269Y-118196534D01*
X151650499Y-118231155D01*
X151650478Y-118231167D01*
X151519469Y-118318704D01*
X151519463Y-118318708D01*
X151442935Y-118381514D01*
X151331514Y-118492935D01*
X151268708Y-118569463D01*
X151268704Y-118569469D01*
X151181167Y-118700478D01*
X151181155Y-118700498D01*
X151134490Y-118787801D01*
X151074185Y-118933387D01*
X151045443Y-119028139D01*
X151045440Y-119028150D01*
X151029160Y-119109999D01*
X151029161Y-119110000D01*
X155215000Y-119110000D01*
X155215000Y-118720214D01*
X155212106Y-118666237D01*
X155212106Y-118666235D01*
X155176561Y-118526969D01*
X155176557Y-118526957D01*
X155146118Y-118453471D01*
X155146106Y-118453443D01*
X155122781Y-118404690D01*
X155122778Y-118404685D01*
X155036641Y-118289621D01*
X155036638Y-118289617D01*
X154980376Y-118233356D01*
X154980359Y-118233340D01*
X154940157Y-118197229D01*
X154816545Y-118123888D01*
X154816538Y-118123884D01*
X154743067Y-118093452D01*
X154743065Y-118093451D01*
X154714833Y-118083491D01*
X154658162Y-118042623D01*
X154632582Y-117977604D01*
X154646215Y-117909077D01*
X154684964Y-117864982D01*
X154749139Y-117820047D01*
X154910047Y-117659139D01*
X155040568Y-117472734D01*
X155136739Y-117266496D01*
X155195635Y-117046692D01*
X155210500Y-116876784D01*
X155210500Y-116763216D01*
X155195635Y-116593308D01*
X155136739Y-116373504D01*
X155040568Y-116167266D01*
X154910047Y-115980861D01*
X154910045Y-115980858D01*
X154749141Y-115819954D01*
X154562734Y-115689432D01*
X154562728Y-115689429D01*
X154504725Y-115662382D01*
X154452285Y-115616210D01*
X154433133Y-115549017D01*
X154453348Y-115482135D01*
X154504725Y-115437618D01*
X154562734Y-115410568D01*
X154749139Y-115280047D01*
X154910047Y-115119139D01*
X155040568Y-114932734D01*
X155136739Y-114726496D01*
X155195635Y-114506692D01*
X155210500Y-114336784D01*
X155210500Y-114223216D01*
X155195635Y-114053308D01*
X155136739Y-113833504D01*
X155040568Y-113627266D01*
X154910047Y-113440861D01*
X154910045Y-113440858D01*
X154749141Y-113279954D01*
X154562734Y-113149432D01*
X154562728Y-113149429D01*
X154504725Y-113122382D01*
X154452285Y-113076210D01*
X154433133Y-113009017D01*
X154453348Y-112942135D01*
X154504725Y-112897618D01*
X154562734Y-112870568D01*
X154749139Y-112740047D01*
X154910047Y-112579139D01*
X155040568Y-112392734D01*
X155136739Y-112186496D01*
X155195635Y-111966692D01*
X155210500Y-111796784D01*
X155210500Y-111683216D01*
X155195635Y-111513308D01*
X155136739Y-111293504D01*
X155040568Y-111087266D01*
X154910047Y-110900861D01*
X154910045Y-110900858D01*
X154749141Y-110739954D01*
X154562734Y-110609432D01*
X154562728Y-110609429D01*
X154504725Y-110582382D01*
X154452285Y-110536210D01*
X154433133Y-110469017D01*
X154453348Y-110402135D01*
X154504725Y-110357618D01*
X154562734Y-110330568D01*
X154749139Y-110200047D01*
X154910047Y-110039139D01*
X155040568Y-109852734D01*
X155136739Y-109646496D01*
X155195635Y-109426692D01*
X155210500Y-109256784D01*
X155210500Y-109143216D01*
X155195635Y-108973308D01*
X155136739Y-108753504D01*
X155040568Y-108547266D01*
X154910047Y-108360861D01*
X154910045Y-108360858D01*
X154749141Y-108199954D01*
X154682620Y-108153376D01*
X154638995Y-108098800D01*
X154631801Y-108029301D01*
X154663324Y-107966946D01*
X154723083Y-107931651D01*
X154743038Y-107926558D01*
X154743042Y-107926557D01*
X154816528Y-107896118D01*
X154816556Y-107896106D01*
X154865309Y-107872781D01*
X154865314Y-107872778D01*
X154980378Y-107786641D01*
X154980382Y-107786638D01*
X155036643Y-107730376D01*
X155036659Y-107730359D01*
X155072770Y-107690157D01*
X155146111Y-107566545D01*
X155146115Y-107566538D01*
X155176547Y-107493067D01*
X155176548Y-107493064D01*
X155194544Y-107442053D01*
X155214998Y-107299785D01*
X170385000Y-107299785D01*
X170387893Y-107353762D01*
X170387893Y-107353764D01*
X170423438Y-107493030D01*
X170423442Y-107493042D01*
X170453881Y-107566528D01*
X170453893Y-107566556D01*
X170477218Y-107615309D01*
X170477221Y-107615314D01*
X170563358Y-107730378D01*
X170563361Y-107730382D01*
X170619623Y-107786643D01*
X170619640Y-107786659D01*
X170659842Y-107822770D01*
X170783454Y-107896111D01*
X170783461Y-107896115D01*
X170856932Y-107926547D01*
X170856956Y-107926556D01*
X170885164Y-107936508D01*
X170941835Y-107977374D01*
X170967417Y-108042392D01*
X170953785Y-108110920D01*
X170915033Y-108155019D01*
X170850859Y-108199953D01*
X170689954Y-108360858D01*
X170559432Y-108547265D01*
X170559431Y-108547267D01*
X170463261Y-108753502D01*
X170463258Y-108753511D01*
X170404366Y-108973302D01*
X170404364Y-108973312D01*
X170389500Y-109143214D01*
X170389500Y-109256785D01*
X170404364Y-109426687D01*
X170404366Y-109426697D01*
X170463258Y-109646488D01*
X170463261Y-109646497D01*
X170559431Y-109852732D01*
X170559432Y-109852734D01*
X170689954Y-110039141D01*
X170850858Y-110200045D01*
X170850861Y-110200047D01*
X171037266Y-110330568D01*
X171095275Y-110357618D01*
X171147714Y-110403791D01*
X171166866Y-110470984D01*
X171146650Y-110537865D01*
X171095275Y-110582382D01*
X171037267Y-110609431D01*
X171037265Y-110609432D01*
X170850858Y-110739954D01*
X170689954Y-110900858D01*
X170559432Y-111087265D01*
X170559431Y-111087267D01*
X170463261Y-111293502D01*
X170463258Y-111293511D01*
X170404366Y-111513302D01*
X170404364Y-111513312D01*
X170389500Y-111683214D01*
X170389500Y-111796785D01*
X170404364Y-111966687D01*
X170404366Y-111966697D01*
X170463258Y-112186488D01*
X170463261Y-112186497D01*
X170559431Y-112392732D01*
X170559432Y-112392734D01*
X170689954Y-112579141D01*
X170850858Y-112740045D01*
X170850861Y-112740047D01*
X171037266Y-112870568D01*
X171079157Y-112890102D01*
X171095275Y-112897618D01*
X171147714Y-112943791D01*
X171166866Y-113010984D01*
X171146650Y-113077865D01*
X171095275Y-113122382D01*
X171037267Y-113149431D01*
X171037265Y-113149432D01*
X170850858Y-113279954D01*
X170689954Y-113440858D01*
X170559432Y-113627265D01*
X170559431Y-113627267D01*
X170463261Y-113833502D01*
X170463258Y-113833511D01*
X170404366Y-114053302D01*
X170404364Y-114053312D01*
X170389500Y-114223214D01*
X170389500Y-114336785D01*
X170404364Y-114506687D01*
X170404366Y-114506697D01*
X170463258Y-114726488D01*
X170463261Y-114726497D01*
X170559431Y-114932732D01*
X170559432Y-114932734D01*
X170689954Y-115119141D01*
X170850858Y-115280045D01*
X170850861Y-115280047D01*
X171037266Y-115410568D01*
X171095275Y-115437618D01*
X171147714Y-115483791D01*
X171166866Y-115550984D01*
X171146650Y-115617865D01*
X171095275Y-115662382D01*
X171037267Y-115689431D01*
X171037265Y-115689432D01*
X170850858Y-115819954D01*
X170689954Y-115980858D01*
X170559432Y-116167265D01*
X170559431Y-116167267D01*
X170463261Y-116373502D01*
X170463258Y-116373511D01*
X170404366Y-116593302D01*
X170404364Y-116593312D01*
X170389500Y-116763214D01*
X170389500Y-116876785D01*
X170404364Y-117046687D01*
X170404366Y-117046697D01*
X170463258Y-117266488D01*
X170463261Y-117266497D01*
X170559431Y-117472732D01*
X170559432Y-117472734D01*
X170689954Y-117659141D01*
X170850858Y-117820045D01*
X170917379Y-117866623D01*
X170961004Y-117921199D01*
X170968198Y-117990698D01*
X170936676Y-118053052D01*
X170876922Y-118088346D01*
X170856970Y-118093438D01*
X170856957Y-118093442D01*
X170783471Y-118123881D01*
X170783443Y-118123893D01*
X170734690Y-118147218D01*
X170734685Y-118147221D01*
X170619621Y-118233358D01*
X170619617Y-118233361D01*
X170563356Y-118289623D01*
X170563340Y-118289640D01*
X170527229Y-118329842D01*
X170453888Y-118453454D01*
X170453884Y-118453461D01*
X170423452Y-118526932D01*
X170423451Y-118526935D01*
X170405455Y-118577946D01*
X170385000Y-118720219D01*
X170385000Y-119110000D01*
X174570839Y-119110000D01*
X174570839Y-119109999D01*
X174554559Y-119028150D01*
X174554556Y-119028139D01*
X174525814Y-118933387D01*
X174465509Y-118787801D01*
X174418844Y-118700498D01*
X174418832Y-118700478D01*
X174331295Y-118569469D01*
X174331291Y-118569463D01*
X174268485Y-118492935D01*
X174157064Y-118381514D01*
X174080536Y-118318708D01*
X174080530Y-118318704D01*
X173949521Y-118231167D01*
X173949501Y-118231155D01*
X173884730Y-118196534D01*
X173834886Y-118147571D01*
X173819426Y-118079434D01*
X173843258Y-118013754D01*
X173890777Y-117974795D01*
X173942734Y-117950568D01*
X174129139Y-117820047D01*
X174290047Y-117659139D01*
X174420568Y-117472734D01*
X174516739Y-117266496D01*
X174575635Y-117046692D01*
X174590500Y-116876784D01*
X174590500Y-116763216D01*
X174575635Y-116593308D01*
X174516739Y-116373504D01*
X174420568Y-116167266D01*
X174290047Y-115980861D01*
X174290045Y-115980858D01*
X174129141Y-115819954D01*
X173942734Y-115689432D01*
X173942728Y-115689429D01*
X173884725Y-115662382D01*
X173832285Y-115616210D01*
X173813133Y-115549017D01*
X173833348Y-115482135D01*
X173884725Y-115437618D01*
X173942734Y-115410568D01*
X174129139Y-115280047D01*
X174290047Y-115119139D01*
X174420568Y-114932734D01*
X174516739Y-114726496D01*
X174575635Y-114506692D01*
X174590500Y-114336784D01*
X174590500Y-114223216D01*
X174575635Y-114053308D01*
X174516739Y-113833504D01*
X174420568Y-113627266D01*
X174290047Y-113440861D01*
X174290045Y-113440858D01*
X174129141Y-113279954D01*
X173942734Y-113149432D01*
X173942728Y-113149429D01*
X173884725Y-113122382D01*
X173832285Y-113076210D01*
X173813133Y-113009017D01*
X173833348Y-112942135D01*
X173884725Y-112897618D01*
X173942734Y-112870568D01*
X174129139Y-112740047D01*
X174202965Y-112666221D01*
X174281469Y-112587718D01*
X174290045Y-112579141D01*
X174290047Y-112579139D01*
X174420568Y-112392734D01*
X174516739Y-112186496D01*
X174575635Y-111966692D01*
X174590500Y-111796784D01*
X174590500Y-111683216D01*
X174575635Y-111513308D01*
X174540437Y-111381947D01*
X177000000Y-111381947D01*
X177000000Y-111618052D01*
X177036934Y-111851247D01*
X177109897Y-112075802D01*
X177217087Y-112286174D01*
X177277338Y-112369104D01*
X177277340Y-112369105D01*
X177976212Y-111670233D01*
X177987482Y-111712292D01*
X178059890Y-111837708D01*
X178162292Y-111940110D01*
X178287708Y-112012518D01*
X178329765Y-112023787D01*
X177630893Y-112722658D01*
X177713828Y-112782914D01*
X177924197Y-112890102D01*
X178148752Y-112963065D01*
X178148751Y-112963065D01*
X178381948Y-113000000D01*
X178618052Y-113000000D01*
X178851247Y-112963065D01*
X179075802Y-112890102D01*
X179286163Y-112782918D01*
X179286169Y-112782914D01*
X179369104Y-112722658D01*
X179369105Y-112722658D01*
X178670233Y-112023787D01*
X178712292Y-112012518D01*
X178837708Y-111940110D01*
X178940110Y-111837708D01*
X179012518Y-111712292D01*
X179023787Y-111670233D01*
X179722658Y-112369105D01*
X179722658Y-112369104D01*
X179782914Y-112286169D01*
X179782918Y-112286163D01*
X179890102Y-112075802D01*
X179963065Y-111851247D01*
X180000000Y-111618052D01*
X180000000Y-111381947D01*
X179963065Y-111148752D01*
X179890102Y-110924197D01*
X179782914Y-110713828D01*
X179722658Y-110630894D01*
X179722658Y-110630893D01*
X179023787Y-111329765D01*
X179012518Y-111287708D01*
X178940110Y-111162292D01*
X178837708Y-111059890D01*
X178712292Y-110987482D01*
X178670234Y-110976212D01*
X179369105Y-110277340D01*
X179369104Y-110277338D01*
X179286174Y-110217087D01*
X179075802Y-110109897D01*
X178851247Y-110036934D01*
X178851248Y-110036934D01*
X178618052Y-110000000D01*
X178381948Y-110000000D01*
X178148752Y-110036934D01*
X177924197Y-110109897D01*
X177713830Y-110217084D01*
X177630894Y-110277340D01*
X178329766Y-110976212D01*
X178287708Y-110987482D01*
X178162292Y-111059890D01*
X178059890Y-111162292D01*
X177987482Y-111287708D01*
X177976212Y-111329766D01*
X177277340Y-110630894D01*
X177217084Y-110713830D01*
X177109897Y-110924197D01*
X177036934Y-111148752D01*
X177000000Y-111381947D01*
X174540437Y-111381947D01*
X174516739Y-111293504D01*
X174420568Y-111087266D01*
X174290047Y-110900861D01*
X174290045Y-110900858D01*
X174129141Y-110739954D01*
X173942734Y-110609432D01*
X173942728Y-110609429D01*
X173884725Y-110582382D01*
X173832285Y-110536210D01*
X173813133Y-110469017D01*
X173833348Y-110402135D01*
X173884725Y-110357618D01*
X173942734Y-110330568D01*
X174129139Y-110200047D01*
X174290047Y-110039139D01*
X174420568Y-109852734D01*
X174516739Y-109646496D01*
X174575635Y-109426692D01*
X174590500Y-109256784D01*
X174590500Y-109143216D01*
X174575635Y-108973308D01*
X174516739Y-108753504D01*
X174420568Y-108547266D01*
X174290047Y-108360861D01*
X174290045Y-108360858D01*
X174129141Y-108199954D01*
X173942734Y-108069432D01*
X173942732Y-108069431D01*
X173890779Y-108045205D01*
X173838340Y-107999032D01*
X173819188Y-107931839D01*
X173839404Y-107864958D01*
X173884732Y-107823464D01*
X173949500Y-107788844D01*
X173949521Y-107788832D01*
X174080530Y-107701295D01*
X174080536Y-107701291D01*
X174157064Y-107638485D01*
X174268485Y-107527064D01*
X174331291Y-107450536D01*
X174331295Y-107450530D01*
X174418832Y-107319521D01*
X174418844Y-107319501D01*
X174465509Y-107232198D01*
X174525814Y-107086612D01*
X174554556Y-106991860D01*
X174554559Y-106991849D01*
X174570839Y-106910000D01*
X170385000Y-106910000D01*
X170385000Y-107299785D01*
X155214998Y-107299785D01*
X155214999Y-107299780D01*
X155215000Y-107299779D01*
X155215000Y-106910000D01*
X151029160Y-106910000D01*
X151045440Y-106991849D01*
X151045443Y-106991860D01*
X151074185Y-107086612D01*
X151134490Y-107232198D01*
X151181155Y-107319501D01*
X151181167Y-107319521D01*
X151268704Y-107450530D01*
X151268708Y-107450536D01*
X151331514Y-107527064D01*
X151442935Y-107638485D01*
X151519463Y-107701291D01*
X151519469Y-107701295D01*
X151650478Y-107788832D01*
X151650506Y-107788849D01*
X151715268Y-107823465D01*
X151765112Y-107872427D01*
X151780573Y-107940565D01*
X151756741Y-108006244D01*
X151709221Y-108045205D01*
X151657264Y-108069433D01*
X151470858Y-108199954D01*
X151309954Y-108360858D01*
X151179432Y-108547265D01*
X151179431Y-108547267D01*
X151083261Y-108753502D01*
X151083258Y-108753511D01*
X151024366Y-108973302D01*
X151024364Y-108973312D01*
X151009500Y-109143214D01*
X151009500Y-109256785D01*
X151024364Y-109426687D01*
X151024366Y-109426697D01*
X151083258Y-109646488D01*
X151083261Y-109646497D01*
X151179431Y-109852732D01*
X151179432Y-109852734D01*
X151309954Y-110039141D01*
X151470858Y-110200045D01*
X151470861Y-110200047D01*
X151657266Y-110330568D01*
X151715275Y-110357618D01*
X151767714Y-110403791D01*
X151786866Y-110470984D01*
X151766650Y-110537865D01*
X151715275Y-110582382D01*
X151657267Y-110609431D01*
X151657265Y-110609432D01*
X151470858Y-110739954D01*
X151309954Y-110900858D01*
X151179432Y-111087265D01*
X151179431Y-111087267D01*
X151083261Y-111293502D01*
X151083258Y-111293511D01*
X151024366Y-111513302D01*
X151024364Y-111513312D01*
X151009500Y-111683214D01*
X151009500Y-111796785D01*
X151024364Y-111966687D01*
X151024366Y-111966697D01*
X151083258Y-112186488D01*
X151083261Y-112186497D01*
X151179431Y-112392732D01*
X151179432Y-112392734D01*
X151309954Y-112579141D01*
X151470858Y-112740045D01*
X151470861Y-112740047D01*
X151657266Y-112870568D01*
X151699157Y-112890102D01*
X151715275Y-112897618D01*
X151767714Y-112943791D01*
X151786866Y-113010984D01*
X151766650Y-113077865D01*
X151715275Y-113122382D01*
X151657267Y-113149431D01*
X151657265Y-113149432D01*
X151470858Y-113279954D01*
X151309954Y-113440858D01*
X151179432Y-113627265D01*
X151179431Y-113627267D01*
X151083261Y-113833502D01*
X151083258Y-113833511D01*
X151024366Y-114053302D01*
X151024364Y-114053312D01*
X151009500Y-114223214D01*
X151009500Y-114336785D01*
X151024364Y-114506687D01*
X151024366Y-114506697D01*
X151083258Y-114726488D01*
X151083261Y-114726497D01*
X151179431Y-114932732D01*
X151179432Y-114932734D01*
X151309954Y-115119141D01*
X151470858Y-115280045D01*
X151470861Y-115280047D01*
X151657266Y-115410568D01*
X151715275Y-115437618D01*
X151767714Y-115483791D01*
X151786866Y-115550984D01*
X151766650Y-115617865D01*
X151715275Y-115662382D01*
X151657267Y-115689431D01*
X151657265Y-115689432D01*
X151470858Y-115819954D01*
X151309954Y-115980858D01*
X151179432Y-116167265D01*
X151179431Y-116167267D01*
X151083261Y-116373502D01*
X151083258Y-116373511D01*
X151049208Y-116500593D01*
X151012843Y-116560254D01*
X150949997Y-116590783D01*
X150929433Y-116592500D01*
X148635253Y-116592500D01*
X148544747Y-116592500D01*
X148544745Y-116592500D01*
X148544743Y-116592501D01*
X148461134Y-116627131D01*
X148461132Y-116627133D01*
X141514898Y-123573366D01*
X141453575Y-123606851D01*
X141383883Y-123601867D01*
X141327950Y-123559995D01*
X141303533Y-123494531D01*
X141318385Y-123426258D01*
X141326895Y-123412804D01*
X141345051Y-123387816D01*
X141441557Y-123198412D01*
X141507246Y-122996243D01*
X141540500Y-122786287D01*
X141540500Y-122573713D01*
X141507246Y-122363757D01*
X141441557Y-122161588D01*
X141345051Y-121972184D01*
X141345049Y-121972181D01*
X141345048Y-121972179D01*
X141220109Y-121800213D01*
X141069786Y-121649890D01*
X140897820Y-121524951D01*
X140897115Y-121524591D01*
X140889054Y-121520485D01*
X140838259Y-121472512D01*
X140821463Y-121404692D01*
X140843999Y-121338556D01*
X140889054Y-121299515D01*
X140897816Y-121295051D01*
X140919789Y-121279086D01*
X141069786Y-121170109D01*
X141069788Y-121170106D01*
X141069792Y-121170104D01*
X141220104Y-121019792D01*
X141220106Y-121019788D01*
X141220109Y-121019786D01*
X141345048Y-120847820D01*
X141345047Y-120847820D01*
X141345051Y-120847816D01*
X141441557Y-120658412D01*
X141507246Y-120456243D01*
X141540500Y-120246287D01*
X141540500Y-120033713D01*
X141507246Y-119823757D01*
X141441557Y-119621588D01*
X141345051Y-119432184D01*
X141345049Y-119432181D01*
X141345048Y-119432179D01*
X141220109Y-119260213D01*
X141069786Y-119109890D01*
X140897817Y-118984949D01*
X140888504Y-118980204D01*
X140837707Y-118932230D01*
X140820912Y-118864409D01*
X140843449Y-118798274D01*
X140888507Y-118759232D01*
X140897555Y-118754622D01*
X140951716Y-118715270D01*
X140951717Y-118715270D01*
X140319408Y-118082962D01*
X140382993Y-118065925D01*
X140497007Y-118000099D01*
X140590099Y-117907007D01*
X140655925Y-117792993D01*
X140672962Y-117729408D01*
X141305270Y-118361717D01*
X141305270Y-118361716D01*
X141344622Y-118307554D01*
X141441095Y-118118217D01*
X141506757Y-117916130D01*
X141506757Y-117916127D01*
X141540000Y-117706246D01*
X141540000Y-117493753D01*
X141506757Y-117283872D01*
X141506757Y-117283869D01*
X141441095Y-117081782D01*
X141344624Y-116892449D01*
X141305270Y-116838282D01*
X141305269Y-116838282D01*
X140672962Y-117470590D01*
X140655925Y-117407007D01*
X140590099Y-117292993D01*
X140497007Y-117199901D01*
X140382993Y-117134075D01*
X140319409Y-117117037D01*
X140951716Y-116484728D01*
X140897547Y-116445373D01*
X140897547Y-116445372D01*
X140888500Y-116440763D01*
X140837706Y-116392788D01*
X140820912Y-116324966D01*
X140843451Y-116258832D01*
X140888508Y-116219793D01*
X140897816Y-116215051D01*
X140977007Y-116157515D01*
X141069786Y-116090109D01*
X141069788Y-116090106D01*
X141069792Y-116090104D01*
X141220104Y-115939792D01*
X141220106Y-115939788D01*
X141220109Y-115939786D01*
X141345048Y-115767820D01*
X141345047Y-115767820D01*
X141345051Y-115767816D01*
X141441557Y-115578412D01*
X141507246Y-115376243D01*
X141540500Y-115166287D01*
X141540500Y-114953713D01*
X141507246Y-114743757D01*
X141441557Y-114541588D01*
X141345051Y-114352184D01*
X141345049Y-114352181D01*
X141345048Y-114352179D01*
X141220109Y-114180213D01*
X141069786Y-114029890D01*
X140897820Y-113904951D01*
X140708416Y-113808444D01*
X140503181Y-113741759D01*
X140445506Y-113702321D01*
X140418308Y-113637962D01*
X140417500Y-113623828D01*
X140417500Y-100831500D01*
X140437185Y-100764461D01*
X140489989Y-100718706D01*
X140541500Y-100707500D01*
X151095112Y-100707500D01*
X151162151Y-100727185D01*
X151207906Y-100779989D01*
X151217850Y-100849147D01*
X151196688Y-100902622D01*
X151179431Y-100927267D01*
X151083261Y-101133502D01*
X151083258Y-101133511D01*
X151024366Y-101353302D01*
X151024364Y-101353312D01*
X151009500Y-101523214D01*
X151009500Y-101636785D01*
X151024364Y-101806687D01*
X151024366Y-101806697D01*
X151083258Y-102026488D01*
X151083261Y-102026497D01*
X151179431Y-102232732D01*
X151179432Y-102232734D01*
X151309954Y-102419141D01*
X151470858Y-102580045D01*
X151470861Y-102580047D01*
X151657266Y-102710568D01*
X151715275Y-102737618D01*
X151767714Y-102783791D01*
X151786866Y-102850984D01*
X151766650Y-102917865D01*
X151715275Y-102962382D01*
X151657267Y-102989431D01*
X151657265Y-102989432D01*
X151470858Y-103119954D01*
X151309954Y-103280858D01*
X151179432Y-103467265D01*
X151179431Y-103467267D01*
X151083261Y-103673502D01*
X151083258Y-103673511D01*
X151024366Y-103893302D01*
X151024364Y-103893312D01*
X151009500Y-104063214D01*
X151009500Y-104176785D01*
X151024364Y-104346687D01*
X151024366Y-104346697D01*
X151083258Y-104566488D01*
X151083261Y-104566497D01*
X151179431Y-104772732D01*
X151179432Y-104772734D01*
X151309954Y-104959141D01*
X151470858Y-105120045D01*
X151470861Y-105120047D01*
X151657266Y-105250568D01*
X151709219Y-105274794D01*
X151761659Y-105320966D01*
X151780811Y-105388159D01*
X151760596Y-105455041D01*
X151715269Y-105496534D01*
X151650499Y-105531155D01*
X151650478Y-105531167D01*
X151519469Y-105618704D01*
X151519463Y-105618708D01*
X151442935Y-105681514D01*
X151331514Y-105792935D01*
X151268708Y-105869463D01*
X151268704Y-105869469D01*
X151181167Y-106000478D01*
X151181155Y-106000498D01*
X151134490Y-106087801D01*
X151074185Y-106233387D01*
X151045443Y-106328139D01*
X151045440Y-106328150D01*
X151029160Y-106409999D01*
X151029161Y-106410000D01*
X155215000Y-106410000D01*
X155215000Y-106020214D01*
X155212106Y-105966237D01*
X155212106Y-105966235D01*
X155176561Y-105826969D01*
X155176557Y-105826957D01*
X155146118Y-105753471D01*
X155146106Y-105753443D01*
X155122781Y-105704690D01*
X155122778Y-105704685D01*
X155036641Y-105589621D01*
X155036638Y-105589617D01*
X154980376Y-105533356D01*
X154980359Y-105533340D01*
X154940157Y-105497229D01*
X154816545Y-105423888D01*
X154816538Y-105423884D01*
X154743067Y-105393452D01*
X154743065Y-105393451D01*
X154714833Y-105383491D01*
X154704997Y-105376398D01*
X154693237Y-105373446D01*
X154677186Y-105356342D01*
X154658162Y-105342623D01*
X154653722Y-105331339D01*
X154645425Y-105322497D01*
X154641169Y-105299431D01*
X154632582Y-105277604D01*
X154634948Y-105265711D01*
X154632748Y-105253787D01*
X154641638Y-105232081D01*
X154643524Y-105222600D01*
X162396700Y-105222600D01*
X162396700Y-106797400D01*
X162398033Y-106824726D01*
X162398622Y-106836799D01*
X162428778Y-106909603D01*
X162484496Y-106965321D01*
X162484497Y-106965321D01*
X162484498Y-106965322D01*
X162557300Y-106995478D01*
X162596700Y-106997400D01*
X162596715Y-106997400D01*
X164171485Y-106997400D01*
X164171500Y-106997400D01*
X164210900Y-106995478D01*
X164283702Y-106965323D01*
X164339423Y-106909602D01*
X164369578Y-106836800D01*
X164371500Y-106797400D01*
X164371500Y-105996146D01*
X164932019Y-105996146D01*
X164932019Y-105996153D01*
X164948221Y-106189101D01*
X164948222Y-106189107D01*
X164975244Y-106283343D01*
X165001596Y-106375245D01*
X165090106Y-106547468D01*
X165090107Y-106547470D01*
X165123085Y-106589077D01*
X165210387Y-106699225D01*
X165357851Y-106824726D01*
X165357854Y-106824728D01*
X165357857Y-106824730D01*
X165458340Y-106880887D01*
X165526882Y-106919195D01*
X165711044Y-106979033D01*
X165903321Y-107001960D01*
X166096390Y-106987105D01*
X166282896Y-106935031D01*
X166455736Y-106847724D01*
X166608325Y-106728507D01*
X166734853Y-106581923D01*
X166830500Y-106413555D01*
X166891622Y-106229816D01*
X166915891Y-106037703D01*
X166916278Y-106010000D01*
X166914920Y-105996146D01*
X167472019Y-105996146D01*
X167472019Y-105996153D01*
X167488221Y-106189101D01*
X167488222Y-106189107D01*
X167515244Y-106283343D01*
X167541596Y-106375245D01*
X167630106Y-106547468D01*
X167630107Y-106547470D01*
X167663085Y-106589077D01*
X167750387Y-106699225D01*
X167897851Y-106824726D01*
X167897854Y-106824728D01*
X167897857Y-106824730D01*
X167998340Y-106880887D01*
X168066882Y-106919195D01*
X168251044Y-106979033D01*
X168443321Y-107001960D01*
X168636390Y-106987105D01*
X168822896Y-106935031D01*
X168995736Y-106847724D01*
X169148325Y-106728507D01*
X169274853Y-106581923D01*
X169370500Y-106413555D01*
X169431622Y-106229816D01*
X169455891Y-106037703D01*
X169456278Y-106010000D01*
X169437382Y-105817285D01*
X169381414Y-105631910D01*
X169381413Y-105631908D01*
X169381413Y-105631907D01*
X169333401Y-105541611D01*
X169290506Y-105460937D01*
X169168120Y-105310877D01*
X169018919Y-105187447D01*
X168848584Y-105095348D01*
X168848583Y-105095347D01*
X168848580Y-105095346D01*
X168663609Y-105038087D01*
X168471029Y-105017846D01*
X168471027Y-105017846D01*
X168397670Y-105024522D01*
X168278182Y-105035396D01*
X168092426Y-105090067D01*
X168092422Y-105090069D01*
X167920831Y-105179773D01*
X167920819Y-105179781D01*
X167769910Y-105301115D01*
X167769909Y-105301116D01*
X167645444Y-105449446D01*
X167645442Y-105449449D01*
X167552154Y-105619139D01*
X167493602Y-105803718D01*
X167493602Y-105803719D01*
X167472019Y-105996146D01*
X166914920Y-105996146D01*
X166897382Y-105817285D01*
X166841414Y-105631910D01*
X166841413Y-105631908D01*
X166841413Y-105631907D01*
X166793401Y-105541611D01*
X166750506Y-105460937D01*
X166628120Y-105310877D01*
X166478919Y-105187447D01*
X166308584Y-105095348D01*
X166308583Y-105095347D01*
X166308580Y-105095346D01*
X166123609Y-105038087D01*
X165931029Y-105017846D01*
X165931027Y-105017846D01*
X165857670Y-105024522D01*
X165738182Y-105035396D01*
X165552426Y-105090067D01*
X165552422Y-105090069D01*
X165380831Y-105179773D01*
X165380819Y-105179781D01*
X165229910Y-105301115D01*
X165229909Y-105301116D01*
X165105444Y-105449446D01*
X165105442Y-105449449D01*
X165012154Y-105619139D01*
X164953602Y-105803718D01*
X164953602Y-105803719D01*
X164932019Y-105996146D01*
X164371500Y-105996146D01*
X164371500Y-105222600D01*
X164369578Y-105183200D01*
X164339423Y-105110398D01*
X164283702Y-105054677D01*
X164283698Y-105054675D01*
X164283696Y-105054674D01*
X164210901Y-105024522D01*
X164210903Y-105024522D01*
X164202457Y-105024110D01*
X164171500Y-105022600D01*
X163384100Y-105022600D01*
X162596700Y-105022600D01*
X162557300Y-105024522D01*
X162484496Y-105054678D01*
X162484495Y-105054680D01*
X162428780Y-105110395D01*
X162428778Y-105110396D01*
X162400038Y-105179781D01*
X162398622Y-105183200D01*
X162396700Y-105222600D01*
X154643524Y-105222600D01*
X154646215Y-105209077D01*
X154655291Y-105198749D01*
X154659231Y-105189130D01*
X154684965Y-105164981D01*
X154749139Y-105120047D01*
X154910047Y-104959139D01*
X155040568Y-104772734D01*
X155136739Y-104566496D01*
X155195635Y-104346692D01*
X155210500Y-104176784D01*
X155210500Y-104063216D01*
X155195635Y-103893308D01*
X155148302Y-103716657D01*
X155136741Y-103673511D01*
X155136738Y-103673502D01*
X155106862Y-103609433D01*
X155040568Y-103467266D01*
X154910047Y-103280861D01*
X154910045Y-103280858D01*
X154749141Y-103119954D01*
X154562734Y-102989432D01*
X154562728Y-102989429D01*
X154504725Y-102962382D01*
X154452285Y-102916210D01*
X154433133Y-102849017D01*
X154453348Y-102782135D01*
X154504725Y-102737618D01*
X154562734Y-102710568D01*
X154749139Y-102580047D01*
X154910047Y-102419139D01*
X155040568Y-102232734D01*
X155136739Y-102026496D01*
X155195635Y-101806692D01*
X155210500Y-101636784D01*
X155210500Y-101523216D01*
X155195635Y-101353308D01*
X155136739Y-101133504D01*
X155040568Y-100927266D01*
X155023311Y-100902621D01*
X155000985Y-100836416D01*
X155017997Y-100768648D01*
X155068946Y-100720836D01*
X155124888Y-100707500D01*
X156555252Y-100707500D01*
X156555253Y-100707500D01*
X156638868Y-100672865D01*
X162647478Y-94664254D01*
X162708799Y-94630771D01*
X162778491Y-94635755D01*
X162834424Y-94677627D01*
X162858841Y-94743091D01*
X162854933Y-94784025D01*
X162852139Y-94794452D01*
X162852138Y-94794456D01*
X162850000Y-94859999D01*
X162850000Y-95760000D01*
X162852138Y-95825541D01*
X162852138Y-95825544D01*
X162852139Y-95825545D01*
X162886068Y-95952167D01*
X162951612Y-96065694D01*
X163044306Y-96158388D01*
X163157833Y-96223932D01*
X163284455Y-96257861D01*
X163350000Y-96260000D01*
X164250000Y-96260000D01*
X164315545Y-96257861D01*
X164442167Y-96223933D01*
X164555694Y-96158388D01*
X164648388Y-96065694D01*
X164713933Y-95952167D01*
X164747861Y-95825545D01*
X164750000Y-95760000D01*
X164750000Y-94860000D01*
X164747861Y-94794455D01*
X164713933Y-94667833D01*
X164674645Y-94599785D01*
X170385000Y-94599785D01*
X170387893Y-94653762D01*
X170387893Y-94653764D01*
X170423438Y-94793030D01*
X170423442Y-94793042D01*
X170453881Y-94866528D01*
X170453893Y-94866556D01*
X170477218Y-94915309D01*
X170477221Y-94915314D01*
X170563358Y-95030378D01*
X170563361Y-95030382D01*
X170619623Y-95086643D01*
X170619640Y-95086659D01*
X170659842Y-95122770D01*
X170783454Y-95196111D01*
X170783461Y-95196115D01*
X170856932Y-95226547D01*
X170856956Y-95226556D01*
X170885164Y-95236508D01*
X170941835Y-95277374D01*
X170967417Y-95342392D01*
X170953785Y-95410920D01*
X170915033Y-95455019D01*
X170850859Y-95499953D01*
X170689954Y-95660858D01*
X170559432Y-95847265D01*
X170559431Y-95847267D01*
X170463261Y-96053502D01*
X170463258Y-96053511D01*
X170404366Y-96273302D01*
X170404364Y-96273312D01*
X170389500Y-96443214D01*
X170389500Y-96556785D01*
X170404364Y-96726687D01*
X170404366Y-96726697D01*
X170463258Y-96946488D01*
X170463261Y-96946497D01*
X170559431Y-97152732D01*
X170559432Y-97152734D01*
X170689954Y-97339141D01*
X170850858Y-97500045D01*
X170850861Y-97500047D01*
X171037266Y-97630568D01*
X171094700Y-97657350D01*
X171095275Y-97657618D01*
X171147714Y-97703791D01*
X171166866Y-97770984D01*
X171146650Y-97837865D01*
X171095275Y-97882382D01*
X171037267Y-97909431D01*
X171037265Y-97909432D01*
X170850858Y-98039954D01*
X170689954Y-98200858D01*
X170559432Y-98387265D01*
X170559431Y-98387267D01*
X170463261Y-98593502D01*
X170463258Y-98593511D01*
X170404366Y-98813302D01*
X170404364Y-98813312D01*
X170389500Y-98983214D01*
X170389500Y-99096785D01*
X170404364Y-99266687D01*
X170404366Y-99266697D01*
X170463258Y-99486488D01*
X170463261Y-99486497D01*
X170559431Y-99692732D01*
X170559432Y-99692734D01*
X170689954Y-99879141D01*
X170850858Y-100040045D01*
X170861215Y-100047297D01*
X171037266Y-100170568D01*
X171095275Y-100197618D01*
X171147714Y-100243791D01*
X171166866Y-100310984D01*
X171146650Y-100377865D01*
X171095275Y-100422382D01*
X171037267Y-100449431D01*
X171037265Y-100449432D01*
X170850858Y-100579954D01*
X170689954Y-100740858D01*
X170559432Y-100927265D01*
X170559431Y-100927267D01*
X170463261Y-101133502D01*
X170463258Y-101133511D01*
X170404366Y-101353302D01*
X170404364Y-101353312D01*
X170389500Y-101523214D01*
X170389500Y-101636785D01*
X170404364Y-101806687D01*
X170404366Y-101806697D01*
X170463258Y-102026488D01*
X170463261Y-102026497D01*
X170559431Y-102232732D01*
X170559432Y-102232734D01*
X170689954Y-102419141D01*
X170850858Y-102580045D01*
X170850861Y-102580047D01*
X171037266Y-102710568D01*
X171095275Y-102737618D01*
X171147714Y-102783791D01*
X171166866Y-102850984D01*
X171146650Y-102917865D01*
X171095275Y-102962382D01*
X171037267Y-102989431D01*
X171037265Y-102989432D01*
X170850858Y-103119954D01*
X170689954Y-103280858D01*
X170559432Y-103467265D01*
X170559431Y-103467267D01*
X170463261Y-103673502D01*
X170463258Y-103673511D01*
X170404366Y-103893302D01*
X170404364Y-103893312D01*
X170389500Y-104063214D01*
X170389500Y-104176785D01*
X170404364Y-104346687D01*
X170404366Y-104346697D01*
X170463258Y-104566488D01*
X170463261Y-104566497D01*
X170559431Y-104772732D01*
X170559432Y-104772734D01*
X170689954Y-104959141D01*
X170850858Y-105120045D01*
X170917379Y-105166623D01*
X170961004Y-105221199D01*
X170968198Y-105290698D01*
X170936676Y-105353052D01*
X170876922Y-105388346D01*
X170856970Y-105393438D01*
X170856957Y-105393442D01*
X170783471Y-105423881D01*
X170783443Y-105423893D01*
X170734690Y-105447218D01*
X170734685Y-105447221D01*
X170619621Y-105533358D01*
X170619617Y-105533361D01*
X170563356Y-105589623D01*
X170563340Y-105589640D01*
X170527229Y-105629842D01*
X170453888Y-105753454D01*
X170453884Y-105753461D01*
X170423452Y-105826932D01*
X170423451Y-105826935D01*
X170405455Y-105877946D01*
X170385000Y-106020219D01*
X170385000Y-106410000D01*
X174570839Y-106410000D01*
X174570839Y-106409999D01*
X174554559Y-106328150D01*
X174554556Y-106328139D01*
X174525814Y-106233387D01*
X174521450Y-106222852D01*
X174465509Y-106087801D01*
X174418844Y-106000498D01*
X174418832Y-106000478D01*
X174331295Y-105869469D01*
X174331291Y-105869463D01*
X174268485Y-105792935D01*
X174157064Y-105681514D01*
X174080536Y-105618708D01*
X174080530Y-105618704D01*
X173949521Y-105531167D01*
X173949501Y-105531155D01*
X173884730Y-105496534D01*
X173834886Y-105447571D01*
X173819426Y-105379434D01*
X173843258Y-105313754D01*
X173890777Y-105274795D01*
X173942734Y-105250568D01*
X174129139Y-105120047D01*
X174290047Y-104959139D01*
X174344097Y-104881947D01*
X177000000Y-104881947D01*
X177000000Y-105118052D01*
X177036934Y-105351247D01*
X177109897Y-105575802D01*
X177217087Y-105786174D01*
X177277338Y-105869104D01*
X177277340Y-105869105D01*
X177976212Y-105170233D01*
X177987482Y-105212292D01*
X178059890Y-105337708D01*
X178162292Y-105440110D01*
X178287708Y-105512518D01*
X178329765Y-105523787D01*
X177630893Y-106222658D01*
X177713828Y-106282914D01*
X177924197Y-106390102D01*
X178148752Y-106463065D01*
X178148751Y-106463065D01*
X178381948Y-106500000D01*
X178618052Y-106500000D01*
X178851247Y-106463065D01*
X179075802Y-106390102D01*
X179286163Y-106282918D01*
X179286169Y-106282914D01*
X179369104Y-106222658D01*
X179369105Y-106222658D01*
X178670233Y-105523787D01*
X178712292Y-105512518D01*
X178837708Y-105440110D01*
X178940110Y-105337708D01*
X179012518Y-105212292D01*
X179023787Y-105170233D01*
X179722658Y-105869105D01*
X179722658Y-105869104D01*
X179782914Y-105786169D01*
X179782918Y-105786163D01*
X179890102Y-105575802D01*
X179963065Y-105351247D01*
X180000000Y-105118052D01*
X180000000Y-104881947D01*
X179963065Y-104648752D01*
X179890102Y-104424197D01*
X179782914Y-104213828D01*
X179722658Y-104130894D01*
X179722658Y-104130893D01*
X179023787Y-104829765D01*
X179012518Y-104787708D01*
X178940110Y-104662292D01*
X178837708Y-104559890D01*
X178712292Y-104487482D01*
X178670234Y-104476212D01*
X179369105Y-103777340D01*
X179369104Y-103777338D01*
X179286174Y-103717087D01*
X179075802Y-103609897D01*
X178851247Y-103536934D01*
X178851248Y-103536934D01*
X178618052Y-103500000D01*
X178381948Y-103500000D01*
X178148752Y-103536934D01*
X177924197Y-103609897D01*
X177713830Y-103717084D01*
X177630894Y-103777340D01*
X178329766Y-104476212D01*
X178287708Y-104487482D01*
X178162292Y-104559890D01*
X178059890Y-104662292D01*
X177987482Y-104787708D01*
X177976212Y-104829766D01*
X177277340Y-104130894D01*
X177217084Y-104213830D01*
X177109897Y-104424197D01*
X177036934Y-104648752D01*
X177000000Y-104881947D01*
X174344097Y-104881947D01*
X174420568Y-104772734D01*
X174516739Y-104566496D01*
X174575635Y-104346692D01*
X174590500Y-104176784D01*
X174590500Y-104063216D01*
X174575635Y-103893308D01*
X174565500Y-103855485D01*
X174516741Y-103673511D01*
X174516738Y-103673502D01*
X174486862Y-103609433D01*
X174420568Y-103467266D01*
X174290047Y-103280861D01*
X174290045Y-103280858D01*
X174129141Y-103119954D01*
X173942734Y-102989432D01*
X173942728Y-102989429D01*
X173884725Y-102962382D01*
X173832285Y-102916210D01*
X173813133Y-102849017D01*
X173833348Y-102782135D01*
X173884725Y-102737618D01*
X173942734Y-102710568D01*
X174129139Y-102580047D01*
X174290047Y-102419139D01*
X174420568Y-102232734D01*
X174516739Y-102026496D01*
X174550792Y-101899407D01*
X174587157Y-101839746D01*
X174650003Y-101809217D01*
X174670567Y-101807500D01*
X179434405Y-101807500D01*
X179501444Y-101827185D01*
X179522086Y-101843819D01*
X181715485Y-104037218D01*
X181748970Y-104098541D01*
X181743986Y-104168233D01*
X181728127Y-104197778D01*
X181716657Y-104213567D01*
X181716656Y-104213568D01*
X181609433Y-104424003D01*
X181536446Y-104648631D01*
X181499500Y-104881902D01*
X181499500Y-105118097D01*
X181536446Y-105351368D01*
X181609433Y-105575996D01*
X181699848Y-105753443D01*
X181716657Y-105786433D01*
X181855483Y-105977510D01*
X182022490Y-106144517D01*
X182213567Y-106283343D01*
X182301484Y-106328139D01*
X182424003Y-106390566D01*
X182424005Y-106390566D01*
X182424008Y-106390568D01*
X182648632Y-106463553D01*
X182667899Y-106466604D01*
X182731031Y-106496532D01*
X182767963Y-106555843D01*
X182772500Y-106589077D01*
X182772500Y-109910922D01*
X182752815Y-109977961D01*
X182700011Y-110023716D01*
X182667900Y-110033395D01*
X182648633Y-110036446D01*
X182424005Y-110109433D01*
X182213566Y-110216657D01*
X182130047Y-110277338D01*
X182022490Y-110355483D01*
X182022488Y-110355485D01*
X182022487Y-110355485D01*
X181855485Y-110522487D01*
X181855485Y-110522488D01*
X181855483Y-110522490D01*
X181811969Y-110582382D01*
X181716657Y-110713566D01*
X181609433Y-110924003D01*
X181536446Y-111148631D01*
X181499500Y-111381902D01*
X181499500Y-111618097D01*
X181536446Y-111851368D01*
X181609433Y-112075996D01*
X181690408Y-112234916D01*
X181716657Y-112286433D01*
X181855483Y-112477510D01*
X182022490Y-112644517D01*
X182213567Y-112783343D01*
X182312991Y-112834002D01*
X182424003Y-112890566D01*
X182424005Y-112890566D01*
X182424008Y-112890568D01*
X182459928Y-112902239D01*
X182648631Y-112963553D01*
X182881903Y-113000500D01*
X182881908Y-113000500D01*
X183118097Y-113000500D01*
X183351368Y-112963553D01*
X183377534Y-112955051D01*
X183575992Y-112890568D01*
X183786433Y-112783343D01*
X183977510Y-112644517D01*
X184144517Y-112477510D01*
X184283343Y-112286433D01*
X184390568Y-112075992D01*
X184463553Y-111851368D01*
X184472198Y-111796784D01*
X184500500Y-111618097D01*
X184500500Y-111381902D01*
X184463553Y-111148631D01*
X184415513Y-111000781D01*
X184390568Y-110924008D01*
X184390566Y-110924005D01*
X184390566Y-110924003D01*
X184312041Y-110769890D01*
X184283343Y-110713567D01*
X184144517Y-110522490D01*
X183977510Y-110355483D01*
X183786433Y-110216657D01*
X183575992Y-110109432D01*
X183463680Y-110072939D01*
X183351366Y-110036446D01*
X183332100Y-110033395D01*
X183268966Y-110003464D01*
X183232036Y-109944152D01*
X183227500Y-109910922D01*
X183227500Y-106589077D01*
X183247185Y-106522038D01*
X183299989Y-106476283D01*
X183332097Y-106466605D01*
X183351368Y-106463553D01*
X183575992Y-106390568D01*
X183786433Y-106283343D01*
X183977510Y-106144517D01*
X184144517Y-105977510D01*
X184283343Y-105786433D01*
X184390568Y-105575992D01*
X184463553Y-105351368D01*
X184468368Y-105320966D01*
X184500500Y-105118097D01*
X184500500Y-104881902D01*
X184463553Y-104648631D01*
X184390566Y-104424003D01*
X184283477Y-104213830D01*
X184283343Y-104213567D01*
X184144517Y-104022490D01*
X183977510Y-103855483D01*
X183786433Y-103716657D01*
X183784133Y-103715485D01*
X183575996Y-103609433D01*
X183351368Y-103536446D01*
X183118097Y-103499500D01*
X183118092Y-103499500D01*
X182881908Y-103499500D01*
X182881903Y-103499500D01*
X182648631Y-103536446D01*
X182424003Y-103609433D01*
X182213568Y-103716656D01*
X182213563Y-103716659D01*
X182197781Y-103728125D01*
X182131974Y-103751602D01*
X182063920Y-103735774D01*
X182037219Y-103715485D01*
X179708870Y-101387136D01*
X179625253Y-101352500D01*
X174670567Y-101352500D01*
X174603528Y-101332815D01*
X174557773Y-101280011D01*
X174550792Y-101260593D01*
X174516741Y-101133511D01*
X174516738Y-101133502D01*
X174420568Y-100927266D01*
X174317444Y-100779989D01*
X174290045Y-100740858D01*
X174129141Y-100579954D01*
X173942734Y-100449432D01*
X173942728Y-100449429D01*
X173884725Y-100422382D01*
X173832285Y-100376210D01*
X173813133Y-100309017D01*
X173833348Y-100242135D01*
X173884725Y-100197618D01*
X173942734Y-100170568D01*
X174129139Y-100040047D01*
X174290047Y-99879139D01*
X174420568Y-99692734D01*
X174516739Y-99486496D01*
X174575635Y-99266692D01*
X174590500Y-99096784D01*
X174590500Y-98983216D01*
X174575635Y-98813308D01*
X174516739Y-98593504D01*
X174420568Y-98387266D01*
X174290047Y-98200861D01*
X174290045Y-98200858D01*
X174129141Y-98039954D01*
X173942734Y-97909432D01*
X173942728Y-97909429D01*
X173884725Y-97882382D01*
X173874883Y-97873716D01*
X173862607Y-97869108D01*
X173849166Y-97851073D01*
X173832285Y-97836210D01*
X173828690Y-97823599D01*
X173820855Y-97813086D01*
X173819298Y-97790646D01*
X173813133Y-97769017D01*
X173816926Y-97756465D01*
X173816019Y-97743384D01*
X173826839Y-97723666D01*
X173827599Y-97721153D01*
X175389500Y-97721153D01*
X175389500Y-97878846D01*
X175420261Y-98033489D01*
X175420264Y-98033501D01*
X175480602Y-98179172D01*
X175480609Y-98179185D01*
X175568210Y-98310288D01*
X175568213Y-98310292D01*
X175679707Y-98421786D01*
X175679711Y-98421789D01*
X175810814Y-98509390D01*
X175810827Y-98509397D01*
X175956498Y-98569735D01*
X175956503Y-98569737D01*
X176111153Y-98600499D01*
X176111156Y-98600500D01*
X176111158Y-98600500D01*
X176268844Y-98600500D01*
X176268845Y-98600499D01*
X176423497Y-98569737D01*
X176569179Y-98509394D01*
X176700289Y-98421789D01*
X176811789Y-98310289D01*
X176899394Y-98179179D01*
X176959737Y-98033497D01*
X176990500Y-97878842D01*
X176990500Y-97721158D01*
X176990500Y-97721155D01*
X176990499Y-97721153D01*
X176982737Y-97682132D01*
X176959737Y-97566503D01*
X176928614Y-97491365D01*
X176921146Y-97421901D01*
X176952420Y-97359422D01*
X176955464Y-97356267D01*
X177447914Y-96863819D01*
X177509237Y-96830334D01*
X177535595Y-96827500D01*
X178315501Y-96827500D01*
X178382540Y-96847185D01*
X178428295Y-96899989D01*
X178439501Y-96951500D01*
X178439501Y-97397876D01*
X178446669Y-97464555D01*
X178434262Y-97533314D01*
X178411061Y-97565488D01*
X178319205Y-97657345D01*
X178319201Y-97657350D01*
X178171132Y-97861151D01*
X178056760Y-98085616D01*
X177978910Y-98325214D01*
X177963614Y-98421789D01*
X177939500Y-98574038D01*
X177939500Y-98825962D01*
X177964407Y-98983215D01*
X177978910Y-99074785D01*
X178056760Y-99314383D01*
X178135413Y-99468747D01*
X178144457Y-99486497D01*
X178171132Y-99538848D01*
X178319201Y-99742649D01*
X178319205Y-99742654D01*
X178497345Y-99920794D01*
X178497350Y-99920798D01*
X178661419Y-100040000D01*
X178701155Y-100068870D01*
X178844184Y-100141747D01*
X178925616Y-100183239D01*
X178925618Y-100183239D01*
X178925621Y-100183241D01*
X179165215Y-100261090D01*
X179414038Y-100300500D01*
X179414039Y-100300500D01*
X180965961Y-100300500D01*
X180965962Y-100300500D01*
X181214785Y-100261090D01*
X181454379Y-100183241D01*
X181678845Y-100068870D01*
X181882656Y-99920793D01*
X182060793Y-99742656D01*
X182208870Y-99538845D01*
X182323241Y-99314379D01*
X182401090Y-99074785D01*
X182440500Y-98825962D01*
X182440500Y-98574038D01*
X182401090Y-98325215D01*
X182323241Y-98085621D01*
X182323239Y-98085618D01*
X182323239Y-98085616D01*
X182233468Y-97909432D01*
X182208870Y-97861155D01*
X182141928Y-97769017D01*
X182060798Y-97657350D01*
X182060794Y-97657345D01*
X181968939Y-97565490D01*
X181935454Y-97504167D01*
X181933331Y-97464554D01*
X181934818Y-97450716D01*
X181940500Y-97397873D01*
X181940499Y-95802128D01*
X181934091Y-95742517D01*
X181903635Y-95660861D01*
X181883797Y-95607671D01*
X181883793Y-95607664D01*
X181797548Y-95492456D01*
X181797546Y-95492455D01*
X181797546Y-95492454D01*
X181759220Y-95463763D01*
X181717351Y-95407829D01*
X181712368Y-95338137D01*
X181733214Y-95291616D01*
X181759524Y-95255405D01*
X181848884Y-95080025D01*
X181909709Y-94892826D01*
X181913870Y-94866556D01*
X181940500Y-94698422D01*
X181940500Y-94501577D01*
X181909709Y-94307173D01*
X181848882Y-94119970D01*
X181759523Y-93944594D01*
X181643828Y-93785354D01*
X181572783Y-93714309D01*
X181539299Y-93652985D01*
X181544284Y-93583294D01*
X181572781Y-93538950D01*
X182432866Y-92678868D01*
X182432866Y-92678866D01*
X182432868Y-92678865D01*
X182456849Y-92620966D01*
X182467500Y-92595253D01*
X182467500Y-92504747D01*
X182467500Y-84585230D01*
X182487185Y-84518191D01*
X182503819Y-84497549D01*
X182582712Y-84418656D01*
X182674814Y-84269334D01*
X182729999Y-84102797D01*
X182740500Y-84000009D01*
X182740499Y-82999992D01*
X182736501Y-82960858D01*
X182729999Y-82897203D01*
X182729998Y-82897200D01*
X182674814Y-82730666D01*
X182582712Y-82581344D01*
X182458656Y-82457288D01*
X182347690Y-82388844D01*
X182309336Y-82365187D01*
X182309331Y-82365185D01*
X182293681Y-82359999D01*
X182142797Y-82310001D01*
X182142795Y-82310000D01*
X182040010Y-82299500D01*
X180339998Y-82299500D01*
X180339981Y-82299501D01*
X180237203Y-82310000D01*
X180237200Y-82310001D01*
X180070668Y-82365185D01*
X180070663Y-82365187D01*
X179921342Y-82457289D01*
X179797289Y-82581342D01*
X179705187Y-82730663D01*
X179705185Y-82730668D01*
X179682226Y-82799954D01*
X179650001Y-82897203D01*
X179650001Y-82897204D01*
X179650000Y-82897204D01*
X179639500Y-82999983D01*
X179639500Y-84000001D01*
X179639501Y-84000019D01*
X179650000Y-84102796D01*
X179650001Y-84102799D01*
X179705185Y-84269331D01*
X179705186Y-84269334D01*
X179797288Y-84418656D01*
X179921344Y-84542712D01*
X180070666Y-84634814D01*
X180237203Y-84689999D01*
X180339991Y-84700500D01*
X181888500Y-84700499D01*
X181955539Y-84720184D01*
X182001294Y-84772987D01*
X182012500Y-84824499D01*
X182012500Y-89130180D01*
X181992815Y-89197219D01*
X181940011Y-89242974D01*
X181870853Y-89252918D01*
X181815615Y-89230498D01*
X181678848Y-89131132D01*
X181678847Y-89131131D01*
X181678845Y-89131130D01*
X181608747Y-89095413D01*
X181454383Y-89016760D01*
X181214785Y-88938910D01*
X181201362Y-88936784D01*
X180965962Y-88899500D01*
X179414038Y-88899500D01*
X179289626Y-88919205D01*
X179165214Y-88938910D01*
X178925616Y-89016760D01*
X178701151Y-89131132D01*
X178497350Y-89279201D01*
X178497345Y-89279205D01*
X178319205Y-89457345D01*
X178319201Y-89457350D01*
X178171132Y-89661151D01*
X178056760Y-89885616D01*
X177978910Y-90125214D01*
X177939500Y-90374038D01*
X177939500Y-90625961D01*
X177978910Y-90874785D01*
X178056760Y-91114383D01*
X178171132Y-91338848D01*
X178319201Y-91542649D01*
X178319205Y-91542654D01*
X178497349Y-91720798D01*
X178584752Y-91784299D01*
X178627418Y-91839628D01*
X178633397Y-91909242D01*
X178622352Y-91940911D01*
X178531118Y-92119967D01*
X178470290Y-92307173D01*
X178439500Y-92501577D01*
X178439500Y-92698422D01*
X178470290Y-92892826D01*
X178531117Y-93080029D01*
X178620476Y-93255405D01*
X178736172Y-93414646D01*
X178736174Y-93414648D01*
X178833845Y-93512319D01*
X178867330Y-93573642D01*
X178862346Y-93643334D01*
X178833845Y-93687681D01*
X178736174Y-93785351D01*
X178736174Y-93785352D01*
X178736172Y-93785354D01*
X178686485Y-93853741D01*
X178620476Y-93944594D01*
X178531117Y-94119970D01*
X178470290Y-94307173D01*
X178439500Y-94501577D01*
X178439500Y-94698422D01*
X178470290Y-94892826D01*
X178531117Y-95080029D01*
X178612915Y-95240565D01*
X178620476Y-95255405D01*
X178646781Y-95291611D01*
X178646783Y-95291613D01*
X178670263Y-95357419D01*
X178654438Y-95425473D01*
X178620777Y-95463765D01*
X178582452Y-95492455D01*
X178496206Y-95607664D01*
X178496202Y-95607671D01*
X178445908Y-95742517D01*
X178444029Y-95760000D01*
X178439501Y-95802123D01*
X178439500Y-95802135D01*
X178439500Y-96248500D01*
X178419815Y-96315539D01*
X178367011Y-96361294D01*
X178315500Y-96372500D01*
X177344746Y-96372500D01*
X177261130Y-96407136D01*
X176633762Y-97034503D01*
X176572439Y-97067988D01*
X176502747Y-97063004D01*
X176498629Y-97061383D01*
X176423501Y-97030264D01*
X176423489Y-97030261D01*
X176268845Y-96999500D01*
X176268842Y-96999500D01*
X176111158Y-96999500D01*
X176111155Y-96999500D01*
X175956510Y-97030261D01*
X175956498Y-97030264D01*
X175810827Y-97090602D01*
X175810814Y-97090609D01*
X175679711Y-97178210D01*
X175679707Y-97178213D01*
X175568213Y-97289707D01*
X175568210Y-97289711D01*
X175480609Y-97420814D01*
X175480602Y-97420827D01*
X175420264Y-97566498D01*
X175420261Y-97566510D01*
X175389500Y-97721153D01*
X173827599Y-97721153D01*
X173833348Y-97702135D01*
X173844091Y-97692233D01*
X173849635Y-97682132D01*
X173872011Y-97666499D01*
X173877934Y-97661041D01*
X173881260Y-97659233D01*
X173942734Y-97630568D01*
X174129139Y-97500047D01*
X174290047Y-97339139D01*
X174420568Y-97152734D01*
X174516739Y-96946496D01*
X174575635Y-96726692D01*
X174590500Y-96556784D01*
X174590500Y-96443216D01*
X174575635Y-96273308D01*
X174516739Y-96053504D01*
X174420568Y-95847266D01*
X174290047Y-95660861D01*
X174290045Y-95660858D01*
X174129141Y-95499954D01*
X173942734Y-95369432D01*
X173942732Y-95369431D01*
X173890779Y-95345205D01*
X173838340Y-95299032D01*
X173819188Y-95231839D01*
X173839404Y-95164958D01*
X173884732Y-95123464D01*
X173949500Y-95088844D01*
X173949521Y-95088832D01*
X174080530Y-95001295D01*
X174080536Y-95001291D01*
X174157064Y-94938485D01*
X174268485Y-94827064D01*
X174331291Y-94750536D01*
X174331295Y-94750530D01*
X174418832Y-94619521D01*
X174418844Y-94619501D01*
X174465509Y-94532198D01*
X174525814Y-94386612D01*
X174554556Y-94291860D01*
X174554559Y-94291849D01*
X174570839Y-94210000D01*
X170385000Y-94210000D01*
X170385000Y-94599785D01*
X164674645Y-94599785D01*
X164648388Y-94554306D01*
X164555694Y-94461612D01*
X164442167Y-94396067D01*
X164315545Y-94362139D01*
X164250000Y-94360000D01*
X163800000Y-94360000D01*
X163350000Y-94360000D01*
X163284456Y-94362138D01*
X163284452Y-94362139D01*
X163274025Y-94364933D01*
X163204175Y-94363267D01*
X163146314Y-94324102D01*
X163118813Y-94259872D01*
X163130403Y-94190970D01*
X163154253Y-94157479D01*
X170357750Y-86953982D01*
X170419071Y-86920499D01*
X170488763Y-86925483D01*
X170544696Y-86967355D01*
X170557807Y-86989251D01*
X170559429Y-86992729D01*
X170559430Y-86992731D01*
X170689954Y-87179141D01*
X170850858Y-87340045D01*
X170850861Y-87340047D01*
X171037266Y-87470568D01*
X171095275Y-87497618D01*
X171147714Y-87543791D01*
X171166866Y-87610984D01*
X171146650Y-87677865D01*
X171095275Y-87722382D01*
X171037267Y-87749431D01*
X171037265Y-87749432D01*
X170850858Y-87879954D01*
X170689954Y-88040858D01*
X170559432Y-88227265D01*
X170559431Y-88227267D01*
X170463261Y-88433502D01*
X170463258Y-88433511D01*
X170404366Y-88653302D01*
X170404364Y-88653312D01*
X170389500Y-88823214D01*
X170389500Y-88936785D01*
X170404364Y-89106687D01*
X170404366Y-89106697D01*
X170463258Y-89326488D01*
X170463261Y-89326497D01*
X170559431Y-89532732D01*
X170559432Y-89532734D01*
X170689954Y-89719141D01*
X170850858Y-89880045D01*
X170897693Y-89912839D01*
X171037266Y-90010568D01*
X171095275Y-90037618D01*
X171147714Y-90083791D01*
X171166866Y-90150984D01*
X171146650Y-90217865D01*
X171095275Y-90262382D01*
X171037267Y-90289431D01*
X171037265Y-90289432D01*
X170850858Y-90419954D01*
X170689954Y-90580858D01*
X170559432Y-90767265D01*
X170559431Y-90767267D01*
X170463261Y-90973502D01*
X170463258Y-90973511D01*
X170404366Y-91193302D01*
X170404364Y-91193312D01*
X170389500Y-91363214D01*
X170389500Y-91476785D01*
X170404364Y-91646687D01*
X170404366Y-91646697D01*
X170463258Y-91866488D01*
X170463261Y-91866497D01*
X170559431Y-92072732D01*
X170559432Y-92072734D01*
X170689954Y-92259141D01*
X170850858Y-92420045D01*
X170917379Y-92466623D01*
X170961004Y-92521199D01*
X170968198Y-92590698D01*
X170936676Y-92653052D01*
X170876922Y-92688346D01*
X170856970Y-92693438D01*
X170856957Y-92693442D01*
X170783471Y-92723881D01*
X170783443Y-92723893D01*
X170734690Y-92747218D01*
X170734685Y-92747221D01*
X170619621Y-92833358D01*
X170619617Y-92833361D01*
X170563356Y-92889623D01*
X170563340Y-92889640D01*
X170527229Y-92929842D01*
X170453888Y-93053454D01*
X170453884Y-93053461D01*
X170423452Y-93126932D01*
X170423451Y-93126935D01*
X170405455Y-93177946D01*
X170385000Y-93320219D01*
X170385000Y-93710000D01*
X174570839Y-93710000D01*
X174570839Y-93709999D01*
X174554559Y-93628150D01*
X174554556Y-93628139D01*
X174525814Y-93533387D01*
X174465509Y-93387801D01*
X174418844Y-93300498D01*
X174418832Y-93300478D01*
X174331295Y-93169469D01*
X174331291Y-93169463D01*
X174268485Y-93092935D01*
X174157064Y-92981514D01*
X174080536Y-92918708D01*
X174080530Y-92918704D01*
X173949521Y-92831167D01*
X173949501Y-92831155D01*
X173884730Y-92796534D01*
X173834886Y-92747571D01*
X173819426Y-92679434D01*
X173843258Y-92613754D01*
X173890777Y-92574795D01*
X173942734Y-92550568D01*
X174129139Y-92420047D01*
X174290047Y-92259139D01*
X174420568Y-92072734D01*
X174516739Y-91866496D01*
X174575635Y-91646692D01*
X174590500Y-91476784D01*
X174590500Y-91363216D01*
X174575635Y-91193308D01*
X174516739Y-90973504D01*
X174420568Y-90767266D01*
X174290047Y-90580861D01*
X174290045Y-90580858D01*
X174129141Y-90419954D01*
X173942734Y-90289432D01*
X173942728Y-90289429D01*
X173884725Y-90262382D01*
X173832285Y-90216210D01*
X173813133Y-90149017D01*
X173833348Y-90082135D01*
X173884725Y-90037618D01*
X173942734Y-90010568D01*
X174129139Y-89880047D01*
X174290047Y-89719139D01*
X174420568Y-89532734D01*
X174516739Y-89326496D01*
X174575635Y-89106692D01*
X174590500Y-88936784D01*
X174590500Y-88823216D01*
X174575635Y-88653308D01*
X174516739Y-88433504D01*
X174420568Y-88227266D01*
X174290047Y-88040861D01*
X174290045Y-88040858D01*
X174129141Y-87879954D01*
X173942734Y-87749432D01*
X173942728Y-87749429D01*
X173884725Y-87722382D01*
X173832285Y-87676210D01*
X173813133Y-87609017D01*
X173833348Y-87542135D01*
X173884725Y-87497618D01*
X173942734Y-87470568D01*
X174129139Y-87340047D01*
X174290047Y-87179139D01*
X174420568Y-86992734D01*
X174516739Y-86786496D01*
X174575635Y-86566692D01*
X174590500Y-86396784D01*
X174590500Y-86283216D01*
X174575635Y-86113308D01*
X174516739Y-85893504D01*
X174420568Y-85687266D01*
X174290047Y-85500861D01*
X174290045Y-85500858D01*
X174129141Y-85339954D01*
X173942734Y-85209432D01*
X173942728Y-85209429D01*
X173884725Y-85182382D01*
X173832285Y-85136210D01*
X173813133Y-85069017D01*
X173833348Y-85002135D01*
X173884725Y-84957618D01*
X173942734Y-84930568D01*
X174129139Y-84800047D01*
X174290047Y-84639139D01*
X174420568Y-84452734D01*
X174516739Y-84246496D01*
X174575635Y-84026692D01*
X174590500Y-83856784D01*
X174590500Y-83743216D01*
X174575635Y-83573308D01*
X174516739Y-83353504D01*
X174420568Y-83147266D01*
X174290047Y-82960861D01*
X174290045Y-82960858D01*
X174129141Y-82799954D01*
X173942734Y-82669432D01*
X173942732Y-82669431D01*
X173890779Y-82645205D01*
X173838340Y-82599032D01*
X173819188Y-82531839D01*
X173839404Y-82464958D01*
X173884732Y-82423464D01*
X173949500Y-82388844D01*
X173949521Y-82388832D01*
X174080530Y-82301295D01*
X174080536Y-82301291D01*
X174157064Y-82238485D01*
X174268485Y-82127064D01*
X174331291Y-82050536D01*
X174331295Y-82050530D01*
X174418832Y-81919521D01*
X174418844Y-81919501D01*
X174465509Y-81832198D01*
X174525814Y-81686612D01*
X174554556Y-81591860D01*
X174554559Y-81591849D01*
X174570839Y-81510000D01*
X170385000Y-81510000D01*
X170385000Y-81899785D01*
X170387893Y-81953762D01*
X170387893Y-81953764D01*
X170423438Y-82093030D01*
X170423442Y-82093042D01*
X170453881Y-82166528D01*
X170453893Y-82166556D01*
X170477218Y-82215309D01*
X170477221Y-82215314D01*
X170563358Y-82330378D01*
X170563361Y-82330382D01*
X170619623Y-82386643D01*
X170619640Y-82386659D01*
X170659842Y-82422770D01*
X170783454Y-82496111D01*
X170783461Y-82496115D01*
X170856932Y-82526547D01*
X170856956Y-82526556D01*
X170885164Y-82536508D01*
X170941835Y-82577374D01*
X170967417Y-82642392D01*
X170953785Y-82710920D01*
X170915033Y-82755019D01*
X170850859Y-82799953D01*
X170689954Y-82960858D01*
X170559432Y-83147265D01*
X170559431Y-83147267D01*
X170463261Y-83353502D01*
X170463258Y-83353511D01*
X170404366Y-83573302D01*
X170404364Y-83573312D01*
X170389500Y-83743214D01*
X170389500Y-83856785D01*
X170404364Y-84026687D01*
X170404366Y-84026697D01*
X170463258Y-84246488D01*
X170463261Y-84246497D01*
X170559431Y-84452732D01*
X170559432Y-84452734D01*
X170689954Y-84639141D01*
X170850858Y-84800045D01*
X170850861Y-84800047D01*
X171037266Y-84930568D01*
X171095275Y-84957618D01*
X171147714Y-85003791D01*
X171166866Y-85070984D01*
X171146650Y-85137865D01*
X171095275Y-85182382D01*
X171037267Y-85209431D01*
X171037265Y-85209432D01*
X170850858Y-85339954D01*
X170689954Y-85500858D01*
X170559432Y-85687265D01*
X170559431Y-85687267D01*
X170463261Y-85893502D01*
X170463258Y-85893511D01*
X170404366Y-86113302D01*
X170404364Y-86113311D01*
X170393859Y-86233380D01*
X170368406Y-86298448D01*
X170358012Y-86310252D01*
X156452086Y-100216181D01*
X156390763Y-100249666D01*
X156364405Y-100252500D01*
X154836049Y-100252500D01*
X154769010Y-100232815D01*
X154723255Y-100180011D01*
X154713311Y-100110853D01*
X154742336Y-100047297D01*
X154748368Y-100040819D01*
X154910045Y-99879141D01*
X154910047Y-99879139D01*
X155040568Y-99692734D01*
X155136739Y-99486496D01*
X155195635Y-99266692D01*
X155210500Y-99096784D01*
X155210500Y-98983216D01*
X155195635Y-98813308D01*
X155136739Y-98593504D01*
X155040568Y-98387266D01*
X154910047Y-98200861D01*
X154910045Y-98200858D01*
X154749141Y-98039954D01*
X154562734Y-97909432D01*
X154562728Y-97909429D01*
X154504725Y-97882382D01*
X154452285Y-97836210D01*
X154433133Y-97769017D01*
X154453348Y-97702135D01*
X154504725Y-97657618D01*
X154505300Y-97657350D01*
X154562734Y-97630568D01*
X154749139Y-97500047D01*
X154910047Y-97339139D01*
X155040568Y-97152734D01*
X155136739Y-96946496D01*
X155195635Y-96726692D01*
X155210500Y-96556784D01*
X155210500Y-96443216D01*
X155195635Y-96273308D01*
X155136739Y-96053504D01*
X155040568Y-95847266D01*
X154910047Y-95660861D01*
X154910045Y-95660858D01*
X154749141Y-95499954D01*
X154682620Y-95453376D01*
X154638995Y-95398800D01*
X154631801Y-95329301D01*
X154663324Y-95266946D01*
X154723083Y-95231651D01*
X154743038Y-95226558D01*
X154743042Y-95226557D01*
X154816528Y-95196118D01*
X154816556Y-95196106D01*
X154865309Y-95172781D01*
X154865314Y-95172778D01*
X154980378Y-95086641D01*
X154980382Y-95086638D01*
X155036643Y-95030376D01*
X155036659Y-95030359D01*
X155072770Y-94990157D01*
X155146111Y-94866545D01*
X155146115Y-94866538D01*
X155176547Y-94793067D01*
X155176548Y-94793064D01*
X155194544Y-94742053D01*
X155214999Y-94599780D01*
X155215000Y-94599779D01*
X155215000Y-94210000D01*
X151029160Y-94210000D01*
X151045440Y-94291849D01*
X151045443Y-94291860D01*
X151074185Y-94386612D01*
X151134490Y-94532198D01*
X151181155Y-94619501D01*
X151181167Y-94619521D01*
X151268704Y-94750530D01*
X151268708Y-94750536D01*
X151331514Y-94827064D01*
X151442935Y-94938485D01*
X151519463Y-95001291D01*
X151519469Y-95001295D01*
X151650478Y-95088832D01*
X151650506Y-95088849D01*
X151715268Y-95123465D01*
X151765112Y-95172427D01*
X151780573Y-95240565D01*
X151756741Y-95306244D01*
X151709221Y-95345205D01*
X151657264Y-95369433D01*
X151470858Y-95499954D01*
X151309954Y-95660858D01*
X151179432Y-95847265D01*
X151179431Y-95847267D01*
X151083261Y-96053502D01*
X151083258Y-96053511D01*
X151049208Y-96180593D01*
X151012843Y-96240254D01*
X150949997Y-96270783D01*
X150929433Y-96272500D01*
X135035595Y-96272500D01*
X134968556Y-96252815D01*
X134947914Y-96236181D01*
X121213819Y-82502086D01*
X121180334Y-82440763D01*
X121177500Y-82414405D01*
X121177500Y-80736172D01*
X121197185Y-80669133D01*
X121249989Y-80623378D01*
X121263181Y-80618241D01*
X121311780Y-80602450D01*
X121468412Y-80551557D01*
X121657816Y-80455051D01*
X121707487Y-80418963D01*
X121829786Y-80330109D01*
X121829788Y-80330106D01*
X121829792Y-80330104D01*
X121980104Y-80179792D01*
X121980106Y-80179788D01*
X121980109Y-80179786D01*
X122105048Y-80007820D01*
X122105049Y-80007819D01*
X122105051Y-80007816D01*
X122109514Y-79999054D01*
X122157488Y-79948259D01*
X122225308Y-79931463D01*
X122291444Y-79953999D01*
X122330486Y-79999056D01*
X122334951Y-80007820D01*
X122459890Y-80179786D01*
X122610213Y-80330109D01*
X122782179Y-80455048D01*
X122782181Y-80455049D01*
X122782184Y-80455051D01*
X122971588Y-80551557D01*
X123173757Y-80617246D01*
X123383713Y-80650500D01*
X123383714Y-80650500D01*
X123596286Y-80650500D01*
X123596287Y-80650500D01*
X123806243Y-80617246D01*
X124008412Y-80551557D01*
X124197816Y-80455051D01*
X124197819Y-80455048D01*
X124200684Y-80453589D01*
X124269353Y-80440693D01*
X124334094Y-80466969D01*
X124344660Y-80476393D01*
X135417135Y-91548868D01*
X135481132Y-91612865D01*
X135564747Y-91647500D01*
X150929433Y-91647500D01*
X150996472Y-91667185D01*
X151042227Y-91719989D01*
X151049208Y-91739407D01*
X151083258Y-91866488D01*
X151083261Y-91866497D01*
X151179431Y-92072732D01*
X151179432Y-92072734D01*
X151309954Y-92259141D01*
X151470858Y-92420045D01*
X151470861Y-92420047D01*
X151657266Y-92550568D01*
X151709219Y-92574794D01*
X151761659Y-92620966D01*
X151780811Y-92688159D01*
X151760596Y-92755041D01*
X151715269Y-92796534D01*
X151650499Y-92831155D01*
X151650478Y-92831167D01*
X151519469Y-92918704D01*
X151519463Y-92918708D01*
X151442935Y-92981514D01*
X151331514Y-93092935D01*
X151268708Y-93169463D01*
X151268704Y-93169469D01*
X151181167Y-93300478D01*
X151181155Y-93300498D01*
X151134490Y-93387801D01*
X151074185Y-93533387D01*
X151045443Y-93628139D01*
X151045440Y-93628150D01*
X151029160Y-93709999D01*
X151029161Y-93710000D01*
X155215000Y-93710000D01*
X155215000Y-93320214D01*
X155212106Y-93266237D01*
X155212106Y-93266235D01*
X155176561Y-93126969D01*
X155176557Y-93126957D01*
X155146118Y-93053471D01*
X155146106Y-93053443D01*
X155122781Y-93004690D01*
X155122778Y-93004685D01*
X155036641Y-92889621D01*
X155036638Y-92889617D01*
X154980376Y-92833356D01*
X154980359Y-92833340D01*
X154940157Y-92797229D01*
X154816545Y-92723888D01*
X154816538Y-92723884D01*
X154743067Y-92693452D01*
X154743065Y-92693451D01*
X154714833Y-92683491D01*
X154658162Y-92642623D01*
X154632582Y-92577604D01*
X154646215Y-92509077D01*
X154684964Y-92464982D01*
X154749139Y-92420047D01*
X154910047Y-92259139D01*
X155040568Y-92072734D01*
X155136739Y-91866496D01*
X155195635Y-91646692D01*
X155210500Y-91476784D01*
X155210500Y-91363216D01*
X155195635Y-91193308D01*
X155136739Y-90973504D01*
X155040568Y-90767266D01*
X154910047Y-90580861D01*
X154910045Y-90580858D01*
X154749141Y-90419954D01*
X154562734Y-90289432D01*
X154562728Y-90289429D01*
X154504725Y-90262382D01*
X154452285Y-90216210D01*
X154433133Y-90149017D01*
X154453348Y-90082135D01*
X154504725Y-90037618D01*
X154562734Y-90010568D01*
X154749139Y-89880047D01*
X154910047Y-89719139D01*
X155040568Y-89532734D01*
X155136739Y-89326496D01*
X155195635Y-89106692D01*
X155210500Y-88936784D01*
X155210500Y-88823216D01*
X155195635Y-88653308D01*
X155136739Y-88433504D01*
X155040568Y-88227266D01*
X154910047Y-88040861D01*
X154910045Y-88040858D01*
X154749141Y-87879954D01*
X154562734Y-87749432D01*
X154562728Y-87749429D01*
X154504725Y-87722382D01*
X154452285Y-87676210D01*
X154433133Y-87609017D01*
X154453348Y-87542135D01*
X154504725Y-87497618D01*
X154562734Y-87470568D01*
X154749139Y-87340047D01*
X154910047Y-87179139D01*
X155040568Y-86992734D01*
X155136739Y-86786496D01*
X155195635Y-86566692D01*
X155210500Y-86396784D01*
X155210500Y-86283216D01*
X155195635Y-86113308D01*
X155136739Y-85893504D01*
X155040568Y-85687266D01*
X154910047Y-85500861D01*
X154910045Y-85500858D01*
X154749141Y-85339954D01*
X154562734Y-85209432D01*
X154562728Y-85209429D01*
X154504725Y-85182382D01*
X154452285Y-85136210D01*
X154433133Y-85069017D01*
X154453348Y-85002135D01*
X154504725Y-84957618D01*
X154562734Y-84930568D01*
X154749139Y-84800047D01*
X154910047Y-84639139D01*
X155040568Y-84452734D01*
X155136739Y-84246496D01*
X155195635Y-84026692D01*
X155210500Y-83856784D01*
X155210500Y-83743216D01*
X155195635Y-83573308D01*
X155136739Y-83353504D01*
X155040568Y-83147266D01*
X154910047Y-82960861D01*
X154910045Y-82960858D01*
X154749141Y-82799954D01*
X154682620Y-82753376D01*
X154638995Y-82698800D01*
X154631801Y-82629301D01*
X154663324Y-82566946D01*
X154723083Y-82531651D01*
X154743038Y-82526558D01*
X154743042Y-82526557D01*
X154816528Y-82496118D01*
X154816556Y-82496106D01*
X154865309Y-82472781D01*
X154865314Y-82472778D01*
X154980378Y-82386641D01*
X154980382Y-82386638D01*
X155007021Y-82359999D01*
X159350000Y-82359999D01*
X159350000Y-89760000D01*
X159352138Y-89825541D01*
X159352138Y-89825544D01*
X159352139Y-89825545D01*
X159386068Y-89952167D01*
X159451612Y-90065694D01*
X159544306Y-90158388D01*
X159657833Y-90223932D01*
X159784455Y-90257861D01*
X159850000Y-90260000D01*
X160750000Y-90260000D01*
X160815545Y-90257861D01*
X160942167Y-90223932D01*
X161055694Y-90158388D01*
X161148388Y-90065694D01*
X161213932Y-89952167D01*
X161247861Y-89825545D01*
X161250000Y-89760000D01*
X161250000Y-86060000D01*
X161250000Y-82360000D01*
X161247861Y-82294455D01*
X161213933Y-82167833D01*
X161148388Y-82054306D01*
X161055694Y-81961612D01*
X160942167Y-81896067D01*
X160815545Y-81862139D01*
X160750000Y-81860000D01*
X159850000Y-81860000D01*
X159784455Y-81862139D01*
X159657833Y-81896067D01*
X159657831Y-81896067D01*
X159657831Y-81896068D01*
X159544306Y-81961612D01*
X159544303Y-81961614D01*
X159451614Y-82054303D01*
X159451612Y-82054306D01*
X159386068Y-82167831D01*
X159352139Y-82294455D01*
X159350000Y-82359999D01*
X155007021Y-82359999D01*
X155036643Y-82330376D01*
X155036659Y-82330359D01*
X155072770Y-82290157D01*
X155146111Y-82166545D01*
X155146115Y-82166538D01*
X155176547Y-82093067D01*
X155176548Y-82093064D01*
X155194544Y-82042053D01*
X155214999Y-81899780D01*
X155215000Y-81899779D01*
X155215000Y-81510000D01*
X151029160Y-81510000D01*
X151045440Y-81591849D01*
X151045443Y-81591860D01*
X151074185Y-81686612D01*
X151134490Y-81832198D01*
X151181155Y-81919501D01*
X151181167Y-81919521D01*
X151268704Y-82050530D01*
X151268708Y-82050536D01*
X151331514Y-82127064D01*
X151442935Y-82238485D01*
X151519463Y-82301291D01*
X151519469Y-82301295D01*
X151650478Y-82388832D01*
X151650506Y-82388849D01*
X151715268Y-82423465D01*
X151765112Y-82472427D01*
X151780573Y-82540565D01*
X151756741Y-82606244D01*
X151709221Y-82645205D01*
X151657264Y-82669433D01*
X151470858Y-82799954D01*
X151309954Y-82960858D01*
X151179432Y-83147265D01*
X151179431Y-83147267D01*
X151083261Y-83353502D01*
X151083258Y-83353511D01*
X151049208Y-83480593D01*
X151012843Y-83540254D01*
X150949997Y-83570783D01*
X150929433Y-83572500D01*
X135755595Y-83572500D01*
X135688556Y-83552815D01*
X135667914Y-83536181D01*
X132756626Y-80624893D01*
X132723141Y-80563570D01*
X132728125Y-80493878D01*
X132769997Y-80437945D01*
X132835461Y-80413528D01*
X132903734Y-80428380D01*
X132917192Y-80436894D01*
X132936322Y-80450792D01*
X132942184Y-80455051D01*
X133131588Y-80551557D01*
X133333757Y-80617246D01*
X133543713Y-80650500D01*
X133543714Y-80650500D01*
X133756286Y-80650500D01*
X133756287Y-80650500D01*
X133966243Y-80617246D01*
X134168412Y-80551557D01*
X134357816Y-80455051D01*
X134357821Y-80455047D01*
X134360683Y-80453589D01*
X134429352Y-80440693D01*
X134494092Y-80466969D01*
X134504659Y-80476393D01*
X134671129Y-80642864D01*
X134671130Y-80642864D01*
X134671132Y-80642866D01*
X134730252Y-80667353D01*
X134730255Y-80667355D01*
X134730256Y-80667355D01*
X134740401Y-80671557D01*
X134754747Y-80677500D01*
X150954279Y-80677500D01*
X151021318Y-80697185D01*
X151067073Y-80749989D01*
X151077017Y-80819147D01*
X151072940Y-80837495D01*
X151045443Y-80928139D01*
X151045440Y-80928150D01*
X151029160Y-81009999D01*
X151029161Y-81010000D01*
X155215000Y-81010000D01*
X155215000Y-80620214D01*
X155212106Y-80566237D01*
X155212106Y-80566235D01*
X155176561Y-80426969D01*
X155176557Y-80426957D01*
X155146118Y-80353471D01*
X155146106Y-80353443D01*
X155122781Y-80304690D01*
X155122778Y-80304685D01*
X155036641Y-80189621D01*
X155036638Y-80189617D01*
X154980376Y-80133356D01*
X154980359Y-80133340D01*
X154940157Y-80097229D01*
X154816545Y-80023888D01*
X154816538Y-80023884D01*
X154743067Y-79993452D01*
X154743065Y-79993451D01*
X154714833Y-79983491D01*
X154658162Y-79942623D01*
X154632582Y-79877604D01*
X154646215Y-79809077D01*
X154684964Y-79764982D01*
X154749139Y-79720047D01*
X154910047Y-79559139D01*
X155040568Y-79372734D01*
X155097138Y-79251421D01*
X159249500Y-79251421D01*
X159249500Y-79428579D01*
X159259702Y-79492993D01*
X159277214Y-79603556D01*
X159331956Y-79772039D01*
X159331957Y-79772042D01*
X159404164Y-79913754D01*
X159412386Y-79929890D01*
X159516517Y-80073214D01*
X159641786Y-80198483D01*
X159785110Y-80302614D01*
X159839062Y-80330104D01*
X159942957Y-80383042D01*
X159942960Y-80383043D01*
X160002038Y-80402238D01*
X160111445Y-80437786D01*
X160286421Y-80465500D01*
X160286422Y-80465500D01*
X160463578Y-80465500D01*
X160463579Y-80465500D01*
X160638555Y-80437786D01*
X160807042Y-80383042D01*
X160964890Y-80302614D01*
X161108214Y-80198483D01*
X161233483Y-80073214D01*
X161337614Y-79929890D01*
X161418042Y-79772042D01*
X161472786Y-79603555D01*
X161500500Y-79428579D01*
X161500500Y-79251421D01*
X161472786Y-79076445D01*
X161418042Y-78907958D01*
X161418041Y-78907956D01*
X161418040Y-78907953D01*
X161393606Y-78859999D01*
X161850000Y-78859999D01*
X161850000Y-79760000D01*
X161852138Y-79825541D01*
X161852138Y-79825544D01*
X161852139Y-79825545D01*
X161886068Y-79952167D01*
X161951612Y-80065694D01*
X162044306Y-80158388D01*
X162157833Y-80223932D01*
X162284455Y-80257861D01*
X162350000Y-80260000D01*
X163250000Y-80260000D01*
X163315545Y-80257861D01*
X163442167Y-80223933D01*
X163555694Y-80158388D01*
X163648388Y-80065694D01*
X163713933Y-79952167D01*
X163747861Y-79825545D01*
X163750000Y-79760000D01*
X163750000Y-79251421D01*
X164099500Y-79251421D01*
X164099500Y-79428579D01*
X164109702Y-79492993D01*
X164127214Y-79603556D01*
X164181956Y-79772039D01*
X164181957Y-79772042D01*
X164254164Y-79913754D01*
X164262386Y-79929890D01*
X164366517Y-80073214D01*
X164491786Y-80198483D01*
X164635110Y-80302614D01*
X164689062Y-80330104D01*
X164792957Y-80383042D01*
X164792960Y-80383043D01*
X164852038Y-80402238D01*
X164961445Y-80437786D01*
X165136421Y-80465500D01*
X165136422Y-80465500D01*
X165313578Y-80465500D01*
X165313579Y-80465500D01*
X165488555Y-80437786D01*
X165657042Y-80383042D01*
X165814890Y-80302614D01*
X165958214Y-80198483D01*
X166083483Y-80073214D01*
X166187614Y-79929890D01*
X166268042Y-79772042D01*
X166322786Y-79603555D01*
X166350500Y-79428579D01*
X166350500Y-79251421D01*
X166322786Y-79076445D01*
X166280626Y-78946687D01*
X166268043Y-78907960D01*
X166268042Y-78907957D01*
X166213034Y-78800000D01*
X166187614Y-78750110D01*
X166083483Y-78606786D01*
X165958214Y-78481517D01*
X165814890Y-78377386D01*
X165657042Y-78296957D01*
X165657039Y-78296956D01*
X165488556Y-78242214D01*
X165401067Y-78228357D01*
X165313579Y-78214500D01*
X165136421Y-78214500D01*
X165078095Y-78223738D01*
X164961443Y-78242214D01*
X164792960Y-78296956D01*
X164792957Y-78296957D01*
X164635109Y-78377386D01*
X164553338Y-78436796D01*
X164491786Y-78481517D01*
X164491784Y-78481519D01*
X164491783Y-78481519D01*
X164366519Y-78606783D01*
X164366519Y-78606784D01*
X164366517Y-78606786D01*
X164338028Y-78645998D01*
X164262386Y-78750109D01*
X164181957Y-78907957D01*
X164181956Y-78907960D01*
X164127214Y-79076443D01*
X164127214Y-79076445D01*
X164099500Y-79251421D01*
X163750000Y-79251421D01*
X163750000Y-78860000D01*
X163747861Y-78794455D01*
X163713933Y-78667833D01*
X163648388Y-78554306D01*
X163555694Y-78461612D01*
X163442167Y-78396067D01*
X163315545Y-78362139D01*
X163250000Y-78360000D01*
X162800000Y-78360000D01*
X162350000Y-78360000D01*
X162284458Y-78362138D01*
X162157832Y-78396068D01*
X162044307Y-78461611D01*
X162044304Y-78461613D01*
X161951613Y-78554304D01*
X161951611Y-78554307D01*
X161886068Y-78667832D01*
X161852138Y-78794458D01*
X161850000Y-78859999D01*
X161393606Y-78859999D01*
X161363034Y-78800000D01*
X161337614Y-78750110D01*
X161233483Y-78606786D01*
X161108214Y-78481517D01*
X160964890Y-78377386D01*
X160807042Y-78296957D01*
X160807039Y-78296956D01*
X160638556Y-78242214D01*
X160551067Y-78228357D01*
X160463579Y-78214500D01*
X160286421Y-78214500D01*
X160228095Y-78223738D01*
X160111443Y-78242214D01*
X159942960Y-78296956D01*
X159942957Y-78296957D01*
X159785109Y-78377386D01*
X159703338Y-78436796D01*
X159641786Y-78481517D01*
X159641784Y-78481519D01*
X159641783Y-78481519D01*
X159516519Y-78606783D01*
X159516519Y-78606784D01*
X159516517Y-78606786D01*
X159488028Y-78645998D01*
X159412386Y-78750109D01*
X159331957Y-78907957D01*
X159331956Y-78907960D01*
X159277214Y-79076443D01*
X159277214Y-79076445D01*
X159249500Y-79251421D01*
X155097138Y-79251421D01*
X155136739Y-79166496D01*
X155195635Y-78946692D01*
X155210500Y-78776784D01*
X155210500Y-78663216D01*
X155195635Y-78493308D01*
X155150916Y-78326415D01*
X155136741Y-78273511D01*
X155136738Y-78273502D01*
X155040568Y-78067266D01*
X154910047Y-77880861D01*
X154910045Y-77880858D01*
X154749141Y-77719954D01*
X154562734Y-77589432D01*
X154562732Y-77589431D01*
X154511343Y-77565468D01*
X154458904Y-77519295D01*
X154439752Y-77452102D01*
X154459968Y-77385221D01*
X154505293Y-77343729D01*
X154569783Y-77309259D01*
X154700811Y-77221709D01*
X154777412Y-77158843D01*
X154888843Y-77047412D01*
X154951709Y-76970811D01*
X155039259Y-76839783D01*
X155085972Y-76752389D01*
X155146278Y-76606798D01*
X155175044Y-76511968D01*
X155205787Y-76357410D01*
X155215500Y-76258793D01*
X155215500Y-76101207D01*
X155205787Y-76002590D01*
X155175044Y-75848032D01*
X155146278Y-75753202D01*
X155085972Y-75607611D01*
X155060523Y-75560000D01*
X155039265Y-75520228D01*
X155039263Y-75520226D01*
X155039259Y-75520217D01*
X155032068Y-75509455D01*
X154951721Y-75389206D01*
X154951712Y-75389194D01*
X154951709Y-75389189D01*
X154888843Y-75312588D01*
X154777412Y-75201157D01*
X154700811Y-75138291D01*
X154700804Y-75138286D01*
X154700793Y-75138278D01*
X154569799Y-75050751D01*
X154569788Y-75050744D01*
X154569783Y-75050741D01*
X154538196Y-75033857D01*
X154488353Y-74984895D01*
X154472893Y-74916757D01*
X154496725Y-74851078D01*
X154552283Y-74808709D01*
X154596651Y-74800500D01*
X159729352Y-74800500D01*
X159796391Y-74820185D01*
X159842146Y-74872989D01*
X159852090Y-74942147D01*
X159823065Y-75005703D01*
X159767671Y-75042431D01*
X159575776Y-75104781D01*
X159393386Y-75197715D01*
X159227786Y-75318028D01*
X159083028Y-75462786D01*
X158962715Y-75628386D01*
X158869781Y-75810776D01*
X158806522Y-76005465D01*
X158774500Y-76207648D01*
X158774500Y-76412351D01*
X158806522Y-76614534D01*
X158869781Y-76809223D01*
X158928229Y-76923931D01*
X158953508Y-76973545D01*
X158962715Y-76991613D01*
X159083028Y-77157213D01*
X159227786Y-77301971D01*
X159371990Y-77406739D01*
X159393390Y-77422287D01*
X159477266Y-77465024D01*
X159575776Y-77515218D01*
X159575778Y-77515218D01*
X159575781Y-77515220D01*
X159680137Y-77549127D01*
X159770465Y-77578477D01*
X159839632Y-77589432D01*
X159972648Y-77610500D01*
X159972649Y-77610500D01*
X160177351Y-77610500D01*
X160177352Y-77610500D01*
X160379534Y-77578477D01*
X160574219Y-77515220D01*
X160756610Y-77422287D01*
X160849590Y-77354732D01*
X160922213Y-77301971D01*
X160922215Y-77301968D01*
X160922219Y-77301966D01*
X161066966Y-77157219D01*
X161174843Y-77008736D01*
X161230170Y-76966072D01*
X161279206Y-76957689D01*
X161284452Y-76957860D01*
X161284455Y-76957861D01*
X161350000Y-76960000D01*
X161350001Y-76960000D01*
X162250000Y-76960000D01*
X162315545Y-76957861D01*
X162442167Y-76923933D01*
X162555694Y-76858388D01*
X162648388Y-76765694D01*
X162688283Y-76696594D01*
X162738850Y-76648378D01*
X162807457Y-76635155D01*
X162872322Y-76661124D01*
X162903057Y-76696594D01*
X162951609Y-76780690D01*
X162951611Y-76780693D01*
X162951612Y-76780694D01*
X163044306Y-76873388D01*
X163157833Y-76938932D01*
X163284455Y-76972861D01*
X163350000Y-76975000D01*
X164250000Y-76975000D01*
X164315545Y-76972861D01*
X164315556Y-76972858D01*
X164316616Y-76972701D01*
X164317343Y-76972802D01*
X164322653Y-76972629D01*
X164322682Y-76973545D01*
X164385819Y-76982332D01*
X164435134Y-77022471D01*
X164517293Y-77135553D01*
X164533034Y-77157219D01*
X164677786Y-77301971D01*
X164821990Y-77406739D01*
X164843390Y-77422287D01*
X164927266Y-77465024D01*
X165025776Y-77515218D01*
X165025778Y-77515218D01*
X165025781Y-77515220D01*
X165130137Y-77549127D01*
X165220465Y-77578477D01*
X165289632Y-77589432D01*
X165422648Y-77610500D01*
X165422649Y-77610500D01*
X165627351Y-77610500D01*
X165627352Y-77610500D01*
X165829534Y-77578477D01*
X166024219Y-77515220D01*
X166206610Y-77422287D01*
X166299590Y-77354732D01*
X166372213Y-77301971D01*
X166372215Y-77301968D01*
X166372219Y-77301966D01*
X166516966Y-77157219D01*
X166516968Y-77157215D01*
X166516971Y-77157213D01*
X166596743Y-77047414D01*
X166637287Y-76991610D01*
X166730220Y-76809219D01*
X166793477Y-76614534D01*
X166825500Y-76412352D01*
X166825500Y-76207648D01*
X166812127Y-76123214D01*
X166793477Y-76005465D01*
X166764127Y-75915137D01*
X166730220Y-75810781D01*
X166730218Y-75810778D01*
X166730218Y-75810776D01*
X166690844Y-75733502D01*
X166637287Y-75628390D01*
X166622188Y-75607608D01*
X166516971Y-75462786D01*
X166372213Y-75318028D01*
X166206613Y-75197715D01*
X166206612Y-75197714D01*
X166206610Y-75197713D01*
X166112036Y-75149525D01*
X166024223Y-75104781D01*
X165832329Y-75042431D01*
X165774654Y-75002993D01*
X165747456Y-74938634D01*
X165759371Y-74869788D01*
X165806615Y-74818312D01*
X165870648Y-74800500D01*
X171011775Y-74800500D01*
X171078814Y-74820185D01*
X171124569Y-74872989D01*
X171134513Y-74942147D01*
X171105488Y-75005703D01*
X171064180Y-75036881D01*
X171054747Y-75041280D01*
X171037267Y-75049431D01*
X171037265Y-75049432D01*
X170850858Y-75179954D01*
X170689954Y-75340858D01*
X170559432Y-75527265D01*
X170559431Y-75527267D01*
X170463261Y-75733502D01*
X170463258Y-75733511D01*
X170404366Y-75953302D01*
X170404364Y-75953312D01*
X170389500Y-76123214D01*
X170389500Y-76236785D01*
X170404364Y-76406687D01*
X170404366Y-76406697D01*
X170463258Y-76626488D01*
X170463261Y-76626497D01*
X170559431Y-76832732D01*
X170559432Y-76832734D01*
X170689954Y-77019141D01*
X170850858Y-77180045D01*
X170850861Y-77180047D01*
X171037266Y-77310568D01*
X171095275Y-77337618D01*
X171147714Y-77383791D01*
X171166866Y-77450984D01*
X171146650Y-77517865D01*
X171095275Y-77562381D01*
X171088657Y-77565468D01*
X171037267Y-77589431D01*
X171037265Y-77589432D01*
X170850858Y-77719954D01*
X170689954Y-77880858D01*
X170559432Y-78067265D01*
X170559431Y-78067267D01*
X170463261Y-78273502D01*
X170463258Y-78273511D01*
X170404366Y-78493302D01*
X170404364Y-78493312D01*
X170389500Y-78663214D01*
X170389500Y-78776785D01*
X170404364Y-78946687D01*
X170404366Y-78946697D01*
X170463258Y-79166488D01*
X170463261Y-79166497D01*
X170559431Y-79372732D01*
X170559432Y-79372734D01*
X170689954Y-79559141D01*
X170850858Y-79720045D01*
X170917379Y-79766623D01*
X170961004Y-79821199D01*
X170968198Y-79890698D01*
X170936676Y-79953052D01*
X170876922Y-79988346D01*
X170856970Y-79993438D01*
X170856957Y-79993442D01*
X170783471Y-80023881D01*
X170783443Y-80023893D01*
X170734690Y-80047218D01*
X170734685Y-80047221D01*
X170619621Y-80133358D01*
X170619617Y-80133361D01*
X170563356Y-80189623D01*
X170563340Y-80189640D01*
X170527229Y-80229842D01*
X170453888Y-80353454D01*
X170453884Y-80353461D01*
X170423452Y-80426932D01*
X170423451Y-80426935D01*
X170405455Y-80477946D01*
X170385000Y-80620219D01*
X170385000Y-81010000D01*
X174570839Y-81010000D01*
X174570839Y-81009999D01*
X174554559Y-80928150D01*
X174554556Y-80928139D01*
X174525814Y-80833387D01*
X174465509Y-80687801D01*
X174418844Y-80600498D01*
X174418832Y-80600478D01*
X174331295Y-80469469D01*
X174331291Y-80469463D01*
X174268485Y-80392935D01*
X174157064Y-80281514D01*
X174080536Y-80218708D01*
X174080530Y-80218704D01*
X173949521Y-80131167D01*
X173949501Y-80131155D01*
X173884730Y-80096534D01*
X173834886Y-80047571D01*
X173819426Y-79979434D01*
X173843258Y-79913754D01*
X173890777Y-79874795D01*
X173942734Y-79850568D01*
X174129139Y-79720047D01*
X174290047Y-79559139D01*
X174415216Y-79380376D01*
X174469792Y-79336752D01*
X174516791Y-79327500D01*
X179515501Y-79327500D01*
X179582540Y-79347185D01*
X179628295Y-79399989D01*
X179639501Y-79451500D01*
X179639501Y-79600018D01*
X179650000Y-79702796D01*
X179650001Y-79702799D01*
X179705185Y-79869331D01*
X179705187Y-79869336D01*
X179718363Y-79890698D01*
X179797288Y-80018656D01*
X179921344Y-80142712D01*
X180070666Y-80234814D01*
X180237203Y-80289999D01*
X180339991Y-80300500D01*
X182040008Y-80300499D01*
X182142797Y-80289999D01*
X182309334Y-80234814D01*
X182458656Y-80142712D01*
X182582712Y-80018656D01*
X182674814Y-79869334D01*
X182729999Y-79702797D01*
X182740500Y-79600009D01*
X182740499Y-78599992D01*
X182739701Y-78592184D01*
X182729999Y-78497203D01*
X182729998Y-78497200D01*
X182718206Y-78461614D01*
X182674814Y-78330666D01*
X182582712Y-78181344D01*
X182458656Y-78057288D01*
X182338608Y-77983242D01*
X182309336Y-77965187D01*
X182309331Y-77965185D01*
X182307862Y-77964698D01*
X182142797Y-77910001D01*
X182142795Y-77910000D01*
X182040010Y-77899500D01*
X180339998Y-77899500D01*
X180339981Y-77899501D01*
X180237203Y-77910000D01*
X180237200Y-77910001D01*
X180070668Y-77965185D01*
X180070663Y-77965187D01*
X179921342Y-78057289D01*
X179797289Y-78181342D01*
X179705187Y-78330663D01*
X179705185Y-78330668D01*
X179694757Y-78362138D01*
X179650001Y-78497203D01*
X179650001Y-78497204D01*
X179650000Y-78497204D01*
X179639500Y-78599983D01*
X179639500Y-78748500D01*
X179619815Y-78815539D01*
X179567011Y-78861294D01*
X179515500Y-78872500D01*
X174714500Y-78872500D01*
X174647461Y-78852815D01*
X174601706Y-78800011D01*
X174590500Y-78748500D01*
X174590500Y-78663215D01*
X174590499Y-78663214D01*
X174575635Y-78493308D01*
X174530916Y-78326415D01*
X174516741Y-78273511D01*
X174516738Y-78273502D01*
X174420568Y-78067266D01*
X174290047Y-77880861D01*
X174290045Y-77880858D01*
X174129141Y-77719954D01*
X173942734Y-77589432D01*
X173942728Y-77589429D01*
X173891343Y-77565468D01*
X173884724Y-77562381D01*
X173832285Y-77516210D01*
X173813133Y-77449017D01*
X173833348Y-77382135D01*
X173884725Y-77337618D01*
X173942734Y-77310568D01*
X174129139Y-77180047D01*
X174290047Y-77019139D01*
X174420568Y-76832734D01*
X174516739Y-76626496D01*
X174575635Y-76406692D01*
X174590500Y-76236784D01*
X174590500Y-76123216D01*
X174575635Y-75953308D01*
X174516739Y-75733504D01*
X174420568Y-75527266D01*
X174290047Y-75340861D01*
X174290045Y-75340858D01*
X174129141Y-75179954D01*
X173942734Y-75049432D01*
X173942732Y-75049431D01*
X173925773Y-75041523D01*
X173915819Y-75036881D01*
X173863381Y-74990710D01*
X173844229Y-74923516D01*
X173864445Y-74856635D01*
X173917610Y-74811300D01*
X173968225Y-74800500D01*
X184875500Y-74800500D01*
X184942539Y-74820185D01*
X184988294Y-74872989D01*
X184999500Y-74924500D01*
X184999500Y-132175500D01*
X184979815Y-132242539D01*
X184927011Y-132288294D01*
X184875500Y-132299500D01*
X105314500Y-132299500D01*
X105247461Y-132279815D01*
X105201706Y-132227011D01*
X105190500Y-132175500D01*
X105190500Y-95893713D01*
X105864500Y-95893713D01*
X105864500Y-96106286D01*
X105890953Y-96273308D01*
X105897754Y-96316243D01*
X105939010Y-96443216D01*
X105963444Y-96518414D01*
X106059951Y-96707820D01*
X106184890Y-96879786D01*
X106335213Y-97030109D01*
X106507179Y-97155048D01*
X106507181Y-97155049D01*
X106507184Y-97155051D01*
X106696588Y-97251557D01*
X106898757Y-97317246D01*
X107108713Y-97350500D01*
X107108714Y-97350500D01*
X107321286Y-97350500D01*
X107321287Y-97350500D01*
X107531243Y-97317246D01*
X107733412Y-97251557D01*
X107922816Y-97155051D01*
X107922821Y-97155047D01*
X107925683Y-97153589D01*
X107994352Y-97140693D01*
X108059092Y-97166969D01*
X108069659Y-97176393D01*
X127506181Y-116612914D01*
X127539666Y-116674237D01*
X127542500Y-116700595D01*
X127542500Y-119035601D01*
X127522815Y-119102640D01*
X127470011Y-119148395D01*
X127434693Y-119158539D01*
X127427775Y-119159450D01*
X127427769Y-119159450D01*
X127427762Y-119159452D01*
X127334076Y-119184554D01*
X127206112Y-119218842D01*
X126994123Y-119306650D01*
X126994109Y-119306657D01*
X126795382Y-119421392D01*
X126613338Y-119561081D01*
X126451081Y-119723338D01*
X126311392Y-119905382D01*
X126196657Y-120104109D01*
X126196650Y-120104123D01*
X126108842Y-120316112D01*
X126089002Y-120390157D01*
X126063151Y-120486638D01*
X126049453Y-120537759D01*
X126049451Y-120537770D01*
X126019500Y-120765258D01*
X126019500Y-120994741D01*
X126042588Y-121170104D01*
X126049452Y-121222238D01*
X126080619Y-121338556D01*
X126108842Y-121443887D01*
X126196650Y-121655876D01*
X126196657Y-121655890D01*
X126311392Y-121854617D01*
X126451081Y-122036661D01*
X126451089Y-122036670D01*
X126613330Y-122198911D01*
X126613338Y-122198918D01*
X126795382Y-122338607D01*
X126795385Y-122338608D01*
X126795388Y-122338611D01*
X126994112Y-122453344D01*
X126994117Y-122453346D01*
X126994123Y-122453349D01*
X127072429Y-122485784D01*
X127206113Y-122541158D01*
X127227274Y-122546828D01*
X127286933Y-122583190D01*
X127317464Y-122646036D01*
X127309171Y-122715412D01*
X127264687Y-122769291D01*
X127227274Y-122786377D01*
X127106113Y-122818842D01*
X127106111Y-122818842D01*
X127106110Y-122818843D01*
X126894123Y-122906650D01*
X126894109Y-122906657D01*
X126695382Y-123021392D01*
X126513338Y-123161081D01*
X126351081Y-123323338D01*
X126211392Y-123505382D01*
X126096657Y-123704109D01*
X126096650Y-123704123D01*
X126008842Y-123916112D01*
X125980618Y-124021447D01*
X125949452Y-124137762D01*
X125948540Y-124144685D01*
X125920277Y-124208579D01*
X125861954Y-124247052D01*
X125825602Y-124252500D01*
X120140596Y-124252500D01*
X120073557Y-124232815D01*
X120052915Y-124216181D01*
X108491393Y-112654659D01*
X108457908Y-112593336D01*
X108462892Y-112523644D01*
X108468589Y-112510683D01*
X108470048Y-112507820D01*
X108470051Y-112507816D01*
X108566557Y-112318412D01*
X108632246Y-112116243D01*
X108665500Y-111906287D01*
X108665500Y-111693713D01*
X108632246Y-111483757D01*
X108566557Y-111281588D01*
X108470051Y-111092184D01*
X108470049Y-111092181D01*
X108470048Y-111092179D01*
X108345109Y-110920213D01*
X108194786Y-110769890D01*
X108022820Y-110644951D01*
X107833414Y-110548444D01*
X107833413Y-110548443D01*
X107833412Y-110548443D01*
X107631243Y-110482754D01*
X107631241Y-110482753D01*
X107631240Y-110482753D01*
X107469957Y-110457208D01*
X107421287Y-110449500D01*
X107208713Y-110449500D01*
X107160042Y-110457208D01*
X106998760Y-110482753D01*
X106796585Y-110548444D01*
X106607179Y-110644951D01*
X106435213Y-110769890D01*
X106284890Y-110920213D01*
X106159951Y-111092179D01*
X106063444Y-111281585D01*
X106063443Y-111281587D01*
X106063443Y-111281588D01*
X106059572Y-111293502D01*
X105997753Y-111483760D01*
X105964500Y-111693713D01*
X105964500Y-111906286D01*
X105991348Y-112075802D01*
X105997754Y-112116243D01*
X106053052Y-112286433D01*
X106063444Y-112318414D01*
X106159951Y-112507820D01*
X106284890Y-112679786D01*
X106435213Y-112830109D01*
X106607179Y-112955048D01*
X106607181Y-112955049D01*
X106607184Y-112955051D01*
X106796588Y-113051557D01*
X106998757Y-113117246D01*
X107208713Y-113150500D01*
X107208714Y-113150500D01*
X107421286Y-113150500D01*
X107421287Y-113150500D01*
X107631243Y-113117246D01*
X107833412Y-113051557D01*
X108022816Y-112955051D01*
X108022821Y-112955047D01*
X108025683Y-112953589D01*
X108094352Y-112940693D01*
X108159092Y-112966969D01*
X108169659Y-112976393D01*
X119866134Y-124672868D01*
X119930801Y-124699652D01*
X119949747Y-124707500D01*
X125825602Y-124707500D01*
X125892641Y-124727185D01*
X125938396Y-124779989D01*
X125948540Y-124815311D01*
X125949451Y-124822229D01*
X125949452Y-124822238D01*
X125949453Y-124822240D01*
X126008842Y-125043887D01*
X126096650Y-125255876D01*
X126096657Y-125255890D01*
X126211392Y-125454617D01*
X126351081Y-125636661D01*
X126351089Y-125636670D01*
X126513330Y-125798911D01*
X126513338Y-125798918D01*
X126695382Y-125938607D01*
X126695385Y-125938608D01*
X126695388Y-125938611D01*
X126894112Y-126053344D01*
X126894117Y-126053346D01*
X126894123Y-126053349D01*
X126985480Y-126091190D01*
X127106113Y-126141158D01*
X127327762Y-126200548D01*
X127555266Y-126230500D01*
X127555273Y-126230500D01*
X127784727Y-126230500D01*
X127784734Y-126230500D01*
X128012238Y-126200548D01*
X128233887Y-126141158D01*
X128445888Y-126053344D01*
X128644612Y-125938611D01*
X128826661Y-125798919D01*
X128826665Y-125798914D01*
X128826670Y-125798911D01*
X128988911Y-125636670D01*
X128988914Y-125636665D01*
X128988919Y-125636661D01*
X129128611Y-125454612D01*
X129243344Y-125255888D01*
X129331158Y-125043887D01*
X129390548Y-124822238D01*
X129420500Y-124594734D01*
X129420500Y-124365266D01*
X129390548Y-124137762D01*
X129331158Y-123916113D01*
X129243344Y-123704112D01*
X129128611Y-123505388D01*
X129128608Y-123505385D01*
X129128607Y-123505382D01*
X128988918Y-123323338D01*
X128988911Y-123323330D01*
X128826670Y-123161089D01*
X128826661Y-123161081D01*
X128644617Y-123021392D01*
X128445890Y-122906657D01*
X128445876Y-122906650D01*
X128233889Y-122818843D01*
X128233890Y-122818843D01*
X128233887Y-122818842D01*
X128212722Y-122813171D01*
X128153064Y-122776807D01*
X128122535Y-122713960D01*
X128130830Y-122644584D01*
X128175315Y-122590706D01*
X128212720Y-122573624D01*
X128333887Y-122541158D01*
X128545888Y-122453344D01*
X128744612Y-122338611D01*
X128926661Y-122198919D01*
X128926665Y-122198914D01*
X128926670Y-122198911D01*
X129088911Y-122036670D01*
X129088914Y-122036665D01*
X129088919Y-122036661D01*
X129228611Y-121854612D01*
X129343344Y-121655888D01*
X129431158Y-121443887D01*
X129490548Y-121222238D01*
X129520500Y-120994734D01*
X129520500Y-120765266D01*
X129490548Y-120537762D01*
X129431158Y-120316113D01*
X129381190Y-120195480D01*
X129343349Y-120104123D01*
X129343346Y-120104117D01*
X129343344Y-120104112D01*
X129228611Y-119905388D01*
X129228608Y-119905385D01*
X129228607Y-119905382D01*
X129088918Y-119723338D01*
X129088911Y-119723330D01*
X128926670Y-119561089D01*
X128926661Y-119561081D01*
X128744617Y-119421392D01*
X128545890Y-119306657D01*
X128545876Y-119306650D01*
X128333887Y-119218842D01*
X128112238Y-119159452D01*
X128112226Y-119159450D01*
X128112224Y-119159450D01*
X128105307Y-119158539D01*
X128041412Y-119130269D01*
X128002945Y-119071942D01*
X127997500Y-119035601D01*
X127997500Y-116509748D01*
X127997498Y-116509743D01*
X127962868Y-116426134D01*
X112774416Y-101237682D01*
X127700000Y-101237682D01*
X127700000Y-101442317D01*
X127732009Y-101644417D01*
X127795244Y-101839031D01*
X127888141Y-102021350D01*
X127888147Y-102021359D01*
X127920523Y-102065921D01*
X127920524Y-102065922D01*
X128600000Y-101386446D01*
X128600000Y-101392661D01*
X128627259Y-101494394D01*
X128679920Y-101585606D01*
X128754394Y-101660080D01*
X128845606Y-101712741D01*
X128947339Y-101740000D01*
X128953553Y-101740000D01*
X128274076Y-102419474D01*
X128318650Y-102451859D01*
X128500968Y-102544755D01*
X128695582Y-102607990D01*
X128897683Y-102640000D01*
X129102317Y-102640000D01*
X129304417Y-102607990D01*
X129499031Y-102544755D01*
X129681349Y-102451859D01*
X129725921Y-102419474D01*
X129046447Y-101740000D01*
X129052661Y-101740000D01*
X129154394Y-101712741D01*
X129245606Y-101660080D01*
X129320080Y-101585606D01*
X129372741Y-101494394D01*
X129400000Y-101392661D01*
X129400000Y-101386447D01*
X130079474Y-102065921D01*
X130111859Y-102021349D01*
X130204755Y-101839031D01*
X130267990Y-101644417D01*
X130300000Y-101442317D01*
X130300000Y-101237682D01*
X130267990Y-101035582D01*
X130204755Y-100840968D01*
X130111859Y-100658650D01*
X130079474Y-100614077D01*
X130079474Y-100614076D01*
X129400000Y-101293551D01*
X129400000Y-101287339D01*
X129372741Y-101185606D01*
X129320080Y-101094394D01*
X129245606Y-101019920D01*
X129154394Y-100967259D01*
X129052661Y-100940000D01*
X129046446Y-100940000D01*
X129725922Y-100260524D01*
X129725921Y-100260523D01*
X129681359Y-100228147D01*
X129681350Y-100228141D01*
X129499031Y-100135244D01*
X129304417Y-100072009D01*
X129102317Y-100040000D01*
X128897683Y-100040000D01*
X128695582Y-100072009D01*
X128500968Y-100135244D01*
X128318644Y-100228143D01*
X128274077Y-100260523D01*
X128274077Y-100260524D01*
X128953554Y-100940000D01*
X128947339Y-100940000D01*
X128845606Y-100967259D01*
X128754394Y-101019920D01*
X128679920Y-101094394D01*
X128627259Y-101185606D01*
X128600000Y-101287339D01*
X128600000Y-101293553D01*
X127920524Y-100614077D01*
X127920523Y-100614077D01*
X127888143Y-100658644D01*
X127795244Y-100840968D01*
X127732009Y-101035582D01*
X127700000Y-101237682D01*
X112774416Y-101237682D01*
X108391393Y-96854659D01*
X108357908Y-96793336D01*
X108362892Y-96723644D01*
X108368589Y-96710683D01*
X108370048Y-96707820D01*
X108370051Y-96707816D01*
X108466557Y-96518412D01*
X108532246Y-96316243D01*
X108565500Y-96106287D01*
X108565500Y-95893713D01*
X108532246Y-95683757D01*
X108466557Y-95481588D01*
X108370051Y-95292184D01*
X108370049Y-95292181D01*
X108370048Y-95292179D01*
X108245109Y-95120213D01*
X108094786Y-94969890D01*
X107922820Y-94844951D01*
X107733414Y-94748444D01*
X107733413Y-94748443D01*
X107733412Y-94748443D01*
X107531243Y-94682754D01*
X107531241Y-94682753D01*
X107531240Y-94682753D01*
X107369957Y-94657208D01*
X107321287Y-94649500D01*
X107108713Y-94649500D01*
X107060042Y-94657208D01*
X106898760Y-94682753D01*
X106696585Y-94748444D01*
X106507179Y-94844951D01*
X106335213Y-94969890D01*
X106184890Y-95120213D01*
X106059951Y-95292179D01*
X105963444Y-95481585D01*
X105963443Y-95481587D01*
X105963443Y-95481588D01*
X105930598Y-95582672D01*
X105897753Y-95683760D01*
X105864500Y-95893713D01*
X105190500Y-95893713D01*
X105190500Y-74924500D01*
X105210185Y-74857461D01*
X105262989Y-74811706D01*
X105314500Y-74800500D01*
X151204015Y-74800500D01*
X151271054Y-74820185D01*
G37*
%TD.AperFunction*%
%TA.AperFunction,Conductor*%
G36*
X114445270Y-80061717D02*
G01*
X114445270Y-80061716D01*
X114484622Y-80007555D01*
X114489232Y-79998507D01*
X114537205Y-79947709D01*
X114605025Y-79930912D01*
X114671161Y-79953447D01*
X114710204Y-79998504D01*
X114714949Y-80007817D01*
X114839890Y-80179786D01*
X114990213Y-80330109D01*
X115162179Y-80455048D01*
X115162181Y-80455049D01*
X115162184Y-80455051D01*
X115351588Y-80551557D01*
X115553757Y-80617246D01*
X115763713Y-80650500D01*
X115763714Y-80650500D01*
X115976286Y-80650500D01*
X115976287Y-80650500D01*
X116186243Y-80617246D01*
X116388412Y-80551557D01*
X116577816Y-80455051D01*
X116577821Y-80455047D01*
X116580683Y-80453589D01*
X116649352Y-80440693D01*
X116714092Y-80466969D01*
X116724659Y-80476393D01*
X135481134Y-99232868D01*
X135545801Y-99259652D01*
X135564747Y-99267500D01*
X135655253Y-99267500D01*
X150929433Y-99267500D01*
X150996472Y-99287185D01*
X151042227Y-99339989D01*
X151049208Y-99359407D01*
X151083258Y-99486488D01*
X151083261Y-99486497D01*
X151179431Y-99692732D01*
X151179432Y-99692734D01*
X151309954Y-99879141D01*
X151471632Y-100040819D01*
X151505117Y-100102142D01*
X151500133Y-100171834D01*
X151458261Y-100227767D01*
X151392797Y-100252184D01*
X151383951Y-100252500D01*
X135645595Y-100252500D01*
X135578556Y-100232815D01*
X135557914Y-100216181D01*
X122648870Y-87307136D01*
X122565253Y-87272500D01*
X115645595Y-87272500D01*
X115578556Y-87252815D01*
X115557914Y-87236181D01*
X109112524Y-80790791D01*
X109079039Y-80729468D01*
X109084023Y-80659776D01*
X109125895Y-80603843D01*
X109161202Y-80585404D01*
X109164982Y-80584152D01*
X109315811Y-80491119D01*
X109441119Y-80365811D01*
X109534152Y-80214982D01*
X109536867Y-80206786D01*
X109576637Y-80149343D01*
X109641152Y-80122518D01*
X109709928Y-80134832D01*
X109754890Y-80172903D01*
X109759892Y-80179788D01*
X109910213Y-80330109D01*
X110082179Y-80455048D01*
X110082181Y-80455049D01*
X110082184Y-80455051D01*
X110271588Y-80551557D01*
X110473757Y-80617246D01*
X110683713Y-80650500D01*
X110683714Y-80650500D01*
X110896286Y-80650500D01*
X110896287Y-80650500D01*
X111106243Y-80617246D01*
X111308412Y-80551557D01*
X111497816Y-80455051D01*
X111547487Y-80418963D01*
X111669786Y-80330109D01*
X111669788Y-80330106D01*
X111669792Y-80330104D01*
X111820104Y-80179792D01*
X111820106Y-80179788D01*
X111820109Y-80179786D01*
X111905890Y-80061717D01*
X111945051Y-80007816D01*
X111949793Y-79998508D01*
X111997763Y-79947711D01*
X112065583Y-79930911D01*
X112131719Y-79953445D01*
X112170763Y-79998500D01*
X112175373Y-80007547D01*
X112214728Y-80061716D01*
X112847037Y-79429408D01*
X112864075Y-79492993D01*
X112929901Y-79607007D01*
X113022993Y-79700099D01*
X113137007Y-79765925D01*
X113200590Y-79782962D01*
X112568282Y-80415269D01*
X112568282Y-80415270D01*
X112622449Y-80454624D01*
X112811782Y-80551095D01*
X113013870Y-80616757D01*
X113223754Y-80650000D01*
X113436246Y-80650000D01*
X113646127Y-80616757D01*
X113646130Y-80616757D01*
X113848217Y-80551095D01*
X114037554Y-80454622D01*
X114091716Y-80415270D01*
X114091717Y-80415270D01*
X113459408Y-79782962D01*
X113522993Y-79765925D01*
X113637007Y-79700099D01*
X113730099Y-79607007D01*
X113795925Y-79492993D01*
X113812962Y-79429408D01*
X114445270Y-80061717D01*
G37*
%TD.AperFunction*%
%TD*%
M02*
