M48
; DRILL file KiCad 10.0.3 date 2026-08-20T15:09:09
; FORMAT={-:-/ absolute / metric / decimal}
; #@! TF.CreationDate,2026-08-20T15:09:09-07:00
; #@! TF.GenerationSoftware,Kicad,Pcbnew,10.0.3
; #@! TF.FileFunction,Plated,1,2,PTH
FMAT,2
METRIC
; #@! TA.AperFunction,Plated,PTH,ViaDrill
T1C0.300
; #@! TA.AperFunction,Plated,PTH,ComponentDrill
T2C0.800
; #@! TA.AperFunction,Plated,PTH,ComponentDrill
T3C1.000
; #@! TA.AperFunction,Plated,PTH,ComponentDrill
T4C1.100
; #@! TA.AperFunction,Plated,PTH,ComponentDrill
T5C1.200
; #@! TA.AperFunction,Plated,PTH,ComponentDrill
T6C1.500
%
G90
G05
T1
X110.19Y-124.3
X111.19Y-87.3
X111.19Y-107.8
X120.69Y-119.8
X124.69Y-103.8
X128.19Y-86.8
X143.69Y-112.3
X152.19Y-129.8
X165.19Y-111.8
X166.19Y-84.3
X176.19Y-97.8
X176.69Y-86.3
X177.19Y-114.3
X180.5Y-129.3
X183.19Y-102.8
T2
X129.0Y-101.34
X129.0Y-111.5
X180.19Y-92.6
X180.19Y-94.6
X180.19Y-96.6
T3
X107.215Y-96.0
X107.315Y-111.8
X108.25Y-79.3
X110.79Y-79.3
X113.33Y-79.3
X115.87Y-79.3
X118.41Y-79.3
X120.95Y-79.3
X123.49Y-79.3
X126.03Y-79.3
X128.57Y-79.3
X131.11Y-79.3
X133.65Y-79.3
X136.19Y-79.3
X140.19Y-115.06
X140.19Y-117.6
X140.19Y-120.14
X140.19Y-122.68
X140.19Y-125.22
X140.19Y-127.76
X140.19Y-130.3
T4
X178.5Y-105.0
X178.5Y-111.5
X183.0Y-105.0
X183.0Y-111.5
T5
X127.67Y-124.48
X127.77Y-120.88
T6
X180.19Y-90.5
X180.19Y-98.7
M30
