M48
; DRILL file KiCad 10.0.3 date 2026-07-02T21:03:27
; FORMAT={-:-/ absolute / metric / decimal}
; #@! TF.CreationDate,2026-07-02T21:03:27+03:00
; #@! TF.GenerationSoftware,Kicad,Pcbnew,10.0.3
; #@! TF.FileFunction,Plated,1,2,PTH
FMAT,2
METRIC
; #@! TA.AperFunction,Plated,PTH,ViaDrill
T1C0.300
; #@! TA.AperFunction,Plated,PTH,ComponentDrill
T2C0.800
; #@! TA.AperFunction,Plated,PTH,ComponentDrill
T3C1.000
; #@! TA.AperFunction,Plated,PTH,ComponentDrill
T4C1.200
; #@! TA.AperFunction,Plated,PTH,ComponentDrill
T5C1.500
%
G90
G05
T1
X134.87Y-104.18
X136.25Y-72.41
X141.12Y-118.2
X141.14Y-120.77
X146.51Y-103.95
X148.21Y-72.28
X179.6Y-87.52
X181.65Y-114.65
X183.15Y-78.15
T2
X127.15Y-70.14
X129.15Y-70.14
X131.15Y-70.14
T3
X128.15Y-80.65
X128.25Y-96.45
X135.07Y-106.83
X135.07Y-109.37
X135.07Y-111.91
X135.07Y-114.45
X135.07Y-116.99
X135.07Y-119.53
X135.07Y-122.07
X157.65Y-72.21
X157.65Y-74.75
X157.65Y-77.29
X157.65Y-79.83
X157.65Y-82.37
X157.65Y-84.91
X157.65Y-87.45
X157.65Y-89.99
X157.65Y-92.53
X157.65Y-95.07
X157.65Y-97.61
X157.65Y-100.15
X157.65Y-102.69
X157.65Y-105.23
X157.65Y-107.77
X157.65Y-110.31
X157.65Y-112.85
X157.65Y-115.39
X157.65Y-117.93
X157.65Y-120.47
X175.43Y-72.21
X175.43Y-74.75
X175.43Y-77.29
X175.43Y-79.83
X175.43Y-82.37
X175.43Y-84.91
X175.43Y-87.45
X175.43Y-89.99
X175.43Y-92.53
X175.43Y-95.07
X175.43Y-97.61
X175.43Y-100.15
X175.43Y-102.69
X175.43Y-105.23
X175.43Y-107.77
X175.43Y-110.31
X175.43Y-112.85
X175.43Y-115.39
X175.43Y-117.93
X175.43Y-120.47
X182.67Y-84.34
X182.67Y-86.88
X182.67Y-89.42
X182.67Y-91.96
X182.67Y-94.5
X182.67Y-97.04
X182.67Y-99.58
X182.67Y-102.12
X182.67Y-104.66
X182.67Y-107.2
X182.67Y-109.74
X182.67Y-112.28
T4
X122.55Y-116.25
X122.65Y-112.65
T5
X125.05Y-70.14
X133.25Y-70.14
M30
